<svg width="711" height="1024" viewBox="0 0 711 1024" fill="none" xmlns="http://www.w3.org/2000/svg">
<g clip-path="url(#clip0_4180_64675)">
<rect width="710" height="1024" transform="translate(0.612305)" fill="#714DD9"/>
<g clip-path="url(#clip1_4180_64675)">
<path fill-rule="evenodd" clip-rule="evenodd" d="M76.3144 9.98401L71.7382 -7.01066L49.766 -1.09419L61.1191 -20.8145L45.8663 -29.5957L34.5131 -9.87537L28.5966 -31.8477L11.6019 -27.2715L17.5184 -5.29926L-2.2017 -16.6525L-10.9832 -1.39952L8.7373 9.95359L-13.2351 15.8701L-8.65896 32.8648L13.3135 26.9483L1.96013 46.6688L17.2129 55.45L28.5662 35.7294L34.4827 57.7018L51.4774 53.1257L45.5608 31.1532L65.2813 42.5066L74.0625 27.2538L54.3421 15.9005L76.3144 9.98401Z" fill="#714DD9"/>
<path fill-rule="evenodd" clip-rule="evenodd" d="M76.3144 9.98401L71.7382 -7.01066L49.766 -1.09419L61.1191 -20.8145L45.8663 -29.5957L34.5131 -9.87537L28.5966 -31.8477L11.6019 -27.2715L17.5184 -5.29926L-2.2017 -16.6525L-10.9832 -1.39952L8.7373 9.95359L-13.2351 15.8701L-8.65896 32.8648L13.3135 26.9483L1.96013 46.6688L17.2129 55.45L28.5662 35.7294L34.4827 57.7018L51.4774 53.1257L45.5608 31.1532L65.2813 42.5066L74.0625 27.2538L54.3421 15.9005L76.3144 9.98401Z" fill="white" fill-opacity="0.8"/>
</g>
<g clip-path="url(#clip2_4180_64675)">
<path d="M293.613 82.9998L298.733 98.6798L309.613 111L293.613 107.64L277.613 111L288.493 98.6798L293.613 82.9998Z" fill="#714DD9"/>
<path d="M293.613 82.9998L298.733 98.6798L309.613 111L293.613 107.64L277.613 111L288.493 98.6798L293.613 82.9998Z" fill="black" fill-opacity="0.2"/>
</g>
<g clip-path="url(#clip3_4180_64675)">
<path fill-rule="evenodd" clip-rule="evenodd" d="M724.314 989.984L719.738 972.989L697.766 978.906L709.119 959.185L693.866 950.404L682.513 970.125L676.597 948.152L659.602 952.728L665.518 974.701L645.798 963.348L637.017 978.6L656.737 989.954L634.765 995.87L639.341 1012.86L661.313 1006.95L649.96 1026.67L665.213 1035.45L676.566 1015.73L682.483 1037.7L699.477 1033.13L693.561 1011.15L713.281 1022.51L722.063 1007.25L702.342 995.9L724.314 989.984Z" fill="#714DD9"/>
<path fill-rule="evenodd" clip-rule="evenodd" d="M724.314 989.984L719.738 972.989L697.766 978.906L709.119 959.185L693.866 950.404L682.513 970.125L676.597 948.152L659.602 952.728L665.518 974.701L645.798 963.348L637.017 978.6L656.737 989.954L634.765 995.87L639.341 1012.86L661.313 1006.95L649.96 1026.67L665.213 1035.45L676.566 1015.73L682.483 1037.7L699.477 1033.13L693.561 1011.15L713.281 1022.51L722.063 1007.25L702.342 995.9L724.314 989.984Z" fill="white" fill-opacity="0.8"/>
</g>
<rect x="-13.3877" y="957" width="300" height="300" rx="150" fill="#714DD9"/>
<rect x="-13.3877" y="957" width="300" height="300" rx="150" fill="black" fill-opacity="0.2"/>
<rect x="436.612" y="-203" width="300" height="300" rx="150" fill="#714DD9"/>
<rect x="436.612" y="-203" width="300" height="300" rx="150" fill="black" fill-opacity="0.2"/>
<path d="M526.708 363.291L520.985 365.336L518.529 357.858C514.018 344.068 499.639 336.745 486.427 341.401C473.215 346.057 466.181 361.18 470.692 374.97L473.148 382.448L467.403 384.504C465.213 385.354 463.434 387.015 462.436 389.142C461.439 391.27 461.299 393.7 462.047 395.927L477.971 444.586C478.301 445.689 478.85 446.714 479.585 447.6C480.319 448.487 481.224 449.216 482.246 449.746C483.268 450.276 484.386 450.595 485.534 450.684C486.682 450.773 487.836 450.63 488.927 450.265L548.232 429.052C550.451 428.204 552.255 426.528 553.265 424.377C554.274 422.225 554.41 419.767 553.643 417.518L537.709 368.858C537.37 367.759 536.812 366.739 536.07 365.859C535.328 364.98 534.417 364.259 533.39 363.739C532.364 363.219 531.243 362.912 530.095 362.835C528.946 362.758 527.795 362.913 526.708 363.291ZM481.504 371.07C480.288 367.484 480.506 363.567 482.114 360.139C483.721 356.71 486.593 354.037 490.127 352.679C491.872 352.082 493.72 351.843 495.56 351.975C497.4 352.108 499.194 352.61 500.836 353.451C502.477 354.292 503.933 355.455 505.115 356.871C506.297 358.286 507.183 359.926 507.717 361.691L510.162 369.169L483.949 378.548L481.504 371.07ZM514.84 414.251L518.907 426.674C518.982 426.923 518.958 427.191 518.84 427.423C518.722 427.655 518.519 427.832 518.274 427.918L512.573 429.952C512.347 430.015 512.104 429.987 511.897 429.876C511.69 429.764 511.534 429.576 511.462 429.352L507.362 416.984C505.101 416.861 502.932 416.05 501.144 414.66C499.357 413.27 498.037 411.367 497.361 409.206C496.395 406.349 496.571 403.229 497.853 400.499C499.135 397.769 501.424 395.641 504.239 394.56C505.63 394.085 507.101 393.895 508.567 394.001C510.032 394.107 511.461 394.507 512.769 395.176C514.076 395.846 515.235 396.772 516.177 397.9C517.119 399.027 517.825 400.333 518.252 401.739C518.967 403.934 519.026 406.29 518.422 408.518C517.818 410.747 516.577 412.75 514.851 414.284L514.84 414.251Z" fill="#F7941F"/>
<path d="M520.729 365.203C520.729 365.358 510.117 369.348 496.916 374.092C483.715 378.837 472.947 382.649 472.892 382.538C472.836 382.426 483.504 378.404 496.716 373.648C509.928 368.892 520.673 365.058 520.729 365.203Z" fill="#263238"/>
<path d="M533.33 367.247C533.379 367.344 533.42 367.444 533.453 367.547C533.542 367.769 533.642 368.058 533.775 368.414C534.064 369.225 534.464 370.347 534.964 371.747L539.231 384.171C541.009 389.438 543.131 395.683 545.487 402.616C546.598 406.094 547.909 409.717 549.132 413.528C549.786 415.492 550.069 417.561 549.965 419.629C549.871 420.704 549.565 421.75 549.065 422.707C548.531 423.66 547.818 424.502 546.965 425.185C545.248 426.438 543.343 427.41 541.32 428.063L535.597 430.119L524.763 433.997L506.417 440.53L494.027 444.886L490.694 445.998L489.805 446.286C489.71 446.329 489.608 446.355 489.505 446.364C489.505 446.364 489.594 446.364 489.783 446.231L490.649 445.886L493.983 444.631L506.306 440.097L524.619 433.43L535.431 429.519L541.153 427.452C543.118 426.825 544.969 425.883 546.631 424.663C547.425 424.029 548.089 423.248 548.587 422.362C549.058 421.478 549.341 420.506 549.421 419.507C549.523 417.514 549.252 415.521 548.621 413.628C547.42 409.85 546.154 406.195 545.009 402.716C542.698 395.771 540.564 389.504 538.875 384.237C537.186 378.97 535.764 374.737 534.786 371.759C534.319 370.303 533.964 369.169 533.675 368.347L533.408 367.458C533.375 367.391 533.349 367.32 533.33 367.247Z" fill="#263238"/>
<path d="M502.039 351.923C502.039 351.923 501.45 351.635 500.361 351.19C498.809 350.594 497.168 350.263 495.505 350.212C493.042 350.128 490.59 350.591 488.327 351.568C485.575 352.785 483.222 354.753 481.538 357.246C479.842 359.732 478.932 362.671 478.926 365.68C478.95 368.147 479.324 370.597 480.038 372.958C480.615 374.981 481.215 376.592 481.615 377.714C481.851 378.284 482.045 378.871 482.193 379.47C481.878 378.937 481.613 378.375 481.404 377.792C480.949 376.681 480.293 375.103 479.649 373.069C478.858 370.684 478.427 368.193 478.371 365.68C478.341 362.557 479.272 359.5 481.038 356.924C482.781 354.339 485.23 352.31 488.094 351.079C490.427 350.096 492.956 349.663 495.483 349.812C497.181 349.899 498.849 350.294 500.406 350.979C500.822 351.171 501.223 351.394 501.606 351.646C501.764 351.715 501.91 351.809 502.039 351.923Z" fill="#263238"/>
<path d="M502.317 413.35C502.495 413.242 502.68 413.15 502.873 413.072C503.429 412.821 504.005 412.617 504.595 412.461C505.532 412.185 506.498 412.02 507.473 411.972C508.8 411.901 510.127 412.101 511.374 412.561C514.218 413.561 516.829 416.461 518.118 420.339C518.737 422.421 518.737 424.636 518.118 426.718C517.433 428.976 516.205 431.033 514.54 432.707L514.607 432.407C516.085 436.463 517.696 440.863 519.363 445.452L519.463 445.73L519.185 445.83L516.641 446.675L511.085 448.53L510.807 448.619L510.718 448.342C509.196 443.741 507.529 439.452 506.273 435.241L506.518 435.429C504.345 435.249 502.274 434.434 500.562 433.085C499.012 431.892 497.742 430.375 496.839 428.64C496.024 427.102 495.619 425.38 495.661 423.64C495.713 421.861 496.157 420.116 496.962 418.529C497.767 416.942 498.912 415.553 500.317 414.461C500.895 413.992 501.544 413.617 502.24 413.35C501.612 413.722 501.004 414.127 500.417 414.561C498.874 415.867 497.692 417.546 496.984 419.439C496.376 420.867 496.091 422.411 496.151 423.962C496.21 425.512 496.612 427.03 497.328 428.407C498.216 430.075 499.456 431.531 500.962 432.674C502.595 433.956 504.57 434.729 506.64 434.896H506.829L506.884 435.063C508.107 439.196 509.785 443.519 511.329 448.142L510.962 447.964L516.518 446.108L519.052 445.252L518.874 445.63C517.218 441.041 515.618 436.63 514.152 432.574V432.407L514.285 432.274C515.9 430.669 517.105 428.698 517.796 426.529C518.386 424.538 518.386 422.419 517.796 420.428C516.585 416.695 514.085 413.861 511.374 412.861C510.173 412.398 508.892 412.183 507.607 412.228C506.647 412.25 505.692 412.38 504.762 412.617C503.106 413.028 502.328 413.406 502.317 413.35Z" fill="#263238"/>
<path d="M448.923 723.934L337.926 723.423C331.516 723.388 325.382 720.81 320.871 716.256C316.36 711.701 313.842 705.543 313.868 699.133L315.046 420.878C315.059 417.702 315.698 414.56 316.926 411.631C318.154 408.703 319.948 406.045 322.204 403.81C324.459 401.574 327.134 399.806 330.074 398.604C333.014 397.403 336.161 396.793 339.337 396.809L450.323 397.321C456.733 397.353 462.868 399.928 467.381 404.48C471.894 409.033 474.415 415.19 474.392 421.6L473.214 699.844C473.201 703.021 472.562 706.164 471.334 709.094C470.106 712.023 468.314 714.683 466.058 716.92C463.802 719.157 461.128 720.928 458.188 722.131C455.248 723.335 452.1 723.948 448.923 723.934Z" fill="#455A64"/>
<path d="M450.156 406.888H428.643C427.941 406.901 427.249 407.052 426.605 407.333C425.962 407.613 425.38 408.018 424.893 408.524C424.406 409.029 424.023 409.626 423.767 410.279C423.51 410.933 423.385 411.631 423.398 412.332V416.233C423.411 416.934 423.286 417.631 423.03 418.284C422.773 418.937 422.39 419.533 421.903 420.038C421.416 420.542 420.834 420.946 420.19 421.226C419.547 421.505 418.855 421.655 418.153 421.667L376.217 421.478C374.798 421.44 373.452 420.84 372.475 419.811C371.498 418.782 370.969 417.407 371.005 415.988V412.088C371.041 410.671 370.514 409.298 369.539 408.269C368.564 407.24 367.222 406.639 365.805 406.599H358.238L339.403 406.51C334.923 406.483 330.615 408.233 327.422 411.375C324.23 414.518 322.412 418.798 322.368 423.278L321.257 694.876C321.247 697.099 321.674 699.302 322.515 701.359C323.356 703.416 324.594 705.287 326.159 706.866C327.723 708.445 329.583 709.7 331.632 710.56C333.682 711.42 335.88 711.867 338.103 711.878L448.867 712.389C451.091 712.399 453.295 711.971 455.353 711.13C457.412 710.288 459.285 709.049 460.864 707.484C462.444 705.919 463.7 704.057 464.56 702.007C465.421 699.956 465.869 697.756 465.879 695.532L466.99 423.933C467.017 419.441 465.259 415.122 462.102 411.925C458.945 408.729 454.648 406.917 450.156 406.888Z" fill="white"/>
<path d="M435.256 676.153L352.894 675.797C352.038 675.797 351.349 674.864 351.36 673.731L351.449 652.184C351.449 651.073 352.149 650.118 353.005 650.118L435.367 650.495C435.841 650.577 436.265 650.839 436.551 651.226C436.837 651.614 436.962 652.096 436.9 652.573L436.823 674.097C436.823 675.242 436.111 676.164 435.256 676.153Z" fill="#F7941F"/>
<path d="M377.048 657.501C377.033 657.368 376.969 657.265 376.857 657.191C376.745 657.118 376.607 657.081 376.444 657.081C376.325 657.081 376.221 657.1 376.131 657.139C376.043 657.177 375.974 657.23 375.924 657.298C375.875 657.365 375.85 657.442 375.85 657.528C375.85 657.599 375.867 657.661 375.901 657.713C375.936 657.764 375.981 657.806 376.035 657.84C376.09 657.874 376.147 657.901 376.206 657.923C376.266 657.944 376.321 657.961 376.37 657.974L376.644 658.048C376.714 658.066 376.792 658.092 376.878 658.124C376.964 658.157 377.047 658.201 377.126 658.257C377.206 658.312 377.271 658.383 377.323 658.47C377.375 658.556 377.401 658.663 377.401 658.789C377.401 658.934 377.363 659.066 377.286 659.183C377.211 659.301 377.101 659.394 376.955 659.463C376.811 659.532 376.635 659.567 376.428 659.567C376.236 659.567 376.069 659.536 375.928 659.474C375.788 659.411 375.677 659.325 375.597 659.213C375.517 659.102 375.472 658.973 375.461 658.826H375.798C375.806 658.927 375.841 659.011 375.9 659.078C375.961 659.144 376.037 659.193 376.129 659.225C376.222 659.257 376.321 659.273 376.428 659.273C376.553 659.273 376.664 659.252 376.763 659.212C376.862 659.171 376.941 659.114 376.999 659.041C377.056 658.968 377.085 658.882 377.085 658.784C377.085 658.694 377.06 658.622 377.01 658.566C376.96 658.51 376.895 658.464 376.813 658.429C376.732 658.394 376.644 658.363 376.549 658.337L376.218 658.242C376.008 658.182 375.841 658.096 375.719 657.984C375.596 657.871 375.535 657.725 375.535 657.543C375.535 657.393 375.576 657.261 375.657 657.149C375.739 657.036 375.85 656.949 375.988 656.886C376.127 656.823 376.283 656.792 376.455 656.792C376.628 656.792 376.782 656.823 376.917 656.885C377.052 656.946 377.159 657.03 377.238 657.137C377.317 657.244 377.359 657.366 377.364 657.501H377.048ZM378.262 656.829V659.52H377.936V656.829H378.262ZM381.05 656.829V659.52H380.734L379.268 657.407H379.241V659.52H378.916V656.829H379.231L380.703 658.947H380.729V656.829H381.05ZM383.541 657.669C383.512 657.581 383.474 657.502 383.427 657.432C383.38 657.361 383.325 657.3 383.26 657.25C383.196 657.2 383.123 657.162 383.042 657.136C382.96 657.11 382.871 657.097 382.774 657.097C382.614 657.097 382.469 657.138 382.339 657.22C382.208 657.302 382.105 657.424 382.027 657.584C381.95 657.744 381.912 657.941 381.912 658.174C381.912 658.407 381.951 658.604 382.029 658.764C382.107 658.924 382.212 659.046 382.345 659.128C382.479 659.21 382.628 659.251 382.795 659.251C382.949 659.251 383.085 659.219 383.202 659.153C383.32 659.086 383.412 658.993 383.478 658.872C383.545 658.75 383.578 658.607 383.578 658.442L383.678 658.463H382.868V658.174H383.893V658.463C383.893 658.685 383.846 658.877 383.751 659.041C383.658 659.205 383.528 659.332 383.362 659.422C383.198 659.512 383.009 659.556 382.795 659.556C382.557 659.556 382.347 659.5 382.167 659.388C381.987 659.276 381.847 659.117 381.746 658.91C381.646 658.703 381.596 658.458 381.596 658.174C381.596 657.961 381.625 657.77 381.682 657.6C381.74 657.429 381.821 657.284 381.926 657.164C382.031 657.044 382.156 656.952 382.299 656.888C382.443 656.824 382.601 656.792 382.774 656.792C382.916 656.792 383.048 656.813 383.171 656.856C383.294 656.898 383.404 656.958 383.5 657.036C383.598 657.113 383.679 657.206 383.743 657.313C383.808 657.42 383.853 657.539 383.877 657.669H383.541ZM387.258 656.829H387.584V658.61C387.584 658.794 387.54 658.958 387.454 659.103C387.368 659.247 387.247 659.36 387.09 659.443C386.933 659.526 386.749 659.567 386.538 659.567C386.327 659.567 386.143 659.526 385.986 659.443C385.829 659.36 385.708 659.247 385.621 659.103C385.535 658.958 385.492 658.794 385.492 658.61V656.829H385.818V658.584C385.818 658.715 385.847 658.832 385.905 658.935C385.962 659.036 386.045 659.117 386.152 659.175C386.259 659.233 386.388 659.262 386.538 659.262C386.688 659.262 386.816 659.233 386.924 659.175C387.032 659.117 387.114 659.036 387.171 658.935C387.229 658.832 387.258 658.715 387.258 658.584V656.829ZM388.235 659.52V656.829H389.144C389.355 656.829 389.528 656.867 389.662 656.943C389.796 657.018 389.896 657.12 389.961 657.249C390.026 657.378 390.058 657.521 390.058 657.68C390.058 657.839 390.026 657.983 389.961 658.112C389.897 658.242 389.798 658.345 389.664 658.422C389.53 658.499 389.358 658.537 389.149 658.537H388.497V658.248H389.139C389.283 658.248 389.399 658.223 389.487 658.173C389.574 658.123 389.638 658.055 389.677 657.97C389.718 657.885 389.738 657.788 389.738 657.68C389.738 657.572 389.718 657.476 389.677 657.391C389.638 657.306 389.574 657.239 389.485 657.191C389.397 657.142 389.28 657.118 389.133 657.118H388.56V659.52H388.235Z" fill="#E8E8E3"/>
<path d="M369.322 486.728L340.742 486.598L340.718 491.843L369.298 491.972L369.322 486.728Z" fill="#F7941F"/>
<path opacity="0.1" d="M369.322 486.728L340.742 486.598L340.718 491.843L369.298 491.972L369.322 486.728Z" fill="black"/>
<path d="M453.101 518.93C453.326 518.907 453.546 518.855 453.757 518.774C454.064 518.654 454.332 518.449 454.528 518.184C454.725 517.919 454.843 517.603 454.868 517.274C454.868 515.507 454.868 512.929 454.868 509.618C454.868 507.962 454.868 506.107 454.868 504.062C454.868 503.562 454.868 503.04 454.868 502.517C454.94 502.011 454.83 501.495 454.557 501.062C454.404 500.854 454.205 500.685 453.975 500.567C453.746 500.45 453.492 500.387 453.235 500.384H451.501H435.444L342.504 500.039C342.266 500.035 342.031 500.089 341.818 500.195C341.605 500.302 341.421 500.458 341.282 500.651C341.013 501.085 340.911 501.602 340.993 502.106C340.993 503.217 340.993 504.329 340.993 505.44C340.993 507.662 340.993 509.885 340.993 512.107C340.993 513.218 340.993 514.329 340.993 515.441C340.947 515.958 340.947 516.479 340.993 516.996C341.051 517.218 341.16 517.424 341.31 517.597C341.46 517.77 341.648 517.907 341.859 517.996C342.078 518.084 342.313 518.125 342.548 518.119H348.204L372.884 518.252L414.665 518.508L442.834 518.73L450.49 518.819H452.479C452.935 518.819 453.157 518.819 453.157 518.819H452.479H450.49H442.834H414.665L372.884 518.685L348.204 518.585H342.548C342.237 518.598 341.927 518.545 341.637 518.43C341.345 518.305 341.084 518.115 340.876 517.874C340.668 517.633 340.518 517.348 340.437 517.041C340.373 516.749 340.35 516.45 340.37 516.152V515.329C340.37 514.218 340.37 513.107 340.37 511.996C340.37 509.774 340.37 507.551 340.37 505.329C340.37 504.218 340.37 503.106 340.37 501.995C340.349 501.699 340.349 501.402 340.37 501.106C340.412 500.779 340.538 500.469 340.737 500.206C340.929 499.938 341.182 499.72 341.477 499.571C341.771 499.422 342.096 499.346 342.426 499.351L435.367 499.862L451.423 499.973H453.157C453.462 499.973 453.763 500.047 454.034 500.188C454.305 500.329 454.537 500.534 454.713 500.784C455.026 501.267 455.152 501.848 455.068 502.417C455.068 502.94 455.068 503.462 455.068 503.962C455.068 505.984 455.068 507.84 455.068 509.518C455.068 512.852 454.99 515.407 454.968 517.185C454.941 517.527 454.817 517.854 454.61 518.128C454.403 518.401 454.123 518.61 453.801 518.73C453.591 518.86 453.349 518.929 453.101 518.93Z" fill="#E0E0E0"/>
<path d="M401.598 505.617H349.327V510.518H401.598V505.617Z" fill="#F7941F"/>
<path opacity="0.2" d="M401.598 505.617H349.327V510.518H401.598V505.617Z" fill="white"/>
<path d="M369.128 534.574L340.548 534.444L340.524 539.689L369.104 539.818L369.128 534.574Z" fill="#F7941F"/>
<path opacity="0.1" d="M369.128 534.574L340.548 534.444L340.524 539.689L369.104 539.818L369.128 534.574Z" fill="black"/>
<path d="M452.379 566.777C452.604 566.75 452.826 566.709 453.046 566.655C453.356 566.556 453.642 566.392 453.884 566.174C454.125 565.955 454.317 565.687 454.446 565.388C454.621 564.94 454.69 564.457 454.646 563.977C454.646 563.444 454.646 562.866 454.646 562.221C454.646 560.932 454.646 559.466 454.646 557.777V550.721C454.699 550.21 454.586 549.695 454.324 549.254C454.05 548.801 453.619 548.465 453.113 548.309C452.559 548.211 451.996 548.181 451.435 548.22H435.445L342.827 547.876C342.328 547.877 341.848 548.059 341.473 548.388C341.099 548.717 340.858 549.171 340.793 549.665C340.793 550.721 340.793 551.887 340.793 552.999C340.793 555.221 340.793 557.443 340.793 559.666C340.793 560.777 340.793 561.888 340.793 562.999C340.752 563.519 340.774 564.041 340.86 564.555C340.998 565.006 341.284 565.397 341.671 565.666C342.081 565.927 342.563 566.051 343.049 566.022H344.593H347.805L372.395 566.144L414.032 566.4L442.101 566.622L449.735 566.711H451.724H452.39H451.724H449.735H442.101H414.032L372.373 566.666L347.782 566.577H342.949C342.348 566.613 341.751 566.453 341.249 566.122C340.743 565.771 340.374 565.257 340.204 564.666C340.104 564.101 340.075 563.527 340.115 562.955C340.115 561.844 340.115 560.732 340.115 559.621C340.115 557.399 340.115 555.176 340.115 552.954C340.115 551.843 340.115 550.732 340.115 549.62C340.196 548.985 340.506 548.401 340.987 547.978C341.467 547.554 342.086 547.321 342.727 547.32L435.345 547.831L451.335 547.954C451.93 547.917 452.528 547.958 453.113 548.076C453.69 548.265 454.177 548.66 454.48 549.187C454.767 549.677 454.891 550.245 454.835 550.809C454.835 551.332 454.835 551.843 454.835 552.354C454.835 554.365 454.835 556.21 454.835 557.91C454.835 559.61 454.835 561.044 454.835 562.355C454.835 562.988 454.835 563.577 454.835 564.122C454.875 564.619 454.795 565.118 454.602 565.577C454.458 565.884 454.249 566.156 453.99 566.374C453.731 566.593 453.428 566.753 453.102 566.844C452.859 566.864 452.614 566.842 452.379 566.777Z" fill="#E0E0E0"/>
<path d="M368.912 584.499L340.332 584.369L340.308 589.614L368.888 589.743L368.912 584.499Z" fill="#F7941F"/>
<path opacity="0.1" d="M368.912 584.499L340.332 584.369L340.308 589.614L368.888 589.743L368.912 584.499Z" fill="black"/>
<path d="M452.157 616.681C452.382 616.655 452.605 616.614 452.824 616.559C453.133 616.461 453.418 616.298 453.659 616.081C453.9 615.865 454.093 615.6 454.224 615.303C454.398 614.854 454.467 614.372 454.424 613.892C454.424 613.348 454.424 612.781 454.424 612.125C454.424 610.847 454.424 609.369 454.424 607.68V600.624C454.477 600.113 454.364 599.599 454.102 599.158C453.821 598.713 453.392 598.382 452.891 598.224C452.338 598.121 451.774 598.088 451.213 598.124H435.223L342.604 597.78C342.106 597.781 341.625 597.963 341.251 598.292C340.877 598.621 340.636 599.075 340.571 599.569C340.571 600.68 340.571 601.791 340.571 602.902C340.571 605.125 340.571 607.347 340.571 609.569C340.571 610.681 340.571 611.792 340.571 612.903C340.53 613.419 340.552 613.937 340.638 614.448C340.771 614.901 341.058 615.294 341.449 615.559C341.857 615.825 342.341 615.95 342.827 615.914H347.66L372.251 616.048L413.888 616.303L441.956 616.526L449.59 616.614H451.579C452.024 616.614 452.246 616.614 452.246 616.614C452.246 616.614 452.024 616.614 451.579 616.614H449.59H441.956H413.888L372.251 616.492L347.66 616.392H342.827C342.225 616.433 341.627 616.273 341.127 615.937C340.621 615.586 340.252 615.072 340.082 614.481C339.982 613.916 339.953 613.342 339.993 612.77C339.993 611.658 339.993 610.547 339.993 609.436C339.993 607.214 339.993 604.991 339.993 602.769C339.993 601.658 339.993 600.547 339.993 599.38C340.072 598.745 340.379 598.161 340.858 597.738C341.337 597.314 341.954 597.08 342.593 597.08L435.212 597.591L451.202 597.713C451.797 597.676 452.395 597.718 452.98 597.835C453.557 598.024 454.044 598.42 454.346 598.946C454.634 599.436 454.758 600.004 454.702 600.569C454.702 601.091 454.702 601.613 454.702 602.113C454.702 604.125 454.702 605.969 454.702 607.669C454.702 609.369 454.702 610.803 454.702 612.114C454.702 612.747 454.702 613.336 454.702 613.881C454.745 614.378 454.664 614.878 454.469 615.337C454.324 615.643 454.116 615.915 453.857 616.134C453.598 616.352 453.295 616.512 452.968 616.603C452.708 616.693 452.43 616.719 452.157 616.681Z" fill="#E0E0E0"/>
<path d="M400.482 554.851L348.212 554.614L348.19 559.514L400.46 559.751L400.482 554.851Z" fill="#F7941F"/>
<path opacity="0.2" d="M400.482 554.851L348.212 554.614L348.19 559.514L400.46 559.751L400.482 554.851Z" fill="white"/>
<path d="M352.938 607.614C352.905 608.061 352.742 608.489 352.469 608.844C352.195 609.199 351.823 609.466 351.4 609.611C350.976 609.757 350.518 609.775 350.084 609.664C349.65 609.552 349.259 609.315 348.958 608.983C348.657 608.65 348.461 608.237 348.393 607.794C348.325 607.351 348.388 606.898 348.575 606.491C348.763 606.084 349.065 605.74 349.446 605.503C349.826 605.267 350.268 605.147 350.716 605.159C351.335 605.193 351.915 605.47 352.331 605.93C352.747 606.39 352.965 606.995 352.938 607.614Z" fill="#F7941F"/>
<path d="M360.017 607.647C360.039 607.96 359.996 608.275 359.891 608.571C359.786 608.867 359.622 609.138 359.407 609.368C359.193 609.597 358.934 609.781 358.646 609.906C358.358 610.031 358.047 610.096 357.733 610.096C357.419 610.096 357.109 610.031 356.821 609.906C356.533 609.781 356.274 609.597 356.059 609.368C355.845 609.138 355.681 608.867 355.576 608.571C355.471 608.275 355.428 607.96 355.45 607.647C355.428 607.334 355.471 607.02 355.576 606.724C355.681 606.427 355.845 606.156 356.059 605.927C356.274 605.697 356.533 605.514 356.821 605.389C357.109 605.263 357.419 605.199 357.733 605.199C358.047 605.199 358.358 605.263 358.646 605.389C358.934 605.514 359.193 605.697 359.407 605.927C359.622 606.156 359.786 606.427 359.891 606.724C359.996 607.02 360.039 607.334 360.017 607.647Z" fill="#F7941F"/>
<path d="M367.107 607.681C367.074 608.128 366.911 608.555 366.638 608.91C366.364 609.265 365.992 609.532 365.568 609.678C365.145 609.824 364.687 609.842 364.253 609.73C363.819 609.618 363.428 609.381 363.127 609.049C362.826 608.717 362.63 608.304 362.562 607.861C362.494 607.418 362.557 606.964 362.744 606.557C362.932 606.15 363.234 605.807 363.615 605.57C363.995 605.333 364.437 605.213 364.885 605.225C365.503 605.262 366.082 605.54 366.497 605.999C366.913 606.458 367.132 607.062 367.107 607.681Z" fill="#F7941F"/>
<path d="M374.184 607.714C374.152 608.161 373.988 608.588 373.715 608.943C373.441 609.298 373.069 609.565 372.646 609.711C372.222 609.857 371.765 609.875 371.331 609.763C370.897 609.651 370.505 609.414 370.204 609.082C369.903 608.75 369.707 608.337 369.639 607.894C369.571 607.451 369.634 606.997 369.822 606.59C370.009 606.183 370.311 605.84 370.692 605.603C371.072 605.366 371.514 605.246 371.962 605.258C372.58 605.295 373.159 605.573 373.574 606.032C373.99 606.491 374.209 607.095 374.184 607.714Z" fill="#F7941F"/>
<path d="M381.262 607.736C381.232 608.184 381.07 608.613 380.798 608.969C380.525 609.326 380.154 609.594 379.73 609.742C379.307 609.889 378.849 609.909 378.414 609.798C377.979 609.688 377.587 609.452 377.285 609.12C376.983 608.788 376.785 608.374 376.717 607.931C376.648 607.488 376.711 607.034 376.898 606.626C377.085 606.218 377.387 605.874 377.768 605.637C378.149 605.4 378.591 605.28 379.04 605.292C379.656 605.329 380.233 605.605 380.648 606.062C381.063 606.519 381.284 607.119 381.262 607.736Z" fill="#F7941F"/>
<path d="M388.353 607.77C388.323 608.215 388.163 608.642 387.893 608.998C387.623 609.353 387.256 609.622 386.835 609.772C386.414 609.921 385.959 609.944 385.526 609.838C385.092 609.732 384.699 609.502 384.395 609.175C384.09 608.848 383.888 608.44 383.813 608C383.738 607.56 383.793 607.108 383.971 606.699C384.15 606.29 384.444 605.942 384.818 605.698C385.192 605.454 385.629 605.324 386.075 605.325C386.701 605.349 387.292 605.619 387.719 606.077C388.146 606.535 388.374 607.144 388.353 607.77Z" fill="#F7941F"/>
<path d="M395.43 607.803C395.452 608.116 395.409 608.43 395.304 608.726C395.199 609.022 395.035 609.294 394.82 609.523C394.606 609.753 394.347 609.936 394.059 610.061C393.771 610.187 393.461 610.251 393.146 610.251C392.832 610.251 392.522 610.187 392.234 610.061C391.946 609.936 391.687 609.753 391.472 609.523C391.258 609.294 391.094 609.022 390.989 608.726C390.884 608.43 390.841 608.116 390.863 607.803C390.841 607.489 390.884 607.175 390.989 606.879C391.094 606.583 391.258 606.312 391.472 606.082C391.687 605.852 391.946 605.669 392.234 605.544C392.522 605.419 392.832 605.354 393.146 605.354C393.461 605.354 393.771 605.419 394.059 605.544C394.347 605.669 394.606 605.852 394.82 606.082C395.035 606.312 395.199 606.583 395.304 606.879C395.409 607.175 395.452 607.489 395.43 607.803Z" fill="#F7941F"/>
<path d="M402.508 607.837C402.478 608.282 402.318 608.709 402.048 609.064C401.779 609.42 401.411 609.689 400.99 609.838C400.57 609.988 400.114 610.011 399.681 609.905C399.247 609.799 398.854 609.568 398.55 609.242C398.246 608.915 398.043 608.507 397.968 608.067C397.893 607.627 397.948 607.174 398.127 606.765C398.305 606.356 398.6 606.008 398.973 605.764C399.347 605.52 399.784 605.391 400.23 605.392C400.856 605.415 401.447 605.686 401.874 606.144C402.301 606.602 402.529 607.211 402.508 607.837Z" fill="#F7941F"/>
<path d="M409.587 607.87C409.557 608.317 409.395 608.746 409.123 609.103C408.851 609.459 408.479 609.728 408.056 609.875C407.632 610.023 407.174 610.042 406.739 609.932C406.305 609.821 405.912 609.585 405.61 609.253C405.308 608.921 405.111 608.508 405.042 608.064C404.973 607.621 405.036 607.167 405.223 606.759C405.41 606.352 405.713 606.008 406.094 605.77C406.474 605.533 406.917 605.413 407.365 605.425C407.981 605.462 408.558 605.739 408.973 606.196C409.388 606.652 409.609 607.253 409.587 607.87Z" fill="#F7941F"/>
<g opacity="0.2">
<path d="M352.938 607.614C352.905 608.061 352.742 608.489 352.469 608.844C352.195 609.199 351.823 609.466 351.4 609.611C350.976 609.757 350.518 609.775 350.084 609.664C349.65 609.552 349.259 609.315 348.958 608.983C348.657 608.65 348.461 608.237 348.393 607.794C348.325 607.351 348.388 606.898 348.575 606.491C348.763 606.084 349.065 605.74 349.446 605.503C349.826 605.267 350.268 605.147 350.716 605.159C351.335 605.193 351.915 605.47 352.331 605.93C352.747 606.39 352.965 606.995 352.938 607.614Z" fill="white"/>
<path d="M360.017 607.647C360.039 607.96 359.996 608.275 359.891 608.571C359.786 608.867 359.622 609.138 359.407 609.368C359.193 609.597 358.934 609.781 358.646 609.906C358.358 610.031 358.047 610.096 357.733 610.096C357.419 610.096 357.109 610.031 356.821 609.906C356.533 609.781 356.274 609.597 356.059 609.368C355.845 609.138 355.681 608.867 355.576 608.571C355.471 608.275 355.428 607.96 355.45 607.647C355.428 607.334 355.471 607.02 355.576 606.724C355.681 606.427 355.845 606.156 356.059 605.927C356.274 605.697 356.533 605.514 356.821 605.389C357.109 605.263 357.419 605.199 357.733 605.199C358.047 605.199 358.358 605.263 358.646 605.389C358.934 605.514 359.193 605.697 359.407 605.927C359.622 606.156 359.786 606.427 359.891 606.724C359.996 607.02 360.039 607.334 360.017 607.647Z" fill="white"/>
<path d="M367.106 607.681C367.073 608.128 366.91 608.555 366.637 608.91C366.363 609.265 365.991 609.532 365.568 609.678C365.144 609.824 364.686 609.842 364.252 609.73C363.818 609.618 363.427 609.381 363.126 609.049C362.825 608.717 362.629 608.304 362.561 607.861C362.493 607.418 362.556 606.964 362.743 606.557C362.931 606.15 363.233 605.807 363.614 605.57C363.994 605.333 364.436 605.213 364.884 605.225C365.502 605.262 366.081 605.54 366.496 605.999C366.912 606.458 367.131 607.062 367.106 607.681Z" fill="white"/>
<path d="M374.184 607.714C374.152 608.161 373.988 608.588 373.715 608.943C373.441 609.298 373.069 609.565 372.646 609.711C372.222 609.857 371.765 609.875 371.331 609.763C370.897 609.651 370.505 609.414 370.204 609.082C369.903 608.75 369.707 608.337 369.639 607.894C369.571 607.451 369.634 606.997 369.822 606.59C370.009 606.183 370.311 605.84 370.692 605.603C371.072 605.366 371.514 605.246 371.962 605.258C372.58 605.295 373.159 605.573 373.574 606.032C373.99 606.491 374.209 607.095 374.184 607.714Z" fill="white"/>
<path d="M381.262 607.736C381.232 608.184 381.07 608.613 380.798 608.969C380.525 609.326 380.154 609.594 379.73 609.742C379.307 609.889 378.849 609.909 378.414 609.798C377.979 609.688 377.587 609.452 377.285 609.12C376.983 608.788 376.785 608.374 376.717 607.931C376.648 607.488 376.711 607.034 376.898 606.626C377.085 606.218 377.387 605.874 377.768 605.637C378.149 605.4 378.591 605.28 379.04 605.292C379.656 605.329 380.233 605.605 380.648 606.062C381.063 606.519 381.284 607.119 381.262 607.736Z" fill="white"/>
<path d="M388.352 607.77C388.322 608.215 388.162 608.642 387.892 608.998C387.622 609.353 387.255 609.622 386.834 609.772C386.413 609.921 385.958 609.944 385.525 609.838C385.091 609.732 384.698 609.502 384.394 609.175C384.089 608.848 383.887 608.44 383.812 608C383.737 607.56 383.792 607.108 383.971 606.699C384.149 606.29 384.443 605.942 384.817 605.698C385.191 605.454 385.628 605.324 386.074 605.325C386.7 605.349 387.291 605.619 387.718 606.077C388.145 606.535 388.373 607.144 388.352 607.77Z" fill="white"/>
<path d="M395.43 607.803C395.452 608.116 395.409 608.43 395.304 608.726C395.199 609.022 395.035 609.294 394.82 609.523C394.606 609.753 394.347 609.936 394.059 610.061C393.771 610.187 393.461 610.251 393.146 610.251C392.832 610.251 392.522 610.187 392.234 610.061C391.946 609.936 391.687 609.753 391.472 609.523C391.258 609.294 391.094 609.022 390.989 608.726C390.884 608.43 390.841 608.116 390.863 607.803C390.841 607.489 390.884 607.175 390.989 606.879C391.094 606.583 391.258 606.312 391.472 606.082C391.687 605.852 391.946 605.669 392.234 605.544C392.522 605.419 392.832 605.354 393.146 605.354C393.461 605.354 393.771 605.419 394.059 605.544C394.347 605.669 394.606 605.852 394.82 606.082C395.035 606.312 395.199 606.583 395.304 606.879C395.409 607.175 395.452 607.489 395.43 607.803Z" fill="white"/>
<path d="M402.508 607.837C402.478 608.282 402.318 608.709 402.048 609.064C401.779 609.42 401.411 609.689 400.99 609.838C400.57 609.988 400.114 610.011 399.681 609.905C399.247 609.799 398.854 609.568 398.55 609.242C398.246 608.915 398.043 608.507 397.968 608.067C397.893 607.627 397.948 607.174 398.127 606.765C398.305 606.356 398.6 606.008 398.973 605.764C399.347 605.52 399.784 605.391 400.23 605.392C400.856 605.415 401.447 605.686 401.874 606.144C402.301 606.602 402.529 607.211 402.508 607.837Z" fill="white"/>
<path d="M409.587 607.87C409.557 608.317 409.395 608.746 409.123 609.103C408.851 609.459 408.479 609.728 408.056 609.875C407.632 610.023 407.174 610.042 406.739 609.932C406.305 609.821 405.912 609.585 405.61 609.253C405.308 608.921 405.111 608.508 405.042 608.064C404.973 607.621 405.036 607.167 405.223 606.759C405.41 606.352 405.713 606.008 406.094 605.77C406.474 605.533 406.917 605.413 407.365 605.425C407.981 605.462 408.558 605.739 408.973 606.196C409.388 606.652 409.609 607.253 409.587 607.87Z" fill="white"/>
</g>
<path d="M399.531 447.458C400.303 447.118 400.958 446.558 401.414 445.849C401.87 445.14 402.108 444.312 402.098 443.468C402.126 442.92 402.043 442.372 401.853 441.857C401.663 441.342 401.37 440.871 400.992 440.472C400.615 440.074 400.159 439.757 399.655 439.54C399.151 439.323 398.607 439.212 398.058 439.212C397.509 439.212 396.966 439.323 396.462 439.54C395.957 439.757 395.502 440.074 395.124 440.472C394.746 440.871 394.454 441.342 394.264 441.857C394.074 442.372 393.99 442.92 394.019 443.468C394.002 444.32 394.238 445.158 394.697 445.876C395.156 446.594 395.817 447.16 396.597 447.502C390.374 448.435 390.652 455.191 390.652 455.191L405.364 455.258C405.364 455.258 405.709 448.38 399.531 447.458Z" fill="#F7941F"/>
<path opacity="0.1" d="M399.531 447.458C400.303 447.118 400.958 446.558 401.414 445.849C401.87 445.14 402.108 444.312 402.098 443.468C402.126 442.92 402.043 442.372 401.853 441.857C401.663 441.342 401.37 440.871 400.992 440.472C400.615 440.074 400.159 439.757 399.655 439.54C399.151 439.323 398.607 439.212 398.058 439.212C397.509 439.212 396.966 439.323 396.462 439.54C395.957 439.757 395.502 440.074 395.124 440.472C394.746 440.871 394.454 441.342 394.264 441.857C394.074 442.372 393.99 442.92 394.019 443.468C394.002 444.32 394.238 445.158 394.697 445.876C395.156 446.594 395.817 447.16 396.597 447.502C390.374 448.435 390.652 455.191 390.652 455.191L405.364 455.258C405.364 455.258 405.709 448.38 399.531 447.458Z" fill="black"/>
<path d="M423.438 459.616L371.001 459.378L370.973 465.645L423.409 465.883L423.438 459.616Z" fill="#F7941F"/>
<path opacity="0.2" d="M423.438 459.616L371.001 459.378L370.973 465.645L423.409 465.883L423.438 459.616Z" fill="white"/>
<path d="M519.853 489.598H519.331L517.82 489.709C517.002 489.758 516.189 489.866 515.386 490.031C514.866 490.104 514.351 490.204 513.842 490.331L512.119 490.809C509.188 491.708 506.422 493.078 503.93 494.865C500.637 497.255 497.888 500.315 495.862 503.843C494.672 505.877 493.725 508.044 493.04 510.299C492.321 512.75 491.906 515.281 491.807 517.833C491.74 519.174 491.763 520.518 491.873 521.856C491.873 522.534 492.062 523.211 492.151 523.9C492.226 524.595 492.356 525.282 492.54 525.956C493.539 530.415 495.567 534.579 498.461 538.115C501.355 541.652 505.035 544.463 509.208 546.324C512.228 547.628 515.466 548.355 518.753 548.469C522.149 548.656 525.548 548.168 528.754 547.035L529.732 546.669H529.865L529.976 546.735L543.988 553.847L543.577 554.203C542.077 549.558 540.633 545.058 539.232 540.735V540.568L539.355 540.446C542.754 537.022 545.277 532.829 546.711 528.223C548.009 524.011 548.388 519.57 547.822 515.2C547.318 511.316 546.07 507.565 544.144 504.154C542.484 501.225 540.343 498.595 537.81 496.376C535.721 494.62 533.408 493.148 530.932 491.998C529.059 491.19 527.107 490.576 525.109 490.164L522.887 489.798L521.276 489.676L520.298 489.609H519.964C520.075 489.597 520.187 489.597 520.298 489.609H521.287L522.898 489.676L525.12 489.998C527.143 490.379 529.121 490.971 531.021 491.765C533.539 492.901 535.894 494.369 538.021 496.132C540.601 498.341 542.787 500.971 544.488 503.91C546.469 507.357 547.756 511.158 548.278 515.1C548.891 519.538 548.538 524.056 547.244 528.345C545.801 533.048 543.239 537.33 539.777 540.824L539.844 540.535C541.244 544.858 542.699 549.358 544.211 553.992L544.422 554.669L543.788 554.347L529.776 547.247H530.021L529.021 547.613C525.753 548.763 522.291 549.262 518.831 549.08C515.473 548.952 512.168 548.198 509.086 546.858C503.207 544.34 498.316 539.964 495.162 534.401C493.711 531.832 492.651 529.06 492.018 526.178C491.844 525.487 491.714 524.786 491.629 524.078C491.54 523.378 491.395 522.689 491.362 522C491.061 518.046 491.479 514.071 492.596 510.266C493.297 507.98 494.271 505.786 495.496 503.732C497.569 500.171 500.376 497.092 503.73 494.698C506.263 492.907 509.075 491.548 512.053 490.676L513.797 490.231C514.311 490.112 514.83 490.019 515.353 489.953C516.164 489.803 516.985 489.714 517.809 489.687L519.331 489.631C519.504 489.608 519.679 489.597 519.853 489.598Z" fill="#F7941F"/>
<path d="M526.188 515.511H524.132L519.687 509.266V505.166C519.687 505.166 516.509 504.965 516.887 510.333C517.265 515.7 516.887 514.333 516.887 514.333C516.887 514.333 510.142 514.333 509.586 514.944C509.031 515.555 508.997 522.067 508.92 525.7C508.877 526.576 509.128 527.441 509.634 528.158C510.139 528.875 510.869 529.402 511.709 529.656C511.944 529.721 512.187 529.755 512.431 529.756C514.12 529.756 522.71 528.39 522.71 528.39H526.254L526.188 515.511Z" fill="#F7941F"/>
<path d="M532.066 514.411L530.799 528.456H527.288V514.7L532.066 514.411Z" fill="#F7941F"/>
<path d="M265.716 744.515V735.014L248.682 734.892L248.537 749.26L249.593 749.337C254.293 749.637 273.506 750.082 276.661 749.104C280.173 748.015 265.716 744.515 265.716 744.515Z" fill="#F7941F"/>
<path d="M277.062 748.214C277.062 748.37 270.683 748.503 262.827 748.503C254.971 748.503 248.593 748.37 248.593 748.214C248.593 748.059 254.971 747.925 262.827 747.925C270.683 747.925 277.062 748.059 277.062 748.214Z" fill="#263238"/>
<path d="M266.017 746.459C265.872 746.382 266.017 745.882 266.361 745.348C266.706 744.815 267.172 744.593 267.283 744.704C267.394 744.815 267.161 745.237 266.828 745.693C266.494 746.148 266.161 746.537 266.017 746.459Z" fill="#263238"/>
<path d="M267.105 747.081C266.95 747.081 267.028 746.459 267.361 745.87C267.694 745.281 268.139 744.925 268.261 745.014C268.383 745.103 268.183 745.603 267.872 746.125C267.561 746.648 267.25 747.137 267.105 747.081Z" fill="#263238"/>
<path d="M253.726 748.171C253.66 748.171 253.404 747.971 253.037 747.549C252.59 747.006 252.091 746.507 251.548 746.06C251.015 745.633 250.379 745.353 249.704 745.248C249.182 745.182 248.848 745.248 248.815 745.182C248.782 745.115 249.104 744.882 249.715 744.837C250.521 744.82 251.308 745.088 251.937 745.593C252.527 746.073 253.024 746.657 253.404 747.315C253.66 747.804 253.793 748.126 253.726 748.171Z" fill="#263238"/>
<path d="M266.071 744.67C266.149 744.803 265.86 745.136 265.371 745.314C264.882 745.492 264.449 745.425 264.427 745.314C264.405 745.203 264.749 744.97 265.171 744.814C265.594 744.659 265.982 744.536 266.071 744.67Z" fill="#263238"/>
<path d="M265.805 743.748C265.805 743.915 265.36 744.048 264.782 744.059C264.204 744.07 263.749 743.937 263.76 743.782C263.771 743.626 264.227 743.481 264.782 743.47C265.338 743.459 265.782 743.593 265.805 743.748Z" fill="#263238"/>
<path d="M307.664 744.515V735.014L290.63 734.892L290.485 749.115L291.541 749.193C296.241 749.493 315.465 750.082 318.61 749.104C322.121 748.015 307.664 744.515 307.664 744.515Z" fill="#F7941F"/>
<path d="M319.009 748.238C319.009 748.393 312.642 748.527 304.775 748.527C296.908 748.527 290.552 748.393 290.552 748.238C290.552 748.082 296.919 747.949 304.775 747.949C312.631 747.949 319.009 748.082 319.009 748.238Z" fill="#263238"/>
<path d="M307.964 746.459C307.831 746.382 307.964 745.882 308.308 745.348C308.653 744.815 309.12 744.593 309.231 744.704C309.342 744.815 309.109 745.237 308.775 745.693C308.442 746.148 308.108 746.537 307.964 746.459Z" fill="#263238"/>
<path d="M309.053 747.081C308.909 747.081 308.975 746.459 309.32 745.87C309.664 745.281 310.098 744.925 310.22 745.014C310.342 745.103 310.131 745.603 309.82 746.125C309.509 746.648 309.209 747.137 309.053 747.081Z" fill="#263238"/>
<path d="M295.675 748.171C295.608 748.171 295.363 747.971 294.986 747.549C294.538 747.006 294.039 746.507 293.497 746.06C292.963 745.633 292.327 745.353 291.652 745.248C291.141 745.182 290.796 745.248 290.763 745.182C290.73 745.115 291.052 744.882 291.663 744.837C292.47 744.82 293.257 745.088 293.886 745.593C294.478 746.07 294.976 746.654 295.352 747.315C295.608 747.804 295.741 748.126 295.675 748.171Z" fill="#263238"/>
<path d="M308.019 744.67C308.096 744.803 307.807 745.136 307.319 745.314C306.83 745.492 306.396 745.425 306.374 745.314C306.352 745.203 306.696 744.97 307.119 744.814C307.541 744.659 307.93 744.536 308.019 744.67Z" fill="#263238"/>
<path d="M307.775 743.748C307.775 743.915 307.33 744.048 306.753 744.059C306.175 744.07 305.73 743.937 305.741 743.782C305.753 743.626 306.197 743.481 306.753 743.47C307.308 743.459 307.775 743.593 307.775 743.748Z" fill="#263238"/>
<path d="M370.424 462.381C369.98 461.925 368.88 462.147 368.88 462.147C368.99 461.508 368.99 460.854 368.88 460.214C368.68 459.592 367.28 459.714 367.28 459.714C367.215 459.19 367.215 458.66 367.28 458.136C367.291 458.02 367.266 457.903 367.208 457.802C367.151 457.7 367.063 457.619 366.958 457.569C366.295 457.299 365.584 457.171 364.869 457.191C364.013 456.58 367.48 451.724 368.769 450.169C370.058 448.613 369.824 447.402 368.68 447.402C367.891 447.402 363.846 452.069 362.602 453.636C361.357 455.202 358.057 459.558 357.946 456.08C357.835 452.602 356.435 449.98 355.557 449.535C354.679 449.091 353.745 450.135 354.223 451.102C354.643 452.2 354.905 453.353 355.001 454.525C355.122 455.458 355.08 456.405 354.879 457.325C354.51 459.036 354.009 460.715 353.379 462.347H353.29C353.29 462.347 329.044 485.605 327.288 487.26C325.721 488.749 294.208 485.494 287.885 484.827C285.736 484.513 283.567 484.364 281.395 484.382C278.651 484.505 278.162 484.894 275.428 484.927C268.525 485.004 261.638 485.609 254.827 486.738C251.743 487.263 248.862 488.624 246.499 490.673C244.136 492.723 242.381 495.382 241.426 498.361C235.059 518.252 220.635 565.333 218.091 591.78C216.168 595.267 214.432 598.853 212.89 602.525C211.101 607.392 211.535 607.559 212.135 607.67C213.757 607.97 215.601 599.236 216.29 601.347C216.979 603.458 212.79 611.759 214.49 612.003C216.713 612.314 218.479 603.114 218.691 602.38C218.902 601.647 220.002 601.88 219.802 602.569C219.48 603.547 216.357 613.915 218.535 614.248C219.735 614.426 219.868 612.237 219.868 612.237C219.868 612.237 222.091 602.314 223.102 602.514C224.113 602.714 223.035 608.57 222.524 610.525C222.013 612.481 222.724 613.47 223.769 612.992C224.48 612.659 226.18 606.714 226.647 604.781C227.113 602.847 228.28 597.491 229.847 600.591C231.414 603.692 233.792 605.492 234.77 605.536C234.99 605.511 235.198 605.42 235.366 605.276C235.534 605.131 235.656 604.94 235.714 604.726C235.773 604.512 235.766 604.285 235.695 604.075C235.623 603.865 235.491 603.681 235.314 603.547C234.473 602.726 233.751 601.791 233.17 600.769C232.651 599.973 232.275 599.094 232.058 598.169C231.611 596.326 231.35 594.442 231.28 592.546L231.103 591.435C233.592 579.112 240.759 542.943 251.104 519.841L255.349 528.575L257.194 535.042L245.882 562.966L294.13 562.333L286.929 534.62L295.674 505.729C305.131 505.94 329.41 506.295 333.455 504.462C338.544 502.239 364.869 468.992 364.869 468.992C366.584 467.659 368.228 466.235 369.791 464.725C369.791 464.725 371.391 463.381 370.424 462.381Z" fill="#FFBE9D"/>
<path d="M243.759 542.332C245.159 537.554 252.348 513.93 252.348 513.93C252.348 513.93 255.882 533.187 254.948 535.509C254.09 537.497 253.076 539.415 251.915 541.243C243.759 553.655 244.825 559.867 244.825 559.867L294.107 558.367C294.218 551.477 290.14 535.454 289.296 532.898C288.451 530.342 291.262 521.975 291.262 521.975C291.262 521.975 296.818 516.319 296.618 513.408C296.513 510.792 296.189 508.191 295.652 505.629L325.654 506.74L324.709 486.405L281.617 482.094C280.117 486.328 266.549 484.25 266.549 484.25C251.904 484.739 250.993 487.428 244.903 492.161C238.814 496.895 228.735 537.52 228.735 537.52L243.759 542.332Z" fill="#F7941F"/>
<path d="M272.894 537.52C272.04 537.673 271.17 537.718 270.305 537.654C268.694 537.654 266.483 537.543 264.049 537.298C261.616 537.054 259.415 536.709 257.849 536.398C256.985 536.287 256.138 536.07 255.326 535.754C256.195 535.754 257.062 535.836 257.915 535.998C259.493 536.198 261.682 536.476 264.105 536.72C266.527 536.965 268.727 537.132 270.316 537.243C271.182 537.254 272.046 537.347 272.894 537.52Z" fill="#263238"/>
<path d="M276.273 533.332C275.419 533.75 274.516 534.06 273.584 534.254C269.151 535.419 264.577 535.961 259.994 535.865C259.046 535.896 258.098 535.806 257.172 535.598C258.108 535.48 259.051 535.432 259.994 535.454C261.739 535.398 264.139 535.276 266.784 534.965C269.428 534.654 271.784 534.209 273.451 533.854C274.377 533.607 275.32 533.432 276.273 533.332Z" fill="#263238"/>
<path d="M292.852 514.641C292.829 515.488 292.714 516.33 292.507 517.152C292.218 518.697 291.774 520.808 291.207 523.12C290.64 525.431 290.096 527.564 289.607 529.009C289.41 529.836 289.12 530.637 288.74 531.398C288.802 530.553 288.959 529.718 289.207 528.909C289.629 527.175 290.107 525.175 290.64 522.986C291.174 520.797 291.685 518.797 292.107 517.064C292.258 516.229 292.508 515.416 292.852 514.641Z" fill="#263238"/>
<path d="M244.282 539.498C241.711 539.101 239.174 538.511 236.692 537.731C234.156 537.139 231.668 536.359 229.247 535.398C231.817 535.801 234.353 536.392 236.837 537.165C239.373 537.756 241.862 538.536 244.282 539.498Z" fill="#263238"/>
<path d="M296.186 505.385C295.767 505.458 295.338 505.458 294.919 505.385C293.758 505.266 292.619 504.994 291.53 504.574C289.712 503.891 288.057 502.835 286.672 501.475C285.286 500.114 284.201 498.479 283.485 496.674C282.693 494.688 282.356 492.551 282.496 490.418C282.545 488.658 283.071 486.945 284.018 485.462C284.684 484.462 285.678 483.727 286.829 483.384C287.137 483.299 287.455 483.258 287.774 483.261C287.996 483.261 288.107 483.261 288.107 483.261C288.107 483.261 287.641 483.261 286.896 483.561C285.84 483.952 284.945 484.683 284.351 485.639C282.84 488.017 282.418 492.362 284.029 496.418C284.779 498.33 285.953 500.048 287.463 501.441C288.7 502.58 290.125 503.498 291.674 504.152C293.128 504.727 294.641 505.14 296.186 505.385Z" fill="#263238"/>
<path d="M322.087 506.34C321.809 502.933 321.72 499.513 321.82 496.095C321.733 492.681 321.837 489.264 322.131 485.861C322.409 489.265 322.498 492.682 322.398 496.095C322.491 499.513 322.388 502.934 322.087 506.34Z" fill="#263238"/>
<path d="M281.329 483.339C281.451 480.861 281.706 478.061 281.706 478.061C281.706 478.061 287.84 477.383 288.207 471.049C288.574 464.715 288.207 450.103 288.207 450.103L277.095 444.414L264.761 454.115L266.661 485.784L277.973 486.506C278.838 486.53 279.676 486.21 280.305 485.616C280.935 485.023 281.303 484.204 281.329 483.339Z" fill="#FFBE9D"/>
<path d="M282.428 466.037C282.428 466.037 282.428 466.16 282.328 466.304C282.246 466.409 282.139 466.492 282.017 466.546C281.895 466.6 281.761 466.624 281.628 466.615C280.917 466.615 280.228 465.793 279.984 464.837C279.867 464.374 279.867 463.889 279.984 463.426C280.006 463.224 280.079 463.031 280.196 462.864C280.312 462.697 280.468 462.562 280.65 462.47C280.8 462.409 280.968 462.409 281.117 462.47C281.228 462.525 281.318 462.615 281.373 462.726C281.45 462.915 281.373 463.037 281.373 463.026C281.373 463.015 281.373 462.915 281.261 462.804C281.203 462.724 281.118 462.669 281.022 462.648C280.925 462.628 280.825 462.644 280.739 462.693C280.603 462.775 280.49 462.891 280.41 463.029C280.33 463.166 280.287 463.322 280.284 463.482C280.19 463.895 280.19 464.324 280.284 464.737C280.506 465.604 281.106 466.304 281.639 466.371C281.744 466.385 281.85 466.377 281.951 466.349C282.052 466.32 282.147 466.271 282.228 466.204C282.362 466.115 282.406 466.026 282.428 466.037Z" fill="#EB996E"/>
<path d="M292.018 446.68C291.163 443.769 288.062 442.324 285.24 441.524C280.94 440.302 276.295 439.769 272.095 441.313C267.894 442.858 262.849 445.569 262.849 450.203C260.371 450.003 258.949 452.17 257.971 454.859C257.346 456.497 256.971 458.22 256.86 459.97C256.549 466.037 254.849 474.416 250.915 478.861C248.693 481.338 245.615 483.05 244.348 486.139C243.237 488.817 243.815 491.995 242.781 494.706C241.859 497.095 239.825 498.795 238.336 500.873C236.819 503.231 235.927 505.935 235.742 508.732C235.557 511.529 236.087 514.327 237.281 516.863C238.483 519.335 240.176 521.535 242.257 523.331C244.337 525.127 246.761 526.48 249.382 527.309C254.572 528.888 260.107 528.942 265.327 527.464C269.245 526.527 272.9 524.715 276.017 522.164C279.207 519.559 281.397 515.932 282.218 511.896C283.006 507.363 281.74 502.751 280.795 498.24C277.839 483.983 278.684 483.239 282.418 470.004C282.506 469.771 282.551 469.526 282.618 469.293C282.684 469.06 282.718 468.949 282.762 468.771C282.868 468.248 282.924 467.716 282.929 467.182C282.383 467.385 281.791 467.428 281.223 467.305C280.654 467.183 280.131 466.902 279.717 466.493C279.302 466.057 279.013 465.517 278.88 464.93C278.747 464.343 278.775 463.731 278.962 463.159C279.224 462.534 279.615 461.97 280.108 461.505C280.602 461.04 281.188 460.683 281.829 460.459C283.062 459.948 284.384 459.681 285.596 459.115C288.162 457.892 289.94 455.359 291.152 452.703C292.147 450.862 292.455 448.727 292.018 446.68Z" fill="#263238"/>
<path d="M282.873 466.337C283.108 466.684 283.302 467.057 283.451 467.449C283.784 468.149 284.229 469.138 284.718 470.282L284.807 470.493H284.573L283.462 470.593C282.695 470.593 282.051 470.738 281.295 470.727C281.229 470.712 281.168 470.681 281.118 470.636C281.067 470.591 281.029 470.535 281.006 470.471C280.973 470.37 280.973 470.261 281.006 470.16C281.032 470.01 281.065 469.862 281.106 469.715L281.306 468.926C281.407 468.4 281.563 467.886 281.773 467.393C281.752 467.93 281.674 468.462 281.54 468.982L281.384 469.771C281.329 470.038 281.228 470.449 281.384 470.415C281.94 470.415 282.729 470.293 283.462 470.249L284.573 470.149L284.429 470.393C283.951 469.282 283.551 468.238 283.318 467.515C283.113 467.146 282.963 466.75 282.873 466.337Z" fill="#F7941F"/>
<path d="M244.826 559.867L294.107 558.367L315.553 642.084L311.609 738.114H285.551L288.74 644.129L269.683 585.847L272.617 741.836L246.282 742.225L243.515 595.603C243.392 591.525 242.059 582.335 242.559 578.29L244.826 559.867Z" fill="#263238"/>
<path d="M276.24 587.035C275.433 587.086 274.623 587.038 273.828 586.891C272.339 586.713 270.306 586.402 268.072 585.958C265.839 585.513 263.839 585.002 262.394 584.591C261.622 584.421 260.875 584.152 260.172 583.791C260.172 583.624 263.794 584.491 268.239 585.391C272.684 586.291 276.262 586.869 276.24 587.035Z" fill="#455A64"/>
<path d="M311.342 732.847C311.342 733.002 305.442 733.136 298.164 733.136C290.885 733.136 284.974 733.002 284.974 732.847C284.974 732.691 290.874 732.558 298.164 732.558C305.453 732.558 311.342 732.68 311.342 732.847Z" fill="#455A64"/>
<path d="M272.383 737.781C272.383 737.947 266.649 738.07 259.582 738.07C252.515 738.07 246.792 737.947 246.792 737.781C246.792 737.614 252.526 737.492 259.582 737.492C266.638 737.492 272.383 737.625 272.383 737.781Z" fill="#455A64"/>
<path d="M268.983 737.381C268.828 737.381 268.139 703.3 267.439 661.264C266.739 619.227 266.328 585.125 266.472 585.125C266.617 585.125 267.328 619.194 268.017 661.253C268.706 703.311 269.15 737.381 268.983 737.381Z" fill="#455A64"/>
<path d="M307.842 732.847C307.83 732.695 307.83 732.543 307.842 732.391V731.058C307.842 729.858 307.931 728.136 307.998 725.947C308.153 721.502 308.376 715.046 308.653 707.134C309.253 691.222 310.098 669.287 311.02 645.074C311.02 644.84 311.02 644.618 311.02 644.418V644.496C305.186 621.161 299.908 599.981 296.075 584.658L291.63 566.534C291.119 564.412 290.73 562.756 290.452 561.601C290.319 561.056 290.23 560.634 290.152 560.312C290.109 560.167 290.083 560.018 290.074 559.867C290.132 560.007 290.177 560.152 290.208 560.301C290.296 560.612 290.408 561.034 290.563 561.567C290.863 562.679 291.297 564.368 291.852 566.479C292.963 570.768 294.53 576.946 296.486 584.558C300.353 599.87 305.687 620.994 311.598 644.363V644.44C311.598 644.64 311.598 644.874 311.598 645.096C310.609 669.309 309.709 691.233 309.053 707.145C308.709 715.068 308.42 721.48 308.22 725.947C308.109 728.169 308.02 729.858 307.964 731.058C307.964 731.625 307.898 732.069 307.887 732.391C307.888 732.545 307.873 732.697 307.842 732.847Z" fill="#455A64"/>
<path d="M299.34 642.462C297.468 643.078 295.54 643.506 293.584 643.74C291.184 644.151 289.139 644.44 288.217 644.485V644.263C288.517 644.351 288.673 644.407 288.673 644.451C288.673 644.496 288.484 644.451 288.173 644.451H287.506L288.173 644.251C289.039 643.996 291.084 643.574 293.484 643.14C295.409 642.723 297.371 642.496 299.34 642.462Z" fill="#455A64"/>
<path d="M298.886 645.652C297.152 645.731 295.416 645.653 293.696 645.418C291.961 645.383 290.231 645.193 288.529 644.852C292.002 644.568 295.498 644.838 298.886 645.652Z" fill="#455A64"/>
<path opacity="0.2" d="M244.615 561.634C245.199 562.383 245.934 563.001 246.773 563.447C247.611 563.893 248.535 564.158 249.482 564.223C251.467 564.458 253.475 564.42 255.449 564.112C268.173 562.7 281.651 561.4 294.108 558.367C277.984 559.267 260.95 558.967 244.826 559.867L244.66 561.245" fill="black"/>
<g opacity="0.2">
<path d="M261.227 584.358L270.316 619.627L269.683 585.847L261.227 584.358Z" fill="black"/>
</g>
<g clip-path="url(#clip4_4180_64675)">
<path d="M597.612 680L602.138 691.475L613.612 696L602.138 700.525L597.612 712L593.087 700.525L581.612 696L593.087 691.475L597.612 680Z" fill="#FDA758"/>
</g>
<g clip-path="url(#clip5_4180_64675)">
<path d="M112.612 525C111.279 525 110.168 524.569 109.279 523.708C108.39 522.847 107.946 521.806 107.946 520.583C107.946 519.889 108.085 519.264 108.362 518.708C108.64 518.153 109.126 517.542 109.821 516.875C110.543 516.208 111.112 515.583 111.529 515C111.973 514.389 112.196 513.861 112.196 513.417V511.917C111.585 511.778 111.043 511.5 110.571 511.083C110.126 510.639 109.835 510.111 109.696 509.5H108.196C107.723 509.5 107.168 509.722 106.529 510.167C105.89 510.611 105.279 511.153 104.696 511.792C104.112 512.431 103.529 512.903 102.946 513.208C102.39 513.514 101.751 513.667 101.029 513.667C99.779 513.667 98.7234 513.222 97.8623 512.333C97.029 511.444 96.6123 510.333 96.6123 509C96.6123 507.667 97.029 506.556 97.8623 505.667C98.7234 504.778 99.779 504.333 101.029 504.333C102.196 504.333 103.196 504.75 104.029 505.583C104.862 506.417 105.612 507.125 106.279 507.708C106.946 508.292 107.585 508.583 108.196 508.583H109.696C109.835 507.944 110.126 507.417 110.571 507C111.043 506.556 111.585 506.278 112.196 506.167V504.667C112.196 503.944 111.64 503.028 110.529 501.917L109.654 501.042C108.515 499.903 107.946 498.694 107.946 497.417C107.946 496.167 108.39 495.125 109.279 494.292C110.196 493.431 111.307 493 112.612 493C113.946 493 115.057 493.431 115.946 494.292C116.835 495.153 117.279 496.194 117.279 497.417C117.279 498.833 116.584 500.167 115.196 501.417C113.807 502.694 113.112 503.778 113.112 504.667V506.167C113.751 506.278 114.279 506.556 114.696 507C115.14 507.417 115.418 507.944 115.529 508.583H117.029C117.973 508.583 119.057 507.875 120.279 506.458C121.529 505.042 122.835 504.333 124.196 504.333C125.446 504.333 126.487 504.792 127.321 505.708C128.182 506.597 128.612 507.694 128.612 509C128.612 510.333 128.182 511.444 127.321 512.333C126.46 513.222 125.418 513.667 124.196 513.667C123.029 513.667 122.043 513.264 121.237 512.458C120.432 511.653 119.682 510.958 118.987 510.375C118.293 509.792 117.64 509.5 117.029 509.5H115.529C115.307 510.833 114.501 511.639 113.112 511.917V513.417C113.112 514.25 113.807 515.32 115.196 516.625C116.584 517.931 117.279 519.25 117.279 520.583C117.279 521.833 116.821 522.875 115.904 523.708C115.015 524.569 113.918 525 112.612 525Z" fill="#FDA758" fill-opacity="0.49"/>
</g>
<g clip-path="url(#clip6_4180_64675)">
<path d="M206.612 275L211.138 286.475L222.612 291L211.138 295.525L206.612 307L202.087 295.525L190.612 291L202.087 286.475L206.612 275Z" fill="#FDA758"/>
</g>
</g>
<defs>
<clipPath id="clip0_4180_64675">
<rect width="710" height="1024" fill="white" transform="translate(0.612305)"/>
</clipPath>
<clipPath id="clip1_4180_64675">
<rect width="88" height="88" fill="white" transform="translate(62.5859 -41) rotate(74.9294)"/>
</clipPath>
<clipPath id="clip2_4180_64675">
<rect width="32" height="32" fill="white" transform="translate(277.613 80.9998)"/>
</clipPath>
<clipPath id="clip3_4180_64675">
<rect width="88" height="88" fill="white" transform="translate(710.586 939) rotate(74.9294)"/>
</clipPath>
<clipPath id="clip4_4180_64675">
<rect width="32" height="32" fill="white" transform="translate(581.612 680)"/>
</clipPath>
<clipPath id="clip5_4180_64675">
<rect width="32" height="32" fill="white" transform="translate(96.6123 493)"/>
</clipPath>
<clipPath id="clip6_4180_64675">
<rect width="32" height="32" fill="white" transform="translate(190.612 275)"/>
</clipPath>
</defs>
</svg>
