<svg width="24" height="24" viewBox="0 0 24 24" fill="none" xmlns="http://www.w3.org/2000/svg">
<path d="M12.0186 2.90991C8.70862 2.90991 6.01862 5.59991 6.01862 8.90991V11.7999C6.01862 12.4099 5.75862 13.3399 5.44862 13.8599L4.29862 15.7699C3.58862 16.9499 4.07862 18.2599 5.37862 18.6999C9.68862 20.1399 14.3386 20.1399 18.6486 18.6999C19.8586 18.2999 20.3886 16.8699 19.7286 15.7699L18.5786 13.8599C18.2786 13.3399 18.0186 12.4099 18.0186 11.7999V8.90991C18.0186 5.60991 15.3186 2.90991 12.0186 2.90991Z" stroke="#333333" stroke-width="1.5" stroke-miterlimit="10" stroke-linecap="round"/>
<path d="M13.8719 3.19994C13.5619 3.10994 13.2419 3.03994 12.9119 2.99994C11.9519 2.87994 11.0319 2.94994 10.1719 3.19994C10.4619 2.45994 11.1819 1.93994 12.0219 1.93994C12.8619 1.93994 13.5819 2.45994 13.8719 3.19994Z" stroke="#333333" stroke-width="1.5" stroke-miterlimit="10" stroke-linecap="round" stroke-linejoin="round"/>
<path d="M15.0195 19.0601C15.0195 20.7101 13.6695 22.0601 12.0195 22.0601C11.1995 22.0601 10.4395 21.7201 9.89953 21.1801C9.35953 20.6401 9.01953 19.8801 9.01953 19.0601" stroke="#333333" stroke-width="1.5" stroke-miterlimit="10"/>
</svg>
