<svg width="64" height="64" viewBox="0 0 64 64" fill="none" xmlns="http://www.w3.org/2000/svg">
<circle opacity="0.2" cx="32" cy="32" r="32" fill="#29319F"/>
<path d="M34.1487 45.9323H29.8189C29.5004 45.9353 29.1846 45.8708 28.8899 45.7424C28.5953 45.614 28.3277 45.4243 28.103 45.1846C27.8783 44.9449 27.7009 44.6599 27.5813 44.3464C27.4617 44.0329 27.4022 43.6972 27.4065 43.359V20.6238C27.4255 19.6233 27.8096 18.6697 28.4778 17.9642C29.1461 17.2587 30.0462 16.8563 30.9883 16.842H33.0215C33.9654 16.8594 34.8659 17.2661 35.5325 17.9761C36.199 18.6861 36.5793 19.6436 36.5928 20.6462V43.3813C36.5943 43.7206 36.5318 44.0567 36.409 44.3698C36.2861 44.683 36.1055 44.9668 35.8777 45.2046C35.6498 45.4424 35.3795 45.6293 35.0825 45.7543C34.7856 45.8793 34.4681 45.9398 34.1487 45.9323Z" fill="#29319F"/>
<path d="M21.8553 45.9328H17.6657C17.3354 45.9359 17.0078 45.8674 16.702 45.7313C16.3962 45.5952 16.1184 45.3941 15.8848 45.1398C15.6512 44.8855 15.4665 44.5832 15.3414 44.2503C15.2164 43.9175 15.1534 43.5609 15.1563 43.2013V30.0547C15.1563 29.523 15.2531 28.9965 15.441 28.5057C15.6289 28.0149 15.9043 27.5695 16.2512 27.1952C16.5981 26.8209 17.0097 26.5251 17.4622 26.3249C17.9148 26.1247 18.3992 26.024 18.8877 26.0287H20.6552C21.6342 26.0319 22.5722 26.4574 23.2634 27.2121C23.9547 27.9668 24.3429 28.989 24.3429 30.0547V43.2251C24.3429 43.9432 24.0808 44.6319 23.6143 45.1397C23.1478 45.6475 22.515 45.9328 21.8553 45.9328Z" fill="#29319F"/>
<path d="M46.2327 45.9323H42.2155C41.5382 45.9188 40.8927 45.6487 40.4146 45.1789C39.9366 44.709 39.6634 44.0761 39.6523 43.4131V37.3522C39.6523 36.8696 39.7496 36.3918 39.9387 35.9461C40.1277 35.5003 40.4047 35.0955 40.7539 34.7547C41.103 34.414 41.5175 34.144 41.9734 33.9603C42.4294 33.7766 42.9179 33.6827 43.411 33.6841H45.0803C45.5734 33.6827 46.0619 33.7766 46.5179 33.9603C46.9738 34.144 47.3883 34.414 47.7374 34.7547C48.0866 35.0955 48.3636 35.5003 48.5526 35.9461C48.7417 36.3918 48.8389 36.8696 48.8389 37.3522V43.4342C48.839 43.7667 48.7713 44.096 48.6396 44.4025C48.508 44.7091 48.3152 44.9869 48.0724 45.2195C47.8297 45.4522 47.5419 45.6351 47.226 45.7575C46.9101 45.8799 46.5724 45.9393 46.2327 45.9323Z" fill="#29319F"/>
</svg>
