<svg width="799" height="612" viewBox="0 0 799 612" fill="none" xmlns="http://www.w3.org/2000/svg">
<g clip-path="url(#clip0_1186_52205)">
<path d="M404.766 172.009C397.642 158.417 389.2 143.905 375.979 139.467C360.668 134.328 344.941 144.538 331.6 154.613C291.703 184.744 253.282 217.398 216.512 252.425L216.552 252.953C245.179 250.675 273.806 248.398 302.432 246.121C323.115 244.476 344.509 242.603 362.787 231.317C369.722 227.034 376.483 221.314 384.343 220.915C394.107 220.42 402.622 228.286 409.313 236.505C448.892 285.121 460.345 359.467 504.749 402.18C476.749 322.528 443.317 245.563 404.766 172.009Z" fill="#F2F2F2"/>
<path d="M648.054 584.363C643.677 577.987 641.889 576.494 637.571 570.06C602.418 517.615 569.377 463.399 538.447 407.411C517.439 369.386 497.473 330.631 478.548 291.145C469.538 272.374 460.775 253.455 452.259 234.388C445.651 219.604 439.191 204.732 432.878 189.772C431.072 185.499 429.318 181.206 427.572 176.904C423.459 166.786 419.422 156.619 415.088 146.639C410.149 135.264 404.137 123.339 395.067 115.697C390.94 112.076 386.004 109.885 380.837 109.38C373.454 108.83 366.642 112.347 360.238 116.188C313.384 144.37 269.519 179.703 229.845 219.909C190.068 260.205 154.514 305.73 123.908 355.555C122.972 357.097 120.757 355.624 121.703 354.072C125.424 348.001 129.219 341.996 133.088 336.056C181.196 262.252 240.184 198.785 307.355 148.555C318.656 140.107 330.169 132.055 341.895 124.4C347.805 120.539 353.74 116.728 359.778 113.152C365.697 109.646 371.981 106.492 378.743 106.375C401.752 105.962 413.666 136.02 421.85 156.246C424.421 162.611 427.024 168.957 429.658 175.283C439.613 199.3 449.951 223.098 460.673 246.677C467.29 261.234 474.051 275.707 480.958 290.094C502.451 334.897 525.296 378.793 549.493 421.782C581.546 478.726 613.344 529.029 649.859 582.28C650.864 583.753 649.068 585.856 648.054 584.363Z" fill="#E4E4E4"/>
<path d="M227.571 205.066C226.234 203.347 224.905 201.628 223.56 199.909C212.949 186.373 201.564 172.994 186.993 165.234C180.046 161.417 172.461 159.389 164.767 159.291C156.813 159.321 149.038 161.727 141.689 165.097C138.215 166.698 134.817 168.515 131.47 170.45C127.647 172.67 123.891 175.038 120.153 177.425C113.136 181.904 106.21 186.58 99.3745 191.452C85.7747 201.147 72.6007 211.582 59.8527 222.758C53.2442 228.553 46.7722 234.539 40.4365 240.714C34.5436 246.451 28.77 252.341 23.1155 258.386C21.9063 259.673 20.1009 257.59 21.3101 256.303C22.8003 254.702 24.3076 253.111 25.815 251.539C30.0728 247.099 34.3989 242.744 38.7932 238.475C46.8062 230.675 55.0268 223.177 63.4548 215.98C76.5607 204.782 90.1178 194.343 104.126 184.664C111.126 179.831 118.223 175.201 125.415 170.774C127.587 169.438 129.784 168.132 132.007 166.894C137.05 163.96 142.29 161.499 147.676 159.537C155.305 156.69 163.377 155.775 171.341 156.855C179.031 158.145 186.439 161.102 193.176 165.568C207.482 174.792 218.578 189.055 229.376 202.974C230.466 204.389 228.669 206.481 227.571 205.066Z" fill="#E4E4E4"/>
<path d="M520.704 345.337L554.986 330.873L572.007 323.692C577.55 321.353 583.08 318.691 588.811 317.016C593.791 315.375 599.079 315.453 604.021 317.24C608.428 319.121 612.463 322.006 615.884 325.723C619.38 329.436 622.632 333.442 625.615 337.709C629.32 342.846 632.971 348.037 636.639 353.211C651.775 374.564 666.812 396.009 681.751 417.547C696.688 439.084 711.526 460.714 726.265 482.434C741.039 504.208 755.711 526.073 770.282 548.028C772.067 550.718 773.851 553.409 775.633 556.101C776.617 557.589 778.837 556.122 777.839 554.614C763.16 532.437 748.379 510.352 733.496 488.357C718.577 466.309 703.554 444.355 688.428 422.494C673.302 400.634 658.075 378.869 642.745 357.198C638.925 351.799 635.1 346.407 631.268 341.02C628.036 336.476 624.84 331.883 621.295 327.653C614.787 319.89 606.657 313.029 596.925 312.843C591.203 312.734 585.666 314.828 580.349 317.046C574.618 319.438 568.901 321.874 563.177 324.289L528.655 338.854L520.025 342.495C518.493 343.141 519.155 345.99 520.704 345.337L520.704 345.337Z" fill="#E4E4E4"/>
<path d="M182.483 182.267C165.061 171.939 142.751 173.961 126.742 186.865C157.278 192.942 187.479 201.073 217.192 211.216C204.854 202.875 195.202 189.807 182.483 182.267Z" fill="#F2F2F2"/>
<path d="M126.569 186.829L123.215 189.974C124.349 188.873 125.529 187.841 126.74 186.865C126.683 186.853 126.626 186.841 126.569 186.829Z" fill="#F2F2F2"/>
<path d="M614.592 345.481C611.217 340.743 607.569 335.782 602.521 333.857L597.809 334.071C633.682 407.191 682.131 471.083 740.183 521.825C698.319 463.044 656.456 404.262 614.592 345.481Z" fill="#F2F2F2"/>
<path d="M321.55 306.393C323.73 315.532 328.644 323.487 335.42 328.85C338.039 330.908 341.139 332.882 342.035 336.388C342.506 338.624 342.216 340.983 341.223 342.978C340.233 344.948 339.027 346.763 337.637 348.38L337.51 348.929C331.009 344.485 324.824 338.863 321.233 331.194C317.642 323.524 317.14 313.472 321.55 306.393" fill="#F2F2F2"/>
<path d="M537.987 523.913C540.168 533.052 545.081 541.007 551.857 546.37C554.477 548.428 557.576 550.402 558.472 553.908C558.944 556.144 558.653 558.502 557.661 560.498C556.67 562.468 555.465 564.283 554.074 565.9L553.947 566.449C547.446 562.005 541.261 556.383 537.67 548.713C534.079 541.044 533.578 530.992 537.987 523.913" fill="#F2F2F2"/>
<path d="M106.038 508.911C108.219 518.051 113.132 526.006 119.908 531.369C122.528 533.426 125.627 535.4 126.523 538.907C126.995 541.142 126.704 543.501 125.712 545.496C124.721 547.466 123.516 549.282 122.125 550.898L121.998 551.447C115.497 547.003 109.312 541.382 105.721 533.712C102.13 526.042 101.629 515.99 106.038 508.911" fill="#F2F2F2"/>
<path d="M603.106 109.296C629.27 109.296 650.481 84.829 650.481 54.6478C650.481 24.4667 629.27 0 603.106 0C576.941 0 555.73 24.4667 555.73 54.6478C555.73 84.829 576.941 109.296 603.106 109.296Z" fill="#714DD9"/>
<path d="M688.601 12.7195C665.641 9.13956 639.428 23.4547 633.478 49.2837C631.978 44.6913 629.251 40.7678 625.692 38.0799C622.132 35.392 617.924 34.0789 613.676 34.3304C609.427 34.5819 605.357 36.3849 602.055 39.479C598.753 42.573 596.389 46.7979 595.305 51.5433L597.933 53.7149C647.136 65.9884 698.069 65.7228 747.174 52.9365C731.203 33.5752 711.562 16.2993 688.601 12.7195Z" fill="#F0F0F0"/>
<path d="M590.133 85.5832C567.173 82.0033 540.96 96.3185 535.009 122.147C533.509 117.555 530.783 113.632 527.223 110.944C523.664 108.256 519.456 106.943 515.207 107.194C510.958 107.446 506.889 109.249 503.586 112.343C500.284 115.437 497.92 119.662 496.836 124.407L499.465 126.579C548.668 138.852 599.6 138.587 648.705 125.8C632.734 106.439 613.093 89.1631 590.133 85.5832Z" fill="#F0F0F0"/>
<path d="M790.528 99.3607C790.432 99.3609 790.338 99.344 790.247 99.3105C544.632 9.71145 328.157 21.4281 189.807 47.0349C170.979 50.5184 152.101 54.5418 133.696 58.9943C128.998 60.1297 124.123 61.3466 119.208 62.6138C113.338 64.1217 107.547 65.6746 101.993 67.2275C99.5944 67.8825 97.2428 68.5428 94.938 69.2083C91.4468 70.2024 87.9043 71.2384 84.107 72.3768C79.8637 73.6388 75.5525 74.9625 71.2902 76.3114C71.2746 76.3177 71.2587 76.3229 71.2426 76.3271L71.243 76.3281C66.4288 77.8443 61.6399 79.4046 57.0088 80.9627C54.5024 81.7977 52.0821 82.6213 49.7638 83.4343C49.5048 83.517 49.2753 83.5965 49.0427 83.6781L48.5446 83.8529C48.2561 83.9544 47.9713 84.0538 47.6865 84.148L47.6683 84.1542L47.6688 84.1553L46.9149 84.4253C46.0159 84.7393 45.1387 85.0459 44.276 85.3514C21.4755 93.459 8.94135 99.2268 8.81753 99.2833C8.7043 99.3357 8.58324 99.3618 8.46126 99.3602C8.33927 99.3586 8.21876 99.3293 8.1066 99.2739C7.99444 99.2186 7.89282 99.1383 7.80755 99.0377C7.72229 98.9371 7.65504 98.818 7.60965 98.6874C7.56426 98.5568 7.54163 98.4171 7.54303 98.2764C7.54443 98.1357 7.56984 97.9967 7.61781 97.8673C7.66579 97.738 7.73537 97.6207 7.82262 97.5224C7.90986 97.424 8.01304 97.3465 8.12627 97.2941C8.25101 97.2376 20.8464 91.4405 43.7299 83.3025C44.5958 82.9959 45.4753 82.6893 46.377 82.3744L47.0773 82.1232C47.1013 82.1128 47.1254 82.1044 47.1499 82.096C47.4334 82.0029 47.7164 81.9035 48.004 81.803L48.5029 81.6283C48.7514 81.5414 48.9964 81.4556 49.2472 81.3761C51.5496 80.5683 53.978 79.7426 56.4908 78.9045C61.1237 77.3453 65.9171 75.7851 70.735 74.2668C70.75 74.2605 70.7654 74.2563 70.7804 74.2511V74.25C75.0576 72.897 79.3848 71.5681 83.6416 70.3019C87.4449 69.1623 90.9941 68.1243 94.4912 67.1281C96.8058 66.4637 99.162 65.802 101.56 65.1431C107.12 63.5881 112.923 62.0331 118.803 60.5221C123.726 59.2539 128.609 58.0338 133.315 56.8974C151.748 52.4375 170.656 48.4078 189.513 44.9191C328.061 19.2757 544.847 7.54012 790.807 97.2679C791.018 97.3449 791.199 97.5066 791.316 97.7239C791.433 97.9412 791.479 98.1996 791.445 98.4525C791.412 98.7053 791.301 98.9359 791.132 99.1025C790.964 99.2691 790.749 99.3607 790.528 99.3607Z" fill="#CCCCCC"/>
<path d="M244.297 449.87C243.976 448.785 243.434 447.804 242.718 447.009C242.454 446.726 242.168 446.471 241.863 446.248C239.439 444.383 235.816 443.965 233.512 446.248C233.28 446.48 233.066 446.734 232.871 447.009C232.184 447.984 231.478 448.937 230.753 449.87C229.564 451.434 228.348 452.945 227.075 454.413C226.713 454.82 226.35 455.238 225.979 455.645C225.765 455.892 225.551 456.127 225.338 456.363C224.52 457.263 223.684 458.131 222.839 458.988C222.393 459.449 221.947 459.899 221.492 460.338C220.814 460.992 220.136 461.646 219.448 462.278C219.383 462.331 219.318 462.385 219.253 462.449C219.235 462.46 219.225 462.481 219.207 462.492C219.198 462.492 219.188 462.492 219.179 462.514C219.154 462.525 219.132 462.543 219.114 462.567C218.91 462.728 218.77 462.835 218.668 462.931C218.705 462.91 218.742 462.878 218.78 462.856C218.612 463.006 218.436 463.157 218.269 463.307C216.643 464.689 214.98 466.017 213.28 467.26C209.074 470.365 204.657 473.071 200.071 475.35C199.764 475.49 199.449 475.64 199.133 475.779C187.126 481.453 174.101 483.667 161.186 482.23C159.867 482.112 158.548 481.951 157.229 481.747C155.705 481.49 154.191 481.18 152.686 480.826C146.957 479.507 141.352 477.555 135.947 474.997C129.186 471.426 122.756 467.075 116.755 462.01C115.826 461.249 114.888 460.488 113.95 459.749C115.018 456.727 116.068 453.706 117.09 450.662C117.601 449.194 118.093 447.726 118.576 446.248C122.375 434.857 125.943 423.36 129.361 411.82C132.817 400.129 136.077 388.371 139.143 376.545C139.458 375.345 139.765 374.145 140.062 372.945C141.669 366.698 143.211 360.436 144.688 354.161C144.828 353.55 144.976 352.95 145.106 352.339C145.534 350.539 145.952 348.739 146.36 346.939C147.289 342.878 145.19 338.024 141.493 337.049C139.713 336.522 137.825 336.813 136.227 337.861C134.63 338.908 133.447 340.63 132.928 342.663C132.529 344.399 132.129 346.124 131.72 347.86C129.76 356.25 127.698 364.612 125.534 372.945C125.218 374.145 124.902 375.345 124.586 376.545C119.812 394.697 114.569 412.666 108.86 430.453C108.172 432.607 107.475 434.754 106.769 436.893C106.426 437.943 106.082 438.994 105.729 440.044C105.051 442.112 104.354 444.18 103.658 446.248C103.258 447.459 102.849 448.669 102.441 449.87C102.171 450.63 101.911 451.391 101.651 452.141C99.0025 451.044 96.2585 450.283 93.4672 449.87L93.0213 449.805C90.8573 449.505 88.6688 449.527 86.5095 449.87C83.2779 450.304 80.1685 451.553 77.4012 453.527C74.6338 455.501 72.2762 458.151 70.4948 461.292C66.0638 469.339 66.1196 480.847 72.3341 487.684C78.7344 494.724 88.4231 494.67 95.9567 490.266C99.9491 487.775 103.315 484.135 105.729 479.701C106.654 478.093 107.503 476.43 108.274 474.718C108.469 474.868 108.664 475.018 108.86 475.179C109.603 475.779 110.346 476.39 111.08 476.99C115.356 480.563 119.862 483.755 124.558 486.537C134.658 492.329 145.529 496.121 156.718 497.756C156.969 497.788 157.21 497.831 157.461 497.863C158.697 498.045 159.941 498.185 161.186 498.303C179.042 499.855 196.92 495.64 212.816 486.13C214.163 485.326 215.497 484.483 216.82 483.601C218.872 482.23 220.879 480.772 222.839 479.229C223.907 478.394 224.948 477.547 225.979 476.658C230.485 472.83 234.685 468.544 238.529 463.853C239.987 462.085 241.383 460.26 242.718 458.377C243.98 456.838 244.707 454.816 244.762 452.698C244.754 451.731 244.597 450.773 244.297 449.87ZM90.4761 475.393C90.6712 475.233 90.8662 475.061 91.052 474.89C90.9963 475.05 90.7269 475.233 90.4761 475.393H90.4761ZM93.4579 471.932C93.2443 472.211 93.0492 472.489 92.8355 472.768C92.1856 473.607 91.4873 474.395 90.7454 475.125C90.6433 475.233 90.5318 475.34 90.4203 475.436C90.4191 475.436 90.4179 475.436 90.4167 475.437C90.4156 475.437 90.4146 475.438 90.4137 475.439C90.4128 475.44 90.4122 475.441 90.4117 475.443C90.4112 475.444 90.411 475.445 90.411 475.447C90.2769 475.516 90.1465 475.595 90.0209 475.683C89.6214 475.961 89.2127 476.218 88.7947 476.454C87.9763 476.802 87.1343 477.07 86.2773 477.258C85.6189 477.313 84.958 477.32 84.2987 477.279H84.2801C83.8251 477.163 83.3756 477.02 82.9332 476.851C82.7102 476.722 82.4966 476.572 82.2829 476.422C82.1993 476.336 82.125 476.251 82.0786 476.197C81.9878 476.101 81.904 475.997 81.8278 475.886C81.8278 475.885 81.8276 475.883 81.8271 475.882C81.8267 475.881 81.826 475.88 81.8252 475.879C81.8243 475.878 81.8232 475.877 81.8221 475.876C81.821 475.876 81.8197 475.875 81.8185 475.875C81.7163 475.661 81.6048 475.447 81.5027 475.233C81.4974 475.227 81.4941 475.219 81.4934 475.211C81.4191 474.943 81.3541 474.665 81.2983 474.386C81.2782 473.897 81.2813 473.407 81.3076 472.918C81.4322 472.233 81.5999 471.56 81.8092 470.904C81.9973 470.438 82.2114 469.987 82.4502 469.553C82.4688 469.511 82.5617 469.339 82.6638 469.146C82.6731 469.136 82.6731 469.136 82.6731 469.125C82.8125 468.943 82.9518 468.75 83.1004 468.578C83.3513 468.257 83.6207 467.978 83.89 467.689C84.4139 467.293 84.9567 466.932 85.5157 466.607C86.4025 466.243 87.3125 465.96 88.2374 465.76C89.6014 465.635 90.9722 465.65 92.334 465.803C93.6238 466.061 94.8964 466.423 96.1426 466.885C95.3873 468.576 94.5274 470.202 93.5695 471.75C93.5322 471.814 93.4951 471.879 93.4579 471.932ZM83.1283 468.407C83.0464 468.558 82.9498 468.699 82.8403 468.825C82.914 468.667 83.0115 468.525 83.1283 468.407Z" fill="#3F3D56"/>
<path d="M216.375 340.435C216.291 343.799 216.208 347.164 216.124 350.528C215.947 357.997 215.765 365.469 215.576 372.945C215.381 381.356 215.176 389.764 214.963 398.168C214.861 402.508 214.755 406.848 214.647 411.187C214.359 422.878 214.074 434.565 213.792 446.248C213.764 447.459 213.727 448.659 213.699 449.869C213.56 455.666 213.421 461.463 213.281 467.26C213.124 473.55 212.969 479.84 212.817 486.13C212.705 490.845 212.591 495.563 212.473 500.285C211.637 534.499 210.801 568.712 209.965 602.926C209.93 605.045 209.184 607.065 207.886 608.564C206.587 610.062 204.835 610.922 202.998 610.963C201.155 610.946 199.392 610.093 198.088 608.59C196.785 607.087 196.046 605.052 196.031 602.926C196.496 583.682 196.966 564.437 197.443 545.192C197.861 527.791 198.285 510.389 198.716 492.988C198.855 487.255 198.995 481.519 199.134 475.779C199.348 467.142 199.558 458.506 199.766 449.869C199.793 448.659 199.831 447.459 199.858 446.248C199.877 445.187 199.905 444.137 199.933 443.076C200.341 426.307 200.75 409.534 201.159 392.757C201.326 386.157 201.487 379.552 201.642 372.945C201.828 365.412 202.014 357.883 202.199 350.357C202.283 347.046 202.357 343.746 202.441 340.435C202.476 338.316 203.222 336.295 204.521 334.797C205.819 333.299 207.571 332.439 209.408 332.398C211.251 332.415 213.014 333.267 214.318 334.771C215.621 336.274 216.36 338.308 216.375 340.435Z" fill="#3F3D56"/>
<path d="M598.561 342.665C591.255 374.574 582.523 406.027 572.401 436.896C569.608 445.411 566.75 453.909 563.695 462.304L564.398 460.384C563.034 464.383 561.293 468.196 559.205 471.755C559.063 471.984 558.919 472.212 558.772 472.437C559.494 471.372 559.631 471.162 559.183 471.806C558.947 472.128 558.714 472.451 558.47 472.765C557.82 473.605 557.122 474.393 556.381 475.126C556.194 475.31 556.005 475.49 555.813 475.666L556.684 474.885C556.583 475.16 555.873 475.525 555.652 475.681C554.936 476.179 554.19 476.616 553.418 476.987L555.082 476.177C553.818 476.764 552.499 477.182 551.152 477.421L553.004 477.133C551.68 477.344 550.339 477.361 549.012 477.183L550.864 477.47C549.778 477.297 548.715 476.967 547.701 476.487L549.365 477.297C548.824 477.025 548.303 476.704 547.806 476.337C547.554 476.148 546.779 475.471 547.792 476.363C548.845 477.291 547.927 476.443 547.71 476.196C547.53 475.991 547.367 475.768 547.19 475.559C546.371 474.59 548.116 477.227 547.559 476.093C547.261 475.525 546.989 474.94 546.743 474.339L547.446 476.259C547.126 475.345 546.899 474.392 546.769 473.418L547.018 475.554C546.885 474.343 546.884 473.118 547.015 471.906L546.766 474.042C546.937 472.69 547.247 471.366 547.691 470.099L546.988 472.019C547.297 471.167 547.663 470.343 548.082 469.556C548.276 469.149 548.502 468.765 548.759 468.408C548.805 468.425 547.581 470.029 548.23 469.219C548.4 469.007 548.559 468.784 548.731 468.574C549.006 468.238 549.301 467.93 549.591 467.612C550.561 466.546 548.233 468.647 549.352 467.804C550.164 467.188 551.018 466.651 551.906 466.197L550.242 467.007C551.729 466.303 553.289 465.82 554.882 465.572L553.03 465.859C555.026 465.594 557.042 465.621 559.032 465.941L557.18 465.654C559.699 466.094 562.161 466.893 564.51 468.032L562.846 467.222C567.853 469.702 572.287 473.383 576.713 476.992C580.988 480.563 585.493 483.754 590.188 486.536C600.288 492.329 611.16 496.122 622.35 497.759C638.398 500.026 654.682 497.609 669.709 490.728C684.736 483.848 698.025 472.724 708.355 458.378C709.616 456.836 710.342 454.814 710.396 452.696C710.383 450.567 709.651 448.529 708.355 447.013C705.799 444.306 700.971 443.542 698.502 447.013C696.163 450.307 693.648 453.431 690.972 456.364C689.723 457.731 688.44 459.056 687.124 460.339C686.372 461.072 685.611 461.79 684.838 462.494C684.473 462.827 683.335 463.714 685.083 462.283C684.682 462.611 684.298 462.969 683.902 463.306C678.052 468.281 671.712 472.44 665.015 475.698L666.679 474.888C659.493 478.365 651.945 480.75 644.226 481.984L646.078 481.697C638.137 482.902 630.093 482.888 622.155 481.656L624.007 481.943C616.071 480.686 608.309 478.247 600.917 474.688L602.581 475.499C595.447 471.858 588.677 467.334 582.389 462.007C579.117 459.212 575.666 456.707 572.066 454.512C567.872 452.042 563.331 450.449 558.655 449.81C549.887 448.62 540.952 452.559 536.132 461.297C531.695 469.339 531.753 480.846 537.965 487.684C544.363 494.726 554.053 494.667 561.593 490.261C568.855 486.019 573.216 477.205 576.284 468.893C583.187 450.19 589.298 431.054 594.992 411.821C600.626 392.792 605.734 373.572 610.318 354.158C610.886 351.754 611.445 349.347 611.997 346.937C612.926 342.878 610.825 338.022 607.131 337.052C605.35 336.523 603.461 336.813 601.862 337.86C600.263 338.907 599.079 340.63 598.56 342.665L598.561 342.665Z" fill="#3F3D56"/>
<path d="M668.077 340.434L665.569 443.079L663.075 545.189L661.664 602.927C661.68 605.053 662.419 607.086 663.722 608.59C665.025 610.093 666.788 610.945 668.631 610.963C670.468 610.922 672.219 610.063 673.518 608.564C674.817 607.066 675.562 605.045 675.598 602.927L678.106 500.282L680.6 398.172L682.011 340.434C681.995 338.308 681.256 336.275 679.953 334.772C678.65 333.268 676.887 332.416 675.044 332.398C673.207 332.439 671.456 333.298 670.157 334.797C668.858 336.295 668.112 338.316 668.077 340.434Z" fill="#3F3D56"/>
<path opacity="0.2" d="M426.928 574.268H429.092V460.642H479.559V458.153H429.092V410.208H468.065C467.494 409.37 466.906 408.542 466.301 407.726H429.092V376.059C428.376 375.707 427.655 375.368 426.928 375.048V407.726H384.521V367.152C383.794 367.19 383.079 367.248 382.357 367.318V407.726H348.526V377.454C347.799 377.825 347.084 378.215 346.374 378.625V407.726H317.934V410.208H346.374V458.153H317.934V460.642H346.374V574.268H348.526V460.642C352.969 460.641 357.369 461.65 361.474 463.611C365.579 465.571 369.309 468.446 372.45 472.07C375.592 475.694 378.084 479.996 379.784 484.732C381.484 489.467 382.358 494.542 382.357 499.667V574.268H384.521V460.642H426.928V574.268ZM348.526 458.153V410.208H382.357V458.153H348.526ZM384.521 458.153V410.208H385.369C390.827 410.209 396.232 411.449 401.274 413.859C406.317 416.268 410.898 419.8 414.757 424.252C418.616 428.704 421.677 433.99 423.766 439.806C425.854 445.623 426.929 451.857 426.928 458.153H384.521Z" fill="black"/>
<path d="M413.714 540.199C410.991 554.213 404.467 566.862 395.089 576.31C394.402 576.995 393.715 577.66 392.999 578.313C391.262 578.496 389.537 578.681 387.825 578.871C386.404 579.021 385.001 579.181 383.608 579.331L383.357 579.363L383.181 577.606L382.475 570.491C379.736 565.334 378.038 559.531 377.508 553.514C376.977 547.497 377.627 541.419 379.409 535.731C381.861 528.102 386.302 521.362 390.668 514.675C396.696 505.439 402.558 496.309 402.772 485.048C405.738 489.427 408.204 494.227 410.11 499.331C408.312 500.308 406.696 501.68 405.354 503.371C404.973 503.853 404.592 504.528 404.852 505.107C405.075 505.6 405.633 505.717 406.116 505.782C407.277 505.921 408.447 506.06 409.609 506.2C410.537 506.317 411.466 506.425 412.395 506.542C413.519 510.797 414.281 515.168 414.671 519.594C415.297 526.477 414.974 533.432 413.714 540.199Z" fill="#3F3D56"/>
<path d="M444.555 512.115C439.075 516.711 435.87 523.323 433.38 530.609C430.829 531.551 428.534 533.242 426.72 535.517C426.339 535.999 425.958 536.674 426.218 537.253C426.441 537.745 426.999 537.863 427.482 537.928C428.643 538.067 429.813 538.206 430.975 538.345C428.485 546.961 426.2 555.876 421.797 563.151C418.868 567.955 415.051 571.948 410.622 574.842C409.414 575.636 408.167 576.348 406.887 576.974C402.169 577.392 397.539 577.838 393 578.313C391.263 578.496 389.538 578.681 387.826 578.871C386.405 579.021 385.002 579.181 383.609 579.331C383.599 578.742 383.599 578.153 383.609 577.563C383.902 561.864 388.909 546.769 397.775 534.852C398.193 534.295 398.62 533.749 399.057 533.202C403.548 527.668 408.83 523.065 414.672 519.594C423.877 514.073 434.194 511.491 444.555 512.115Z" fill="#714DD9"/>
<path d="M389.434 573.374L388.366 577.017L387.827 578.871C386.406 579.021 385.003 579.181 383.61 579.331L383.359 579.364C381.817 579.546 380.284 579.728 378.752 579.91C378.352 579.374 377.953 578.828 377.563 578.271C367.866 564.727 363.212 547.306 364.617 529.816C366.022 512.326 373.371 496.189 385.059 484.93C383.833 492.334 385.263 499.428 387.614 506.468C387.363 506.585 387.121 506.703 386.889 506.832C385.091 507.808 383.475 509.181 382.133 510.871C381.752 511.354 381.371 512.029 381.631 512.607C381.854 513.1 382.412 513.218 382.895 513.282C384.056 513.422 385.226 513.561 386.387 513.7C387.316 513.818 388.245 513.925 389.174 514.043C389.611 514.097 390.047 514.15 390.484 514.204C390.549 514.365 390.605 514.515 390.67 514.675C393.317 521.297 396.169 527.952 397.776 534.852C398.179 536.584 398.495 538.34 398.724 540.113C399.439 546.106 398.975 552.208 397.367 557.966C395.759 563.723 393.048 568.99 389.434 573.374Z" fill="#714DD9"/>
<path d="M482.937 417.96C474.94 399.967 462.55 384.828 447.979 373.702C433.361 362.592 416.587 355.826 399.152 354.008C396.867 353.768 394.576 353.628 392.279 353.587C389.565 353.54 348.744 367.122 335.069 378.213C321.402 389.168 310.159 403.677 302.247 420.567C294.349 437.55 290.465 456.631 290.983 475.894C291.66 495.272 296.343 514.183 304.641 531.051C312.826 547.864 324.447 562.116 338.495 572.568C352.743 583.055 367.055 610.86 383.877 611.841C400.826 612.831 420.156 586.602 435.614 578.638C451.072 570.608 464.437 558.045 474.374 542.201C484.031 526.674 490.278 508.676 492.58 489.752C494.971 470.375 493.857 450.392 488.12 431.872C486.648 427.113 484.917 422.467 482.937 417.96C481.283 414.204 476.438 412.821 473.404 415.077C471.842 416.187 470.71 417.949 470.244 419.997C469.779 422.045 470.016 424.221 470.905 426.072C471.876 428.278 472.779 430.52 473.613 432.799L472.911 430.879C476.069 439.639 478.217 448.839 479.299 458.244L479.05 456.108C480.2 466.311 480.18 476.645 478.988 486.842L479.237 484.705C478.033 494.902 475.674 504.871 472.219 514.359L472.922 512.439C471.145 517.28 469.074 521.97 466.724 526.474C465.533 528.75 464.27 530.972 462.934 533.141C462.347 534.093 461.742 535.028 461.133 535.96C460.337 537.177 462.217 534.371 461.395 535.565C461.255 535.768 461.116 535.972 460.975 536.175C460.553 536.783 460.125 537.386 459.692 537.983C456.795 541.969 453.635 545.689 450.238 549.109C449.392 549.961 448.532 550.794 447.658 551.607C447.223 552.013 446.792 552.435 446.338 552.812C446.355 552.798 447.805 551.527 446.947 552.265C446.677 552.497 446.41 552.732 446.139 552.963C444.337 554.503 442.487 555.965 440.59 557.348C436.22 560.523 431.637 563.287 426.883 565.613L428.547 564.803C420.346 568.785 411.727 571.505 402.912 572.894L404.764 572.607C395.952 573.981 387.022 573.999 378.206 572.661L380.059 572.948C372.047 571.708 364.21 569.264 356.747 565.679L358.411 566.489C354.089 564.384 349.921 561.878 345.949 558.998C343.983 557.569 342.068 556.052 340.204 554.447C339.939 554.218 339.675 553.985 339.41 553.755C338.56 553.015 340.021 554.301 340.033 554.31C339.538 553.901 339.062 553.463 338.607 552.998C337.707 552.152 336.821 551.287 335.949 550.403C332.46 546.858 329.202 543.023 326.201 538.927C325.45 537.903 324.715 536.863 323.996 535.808C323.685 535.352 323.117 534.426 324.372 536.375C324.207 536.119 324.035 535.867 323.869 535.612C323.468 534.999 323.073 534.382 322.684 533.76C321.319 531.583 320.023 529.352 318.793 527.068C316.016 521.897 313.591 516.484 311.543 510.879L312.245 512.799C308.893 503.598 306.6 493.93 305.426 484.042L305.675 486.179C304.616 477.064 304.601 467.828 305.63 458.709L305.381 460.845C306.437 452.014 308.496 443.382 311.507 435.173L310.805 437.092C312.699 431.953 314.934 426.989 317.489 422.245C318.768 419.871 320.123 417.555 321.555 415.296C321.881 414.783 322.209 414.273 322.542 413.766C322.843 413.308 323.671 412.166 322.258 414.183C322.397 413.985 322.53 413.782 322.667 413.582C323.452 412.434 324.257 411.303 325.082 410.191C328.201 405.979 331.579 402.032 335.191 398.382C336.104 397.459 337.031 396.556 337.973 395.672C338.401 395.27 338.832 394.873 339.265 394.479C339.439 394.322 339.614 394.168 339.787 394.009C337.931 395.713 339.271 394.473 339.693 394.109C341.633 392.431 343.626 390.838 345.671 389.328C350.215 385.976 354.997 383.07 359.964 380.641L358.299 381.451C365.508 377.959 397.445 369.718 403.254 370.618L401.402 370.331C409.939 371.706 418.284 374.365 426.222 378.241L424.558 377.431C428.581 379.402 432.491 381.667 436.263 384.213C438.148 385.488 439.995 386.831 441.806 388.245C442.663 388.914 443.511 389.598 444.35 390.297C444.769 390.646 445.186 390.999 445.6 391.356C445.831 391.554 446.059 391.755 446.289 391.954C447.254 392.789 444.959 390.745 445.971 391.669C449.358 394.738 452.575 398.049 455.602 401.584C457.089 403.33 458.525 405.132 459.909 406.99C460.62 407.943 461.315 408.91 461.996 409.891C462.335 410.378 463.487 412.142 462.075 409.981C462.42 410.51 462.769 411.034 463.11 411.566C466.045 416.149 468.652 421.001 470.905 426.072C472.571 429.82 477.395 431.218 480.437 428.956C482 427.846 483.133 426.084 483.598 424.036C484.064 421.988 483.827 419.812 482.937 417.96Z" fill="#3F3D56"/>
<path d="M401.759 549.11C401.04 549.148 400.328 548.93 399.719 548.486C399.111 548.041 398.636 547.392 398.358 546.626C398.08 545.86 398.014 545.014 398.167 544.202C398.32 543.391 398.685 542.653 399.214 542.09C399.303 541.684 399.366 541.392 399.455 540.986C399.423 540.898 399.391 540.81 399.359 540.721C396.127 531.83 375.5 556.616 374.608 564.972C374.215 568.666 374.381 572.41 375.097 576.038C368.416 559.226 364.947 540.953 364.924 522.459C364.923 517.818 365.146 513.181 365.594 508.568C365.964 504.787 366.477 501.033 367.133 497.306C370.714 477.083 378.403 458.128 389.568 441.998C395.953 442.409 401.549 441.287 402.089 427.012C402.186 424.473 403.818 422.274 404.178 419.773C403.568 419.865 402.949 419.923 402.339 419.969C402.149 419.98 401.95 419.992 401.76 420.003L401.688 420.007C401.018 420.042 400.354 419.852 399.775 419.461C399.196 419.071 398.728 418.495 398.426 417.805C398.124 417.114 398.002 416.337 398.073 415.568C398.145 414.799 398.408 414.07 398.831 413.469C399.094 413.096 399.358 412.722 399.621 412.349C400.021 411.773 400.431 411.208 400.83 410.632C400.876 410.577 400.92 410.519 400.96 410.459C401.42 409.801 401.88 409.156 402.339 408.499C401.5 406.997 400.372 405.738 399.041 404.822C394.435 401.709 388.079 403.865 384.751 408.672C381.413 413.479 380.784 420.222 381.943 426.228C383.083 431.338 384.969 436.188 387.519 440.568C387.269 440.937 387.009 441.294 386.76 441.663C382.193 448.437 378.212 455.711 374.875 463.381C375.819 454.875 364.275 424.155 359.81 417.648C354.447 409.832 343.451 413.243 342.506 423.151C342.497 423.247 342.488 423.343 342.479 423.438C343.142 423.87 343.791 424.328 344.427 424.813C345.224 425.428 345.843 426.306 346.2 427.333C346.558 428.36 346.638 429.488 346.431 430.569C346.223 431.65 345.737 432.633 345.037 433.39C344.337 434.146 343.455 434.642 342.506 434.81L342.409 434.828C333.533 449.447 361.989 487.498 369.111 478.954C365.759 489.914 363.656 501.329 362.856 512.914C362.403 519.749 362.429 526.615 362.936 533.444L362.906 533.202C361.323 518.327 334.173 496.211 326.244 498.053C321.677 499.114 317.178 498.873 317.872 504.187C317.883 504.272 317.894 504.357 317.906 504.442C319.136 505.02 320.334 505.686 321.493 506.436C322.156 506.867 322.805 507.325 323.441 507.81C324.238 508.425 324.857 509.303 325.214 510.331C325.572 511.358 325.652 512.485 325.445 513.566C325.237 514.647 324.751 515.63 324.051 516.387C323.351 517.144 322.469 517.639 321.52 517.808L321.423 517.825C321.353 517.836 321.293 517.848 321.223 517.859C317.183 533.896 347.147 559.778 365.364 551.542H365.374C367.179 560.591 369.795 569.4 373.179 577.825H401.06C401.16 577.468 401.25 577.099 401.34 576.741C398.759 576.928 396.168 576.75 393.625 576.211C395.694 573.283 397.762 570.332 399.831 567.404C399.877 567.349 399.92 567.292 399.961 567.231C401.01 565.733 402.069 564.246 403.119 562.747L403.119 562.745C403.175 558.152 402.718 553.569 401.76 549.11L401.759 549.11ZM369.831 476.66L369.846 476.638L369.831 476.683V476.66ZM363.655 540.88L363.415 540.257C363.425 539.808 363.425 539.358 363.415 538.897C363.415 538.77 363.395 538.643 363.395 538.517C363.485 539.312 363.565 540.107 363.665 540.903L363.655 540.88Z" fill="#3F3D56"/>
<path d="M88.4799 482.187C94.1233 482.187 98.6981 476.91 98.6981 470.4C98.6981 463.89 94.1233 458.613 88.4799 458.613C82.8366 458.613 78.2617 463.89 78.2617 470.4C78.2617 476.91 82.8366 482.187 88.4799 482.187Z" fill="#3F3D56"/>
<path d="M211.097 610.77C216.74 610.77 221.315 605.493 221.315 598.983C221.315 592.473 216.74 587.196 211.097 587.196C205.454 587.196 200.879 592.473 200.879 598.983C200.879 605.493 205.454 610.77 211.097 610.77Z" fill="#3F3D56"/>
<path d="M676.492 610.77C682.135 610.77 686.71 605.493 686.71 598.983C686.71 592.473 682.135 587.196 676.492 587.196C670.848 587.196 666.273 592.473 666.273 598.983C666.273 605.493 670.848 610.77 676.492 610.77Z" fill="#3F3D56"/>
<path d="M701.57 460.756C707.213 460.756 711.788 455.479 711.788 448.969C711.788 442.46 707.213 437.183 701.57 437.183C695.926 437.183 691.352 442.46 691.352 448.969C691.352 455.479 695.926 460.756 701.57 460.756Z" fill="#3F3D56"/>
<path d="M671.847 351.461C677.49 351.461 682.065 346.183 682.065 339.674C682.065 333.164 677.49 327.887 671.847 327.887C666.204 327.887 661.629 333.164 661.629 339.674C661.629 346.183 666.204 351.461 671.847 351.461Z" fill="#3F3D56"/>
<path d="M245.467 448.969C245.461 451.98 244.451 454.873 242.647 457.049C240.844 459.226 238.384 460.519 235.777 460.661C233.169 460.803 230.615 459.784 228.641 457.814C226.667 455.844 225.425 453.074 225.173 450.077C224.92 447.081 225.676 444.087 227.284 441.715C228.892 439.343 231.229 437.775 233.811 437.336C236.393 436.896 239.023 437.618 241.156 439.353C243.289 441.088 244.763 443.702 245.272 446.655C245.403 447.417 245.468 448.192 245.467 448.969Z" fill="#3F3D56"/>
<path d="M449.831 385.749C455.475 385.749 460.05 380.472 460.05 373.963C460.05 367.453 455.475 362.176 449.831 362.176C444.188 362.176 439.613 367.453 439.613 373.963C439.613 380.472 444.188 385.749 449.831 385.749Z" fill="#3F3D56"/>
<path d="M348.58 373.963C348.574 376.973 347.564 379.866 345.761 382.042C343.957 384.219 341.497 385.512 338.89 385.654C336.283 385.796 333.728 384.777 331.754 382.807C329.78 380.837 328.539 378.067 328.286 375.07C328.033 372.074 328.789 369.08 330.397 366.708C332.005 364.336 334.342 362.768 336.924 362.329C339.506 361.889 342.136 362.611 344.269 364.346C346.403 366.081 347.876 368.695 348.385 371.648C348.516 372.41 348.581 373.186 348.58 373.963Z" fill="#3F3D56"/>
<path d="M216.67 339.674C216.664 342.685 215.654 345.577 213.851 347.754C212.047 349.93 209.587 351.223 206.98 351.365C204.373 351.508 201.818 350.488 199.844 348.518C197.87 346.548 196.628 343.778 196.376 340.782C196.123 337.785 196.879 334.791 198.487 332.419C200.095 330.047 202.432 328.48 205.014 328.04C207.596 327.6 210.226 328.322 212.359 330.057C214.492 331.792 215.966 334.406 216.475 337.359C216.606 338.121 216.671 338.897 216.67 339.674Z" fill="#3F3D56"/>
<path d="M556.66 486.473C562.303 486.473 566.878 481.196 566.878 474.686C566.878 468.176 562.303 462.899 556.66 462.899C551.016 462.899 546.441 468.176 546.441 474.686C546.441 481.196 551.016 486.473 556.66 486.473Z" fill="#3F3D56"/>
<path d="M395.953 379.32C404.161 379.32 410.816 371.644 410.816 362.176C410.816 352.707 404.161 345.031 395.953 345.031C387.744 345.031 381.09 352.707 381.09 362.176C381.09 371.644 387.744 379.32 395.953 379.32Z" fill="#3F3D56"/>
<path d="M797.894 611.671L1.10605 612C0.960801 612 0.81697 611.967 0.682777 611.903C0.548584 611.839 0.426661 611.745 0.323954 611.626C0.221247 611.508 0.139766 611.367 0.0841813 611.212C0.0285967 611.058 0 610.892 0 610.724C0 610.556 0.0285967 610.391 0.0841813 610.236C0.139766 610.081 0.221247 609.94 0.323954 609.822C0.426661 609.703 0.548584 609.609 0.682777 609.545C0.81697 609.481 0.960801 609.448 1.10605 609.448L797.894 609.119C798.187 609.12 798.467 609.255 798.674 609.494C798.881 609.733 798.997 610.057 798.997 610.395C798.997 610.732 798.881 611.056 798.674 611.296C798.467 611.535 798.187 611.67 797.894 611.671Z" fill="#CACACA"/>
</g>
<defs>
<clipPath id="clip0_1186_52205">
<rect width="799" height="612" fill="white"/>
</clipPath>
</defs>
</svg>
