<svg width="48" height="48" viewBox="0 0 48 48" fill="none" xmlns="http://www.w3.org/2000/svg">
<path d="M24.3008 33V37.2" stroke="#37E288" stroke-width="1.5" stroke-linecap="round" stroke-linejoin="round"/>
<path d="M14.3008 44H34.3008V42C34.3008 39.8 32.5008 38 30.3008 38H18.3008C16.1008 38 14.3008 39.8 14.3008 42V44V44Z" stroke="#37E288" stroke-width="1.5" stroke-miterlimit="10"/>
<path d="M12.3008 44H36.3008" stroke="#37E288" stroke-width="1.5" stroke-linecap="round" stroke-linejoin="round"/>
<path d="M24 32C16.26 32 10 25.74 10 18V12C10 7.58 13.58 4 18 4H30C34.42 4 38 7.58 38 12V18C38 25.74 31.74 32 24 32Z" stroke="#37E288" stroke-width="1.5" stroke-linecap="round" stroke-linejoin="round"/>
<path d="M10.9401 23.2992C9.44008 22.8192 8.12008 21.9392 7.08008 20.8992C5.28008 18.8992 4.08008 16.4992 4.08008 13.6992C4.08008 10.8992 6.28008 8.69922 9.08008 8.69922H10.3801C9.98008 9.61922 9.78008 10.6392 9.78008 11.6992V17.6992C9.78008 19.6992 10.2001 21.5792 10.9401 23.2992Z" stroke="#37E288" stroke-width="1.5" stroke-linecap="round" stroke-linejoin="round"/>
<path d="M37.0605 23.2992C38.5605 22.8192 39.8805 21.9392 40.9205 20.8992C42.7205 18.8992 43.9205 16.4992 43.9205 13.6992C43.9205 10.8992 41.7205 8.69922 38.9205 8.69922H37.6205C38.0205 9.61922 38.2205 10.6392 38.2205 11.6992V17.6992C38.2205 19.6992 37.8005 21.5792 37.0605 23.2992Z" stroke="#37E288" stroke-width="1.5" stroke-linecap="round" stroke-linejoin="round"/>
</svg>
