<svg width="80" height="80" viewBox="0 0 80 80" fill="none" xmlns="http://www.w3.org/2000/svg">
<path d="M26.666 40.666H49.9994" stroke="#FDA758" stroke-width="1.5" stroke-miterlimit="10" stroke-linecap="round" stroke-linejoin="round"/>
<path d="M26.666 54H41.266" stroke="#FDA758" stroke-width="1.5" stroke-miterlimit="10" stroke-linecap="round" stroke-linejoin="round"/>
<path d="M33.3327 19.9993H46.666C53.3327 19.9993 53.3327 16.666 53.3327 13.3327C53.3327 6.66602 49.9993 6.66602 46.666 6.66602H33.3327C29.9993 6.66602 26.666 6.66602 26.666 13.3327C26.666 19.9993 29.9993 19.9993 33.3327 19.9993Z" stroke="#FDA758" stroke-width="1.5" stroke-miterlimit="10" stroke-linecap="round" stroke-linejoin="round"/>
<path d="M53.3333 13.4004C64.4333 14.0004 70 18.1004 70 33.3337V53.3337C70 66.6671 66.6667 73.3337 50 73.3337H30C13.3333 73.3337 10 66.6671 10 53.3337V33.3337C10 18.1337 15.5667 14.0004 26.6667 13.4004" stroke="#FDA758" stroke-width="1.5" stroke-miterlimit="10" stroke-linecap="round" stroke-linejoin="round"/>
</svg>
