<svg width="129" height="33" viewBox="0 0 129 33" fill="none" xmlns="http://www.w3.org/2000/svg">
<g clip-path="url(#clip0_847_42837)">
<path d="M11.9308 19.6338L21.6944 3.981C22.0841 3.35632 23.009 3.405 23.3309 4.06713L27.0722 11.7623C27.4268 12.4917 27.2716 13.3665 26.6878 13.9293L16.2781 23.9645L11.9308 19.6338Z" fill="#F7941F"/>
<path fill-rule="evenodd" clip-rule="evenodd" d="M7.56136 30.5338L1.91051 16.2429C1.71938 15.7596 1.95852 15.2131 2.44323 15.0254L5.30764 13.9166C5.66235 13.7793 6.06487 13.8702 6.32613 14.1467L15.6377 23.9989C15.7114 24.0768 15.7495 24.1817 15.7432 24.2887L9.08984 30.8559C8.61216 31.3273 7.80816 31.1579 7.56136 30.5338Z" fill="#5D21E6"/>
<path d="M1.91051 16.2429L1.91981 16.2392L1.91051 16.2429ZM7.56136 30.5338L7.57066 30.5301L7.56136 30.5338ZM2.44323 15.0254L2.43962 15.0161L2.44323 15.0254ZM5.30764 13.9166L5.30403 13.9073L5.30764 13.9166ZM6.32613 14.1467L6.3334 14.1398L6.32613 14.1467ZM15.6377 23.9989L15.645 23.992L15.6377 23.9989ZM15.7432 24.2887L15.7527 24.2983L15.7532 24.2893L15.7432 24.2887ZM9.08984 30.8559L9.09686 30.863L9.08984 30.8559ZM1.90121 16.2466L7.55206 30.5375L7.57066 30.5301L1.91981 16.2392L1.90121 16.2466ZM2.43962 15.0161C1.94973 15.2057 1.70804 15.7581 1.90121 16.2466L1.91981 16.2392C1.73072 15.7611 1.9673 15.2204 2.44684 15.0348L2.43962 15.0161ZM5.30403 13.9073L2.43962 15.0161L2.44684 15.0348L5.31125 13.926L5.30403 13.9073ZM6.3334 14.1398C6.06935 13.8604 5.66253 13.7685 5.30403 13.9073L5.31125 13.926C5.66217 13.7901 6.06039 13.8801 6.31886 14.1535L6.3334 14.1398ZM15.645 23.992L6.3334 14.1398L6.31886 14.1535L15.6305 24.0058L15.645 23.992ZM15.7532 24.2893C15.7597 24.1795 15.7205 24.072 15.645 23.992L15.6305 24.0058C15.7022 24.0817 15.7394 24.1838 15.7332 24.2881L15.7532 24.2893ZM9.09686 30.863L15.7503 24.2958L15.7362 24.2816L9.08281 30.8487L9.09686 30.863ZM7.55206 30.5375C7.8015 31.1683 8.61409 31.3395 9.09686 30.863L9.08281 30.8487C8.61024 31.3152 7.81482 31.1476 7.57066 30.5301L7.55206 30.5375Z" fill="#5D21E6"/>
</g>
<path d="M41.9868 26V11.768H36.5388V8.72H50.6988V11.768H45.2508V26H41.9868ZM53.8273 26V8.72H57.0913V26H53.8273ZM69.0648 26.36C67.3368 26.36 65.8448 25.984 64.5888 25.232C63.3408 24.48 62.3768 23.428 61.6968 22.076C61.0248 20.724 60.6888 19.152 60.6888 17.36C60.6888 15.568 61.0248 13.996 61.6968 12.644C62.3768 11.292 63.3408 10.24 64.5888 9.488C65.8448 8.736 67.3368 8.36 69.0648 8.36C71.0488 8.36 72.7128 8.852 74.0568 9.836C75.4088 10.82 76.3608 12.152 76.9128 13.832L73.6248 14.744C73.3048 13.696 72.7648 12.884 72.0048 12.308C71.2448 11.724 70.2648 11.432 69.0648 11.432C67.9688 11.432 67.0528 11.676 66.3168 12.164C65.5888 12.652 65.0408 13.34 64.6728 14.228C64.3048 15.116 64.1208 16.16 64.1208 17.36C64.1208 18.56 64.3048 19.604 64.6728 20.492C65.0408 21.38 65.5888 22.068 66.3168 22.556C67.0528 23.044 67.9688 23.288 69.0648 23.288C70.2648 23.288 71.2448 22.996 72.0048 22.412C72.7648 21.828 73.3048 21.016 73.6248 19.976L76.9128 20.888C76.3608 22.568 75.4088 23.9 74.0568 24.884C72.7128 25.868 71.0488 26.36 69.0648 26.36ZM80.5151 26V8.72H83.7791V16.688L90.3551 8.72H94.3391L87.1151 17.24L94.7951 26H90.6671L83.7791 18.128V26H80.5151ZM97.436 26V8.72H108.716V11.768H100.7V15.464H107.276V18.512H100.7V22.952H108.716V26H97.436ZM112.552 26V8.72H118.144C118.28 8.72 118.56 8.724 118.984 8.732C119.408 8.74 119.816 8.768 120.208 8.816C121.6 8.984 122.78 9.468 123.748 10.268C124.716 11.068 125.452 12.084 125.956 13.316C126.46 14.548 126.712 15.896 126.712 17.36C126.712 18.824 126.46 20.172 125.956 21.404C125.452 22.636 124.716 23.652 123.748 24.452C122.78 25.252 121.6 25.736 120.208 25.904C119.816 25.952 119.408 25.98 118.984 25.988C118.56 25.996 118.28 26 118.144 26H112.552ZM115.864 22.928H118.144C118.36 22.928 118.652 22.924 119.02 22.916C119.388 22.9 119.72 22.864 120.016 22.808C120.768 22.656 121.38 22.304 121.852 21.752C122.332 21.2 122.684 20.536 122.908 19.76C123.14 18.984 123.256 18.184 123.256 17.36C123.256 16.496 123.136 15.676 122.896 14.9C122.664 14.124 122.308 13.468 121.828 12.932C121.348 12.396 120.744 12.056 120.016 11.912C119.72 11.848 119.388 11.812 119.02 11.804C118.652 11.796 118.36 11.792 118.144 11.792H115.864V22.928Z" fill="#333333"/>
<defs>
<clipPath id="clip0_847_42837">
<rect width="32.8184" height="28.2986" fill="white" transform="translate(0 32.9092) rotate(-90)"/>
</clipPath>
</defs>
</svg>
