<svg width="29" height="33" viewBox="0 0 29 33" fill="none" xmlns="http://www.w3.org/2000/svg">
<g clip-path="url(#clip0_971_62487)">
<path d="M11.9303 19.6338L21.6939 3.981C22.0836 3.35632 23.0085 3.405 23.3304 4.06713L27.0717 11.7623C27.4263 12.4917 27.2711 13.3665 26.6873 13.9293L16.2776 23.9645L11.9303 19.6338Z" fill="#F7941F"/>
<path fill-rule="evenodd" clip-rule="evenodd" d="M7.56219 30.5338L1.91133 16.243C1.72021 15.7596 1.95934 15.2131 2.44405 15.0255L5.30846 13.9167C5.66317 13.7794 6.06569 13.8703 6.32695 14.1467L15.6386 23.999C15.7122 24.0769 15.7504 24.1817 15.7441 24.2888L9.09066 30.8559C8.61298 31.3274 7.80898 31.158 7.56219 30.5338Z" fill="#714DD9"/>
<path d="M1.91133 16.243L1.92063 16.2393L1.91133 16.243ZM7.56219 30.5338L7.57148 30.5302L7.57148 30.5302L7.56219 30.5338ZM2.44405 15.0255L2.44044 15.0162L2.44405 15.0255ZM5.30846 13.9167L5.30485 13.9074L5.30846 13.9167ZM6.32695 14.1467L6.33422 14.1399L6.32695 14.1467ZM15.6386 23.999L15.6458 23.9921L15.6458 23.9921L15.6386 23.999ZM15.7441 24.2888L15.7535 24.2983L15.754 24.2893L15.7441 24.2888ZM9.09066 30.8559L9.09768 30.863L9.09066 30.8559ZM1.90203 16.2467L7.55289 30.5375L7.57148 30.5302L1.92063 16.2393L1.90203 16.2467ZM2.44044 15.0162C1.95055 15.2058 1.70887 15.7581 1.90203 16.2467L1.92063 16.2393C1.73155 15.7611 1.96813 15.2204 2.44766 15.0348L2.44044 15.0162ZM5.30485 13.9074L2.44044 15.0162L2.44766 15.0348L5.31207 13.926L5.30485 13.9074ZM6.33422 14.1399C6.07017 13.8605 5.66335 13.7686 5.30485 13.9074L5.31207 13.926C5.66299 13.7902 6.06122 13.8801 6.31969 14.1536L6.33422 14.1399ZM15.6458 23.9921L6.33422 14.1399L6.31969 14.1536L15.6313 24.0058L15.6458 23.9921ZM15.754 24.2893C15.7605 24.1796 15.7214 24.072 15.6458 23.9921L15.6313 24.0058C15.703 24.0817 15.7402 24.1839 15.7341 24.2882L15.754 24.2893ZM9.09768 30.863L15.7511 24.2959L15.737 24.2816L9.08363 30.8488L9.09768 30.863ZM7.55289 30.5375C7.80232 31.1683 8.61491 31.3396 9.09768 30.863L9.08363 30.8488C8.61106 31.3153 7.81565 31.1476 7.57148 30.5302L7.55289 30.5375Z" fill="#714DD9"/>
</g>
<defs>
<clipPath id="clip0_971_62487">
<rect width="32.8184" height="28.2986" fill="white" transform="translate(0 32.9092) rotate(-90)"/>
</clipPath>
</defs>
</svg>
