<svg width="20" height="20" viewBox="0 0 20 20" fill="none" xmlns="http://www.w3.org/2000/svg">
<path d="M8.95742 2.04063C9.54076 1.54896 10.4824 1.54896 11.0491 2.04063L12.3658 3.16562C12.6158 3.37396 13.0908 3.54896 13.4241 3.54896H14.8408C15.7241 3.54896 16.4491 4.27396 16.4491 5.15729V6.57396C16.4491 6.90729 16.6241 7.37396 16.8324 7.62396L17.9574 8.94063C18.4491 9.52396 18.4491 10.4656 17.9574 11.0323L16.8324 12.349C16.6241 12.599 16.4491 13.0656 16.4491 13.399V14.8156C16.4491 15.699 15.7241 16.424 14.8408 16.424H13.4241C13.0908 16.424 12.6241 16.599 12.3741 16.8073L11.0574 17.9323C10.4741 18.424 9.53242 18.424 8.96576 17.9323L7.64909 16.8073C7.39909 16.599 6.92409 16.424 6.59909 16.424H5.14076C4.25742 16.424 3.53242 15.699 3.53242 14.8156V13.3906C3.53242 13.0656 3.36576 12.5906 3.15742 12.349L2.03242 11.024C1.54909 10.449 1.54909 9.51563 2.03242 8.94063L3.15742 7.61563C3.36576 7.36563 3.53242 6.89896 3.53242 6.57396V5.16562C3.53242 4.28229 4.25742 3.55729 5.14076 3.55729H6.58242C6.91576 3.55729 7.38242 3.38229 7.63242 3.17396L8.95742 2.04063Z" stroke="#714DD9" stroke-width="1.5" stroke-linecap="round" stroke-linejoin="round"/>
<path d="M7.08398 13.2854L10.0007 6.71875L12.9173 13.2854" stroke="#714DD9" stroke-width="1.5" stroke-linejoin="bevel"/>
<path d="M11.4577 11.0938H8.54102" stroke="#714DD9" stroke-width="1.5" stroke-linecap="round" stroke-linejoin="round"/>
</svg>
