<svg width="581" height="458" viewBox="0 0 581 458" fill="none" xmlns="http://www.w3.org/2000/svg">
<path d="M124.905 413.153H494.126C494.126 413.153 541.721 316.735 478.261 236.707C414.8 156.678 204.229 61.2155 159.519 175.714C114.807 290.214 48.463 333.881 124.905 413.153Z" fill="#F4F6F9"/>
<path d="M149.177 414.673C141.501 388.246 168.909 385.387 167.859 372.557C166.764 359.085 164.566 351.391 187.098 328.859C202.258 313.699 200.878 296.01 198.355 286.048C186.357 281.738 195.441 320.733 180.504 315.666C164.288 310.168 155.49 295.324 152.197 308.518C148.896 321.711 170.056 340.372 157.416 347.535C144.771 354.69 140.376 327.479 132.132 335.729C123.88 343.971 144.501 362.386 143.945 377.23C143.397 392.074 112.338 367.606 107.395 388.495C103.919 403.162 123.208 411.191 135.008 414.673H149.177Z" fill="#838BC5"/>
<path d="M181.391 414.674C184.192 410.026 189.241 398.738 178.577 390.424C164.836 379.705 199.467 372.011 203.869 358.262C208.265 344.52 189.026 340.951 193.421 334.627C197.816 328.304 219.26 301.647 201.941 288.177C200.576 287.113 199.389 286.418 198.355 286.049C200.877 296.012 202.257 313.7 187.098 328.86C164.567 351.392 166.764 359.086 167.858 372.557C168.91 385.389 141.501 388.247 149.177 414.674H181.391Z" fill="#5361A0"/>
<path d="M139.823 395.261C142.121 396.212 145.243 397.658 146.06 399.296C146.082 399.34 146.125 399.363 146.156 399.401C146.432 406.076 145.704 411.659 145.18 414.672H146.573C147.571 408.779 149.142 394.317 143.796 380.467C143.789 380.438 143.794 380.409 143.783 380.382C143.105 378.449 145.65 372.753 147.896 368.645C152.946 366.828 156.387 365.112 160.528 360.511C164.929 355.619 155.963 345.673 150.582 350.728C146.199 354.845 146.54 364.367 146.818 367.759C145.536 370.077 143.342 374.352 142.586 377.64C141.159 374.544 139.367 371.509 137.097 368.645C135.023 366.03 133.423 363.439 132.184 360.906C131.529 357.697 130.741 355.062 129.225 352.337C127.65 344.724 128.984 338.298 130.243 334.49C134.158 332.506 136.887 330.603 139.919 326.352C143.334 321.567 134.371 313.642 130.104 318.671C126.199 323.275 128.274 333.316 128.653 334.983C127.616 338.441 126.685 343.504 127.366 349.452C127.008 348.965 126.645 348.476 126.23 347.968C122.07 342.869 110.868 350.209 115.041 356.299C118.52 361.378 128.355 362.431 131.526 362.64C132.72 364.894 134.188 367.185 136.02 369.495C142.872 378.139 145.373 388.386 146.026 397.155C144.516 395.82 142.202 394.757 140.313 393.978C137.571 389.415 135.222 386.406 129.932 383.252C124.28 379.881 116.261 390.606 122.262 394.905C127.222 398.456 136.68 396.166 139.823 395.261Z" fill="#C1E7F6"/>
<path d="M156.891 414.674H210.1C211.869 411.234 213.866 403.841 202.87 398.041C194.479 393.615 209.109 385.457 204.543 376.816C199.977 368.175 190.594 379.261 186.644 371.597C182.695 363.934 174.379 346.652 170.956 357.412C167.532 368.173 184.163 374.858 173.239 382.847C162.314 390.837 148.781 394.913 162.152 397.848C174.695 400.601 153.618 405.248 156.891 414.674Z" fill="#C1E7F6"/>
<path d="M245.46 414.673C249.572 403.991 225.583 398.75 239.687 395.654C254.602 392.379 239.505 387.833 227.318 378.92C215.13 370.007 233.684 362.549 229.864 350.544C226.044 338.538 216.767 357.82 212.361 366.369C207.955 374.918 197.487 362.549 192.392 372.19C187.299 381.831 203.619 390.933 194.259 395.87C181.721 402.484 184.322 410.954 186.322 414.674H245.46V414.673Z" fill="#5361A0"/>
<path d="M212.878 405.404C213.615 406.595 214.566 408.284 214.4 409.3C214.395 409.328 214.407 409.352 214.409 409.38C212.955 411.586 211.453 413.38 210.259 414.673H211.304C214.003 411.647 217.865 406.442 219.563 399.95C219.569 399.934 219.581 399.922 219.586 399.907C219.912 398.8 222.95 397.035 225.327 395.896C228.233 396.728 230.372 397.076 233.778 396.336C237.399 395.55 236.574 388.052 232.452 388.591C229.094 389.031 226.117 393.495 225.127 395.136C223.779 395.773 221.369 397.005 219.943 398.26C220.309 396.374 220.489 394.397 220.393 392.342C220.341 391.203 220.372 390.132 220.459 389.11C223.047 389.808 225.118 390.06 228.266 389.376C231.888 388.59 231.063 381.092 226.94 381.631C224.74 381.92 222.708 383.93 221.288 385.747C221.715 384.62 222.018 383.529 222.161 382.298C223.947 378.3 226.671 375.802 228.5 374.477C230.943 374.859 232.816 374.886 235.6 373.943C238.736 372.88 237.248 366.308 233.643 367.203C230.343 368.021 227.987 373.294 227.611 374.181C225.999 375.419 223.908 377.428 222.262 380.37C222.259 380.031 222.254 379.688 222.231 379.318C222.009 375.619 214.474 375.286 214.375 379.443C214.293 382.91 218.442 386.628 219.822 387.767C219.625 389.188 219.543 390.721 219.619 392.379C219.639 392.812 219.644 393.241 219.641 393.669C219.464 392.451 219.106 391.199 218.467 389.724C216.993 386.324 209.798 388.585 211.126 392.525C212.194 395.693 217.021 397.73 218.879 398.411C218.879 398.411 219.305 400.87 215.088 408.314C214.838 407.207 214.129 405.959 213.523 404.981C213.772 401.994 213.688 399.846 212.31 396.663C210.836 393.261 203.641 395.524 204.969 399.464C206.067 402.717 211.143 404.783 212.878 405.404Z" fill="#838BC5"/>
<path d="M407.65 414.673C399.974 388.246 427.382 385.387 426.331 372.557C425.237 359.085 423.038 351.391 445.57 328.859C460.73 313.699 459.35 296.01 456.828 286.048C444.83 281.738 453.914 320.733 438.977 315.666C422.761 310.168 413.962 295.324 410.669 308.518C407.369 321.711 428.528 340.372 415.889 347.535C403.244 354.69 398.848 327.479 390.604 335.729C382.353 343.971 402.973 362.386 402.418 377.23C401.87 392.074 370.811 367.606 365.868 388.495C362.392 403.162 381.681 411.191 393.481 414.673H407.65Z" fill="#838BC5"/>
<path d="M439.863 414.674C442.665 410.026 447.714 398.738 437.05 390.424C423.308 379.705 457.939 372.011 462.342 358.262C466.737 344.52 447.498 340.951 451.894 334.627C456.289 328.304 477.732 301.647 460.414 288.177C459.049 287.113 457.861 286.418 456.828 286.049C459.35 296.012 460.73 313.7 445.57 328.86C423.04 351.392 425.237 359.086 426.331 372.557C427.383 385.389 399.973 388.247 407.649 414.674H439.863Z" fill="#5361A0"/>
<path d="M398.296 395.261C400.593 396.212 403.715 397.658 404.532 399.296C404.555 399.34 404.598 399.363 404.628 399.401C404.905 406.076 404.177 411.659 403.653 414.672H405.045C406.044 408.779 407.615 394.317 402.268 380.467C402.262 380.438 402.267 380.409 402.256 380.382C401.578 378.449 404.123 372.753 406.369 368.645C411.419 366.828 414.86 365.112 419 360.511C423.402 355.619 414.434 345.673 409.054 350.728C404.671 354.845 405.013 364.367 405.291 367.759C404.009 370.077 401.815 374.352 401.059 377.64C399.632 374.544 397.839 371.509 395.569 368.645C393.496 366.03 391.896 363.439 390.656 360.906C390.001 357.697 389.214 355.062 387.698 352.337C386.122 344.724 387.456 338.298 388.716 334.49C392.63 332.506 395.36 330.603 398.392 326.352C401.807 321.567 392.844 313.642 388.577 318.671C384.672 323.275 386.747 333.316 387.125 334.983C386.089 338.441 385.157 343.504 385.838 349.452C385.481 348.965 385.118 348.476 384.702 347.968C380.542 342.869 369.341 350.209 373.513 356.299C376.993 361.378 386.827 362.431 389.998 362.64C391.192 364.894 392.661 367.185 394.493 369.495C401.346 378.139 403.845 388.386 404.499 397.155C402.989 395.82 400.674 394.757 398.786 393.978C396.044 389.415 393.694 386.406 388.405 383.252C382.753 379.881 374.733 390.606 380.735 394.905C385.695 398.456 395.152 396.166 398.296 395.261Z" fill="#C1E7F6"/>
<path d="M415.362 414.674H468.571C470.34 411.234 472.337 403.841 461.34 398.041C452.95 393.615 467.58 385.457 463.014 376.816C458.447 368.175 449.065 379.261 445.115 371.597C441.166 363.934 432.85 346.652 429.427 357.412C426.003 368.173 442.634 374.858 431.709 382.847C420.785 390.837 407.252 394.913 420.623 397.848C433.166 400.601 412.089 405.248 415.362 414.674Z" fill="#C1E7F6"/>
<path d="M503.933 414.673C508.044 403.991 484.056 398.75 498.159 395.654C513.075 392.379 497.978 387.833 485.79 378.92C473.603 370.007 492.156 362.549 488.337 350.544C484.517 338.538 475.239 357.82 470.833 366.369C466.428 374.918 455.958 362.549 450.865 372.19C445.772 381.831 462.092 390.933 452.732 395.87C440.193 402.484 442.795 410.954 444.795 414.674H503.933V414.673Z" fill="#5361A0"/>
<path d="M471.348 405.404C472.086 406.595 473.037 408.284 472.87 409.3C472.866 409.328 472.878 409.352 472.879 409.38C471.426 411.586 469.924 413.38 468.73 414.673H469.774C472.473 411.647 476.336 406.442 478.033 399.95C478.04 399.934 478.052 399.922 478.056 399.907C478.383 398.8 481.421 397.035 483.798 395.896C486.703 396.728 488.842 397.076 492.248 396.336C495.87 395.55 495.045 388.052 490.923 388.591C487.564 389.031 484.587 393.495 483.598 395.136C482.25 395.773 479.84 397.005 478.414 398.26C478.78 396.374 478.96 394.397 478.864 392.342C478.812 391.203 478.843 390.132 478.93 389.11C481.517 389.808 483.589 390.06 486.737 389.376C490.358 388.59 489.534 381.092 485.41 381.631C483.21 381.92 481.178 383.93 479.759 385.747C480.186 384.62 480.488 383.529 480.632 382.298C482.418 378.3 485.142 375.802 486.971 374.477C489.413 374.859 491.286 374.886 494.071 373.943C497.207 372.88 495.718 366.308 492.114 367.203C488.813 368.021 486.458 373.294 486.082 374.181C484.47 375.419 482.378 377.428 480.733 380.37C480.73 380.031 480.725 379.688 480.702 379.318C480.479 375.619 472.945 375.286 472.846 379.443C472.763 382.91 476.913 386.628 478.293 387.767C478.096 389.188 478.014 390.721 478.09 392.379C478.11 392.812 478.114 393.241 478.111 393.669C477.934 392.451 477.577 391.199 476.937 389.724C475.464 386.324 468.269 388.585 469.597 392.525C470.664 395.693 475.492 397.73 477.35 398.411C477.35 398.411 477.775 400.87 473.559 408.314C473.308 407.207 472.6 405.959 471.994 404.981C472.243 401.994 472.159 399.846 470.78 396.663C469.307 393.261 462.112 395.524 463.44 399.464C464.538 402.717 469.614 404.783 471.348 405.404Z" fill="#838BC5"/>
<path d="M97.6243 260.449C105.195 258.21 109.518 250.257 107.279 242.686C105.039 235.115 97.0865 230.792 89.5153 233.031C81.9442 235.271 77.6219 243.224 79.8611 250.795C82.1003 258.366 90.0532 262.688 97.6243 260.449Z" fill="#C8D9FB"/>
<path d="M90.09 243.919L84.8262 244.102L85.1723 254.089L90.4362 253.907L90.09 243.919Z" fill="white"/>
<path d="M102.971 246.723L102.921 246.724L102.863 245.004C102.832 244.091 102.066 243.376 101.153 243.407L96.5135 243.566C96.5135 243.566 98.3119 240.87 98.2539 239.183C98.202 237.673 98.0662 235.676 95.8387 235.752C95.8387 235.752 95.0464 236.279 95.1243 238.546C95.196 240.639 90.9824 243.891 90.9824 243.891L91.3366 254.216C91.3366 254.216 92.3106 255.06 93.7961 255.01L100.51 254.779C101.461 254.745 102.205 253.95 102.173 252.999L102.138 251.953C102.697 251.933 103.135 251.465 103.115 250.906L103.074 249.691C103.409 249.68 103.672 249.397 103.66 249.063L103.6 247.309C103.588 246.973 103.307 246.711 102.971 246.723Z" fill="white"/>
<path d="M469.993 210.853C460.923 305.649 438.462 414.236 438.462 414.236H179.37C179.37 414.236 111.424 111.122 156.953 77.1187C231.127 21.7343 425.867 39.5398 460.863 77.1187C468.008 84.7932 471.764 101.119 473.116 122.638C474.657 147.042 473.125 178.126 469.993 210.853Z" fill="#D9D5F4"/>
<path d="M507.527 416.054H107.438C106.675 416.054 106.057 415.436 106.057 414.673C106.057 413.909 106.675 413.291 107.438 413.291H507.527C508.291 413.291 508.909 413.909 508.909 414.673C508.909 415.436 508.291 416.054 507.527 416.054Z" fill="#C8D9FB"/>
<path d="M299.36 195.989C299.36 195.989 299.018 246.879 270.5 281.438C252.126 303.703 188.713 317.034 173.343 306.262C134.114 278.77 59.6152 134.379 59.6152 134.379L73.114 131.73L189.368 240.872L299.36 195.989Z" fill="white"/>
<path d="M107.965 164.758C114.87 170.971 121.725 177.238 128.581 183.502L138.845 192.922L149.086 202.367L159.308 211.831L169.519 221.307L179.707 230.808C183.104 233.974 186.501 237.139 189.886 240.319L189.087 240.169L200.684 235.52L206.482 233.195L212.287 230.887L223.895 226.27L235.515 221.678C243.26 218.614 251.018 215.582 258.777 212.552C266.54 209.532 274.304 206.517 282.09 203.553C274.423 206.81 266.734 210.014 259.044 213.214C251.349 216.403 243.653 219.591 235.945 222.747L224.384 227.484L212.813 232.195L207.027 234.551L201.235 236.891L189.652 241.572C189.373 241.685 189.064 241.618 188.857 241.425L188.854 241.422C185.454 238.259 182.068 235.082 178.682 231.905L168.519 222.377L158.378 212.825L148.251 203.26L138.139 193.677L128.053 184.069C121.34 177.649 114.627 171.231 107.965 164.758Z" fill="#838BC5"/>
<path opacity="0.35" d="M279.65 206.669C271.752 212.834 265.83 221.211 261.033 229.916C256.044 238.972 252.424 248.564 248.667 258.165C245.275 266.834 240.254 275.294 230.821 278.14C225.09 279.868 219.264 279.07 213.388 279.163C210.336 279.212 207.287 279.5 204.325 280.259C200.922 281.129 197.916 282.667 194.816 284.264C184.021 289.827 169.72 287.893 161.261 279.076C156.93 274.562 153.919 268.989 150.697 263.681C146.921 257.465 142.17 252.052 137.219 246.749C132.16 241.328 126.781 236.161 122.443 230.122C118.478 224.605 115.231 218.618 112.22 212.539C110.666 209.4 109.643 205.956 107.651 203.075C88.9002 175.962 103.33 162.917 104.962 161.785C107.28 160.179 74.635 131.434 74.635 131.434L59.6172 134.382C59.6172 134.382 134.115 278.771 173.345 306.263C188.715 317.035 252.128 303.704 270.502 281.439C295.571 251.062 298.867 208.065 299.298 198.108C292.174 199.218 285.459 202.135 279.65 206.669Z" fill="#ACC3EA"/>
<path d="M449.184 413.778H243.357C243.357 413.778 231.31 184.564 342.424 184.564C441.583 184.564 449.184 413.778 449.184 413.778Z" fill="white"/>
<path opacity="0.35" d="M400.422 272.981C398.291 275.925 396.009 278.813 393.366 281.314C390.702 283.836 387.737 286.021 384.662 288.015C378.6 291.947 372.167 295.28 366.043 299.118C360.477 302.606 354.744 306.325 348.313 307.98C341.827 309.65 335.295 308.516 329.247 305.826C322.762 302.941 316.807 298.753 311.691 293.851C306.549 288.923 302.413 283.178 298.638 277.165C294.629 270.777 291.179 264.043 288.209 257.115C282.738 244.346 278.802 230.849 276.7 217.105C274.286 225.806 276.445 258.787 278.228 266.282C285.921 298.639 307.227 325.76 324.487 333.176C326.855 334.195 321.262 412.887 323.703 413.772H362.68C364.367 412.746 362.191 331.36 364.097 330.778C402.946 318.914 407.22 281.293 406.929 262.956C404.895 266.386 402.761 269.753 400.422 272.981Z" fill="#ACC3EA"/>
<path d="M356.19 64.0489C350.292 59.0796 330.112 54.4156 326.223 72.7997C325.875 74.447 324.141 78.0575 319.86 77.395C305.012 75.0973 300.519 88.6221 300.751 100.394C300.909 108.429 304.975 115.894 305.963 123.87C306.637 129.32 305.856 134.863 306.412 140.327C307.103 147.115 309.914 153.67 314.353 158.85C316.197 161.003 318.399 162.971 321.086 163.878C328.218 166.281 335.392 160.588 340.351 154.924C349.714 144.231 357.327 132.011 362.83 118.908C363.497 117.319 364.133 115.719 364.736 114.104C365.286 112.637 365.636 110.879 366.446 109.533C367.626 107.573 371.002 107.548 372.971 106.786C378.418 104.676 384.751 101.573 386.42 95.9944C396.044 63.7847 359.362 66.7236 356.19 64.0489Z" fill="#324177"/>
<path d="M372.829 95.1229C372.937 95.1229 373.047 95.1061 373.155 95.0679C373.468 94.9595 380.848 92.3413 383.827 87.0758C384.097 86.5995 383.929 85.9934 383.451 85.7247C382.977 85.4545 382.369 85.6224 382.1 86.1003C379.493 90.7093 372.572 93.1718 372.502 93.1962C371.985 93.3779 371.711 93.9428 371.891 94.4588C372.035 94.8679 372.418 95.1229 372.829 95.1229Z" fill="#5361A0"/>
<path d="M362.223 95.0427C362.577 95.0427 362.921 94.8518 363.099 94.516C363.2 94.3267 365.586 89.7757 367.458 80.1012C367.563 79.5623 367.211 79.0432 366.673 78.9394C366.134 78.831 365.615 79.1867 365.512 79.7241C363.702 89.0658 361.371 93.5404 361.348 93.5862C361.092 94.0702 361.275 94.6702 361.759 94.9266C361.907 95.0045 362.066 95.0427 362.223 95.0427Z" fill="#5361A0"/>
<path d="M349.534 93.6797C350.04 93.6797 350.472 93.2934 350.521 92.7805C350.546 92.5133 351.105 86.1211 348.898 75.4925C348.787 74.9551 348.265 74.6085 347.726 74.723C347.189 74.8345 346.845 75.3597 346.957 75.8955C349.095 86.2021 348.552 92.5347 348.546 92.5973C348.497 93.1423 348.897 93.6247 349.443 93.6751C349.472 93.6781 349.503 93.6797 349.534 93.6797Z" fill="#5361A0"/>
<path d="M333.233 96.6777C333.31 96.6777 333.39 96.6685 333.468 96.6502C333.999 96.5204 334.327 95.9846 334.197 95.4518C334.092 95.0182 331.567 84.785 327.074 80.6248C326.672 80.2508 326.047 80.2752 325.672 80.6782C325.3 81.0797 325.324 81.7072 325.726 82.0797C329.781 85.8353 332.246 95.8197 332.271 95.9205C332.381 96.3739 332.787 96.6777 333.233 96.6777Z" fill="#5361A0"/>
<path d="M319.43 102.642C319.648 102.642 319.867 102.57 320.05 102.424C320.477 102.08 320.546 101.457 320.202 101.03C319.989 100.763 314.905 94.4837 310.414 93.1799C309.888 93.0227 309.339 93.3295 309.186 93.8562C309.033 94.3829 309.336 94.9325 309.862 95.0837C313.758 96.2149 318.61 102.21 318.658 102.271C318.851 102.515 319.138 102.642 319.43 102.642Z" fill="#5361A0"/>
<path d="M308.38 131.491C310 127.123 314.818 124.184 319.442 124.741C319.479 119.404 319.854 114.012 321.439 108.916C325.625 95.4538 367.674 96.6308 369.438 100.267C369.925 101.273 377.492 127.109 378.504 136.466C379.518 145.822 378.063 156.073 371.639 162.951C366.595 168.352 358.157 170.444 350.36 169.564C352.834 177.53 355.982 188.303 357.975 194.279C353.143 198.05 325.199 194.463 319.094 193.939C320.497 184.419 322.566 153.35 323.969 143.831C320.546 146.989 314.987 145.909 312.368 143.819C308.724 140.915 306.76 135.857 308.38 131.491Z" fill="#EAC8AC"/>
<path opacity="0.1" d="M339.859 195.766C340.213 195.123 340.558 194.491 340.627 193.739C340.714 192.791 340.311 191.963 340.213 191.039C340.141 190.362 340.412 190.166 340.984 189.904C343.699 188.658 347.161 186.936 347.712 183.635C348.321 179.982 344.346 177.602 341.941 175.651C340.483 174.468 339.493 173.205 338.618 171.553C337.844 170.095 336.829 168.42 336.85 166.709C338.334 167.153 339.772 167.738 341.251 168.204C342.983 168.75 344.799 169.141 346.582 169.474C347.856 169.712 349.152 169.825 350.456 169.869C352.914 177.803 356.007 188.375 357.976 194.279C355.642 196.102 347.912 196.204 339.859 195.766Z" fill="#231F20"/>
<path d="M314.222 136.93C314.465 136.93 314.706 136.841 314.897 136.664C315.298 136.292 315.321 135.664 314.949 135.263C314.297 134.56 314.017 133.884 314.094 133.194C314.251 131.783 315.822 130.693 315.839 130.681C316.291 130.373 316.408 129.757 316.101 129.304C315.796 128.852 315.178 128.733 314.727 129.038C314.633 129.103 312.391 130.635 312.123 132.959C311.975 134.243 312.436 135.472 313.494 136.612C313.689 136.824 313.955 136.93 314.222 136.93Z" fill="#324177"/>
<path d="M363.849 140.629C366.497 140.629 369.336 138.321 369.697 138.019C370.095 137.684 370.167 137.101 369.864 136.68C367.19 132.956 360.476 122.456 361.532 118.624C362.79 114.061 369.326 111.694 369.391 111.67C369.907 111.487 370.177 110.92 369.994 110.404C369.813 109.887 369.246 109.618 368.729 109.798C368.42 109.908 361.153 112.528 359.619 118.096C358.277 122.966 365.449 133.813 367.694 137.045C366.506 137.867 364.5 138.971 363.245 138.556C362.72 138.382 362.162 138.663 361.99 139.182C361.816 139.702 362.097 140.264 362.616 140.437C363.016 140.571 363.431 140.629 363.849 140.629Z" fill="#324177"/>
<path d="M339.921 119.892C340.744 120.721 343.994 118.829 346.073 116.762C348.152 114.695 348.276 113.238 347.452 112.408C346.627 111.579 345.169 111.692 343.09 113.757C341.009 115.826 339.096 119.061 339.921 119.892Z" fill="#324177"/>
<path opacity="0.05" d="M346.35 131.701C346.52 132.991 348.384 133.806 350.512 133.525C352.64 133.244 354.228 131.971 354.057 130.682C353.886 129.394 352.023 128.577 349.895 128.858C347.769 129.14 346.181 130.412 346.35 131.701Z" fill="#231F20"/>
<path opacity="0.05" d="M366.495 127.546C366.664 128.836 368.528 129.652 370.657 129.371C372.785 129.09 374.372 127.817 374.201 126.528C374.03 125.24 372.168 124.423 370.04 124.704C367.913 124.986 366.325 126.258 366.495 127.546Z" fill="#231F20"/>
<path d="M345.646 122.369C345.646 123.627 346.666 124.648 347.926 124.648C349.185 124.648 350.205 123.629 350.205 122.369C350.205 121.111 349.185 120.09 347.926 120.09C346.666 120.09 345.646 121.111 345.646 122.369Z" fill="#324177"/>
<path d="M367.635 123.147C368.894 123.147 369.914 122.126 369.914 120.867C369.914 119.608 368.894 118.588 367.635 118.588C366.376 118.588 365.355 119.608 365.355 120.867C365.355 122.126 366.376 123.147 367.635 123.147Z" fill="#324177"/>
<path d="M366.229 146.268C364.481 146.893 364.109 148.389 358.805 146.268C353.503 144.148 351.558 142.475 350.674 145.256C349.79 148.036 360.219 156.989 366.229 152.569C372.238 148.149 367.406 145.847 366.229 146.268Z" fill="white"/>
<path opacity="0.05" d="M362.238 157.34C363.208 157.34 364.244 157.136 365.349 156.614C365.844 156.379 366.055 155.788 365.823 155.294C365.588 154.799 365 154.585 364.502 154.821C362.09 155.959 360.079 155.022 358.139 154.114L357.907 154.007C357.412 153.776 356.822 153.99 356.589 154.488C356.357 154.984 356.573 155.573 357.07 155.805L357.298 155.912C358.707 156.572 360.348 157.34 362.238 157.34Z" fill="#231F20"/>
<path d="M322.537 202.775L313.865 204.906L324.488 192.307L337.016 195.062L349.079 192.465L359.935 204.68L350.522 202.283L346.498 217.036L360.135 413.776H316.848L328.315 216.246L322.537 202.775Z" fill="#838BC5"/>
<path d="M349.078 192.465L362.809 208.75C362.809 208.75 380.443 198.718 375.273 193.187C370.102 187.658 353.712 180.566 353.712 180.566L356.104 189.83L349.078 192.465Z" fill="url(#paint0_radial_2396_56943)"/>
<path d="M324.487 192.305L310.756 208.59C310.756 208.59 297.56 197.129 302.731 191.598C307.901 186.067 320.669 178.832 320.669 178.832L319.536 190.448L324.487 192.305Z" fill="url(#paint1_radial_2396_56943)"/>
<path d="M263.84 163.617C269.072 163.617 275.581 149.898 275.581 149.898L336.927 248.742C336.927 248.742 365.907 209.194 382.207 200.608C401.705 205.403 442.182 276.593 353.107 323.819C290.123 357.211 273.304 213.538 263.84 163.617Z" fill="white"/>
<path d="M275.892 146.437C275.892 146.437 275.031 145.493 272.912 143.373C270.791 141.252 269.883 135.649 268.369 136.028C266.854 136.407 265.416 143.886 267.762 147.188C270.11 150.49 275.011 148.593 275.892 146.437Z" fill="#E5B0A3"/>
<path d="M269.757 87.3945H48.1602V162.989H269.757V87.3945Z" fill="#714DD9"/>
<path d="M99.5772 125.501C99.5772 126.771 99.5772 127.644 99.4582 129.668C99.1803 134.471 96.0445 137.926 88.9394 137.926C81.5168 137.926 78.4604 134.036 78.2604 128.081L78.2207 126.89H85.367L85.4449 128.081C85.6831 131.653 87.1135 132.685 89.1379 132.685C91.1226 132.685 92.1546 131.415 92.3531 129.232C92.4324 128.319 92.4324 127.446 92.4324 126.612V109.98H99.5772V125.501Z" fill="white"/>
<path d="M131.818 123.674C131.818 132.447 126.34 137.925 117.804 137.925C109.27 137.925 103.791 132.447 103.791 123.674C103.791 114.862 109.269 109.424 117.804 109.424C126.338 109.424 131.818 114.862 131.818 123.674ZM124.512 123.674C124.512 117.839 121.932 114.663 117.804 114.663C113.676 114.663 111.096 117.839 111.096 123.674C111.096 129.47 113.676 132.686 117.804 132.686C121.932 132.684 124.512 129.47 124.512 123.674Z" fill="white"/>
<path d="M136.115 137.37V109.98H143.26V137.37H136.115Z" fill="white"/>
<path d="M165.453 137.37L155.488 119.27C155.726 122.049 155.726 124.47 155.726 126.058V137.37H148.58V109.98H157.473L167.873 128.874C167.674 126.096 167.634 123.278 167.634 121.69V109.98H174.779V137.37H165.453Z" fill="white"/>
<path d="M210.915 125.342C210.915 126.731 210.915 127.565 210.798 129.192C210.479 133.796 207.224 137.926 198.769 137.926C190.315 137.926 187.06 133.796 186.741 129.192C186.623 127.565 186.623 126.731 186.623 125.342V109.98H193.768V126.652C193.768 127.407 193.768 127.804 193.808 128.279C194.006 131.139 195.633 132.687 198.769 132.687C201.905 132.687 203.532 131.139 203.731 128.279C203.771 127.804 203.771 127.407 203.771 126.652V109.98H210.915V125.342Z" fill="white"/>
<path d="M236.051 118.435H228.906C228.588 116.172 227.398 114.664 225.056 114.664C223.428 114.664 222.317 115.458 222.317 117.125C222.317 118.871 223.587 119.943 228.112 121.015C234.145 122.442 236.606 125.46 236.606 129.668C236.606 135.146 231.367 137.926 225.848 137.926C218.902 137.926 214.218 135.146 213.781 128.995H220.926C221.402 131.575 223.506 132.686 225.65 132.686C227.634 132.686 229.143 131.654 229.143 130.146C229.143 128.717 228.111 127.486 224.737 126.653C218.505 125.105 214.851 123.16 214.851 117.682C214.851 112.403 219.775 109.426 225.213 109.426C232.44 109.424 235.457 113.354 236.051 118.435Z" fill="white"/>
<path d="M59.3245 113.484C59.7688 111.459 55.9857 109.844 53.5323 108.957C55.9002 109 58.7306 107.948 57.81 106.156C55.8651 102.366 44.438 98.8077 41.8518 100.85C39.2656 102.893 42.5495 107.004 42.5495 107.004C41.6121 107.462 40.4671 108.113 40.0793 108.717C37.5191 112.702 41.461 114.871 41.461 114.871C38.1786 118.271 41.9922 121.503 41.9922 121.503C38.2565 125.384 42.7327 128.043 42.7327 128.043C42.7327 128.043 51.824 131.158 55.7948 128.791C59.7657 126.427 47.705 122.534 47.705 122.534C47.705 122.534 57.3368 124.129 58.1154 121.485C59.4695 116.888 48.8531 115.654 48.8531 115.654C48.8531 115.654 58.4116 117.639 59.3245 113.484Z" fill="#EAC8AC"/>
<path opacity="0.5" d="M54.1311 110.764C54.1174 110.942 53.6426 114.75 53.6426 114.75C53.6426 114.75 57.276 115.693 57.8287 113.835C58.36 112.049 54.1311 110.764 54.1311 110.764Z" fill="white"/>
<path opacity="0.5" d="M54.6913 104.705C54.6654 104.829 53.7402 107.786 53.7402 107.786C53.7402 107.786 56.0531 107.801 56.5111 106.633C56.9233 105.581 54.6913 104.705 54.6913 104.705Z" fill="white"/>
<path opacity="0.5" d="M54.152 118.35C54.1153 118.525 53.4375 121.85 53.4375 121.85C53.4375 121.85 56.4405 122.847 57.0435 121.183C57.6129 119.614 54.152 118.35 54.152 118.35Z" fill="white"/>
<path opacity="0.5" d="M53.0577 125.723C53.0303 125.854 52.3555 128.41 52.3555 128.41C52.3555 128.41 55.3966 129.092 55.5828 128.08C55.8866 126.42 53.0577 125.723 53.0577 125.723Z" fill="white"/>
<path d="M275.893 146.437C275.893 146.437 254.562 144.898 253.826 148.835C253.481 150.676 260.632 151.828 266.252 152.452C259.355 151.939 253.285 152.269 253.857 154.363C254.298 155.974 260.403 156.879 265.97 157.723C262.101 157.493 254.135 157.255 254.11 158.945C254.068 161.813 261.979 162.407 267.33 162.693C264.133 162.74 255.918 162.824 255.878 164.371C255.843 165.74 257.391 166.995 264.121 167.329C268.049 167.523 267.886 168.27 269.689 168.007C271.079 167.806 272.543 167.751 273.585 167.035C278.6 163.597 278.794 148.093 275.893 146.437Z" fill="#EAC8AC"/>
<path opacity="0.2" d="M256.41 164.626C256.552 163.913 258.813 163.508 259.035 163.643C259.035 163.643 259.021 165.51 258.874 165.826C258.726 166.143 256.268 165.339 256.41 164.626Z" fill="white"/>
<path opacity="0.2" d="M254.568 159.267C254.709 158.554 256.971 158.149 257.194 158.283C257.194 158.283 257.181 160.15 257.032 160.467C256.886 160.784 254.426 159.98 254.568 159.267Z" fill="white"/>
<path opacity="0.2" d="M254.506 153.899C254.648 153.186 256.909 152.782 257.13 152.916C257.13 152.916 257.117 154.783 256.968 155.099C256.823 155.417 254.364 154.612 254.506 153.899Z" fill="white"/>
<path opacity="0.2" d="M254.568 148.627C254.709 147.914 256.971 147.509 257.193 147.645C257.193 147.645 257.179 149.512 257.032 149.828C256.886 150.144 254.426 149.34 254.568 148.627Z" fill="white"/>
<path opacity="0.1" d="M266.479 162.699L273.329 161.733C273.329 161.733 274.716 163.993 272.729 166.174C272.729 166.174 276.292 164.664 276.44 156.776C276.587 148.886 275.709 147.85 275.709 147.85C275.709 147.85 275.648 150.303 273.944 151.645C273.564 151.946 266.356 152.433 266.804 152.451C267.249 152.469 273.675 153.028 273.675 153.028L273.588 156.367L266.875 157.639L273.639 157.686L273.449 160.529L266.479 162.699Z" fill="#231F20"/>
<path d="M183.993 360.431V359.619C184.799 359.619 185.61 359.615 186.426 359.607L186.434 360.419C185.614 360.427 184.801 360.431 183.993 360.431ZM181.55 360.421C180.73 360.413 179.917 360.399 179.108 360.384L179.124 359.572C179.931 359.589 180.741 359.601 181.558 359.609L181.55 360.421ZM188.877 360.383L188.86 359.57C189.666 359.554 190.477 359.534 191.293 359.509L191.318 360.322C190.498 360.346 189.684 360.366 188.877 360.383ZM176.666 360.322C175.847 360.296 175.034 360.267 174.225 360.233L174.259 359.421C175.063 359.454 175.874 359.485 176.691 359.509L176.666 360.322ZM193.759 360.239L193.727 359.427C194.533 359.395 195.344 359.361 196.159 359.322L196.197 360.134C195.38 360.172 194.567 360.207 193.759 360.239ZM171.786 360.115C170.966 360.071 170.154 360.024 169.348 359.97L169.401 359.16C170.204 359.212 171.013 359.26 171.83 359.303L171.786 360.115ZM198.637 360.006L198.591 359.195C199.396 359.149 200.206 359.1 201.021 359.047L201.073 359.857C200.257 359.911 199.444 359.961 198.637 360.006ZM166.91 359.798C166.091 359.735 165.281 359.667 164.475 359.595L164.548 358.786C165.349 358.857 166.157 358.925 166.972 358.989L166.91 359.798ZM203.51 359.689L203.45 358.879C204.255 358.819 205.064 358.757 205.878 358.691L205.943 359.502C205.128 359.567 204.316 359.63 203.51 359.689ZM162.044 359.361C161.227 359.277 160.418 359.189 159.615 359.096L159.708 358.288C160.507 358.381 161.313 358.468 162.127 358.552L162.044 359.361ZM208.377 359.293L208.304 358.483C209.108 358.412 209.916 358.335 210.728 358.256L210.806 359.065C209.992 359.144 209.181 359.221 208.377 359.293ZM213.236 358.818L213.151 358.01C213.954 357.926 214.761 357.838 215.572 357.746L215.664 358.554C214.85 358.645 214.041 358.734 213.236 358.818ZM157.191 358.798C156.377 358.693 155.57 358.581 154.77 358.467L154.886 357.662C155.681 357.777 156.485 357.886 157.295 357.992L157.191 358.798ZM218.088 358.271L217.992 357.464C218.793 357.367 219.599 357.268 220.409 357.164L220.512 357.97C219.699 358.074 218.891 358.175 218.088 358.271ZM152.353 358.102C151.541 357.973 150.738 357.839 149.942 357.7L150.083 356.899C150.875 357.036 151.673 357.169 152.481 357.299L152.353 358.102ZM222.931 357.653L222.822 356.847C223.622 356.738 224.427 356.628 225.234 356.514L225.349 357.319C224.538 357.433 223.732 357.546 222.931 357.653ZM147.538 357.264C146.73 357.109 145.93 356.952 145.139 356.789L145.304 355.993C146.092 356.155 146.886 356.314 147.689 356.467L147.538 357.264ZM227.764 356.967L227.643 356.163C228.442 356.044 229.245 355.922 230.051 355.796L230.176 356.6C229.37 356.726 228.566 356.848 227.764 356.967ZM142.752 356.274C141.949 356.094 141.156 355.909 140.37 355.72L140.561 354.931C141.341 355.119 142.13 355.303 142.929 355.482L142.752 356.274ZM232.588 356.219L232.459 355.416C233.257 355.288 234.057 355.155 234.862 355.019L234.996 355.821C234.19 355.957 233.387 356.088 232.588 356.219ZM237.402 355.407L237.263 354.606C238.058 354.467 238.858 354.325 239.661 354.178L239.806 354.978C239 355.125 238.2 355.267 237.402 355.407ZM137.999 355.125C137.204 354.917 136.416 354.703 135.639 354.485L135.859 353.702C136.631 353.919 137.413 354.131 138.205 354.337L137.999 355.125ZM242.205 354.535L242.055 353.737L242.901 353.578L243.052 354.377L242.205 354.535ZM133.291 353.803C132.503 353.564 131.724 353.322 130.957 353.074L131.207 352.302C131.97 352.548 132.743 352.789 133.526 353.026L133.291 353.803ZM128.636 352.299C127.857 352.029 127.091 351.754 126.334 351.473L126.616 350.711C127.367 350.989 128.129 351.262 128.902 351.531L128.636 352.299ZM124.048 350.597C123.282 350.293 122.528 349.983 121.784 349.668L122.1 348.92C122.838 349.233 123.587 349.54 124.348 349.841L124.048 350.597ZM119.543 348.687C118.792 348.346 118.053 348 117.327 347.649L117.681 346.917C118.401 347.267 119.134 347.609 119.879 347.946L119.543 348.687ZM115.137 346.551C114.404 346.171 113.684 345.786 112.979 345.395L113.372 344.684C114.072 345.072 114.785 345.453 115.511 345.83L115.137 346.551ZM110.855 344.177C110.144 343.756 109.447 343.328 108.768 342.895L109.205 342.209C109.878 342.637 110.566 343.061 111.27 343.478L110.855 344.177ZM106.721 341.547C106.037 341.079 105.37 340.608 104.721 340.13L105.202 339.475C105.844 339.947 106.504 340.414 107.179 340.875L106.721 341.547ZM102.77 338.644C102.119 338.131 101.489 337.611 100.875 337.087L101.403 336.47C102.008 336.988 102.632 337.501 103.274 338.008L102.77 338.644ZM99.0447 335.455C98.4371 334.892 97.8493 334.322 97.2814 333.748L97.86 333.176C98.4203 333.741 98.9989 334.303 99.5989 334.858L99.0447 335.455ZM95.5929 331.967C95.0387 331.353 94.4983 330.729 93.9884 330.107L94.6158 329.591C95.1181 330.202 95.6494 330.819 96.1944 331.422L95.5929 331.967ZM92.4754 328.17C91.9838 327.506 91.5106 326.828 91.0663 326.156L91.7441 325.709C92.1808 326.37 92.6464 327.036 93.1288 327.687L92.4754 328.17ZM89.7717 324.065C89.3564 323.35 88.9626 322.622 88.5992 321.901L89.3259 321.537C89.6816 322.242 90.0679 322.956 90.474 323.657L89.7717 324.065ZM87.5626 319.668C87.239 318.906 86.9397 318.132 86.6756 317.37L87.4435 317.103C87.7031 317.848 87.9947 318.605 88.3107 319.35L87.5626 319.668ZM85.9504 315.015C85.7367 314.219 85.5505 313.41 85.3993 312.61L86.1978 312.459C86.3459 313.239 86.526 314.027 86.7352 314.802L85.9504 315.015ZM85.036 310.171C84.9474 309.349 84.8909 308.52 84.8711 307.708L85.6833 307.687C85.7031 308.477 85.7581 309.284 85.8436 310.083L85.036 310.171ZM85.7245 305.285L84.9138 305.236C84.9627 304.413 85.0497 303.586 85.1703 302.777L85.9749 302.897C85.8573 303.682 85.7734 304.487 85.7245 305.285ZM86.4344 300.543L85.6451 300.351C85.839 299.551 86.0726 298.753 86.3382 297.977L87.1077 298.24C86.8497 298.991 86.6237 299.766 86.4344 300.543ZM87.9855 296.006L87.2435 295.675C87.5779 294.927 87.9504 294.183 88.3534 293.464L89.0633 293.861C88.6725 294.557 88.3092 295.279 87.9855 296.006ZM90.3289 291.818L89.6572 291.36C90.1152 290.689 90.6129 290.022 91.1365 289.38L91.767 289.893C91.2571 290.518 90.7732 291.165 90.3289 291.818ZM93.3609 288.096L92.7762 287.532C93.341 286.945 93.941 286.371 94.5593 285.823L95.0982 286.432C94.4952 286.965 93.912 287.525 93.3609 288.096ZM96.9592 284.906L96.4677 284.258C97.1119 283.768 97.7898 283.29 98.4829 282.839L98.9271 283.519C98.2493 283.961 97.5882 284.428 96.9592 284.906ZM100.988 282.269L100.591 281.561C101.237 281.199 101.907 280.846 102.585 280.517L102.773 280.425L103.129 281.156L102.939 281.248C102.277 281.571 101.62 281.915 100.988 282.269ZM105.321 280.081L104.962 279.352C105.687 278.996 106.415 278.636 107.148 278.272L107.51 279.001C106.776 279.364 106.046 279.724 105.321 280.081ZM109.693 277.912L109.328 277.185C110.052 276.822 110.779 276.457 111.505 276.089L111.873 276.814C111.145 277.182 110.418 277.549 109.693 277.912ZM114.05 275.706L113.679 274.982C114.4 274.613 115.122 274.24 115.846 273.865L116.22 274.587C115.495 274.963 114.771 275.335 114.05 275.706ZM118.384 273.454L118.006 272.735C118.723 272.358 119.439 271.978 120.158 271.593L120.542 272.311C119.821 272.695 119.102 273.077 118.384 273.454ZM122.691 271.152L122.303 270.437C123.016 270.051 123.728 269.66 124.441 269.267L124.833 269.978C124.119 270.373 123.406 270.764 122.691 271.152ZM126.966 268.789L126.567 268.08C127.274 267.683 127.981 267.282 128.686 266.877L129.091 267.583C128.384 267.989 127.676 268.39 126.966 268.789ZM131.21 266.355L130.799 265.653C131.502 265.242 132.201 264.828 132.9 264.41L133.317 265.108C132.618 265.528 131.914 265.943 131.21 266.355ZM135.411 263.844L134.987 263.151C135.68 262.728 136.372 262.3 137.06 261.87L137.491 262.558C136.801 262.99 136.108 263.419 135.411 263.844ZM139.556 261.252L139.117 260.568C139.799 260.129 140.48 259.688 141.158 259.244L141.604 259.923C140.926 260.369 140.242 260.813 139.556 261.252ZM143.637 258.569L143.182 257.896C143.854 257.442 144.523 256.986 145.187 256.525L145.651 257.192C144.984 257.655 144.312 258.114 143.637 258.569ZM147.645 255.788L147.173 255.127C147.831 254.656 148.486 254.182 149.136 253.702L149.619 254.357C148.964 254.84 148.306 255.316 147.645 255.788ZM151.574 252.893L151.083 252.246C151.73 251.754 152.371 251.258 153.008 250.759L153.51 251.398C152.87 251.901 152.226 252.4 151.574 252.893ZM155.42 249.87L154.907 249.24C155.537 248.727 156.162 248.209 156.779 247.689L157.304 248.31C156.682 248.834 156.053 249.354 155.42 249.87ZM159.159 246.715L158.623 246.104C159.233 245.568 159.837 245.028 160.433 244.483L160.982 245.083C160.382 245.631 159.772 246.174 159.159 246.715ZM162.771 243.412L162.209 242.825C162.797 242.264 163.377 241.699 163.949 241.129L164.523 241.704C163.948 242.278 163.363 242.848 162.771 243.412ZM166.236 239.955L165.649 239.393C166.21 238.806 166.761 238.214 167.305 237.617L167.906 238.164C167.358 238.765 166.801 239.362 166.236 239.955ZM169.529 236.33L168.914 235.8C169.444 235.185 169.963 234.565 170.473 233.939L171.103 234.452C170.587 235.084 170.064 235.709 169.529 236.33ZM172.621 232.529L171.975 232.034C172.468 231.391 172.949 230.741 173.419 230.086L174.08 230.559C173.606 231.224 173.119 231.878 172.621 232.529ZM175.477 228.547L174.802 228.095C175.253 227.422 175.691 226.743 176.115 226.059L176.805 226.488C176.375 227.179 175.932 227.866 175.477 228.547ZM178.06 224.381L177.355 223.978C177.757 223.276 178.144 222.567 178.518 221.853L179.239 222.23C178.86 222.954 178.466 223.671 178.06 224.381ZM180.332 220.035L179.598 219.686C179.943 218.96 180.272 218.225 180.589 217.485L181.337 217.803C181.016 218.554 180.682 219.299 180.332 220.035ZM182.25 215.529L181.489 215.242C181.773 214.488 182.042 213.728 182.295 212.962L183.068 213.215C182.81 213.994 182.538 214.765 182.25 215.529ZM183.784 210.864L183.001 210.643C183.219 209.868 183.419 209.088 183.604 208.302L184.394 208.488C184.211 209.281 184.005 210.081 183.784 210.864ZM184.903 206.088L184.104 205.939C184.253 205.151 184.384 204.348 184.497 203.554L185.301 203.667C185.185 204.473 185.052 205.289 184.903 206.088ZM185.588 201.231L184.779 201.154C184.856 200.357 184.915 199.553 184.956 198.744L185.768 198.786C185.727 199.606 185.666 200.421 185.588 201.231ZM185.842 196.333L185.03 196.327L185.031 195.892C185.031 195.235 185.019 194.573 184.996 193.907L185.808 193.878C185.833 194.553 185.843 195.225 185.843 195.89L185.842 196.333ZM184.86 191.489C184.799 190.691 184.72 189.887 184.625 189.078L185.433 188.984C185.529 189.804 185.608 190.617 185.671 191.426L184.86 191.489ZM184.295 186.678C184.172 185.889 184.031 185.094 183.874 184.292L184.672 184.137C184.831 184.947 184.973 185.752 185.1 186.552L184.295 186.678ZM183.366 181.923C183.184 181.144 182.985 180.361 182.773 179.572L183.558 179.36C183.773 180.158 183.973 180.95 184.156 181.737L183.366 181.923ZM182.103 177.244C181.869 176.479 181.621 175.711 181.358 174.935L182.127 174.673C182.393 175.454 182.645 176.233 182.88 177.005L182.103 177.244ZM180.541 172.65C180.26 171.9 179.967 171.148 179.659 170.389L180.411 170.082C180.723 170.847 181.019 171.607 181.301 172.364L180.541 172.65Z" fill="#838BC5"/>
<path d="M516.776 353.152H516.672L516.681 352.34H516.774C517.541 352.34 518.297 352.268 519.023 352.128L519.177 352.925C518.402 353.076 517.593 353.152 516.776 353.152ZM514.179 352.905C513.372 352.752 512.559 352.528 511.769 352.238L512.048 351.474C512.799 351.749 513.567 351.961 514.33 352.106L514.179 352.905ZM521.588 352.183L521.264 351.438C521.985 351.125 522.664 350.729 523.284 350.264L523.773 350.914C523.102 351.418 522.368 351.845 521.588 352.183ZM509.495 351.204C508.775 350.81 508.069 350.355 507.399 349.855L507.886 349.204C508.527 349.682 509.199 350.116 509.886 350.493L509.495 351.204ZM525.602 349.168L524.976 348.65C525.464 348.058 525.896 347.398 526.258 346.688L526.982 347.058C526.594 347.821 526.13 348.531 525.602 349.168ZM505.508 348.238C504.923 347.668 504.361 347.049 503.837 346.397L504.471 345.888C504.975 346.514 505.514 347.11 506.074 347.655L505.508 348.238ZM527.898 344.72L527.116 344.495C527.257 344.009 527.374 343.498 527.464 342.979C527.511 342.705 527.556 342.434 527.592 342.165L528.397 342.278C528.357 342.556 528.315 342.837 528.264 343.119C528.169 343.667 528.046 344.208 527.898 344.72ZM502.396 344.377C501.964 343.692 501.557 342.963 501.187 342.214L501.915 341.855C502.273 342.579 502.667 343.282 503.083 343.945L502.396 344.377ZM528.615 339.808L527.803 339.78C527.811 339.548 527.815 339.318 527.815 339.09C527.815 338.519 527.791 337.948 527.742 337.396L528.551 337.325C528.602 337.902 528.627 338.498 528.627 339.092C528.627 339.328 528.623 339.566 528.615 339.808ZM527.383 335.049C527.212 334.278 526.988 333.515 526.716 332.777L527.479 332.495C527.763 333.266 528 334.066 528.179 334.873L527.383 335.049ZM525.747 330.616C525.38 329.927 524.959 329.246 524.496 328.591L525.16 328.123C525.643 328.805 526.083 329.515 526.464 330.234L525.747 330.616ZM523.009 326.73C522.492 326.153 521.925 325.581 521.325 325.031L521.873 324.431C522.493 324.998 523.08 325.59 523.614 326.187L523.009 326.73ZM519.487 323.492C518.871 323.019 518.21 322.55 517.526 322.1L517.971 321.42C518.672 321.882 519.35 322.361 519.982 322.848L519.487 323.492ZM515.468 320.843C514.788 320.456 514.071 320.074 513.336 319.706L513.7 318.979C514.448 319.353 515.178 319.743 515.871 320.137L515.468 320.843ZM511.146 318.677C510.417 318.355 509.671 318.044 508.909 317.744L509.207 316.989C509.978 317.292 510.735 317.607 511.474 317.934L511.146 318.677ZM506.637 316.899C505.882 316.633 505.114 316.376 504.335 316.129L504.581 315.355C505.369 315.604 506.144 315.863 506.908 316.132L506.637 316.899ZM497.303 314.215C496.519 314.031 495.726 313.856 494.929 313.688L495.097 312.893C495.9 313.062 496.697 313.239 497.488 313.424L497.303 314.215ZM501.747 315.355C500.963 315.172 500.17 314.996 499.374 314.828L499.541 314.033C500.344 314.202 501.141 314.38 501.932 314.564L501.747 315.355ZM492.545 313.209C491.751 313.057 490.952 312.912 490.151 312.773L490.288 311.972C491.094 312.111 491.897 312.257 492.696 312.409L492.545 313.209ZM487.749 312.38C486.946 312.254 486.14 312.135 485.334 312.022L485.447 311.218C486.258 311.332 487.067 311.451 487.875 311.577L487.749 312.38ZM482.916 311.7C482.111 311.599 481.304 311.503 480.499 311.413L480.589 310.606C481.399 310.697 482.208 310.792 483.017 310.894L482.916 311.7ZM478.083 311.158C477.272 311.077 476.463 311.001 475.657 310.931L475.728 310.122C476.538 310.193 477.35 310.268 478.164 310.351L478.083 311.158ZM473.228 310.731C472.413 310.668 471.602 310.61 470.797 310.557L470.851 309.746C471.66 309.8 472.472 309.858 473.29 309.92L473.228 310.731ZM436.708 310.465L436.65 309.654C436.65 309.654 437.522 309.592 439.096 309.513L439.137 310.325C437.576 310.403 436.71 310.465 436.708 310.465ZM468.365 310.409C467.547 310.363 466.735 310.322 465.932 310.285L465.969 309.473C466.775 309.509 467.59 309.551 468.41 309.598L468.365 310.409ZM441.569 310.215L441.537 309.403C442.279 309.374 443.094 309.345 443.978 309.317L444.003 310.129C443.122 310.155 442.308 310.184 441.569 310.215ZM463.495 310.183C462.672 310.152 461.859 310.126 461.059 310.103L461.082 309.291C461.885 309.314 462.7 309.34 463.526 309.371L463.495 310.183ZM446.438 310.064L446.42 309.251C447.197 309.235 448.012 309.219 448.861 309.207L448.871 310.019C448.026 310.032 447.213 310.047 446.438 310.064ZM458.621 310.047C457.793 310.032 456.98 310.019 456.183 310.01L456.192 309.198C456.992 309.207 457.807 309.219 458.637 309.235L458.621 310.047ZM451.308 309.996L451.303 309.184C451.854 309.181 452.416 309.18 452.989 309.18L453.74 309.181L453.743 309.993L452.989 309.992C452.418 309.992 451.858 309.993 451.308 309.996Z" fill="#838BC5"/>
<path d="M499.627 322.019L502.511 338.306C502.566 338.612 502.358 338.909 502.051 338.962L476.789 343.437C476.483 343.492 476.186 343.284 476.133 342.977L473.249 326.691C473.194 326.384 473.402 326.088 473.709 326.034L498.97 321.56C499.277 321.505 499.573 321.712 499.627 322.019Z" fill="#C8D9FB"/>
<path opacity="0.3" d="M473.23 326.59L486.529 331.953C486.934 332.116 487.377 332.162 487.807 332.086C488.238 332.009 488.636 331.814 488.961 331.522L499.61 321.918L488.201 331.189C487.902 331.434 487.497 331.504 487.132 331.379L473.23 326.59Z" fill="url(#paint2_radial_2396_56943)"/>
<path opacity="0.3" d="M502.403 337.684L489.104 332.321C488.699 332.158 488.257 332.112 487.826 332.188C487.396 332.265 486.997 332.46 486.672 332.752L476.023 342.356L487.432 333.084C487.731 332.84 488.136 332.768 488.501 332.895L502.403 337.684Z" fill="url(#paint3_radial_2396_56943)"/>
<path d="M488.146 333.96C488.004 334.455 487.679 334.753 487.187 334.817C486.406 334.933 485.964 334.38 485.885 333.284L485.809 332.141C485.728 331.032 486.09 330.362 486.873 330.257C487.341 330.185 487.685 330.376 487.905 330.783L487.857 330.127L488.923 329.938L489.158 333.206C489.169 333.399 489.251 333.476 489.43 333.444C490.051 333.334 490.074 331.91 489.874 330.777C489.628 329.39 488.793 328.551 487.25 328.826C485.273 329.176 484.52 330.936 484.967 333.469C485.283 335.257 486.303 336.221 488.068 335.908C488.889 335.763 489.563 335.484 490.233 334.747L490.334 335.829C489.686 336.447 488.989 336.708 488.167 336.853C485.668 337.296 484.322 335.896 483.914 333.599C483.429 330.855 484.384 328.361 487.126 327.875C489.47 327.46 490.473 328.794 490.792 330.593C491.276 333.325 490.109 334.368 489.254 334.519C488.686 334.62 488.282 334.473 488.146 333.96ZM486.951 333.038C486.986 333.559 487.212 333.736 487.558 333.687C487.894 333.64 488.091 333.399 488.056 332.878L487.98 331.803C487.947 331.362 487.691 331.212 487.392 331.266C487.045 331.316 486.845 331.545 486.883 332.078L486.951 333.038Z" fill="#ACC3EA"/>
<path d="M472.378 181.346L403.463 183.358C400.924 183.358 398.869 181.297 398.869 178.765V116.184C398.869 113.645 400.923 111.59 403.463 111.59H513.992C514.491 111.59 514.963 111.666 515.415 111.819C516.662 131.609 468.491 135.047 472.378 181.346Z" fill="#714DD9"/>
<path d="M520.515 101.594H409.984C407.447 101.594 405.391 103.65 405.391 106.187V168.767C405.391 171.304 407.447 173.361 409.984 173.361H520.515C523.052 173.361 525.109 171.304 525.109 168.767V106.187C525.109 103.65 523.052 101.594 520.515 101.594Z" fill="white"/>
<path d="M513.111 144.348H417.388C415.989 144.348 414.854 145.482 414.854 146.882C414.854 148.282 415.988 149.416 417.388 149.416H513.111C514.51 149.416 515.646 148.282 515.646 146.882C515.646 145.482 514.511 144.348 513.111 144.348Z" fill="#714DD9"/>
<path d="M512.752 133.594H490.314C488.914 133.594 487.779 134.728 487.779 136.128V136.18C487.779 137.58 488.914 138.714 490.314 138.714H512.752C514.151 138.714 515.287 137.58 515.287 136.18V136.128C515.287 134.728 514.151 133.594 512.752 133.594Z" fill="#714DD9"/>
<path d="M469.18 155.029H417.39C415.99 155.029 414.855 156.164 414.855 157.564V157.615C414.855 159.015 415.99 160.15 417.39 160.15H469.18C470.579 160.15 471.715 159.015 471.715 157.615V157.564C471.713 156.164 470.579 155.029 469.18 155.029Z" fill="#714DD9"/>
<path d="M490.894 155.029H477.112C475.712 155.029 474.578 156.164 474.578 157.564V157.615C474.578 159.015 475.712 160.15 477.112 160.15H490.894C492.292 160.15 493.428 159.015 493.428 157.615V157.564C493.426 156.164 492.292 155.029 490.894 155.029Z" fill="#714DD9"/>
<path d="M417.388 138.712H480.749C482.149 138.712 483.283 137.578 483.283 136.178V136.126C483.283 134.726 482.149 133.592 480.749 133.592H417.388C415.989 133.592 414.854 134.726 414.854 136.126V136.179C414.855 137.579 415.989 138.712 417.388 138.712Z" fill="#714DD9"/>
<path d="M423.003 119.969C423.003 120.376 423.003 120.657 422.965 121.307C422.875 122.851 421.868 123.961 419.585 123.961C417.201 123.961 416.219 122.71 416.155 120.797L416.143 120.414H418.439L418.465 120.797C418.541 121.946 419 122.277 419.651 122.277C420.289 122.277 420.62 121.869 420.684 121.167C420.71 120.874 420.71 120.593 420.71 120.326V114.982H423.006V119.969H423.003Z" fill="#714DD9"/>
<path d="M433.362 119.383C433.362 122.201 431.601 123.962 428.86 123.962C426.118 123.962 424.357 122.201 424.357 119.383C424.357 116.551 426.118 114.805 428.86 114.805C431.601 114.805 433.362 116.551 433.362 119.383ZM431.015 119.383C431.015 117.508 430.186 116.489 428.86 116.489C427.533 116.489 426.704 117.508 426.704 119.383C426.704 121.246 427.533 122.278 428.86 122.278C430.186 122.278 431.015 121.244 431.015 119.383Z" fill="#714DD9"/>
<path d="M442.077 121.129C442.077 122.775 440.738 123.59 439.552 123.73C439.104 123.782 438.811 123.782 438.251 123.782H434.744V114.982H438.353C438.825 114.982 439.029 114.982 439.475 115.033C440.93 115.211 441.745 116.129 441.745 117.277C441.745 118.08 441.324 118.692 440.457 118.999C441.565 119.318 442.077 120.057 442.077 121.129ZM437.039 118.451H438.072C438.277 118.451 438.468 118.439 438.633 118.413C439.054 118.349 439.347 118.132 439.347 117.61C439.347 117.112 439.08 116.871 438.646 116.807C438.48 116.781 438.277 116.769 438.072 116.769H437.039V118.451ZM439.678 121.052C439.678 120.466 439.257 120.159 438.785 120.121C438.619 120.109 438.416 120.109 438.211 120.109H437.037V121.996H438.274C438.478 121.996 438.681 121.996 438.848 121.984C439.257 121.958 439.678 121.626 439.678 121.052Z" fill="#714DD9"/>
<path d="M447.882 121.498L447.142 123.782H444.705L447.881 114.982H450.687L453.862 123.782H451.363L450.622 121.498H447.882ZM448.442 119.714H450.074L449.258 117.01L448.442 119.714Z" fill="#714DD9"/>
<path d="M456.185 123.782L453.01 114.982H455.51L457.614 122.01L459.732 114.982H462.168L458.993 123.782H456.185Z" fill="#714DD9"/>
<path d="M464.351 121.498L463.611 123.782H461.176L464.351 114.982H467.157L470.333 123.782H467.834L467.093 121.498H464.351ZM464.912 119.714H466.544L465.727 117.01L464.912 119.714Z" fill="#714DD9"/>
<path d="M471.164 123.782V114.982H473.46V123.782H471.164Z" fill="#714DD9"/>
<path d="M481.916 123.782H475.168V114.982H477.464V121.843H481.914V123.782H481.916Z" fill="#714DD9"/>
<path d="M485.388 121.498L484.647 123.782H482.211L485.386 114.982H488.192L491.368 123.782H488.869L488.128 121.498H485.388ZM485.948 119.714H487.58L486.763 117.01L485.948 119.714Z" fill="#714DD9"/>
<path d="M499.534 121.129C499.534 122.775 498.195 123.59 497.009 123.73C496.561 123.782 496.268 123.782 495.708 123.782H492.201V114.982H495.81C496.282 114.982 496.487 114.982 496.932 115.033C498.387 115.211 499.202 116.129 499.202 117.277C499.202 118.08 498.781 118.692 497.914 118.999C499.024 119.318 499.534 120.057 499.534 121.129ZM494.496 118.451H495.529C495.734 118.451 495.925 118.439 496.09 118.413C496.511 118.349 496.804 118.132 496.804 117.61C496.804 117.112 496.537 116.871 496.103 116.807C495.938 116.781 495.734 116.769 495.529 116.769H494.496V118.451ZM497.135 121.052C497.135 120.466 496.714 120.159 496.242 120.121C496.076 120.109 495.873 120.109 495.668 120.109H494.494V121.996H495.731C495.935 121.996 496.138 121.996 496.305 121.984C496.716 121.958 497.135 121.626 497.135 121.052Z" fill="#714DD9"/>
<path d="M507.635 123.782H500.889V114.982H503.185V121.843H507.635V123.782Z" fill="#714DD9"/>
<path d="M515.647 123.782H508.9V114.982H515.52V116.769H511.197V118.477H515.265V120.263H511.197V121.997H515.647V123.782Z" fill="#714DD9"/>
<path d="M467.497 73.1175C469.603 61.47 461.868 50.321 450.22 48.2155C438.573 46.1099 427.424 53.8451 425.318 65.4925C423.213 77.14 430.948 88.2889 442.595 90.3945C454.243 92.5001 465.392 84.7649 467.497 73.1175Z" fill="#C8D9FB"/>
<path d="M451.448 79.9323L459.344 79.9551L459.387 64.9724L451.491 64.9496L451.448 79.9323Z" fill="white"/>
<path d="M432.346 69.7531H432.422L432.429 67.1715C432.433 65.8021 433.547 64.6953 434.916 64.6983L441.876 64.7182C441.876 64.7182 439.054 60.7626 439.061 58.2314C439.067 55.9673 439.177 52.9674 442.518 52.9766C442.518 52.9766 443.73 53.7277 443.719 57.1306C443.71 60.2695 450.175 64.9441 450.175 64.9441L450.13 80.4322C450.13 80.4322 448.708 81.7436 446.481 81.7375L436.41 81.7085C434.984 81.7039 433.831 80.5451 433.836 79.1192L433.84 77.5513C433 77.5483 432.324 76.8674 432.326 76.0277L432.33 74.2049C431.826 74.2034 431.42 73.7942 431.422 73.2919L431.43 70.66C431.433 70.1577 431.842 69.7516 432.346 69.7531Z" fill="white"/>
<defs>
<radialGradient id="paint0_radial_2396_56943" cx="0" cy="0" r="1" gradientUnits="userSpaceOnUse" gradientTransform="translate(339.51 173.786) rotate(180) scale(49.5662 49.5663)">
<stop stop-color="white"/>
<stop offset="1" stop-color="#C1E7F6"/>
</radialGradient>
<radialGradient id="paint1_radial_2396_56943" cx="0" cy="0" r="1" gradientUnits="userSpaceOnUse" gradientTransform="translate(339.511 173.785) rotate(180) scale(49.5664 49.5665)">
<stop stop-color="white"/>
<stop offset="1" stop-color="#C1E7F6"/>
</radialGradient>
<radialGradient id="paint2_radial_2396_56943" cx="0" cy="0" r="1" gradientUnits="userSpaceOnUse" gradientTransform="translate(486.401 324.297) rotate(21.685) scale(9.48427 9.48428)">
<stop stop-color="#BFB0F9"/>
<stop offset="1" stop-color="#EFDBFF"/>
</radialGradient>
<radialGradient id="paint3_radial_2396_56943" cx="0" cy="0" r="1" gradientUnits="userSpaceOnUse" gradientTransform="translate(489.219 339.999) rotate(21.685) scale(9.48427 9.48427)">
<stop stop-color="#BFB0F9"/>
<stop offset="1" stop-color="#EFDBFF"/>
</radialGradient>
</defs>
</svg>
