<svg width="48" height="48" viewBox="0 0 48 48" fill="none" xmlns="http://www.w3.org/2000/svg">
<circle cx="24" cy="24" r="23.5" fill="#37E288" fill-opacity="0.2" stroke="#E9F3F5"/>
<path d="M20.5137 34.2045C20.396 34.2045 20.2799 34.1774 20.1744 34.1253C20.0688 34.0731 19.9767 33.9974 19.9052 33.9039L12.1569 23.7685C12.0339 23.6073 11.9799 23.4039 12.0067 23.203C12.0335 23.002 12.1389 22.8199 12.2998 22.6965L15.6867 20.1064C15.848 19.9835 16.0514 19.9296 16.2524 19.9565C16.4534 19.9834 16.6354 20.0889 16.7587 20.2499L20.8976 25.6608L31.5608 14.2432C31.6993 14.0948 31.8912 14.0074 32.0941 14.0005C32.2971 13.9935 32.4945 14.0674 32.6429 14.2059L35.7568 17.1156C35.9052 17.2542 35.9926 17.446 35.9995 17.649C36.0065 17.8519 35.9326 18.0493 35.7941 18.1978L23.9762 30.8533C23.8372 30.9999 23.6459 31.0857 23.4439 31.0918C23.242 31.098 23.0458 31.0241 22.8981 30.8862C22.7504 30.7484 22.6632 30.5577 22.6554 30.3558C22.6477 30.1539 22.7201 29.9571 22.8568 29.8084L34.1544 17.7129L32.157 15.8476L21.3963 27.3694C21.3203 27.4507 21.2275 27.5145 21.1244 27.5563C21.0212 27.5982 20.9102 27.617 20.799 27.6115C20.6878 27.606 20.5791 27.5763 20.4806 27.5245C20.382 27.4728 20.296 27.4001 20.2284 27.3117L16.0068 21.7864L13.8363 23.4464L21.1212 32.9738C21.2079 33.0872 21.2611 33.2225 21.275 33.3646C21.2888 33.5066 21.2627 33.6497 21.1995 33.7777C21.1363 33.9057 21.0386 34.0135 20.9175 34.0889C20.7963 34.1643 20.6565 34.2044 20.5137 34.2045Z" fill="#37E288"/>
</svg>
