<svg width="65" height="64" viewBox="0 0 65 64" fill="none" xmlns="http://www.w3.org/2000/svg">
<rect x="0.5" width="64" height="64" rx="32" fill="#F6FAFB"/>
<path fill-rule="evenodd" clip-rule="evenodd" d="M30.1228 42.9407C29.7539 42.9799 29.3793 43 29 43C23.201 43 18.5 38.299 18.5 32.5C18.5 26.701 23.201 22 29 22C29.3793 22 29.7539 22.0201 30.1228 22.0593C26.7344 24.2953 24.4986 28.1366 24.4986 32.5C24.4986 36.8634 26.7344 40.7047 30.1228 42.9407ZM32.9993 42.2115C29.1841 40.6386 26.4986 36.8829 26.4986 32.5C26.4986 28.1171 29.1841 24.3614 32.9993 22.7885C36.8146 24.3614 39.5 28.1171 39.5 32.5C39.5 36.8829 36.8146 40.6386 32.9993 42.2115ZM32.9993 44.3465C31.7436 44.7703 30.3986 45 29 45C22.0964 45 16.5 39.4036 16.5 32.5C16.5 25.5964 22.0964 20 29 20C30.3986 20 31.7436 20.2297 32.9993 20.6535C34.255 20.2297 35.6 20 36.9986 20C43.9022 20 49.4986 25.5964 49.4986 32.5C49.4986 39.4036 43.9022 45 36.9986 45C35.6 45 34.255 44.7703 32.9993 44.3465ZM35.8758 22.0593C36.2447 22.0201 36.6193 22 36.9986 22C42.7976 22 47.4986 26.701 47.4986 32.5C47.4986 38.299 42.7976 43 36.9986 43C36.6193 43 36.2447 42.9799 35.8758 42.9407C39.2643 40.7047 41.5 36.8634 41.5 32.5C41.5 28.1366 39.2643 24.2953 35.8758 22.0593Z" fill="#5D21E6"/>
</svg>
