<svg width="23" height="22" viewBox="0 0 23 22" fill="none" xmlns="http://www.w3.org/2000/svg">
<path fill-rule="evenodd" clip-rule="evenodd" d="M7.33862 0H15.5829C19.3766 0 22.4531 3.07862 22.4531 6.875V15.125C22.4531 18.9214 19.3766 22 15.5829 22H7.33862C3.54487 22 0.468384 18.9214 0.468384 15.125V6.875C0.468384 3.07862 3.54487 0 7.33862 0ZM15.5829 19.9375C18.2348 19.9375 20.3921 17.7787 20.3921 15.125V6.875C20.3921 4.22125 18.2348 2.0625 15.5829 2.0625H7.33864C4.68673 2.0625 2.52948 4.22125 2.52948 6.875V15.125C2.52948 17.7787 4.68673 19.9375 7.33864 19.9375H15.5829Z" fill="white"/>
<path fill-rule="evenodd" clip-rule="evenodd" d="M5.9646 11C5.9646 7.96263 8.42552 5.5 11.4608 5.5C14.4961 5.5 16.957 7.96263 16.957 11C16.957 14.0374 14.4961 16.5 11.4608 16.5C8.42552 16.5 5.9646 14.0374 5.9646 11ZM8.02563 11C8.02563 12.8948 9.56732 14.4375 11.4608 14.4375C13.3542 14.4375 14.8959 12.8948 14.8959 11C14.8959 9.10388 13.3542 7.5625 11.4608 7.5625C9.56732 7.5625 8.02563 9.10388 8.02563 11Z" fill="white"/>
<ellipse cx="17.3692" cy="5.08737" rx="0.732391" ry="0.73288" fill="white"/>
</svg>
