<svg width="726" height="313" viewBox="0 0 726 313" fill="none" xmlns="http://www.w3.org/2000/svg">
<g filter="url(#filter0_d_110_2396)">
<rect x="85.5" y="24.5" width="590.667" height="74" rx="15.5" fill="white"/>
<path d="M122.543 47.9898H125.847V52.3078C125.41 52.4521 124.957 52.5679 124.486 52.6553C124.015 52.7388 123.481 52.7806 122.885 52.7806C122.057 52.7806 121.354 52.6173 120.777 52.2907C120.2 51.9641 119.761 51.4818 119.461 50.8438C119.161 50.2057 119.011 49.4215 119.011 48.4911C119.011 47.6176 119.178 46.8618 119.513 46.2238C119.851 45.5858 120.342 45.0921 120.988 44.7427C121.637 44.3933 122.429 44.2186 123.363 44.2186C123.804 44.2186 124.239 44.2661 124.668 44.361C125.097 44.456 125.486 44.5794 125.836 44.7313L125.249 46.1441C124.995 46.0149 124.704 45.9067 124.377 45.8194C124.051 45.732 123.709 45.6883 123.352 45.6883C122.839 45.6883 122.393 45.8061 122.013 46.0415C121.637 46.277 121.345 46.6074 121.136 47.0327C120.931 47.4543 120.828 47.9518 120.828 48.5252C120.828 49.0683 120.902 49.5506 121.051 49.9722C121.199 50.3899 121.432 50.7184 121.751 50.9577C122.07 51.1932 122.486 51.3109 122.999 51.3109C123.249 51.3109 123.46 51.2995 123.631 51.2767C123.806 51.2501 123.969 51.2235 124.121 51.197V49.4595H122.543V47.9898ZM133.486 49.4709C133.486 50.0026 133.414 50.4735 133.27 50.8836C133.129 51.2938 132.922 51.6413 132.649 51.9261C132.379 52.2072 132.053 52.4198 131.669 52.5641C131.289 52.7085 130.86 52.7806 130.382 52.7806C129.934 52.7806 129.521 52.7085 129.145 52.5641C128.773 52.4198 128.449 52.2072 128.171 51.9261C127.898 51.6413 127.685 51.2938 127.533 50.8836C127.385 50.4735 127.311 50.0026 127.311 49.4709C127.311 48.7645 127.437 48.1664 127.687 47.6765C127.938 47.1865 128.295 46.8144 128.758 46.5599C129.221 46.3055 129.774 46.1782 130.416 46.1782C131.012 46.1782 131.54 46.3055 131.999 46.5599C132.463 46.8144 132.825 47.1865 133.088 47.6765C133.353 48.1664 133.486 48.7645 133.486 49.4709ZM129.083 49.4709C129.083 49.8886 129.128 50.2399 129.22 50.5248C129.311 50.8096 129.453 51.0242 129.647 51.1685C129.84 51.3128 130.093 51.3849 130.404 51.3849C130.712 51.3849 130.961 51.3128 131.151 51.1685C131.344 51.0242 131.485 50.8096 131.572 50.5248C131.663 50.2399 131.709 49.8886 131.709 49.4709C131.709 49.0493 131.663 48.6999 131.572 48.4227C131.485 48.1417 131.344 47.9309 131.151 47.7904C130.957 47.6499 130.704 47.5796 130.393 47.5796C129.934 47.5796 129.599 47.7372 129.39 48.0524C129.185 48.3676 129.083 48.8405 129.083 49.4709ZM141.251 47.9898H144.555V52.3078C144.118 52.4521 143.664 52.5679 143.193 52.6553C142.722 52.7388 142.189 52.7806 141.593 52.7806C140.765 52.7806 140.062 52.6173 139.485 52.2907C138.908 51.9641 138.469 51.4818 138.169 50.8438C137.869 50.2057 137.719 49.4215 137.719 48.4911C137.719 47.6176 137.886 46.8618 138.22 46.2238C138.558 45.5858 139.05 45.0921 139.696 44.7427C140.345 44.3933 141.137 44.2186 142.071 44.2186C142.512 44.2186 142.946 44.2661 143.376 44.361C143.805 44.456 144.194 44.5794 144.543 44.7313L143.957 46.1441C143.702 46.0149 143.412 45.9067 143.085 45.8194C142.758 45.732 142.417 45.6883 142.06 45.6883C141.547 45.6883 141.101 45.8061 140.721 46.0415C140.345 46.277 140.053 46.6074 139.844 47.0327C139.639 47.4543 139.536 47.9518 139.536 48.5252C139.536 49.0683 139.61 49.5506 139.758 49.9722C139.906 50.3899 140.14 50.7184 140.459 50.9577C140.778 51.1932 141.194 51.3109 141.707 51.3109C141.957 51.3109 142.168 51.2995 142.339 51.2767C142.514 51.2501 142.677 51.2235 142.829 51.197V49.4595H141.251V47.9898ZM152.194 49.4709C152.194 50.0026 152.122 50.4735 151.978 50.8836C151.837 51.2938 151.63 51.6413 151.357 51.9261C151.087 52.2072 150.76 52.4198 150.377 52.5641C149.997 52.7085 149.568 52.7806 149.089 52.7806C148.641 52.7806 148.229 52.7085 147.853 52.5641C147.481 52.4198 147.156 52.2072 146.879 51.9261C146.606 51.6413 146.393 51.2938 146.241 50.8836C146.093 50.4735 146.019 50.0026 146.019 49.4709C146.019 48.7645 146.144 48.1664 146.395 47.6765C146.645 47.1865 147.002 46.8144 147.466 46.5599C147.929 46.3055 148.482 46.1782 149.124 46.1782C149.72 46.1782 150.248 46.3055 150.707 46.5599C151.17 46.8144 151.533 47.1865 151.795 47.6765C152.061 48.1664 152.194 48.7645 152.194 49.4709ZM147.791 49.4709C147.791 49.8886 147.836 50.2399 147.927 50.5248C148.018 50.8096 148.161 51.0242 148.354 51.1685C148.548 51.3128 148.801 51.3849 149.112 51.3849C149.42 51.3849 149.668 51.3128 149.858 51.1685C150.052 51.0242 150.193 50.8096 150.28 50.5248C150.371 50.2399 150.417 49.8886 150.417 49.4709C150.417 49.0493 150.371 48.6999 150.28 48.4227C150.193 48.1417 150.052 47.9309 149.858 47.7904C149.665 47.6499 149.412 47.5796 149.101 47.5796C148.641 47.5796 148.307 47.7372 148.098 48.0524C147.893 48.3676 147.791 48.8405 147.791 49.4709ZM155.367 52.6667H153.63V43.8028H155.367V52.6667ZM160.716 47.6024H159.212V52.6667H157.475V47.6024H156.518V46.765L157.475 46.2979V45.8307C157.475 45.2877 157.566 44.8661 157.748 44.5661C157.934 44.2623 158.194 44.0496 158.529 43.9281C158.867 43.8028 159.265 43.7401 159.725 43.7401C160.063 43.7401 160.371 43.7686 160.648 43.8255C160.925 43.8787 161.151 43.9395 161.326 44.0078L160.881 45.2839C160.748 45.2421 160.604 45.2041 160.448 45.1699C160.293 45.1358 160.114 45.1187 159.913 45.1187C159.67 45.1187 159.491 45.1927 159.377 45.3408C159.267 45.4852 159.212 45.6712 159.212 45.8991V46.2979H160.716V47.6024ZM163.45 46.2979V52.6667H161.713V46.2979H163.45ZM162.585 43.8028C162.843 43.8028 163.065 43.8635 163.251 43.985C163.437 44.1028 163.53 44.3249 163.53 44.6516C163.53 44.9744 163.437 45.1984 163.251 45.3238C163.065 45.4453 162.843 45.506 162.585 45.506C162.323 45.506 162.099 45.4453 161.912 45.3238C161.73 45.1984 161.639 44.9744 161.639 44.6516C161.639 44.3249 161.73 44.1028 161.912 43.985C162.099 43.8635 162.323 43.8028 162.585 43.8028ZM168.891 46.1782C169.571 46.1782 170.117 46.3643 170.531 46.7365C170.945 47.1049 171.152 47.6973 171.152 48.5139V52.6667H169.415V48.9468C169.415 48.4911 169.331 48.1474 169.164 47.9157C169.001 47.684 168.743 47.5682 168.389 47.5682C167.858 47.5682 167.495 47.7486 167.301 48.1094C167.108 48.4702 167.011 48.9905 167.011 49.6703V52.6667H165.273V46.2979H166.601L166.834 47.1125H166.931C167.068 46.8922 167.237 46.7137 167.438 46.577C167.643 46.4403 167.869 46.3396 168.116 46.2751C168.367 46.2105 168.625 46.1782 168.891 46.1782ZM174.804 55.4694C173.915 55.4694 173.235 55.3137 172.764 55.0023C172.297 54.6947 172.064 54.2617 172.064 53.7035C172.064 53.3199 172.183 52.999 172.423 52.7407C172.662 52.4825 173.013 52.2983 173.477 52.1882C173.298 52.1122 173.142 51.9888 173.009 51.8179C172.876 51.6432 172.81 51.459 172.81 51.2653C172.81 51.0223 172.88 50.821 173.021 50.6615C173.161 50.4982 173.365 50.3387 173.63 50.183C173.296 50.0386 173.03 49.807 172.833 49.488C172.639 49.169 172.542 48.793 172.542 48.36C172.542 47.8967 172.643 47.5037 172.844 47.1808C173.049 46.8542 173.346 46.6055 173.733 46.4346C174.124 46.2637 174.599 46.1782 175.157 46.1782C175.275 46.1782 175.411 46.1858 175.567 46.201C175.723 46.2162 175.865 46.2333 175.994 46.2523C176.127 46.2713 176.217 46.2865 176.262 46.2979H178.484V47.1808L177.487 47.4372C177.578 47.5777 177.646 47.7277 177.692 47.8872C177.738 48.0467 177.76 48.2157 177.76 48.3942C177.76 49.0778 177.521 49.6114 177.043 49.995C176.568 50.3747 175.907 50.5646 175.06 50.5646C174.859 50.5532 174.669 50.5381 174.491 50.5191C174.403 50.5874 174.337 50.6596 174.291 50.7355C174.246 50.8115 174.223 50.8912 174.223 50.9748C174.223 51.0583 174.257 51.1286 174.325 51.1856C174.397 51.2387 174.504 51.2805 174.644 51.3109C174.789 51.3375 174.967 51.3508 175.18 51.3508H176.262C176.961 51.3508 177.493 51.5008 177.857 51.8008C178.226 52.1008 178.41 52.5414 178.41 53.1224C178.41 53.8668 178.098 54.444 177.476 54.8542C176.857 55.2643 175.966 55.4694 174.804 55.4694ZM174.878 54.3358C175.292 54.3358 175.647 54.2959 175.943 54.2162C176.243 54.1402 176.473 54.0301 176.632 53.8858C176.792 53.7452 176.872 53.5762 176.872 53.3788C176.872 53.2193 176.824 53.092 176.729 52.9971C176.638 52.9059 176.498 52.8414 176.308 52.8034C176.122 52.7654 175.882 52.7464 175.59 52.7464H174.69C174.477 52.7464 174.285 52.7806 174.115 52.849C173.947 52.9173 173.815 53.0123 173.716 53.1338C173.617 53.2591 173.568 53.4034 173.568 53.5668C173.568 53.806 173.682 53.994 173.909 54.1307C174.141 54.2674 174.464 54.3358 174.878 54.3358ZM175.157 49.5051C175.484 49.5051 175.723 49.4044 175.875 49.2031C176.027 49.0019 176.103 48.7284 176.103 48.3828C176.103 47.9993 176.023 47.7125 175.863 47.5226C175.708 47.329 175.472 47.2321 175.157 47.2321C174.838 47.2321 174.599 47.329 174.439 47.5226C174.28 47.7125 174.2 47.9993 174.2 48.3828C174.2 48.7284 174.278 49.0019 174.434 49.2031C174.593 49.4044 174.834 49.5051 175.157 49.5051ZM187.804 52.6667L187.314 50.4393C187.287 50.3064 187.243 50.1108 187.183 49.8526C187.122 49.5905 187.055 49.3114 186.983 49.0152C186.915 48.7151 186.85 48.4379 186.79 48.1835C186.733 47.929 186.691 47.7429 186.664 47.6252H186.613C186.586 47.7429 186.545 47.929 186.488 48.1835C186.431 48.4379 186.366 48.7151 186.294 49.0152C186.226 49.3152 186.161 49.5981 186.1 49.864C186.039 50.126 185.994 50.3254 185.964 50.4621L185.451 52.6667H183.582L181.771 46.2979H183.503L184.237 49.1177C184.287 49.3152 184.334 49.5506 184.38 49.8241C184.425 50.0937 184.465 50.3558 184.499 50.6102C184.537 50.8609 184.566 51.0602 184.585 51.2084H184.631C184.638 51.0982 184.653 50.952 184.676 50.7697C184.703 50.5874 184.731 50.3994 184.762 50.2057C184.796 50.0083 184.826 49.8317 184.853 49.676C184.883 49.5165 184.906 49.4082 184.921 49.3513L185.707 46.2979H187.621L188.367 49.3513C188.394 49.4614 188.428 49.6361 188.47 49.8753C188.516 50.1146 188.555 50.3615 188.59 50.6159C188.624 50.8666 188.643 51.064 188.647 51.2084H188.692C188.707 51.0792 188.734 50.8874 188.772 50.633C188.81 50.3785 188.854 50.1127 188.903 49.8355C188.956 49.5544 189.009 49.3152 189.062 49.1177L189.826 46.2979H191.529L189.695 52.6667H187.804ZM194.298 46.2979V52.6667H192.56V46.2979H194.298ZM193.432 43.8028C193.69 43.8028 193.912 43.8635 194.098 43.985C194.284 44.1028 194.377 44.3249 194.377 44.6516C194.377 44.9744 194.284 45.1984 194.098 45.3238C193.912 45.4453 193.69 45.506 193.432 45.506C193.17 45.506 192.946 45.4453 192.76 45.3238C192.577 45.1984 192.486 44.9744 192.486 44.6516C192.486 44.3249 192.577 44.1028 192.76 43.985C192.946 43.8635 193.17 43.8028 193.432 43.8028ZM198.809 51.3963C198.999 51.3963 199.183 51.3774 199.362 51.3394C199.544 51.3014 199.725 51.2539 199.903 51.197V52.4901C199.717 52.5736 199.485 52.642 199.208 52.6952C198.935 52.7521 198.635 52.7806 198.308 52.7806C197.928 52.7806 197.587 52.7199 197.283 52.5983C196.983 52.473 196.745 52.2584 196.571 51.9546C196.4 51.647 196.314 51.2197 196.314 50.6729V47.6024H195.483V46.8675L196.44 46.2865L196.941 44.9421H198.052V46.2979H199.835V47.6024H198.052V50.6729C198.052 50.9159 198.12 51.0982 198.257 51.2197C198.397 51.3375 198.582 51.3963 198.809 51.3963ZM202.934 43.8028V45.6086C202.934 45.9238 202.922 46.2238 202.9 46.5086C202.881 46.7935 202.865 46.9948 202.854 47.1125H202.945C203.082 46.8922 203.243 46.7137 203.429 46.577C203.619 46.4403 203.828 46.3396 204.056 46.2751C204.284 46.2105 204.529 46.1782 204.791 46.1782C205.25 46.1782 205.651 46.2599 205.993 46.4232C206.335 46.5827 206.6 46.8353 206.79 47.1808C206.98 47.5226 207.075 47.967 207.075 48.5139V52.6667H205.338V48.9468C205.338 48.4911 205.254 48.1474 205.087 47.9157C204.92 47.684 204.662 47.5682 204.312 47.5682C203.963 47.5682 203.688 47.6499 203.486 47.8132C203.285 47.9727 203.143 48.21 203.059 48.5252C202.976 48.8367 202.934 49.2183 202.934 49.6703V52.6667H201.196V43.8028H202.934ZM215.415 47.6024H213.911V52.6667H212.174V47.6024H211.217V46.765L212.174 46.2979V45.8307C212.174 45.2877 212.265 44.8661 212.447 44.5661C212.633 44.2623 212.893 44.0496 213.228 43.9281C213.566 43.8028 213.964 43.7401 214.424 43.7401C214.762 43.7401 215.069 43.7686 215.347 43.8255C215.624 43.8787 215.85 43.9395 216.025 44.0078L215.58 45.2839C215.447 45.2421 215.303 45.2041 215.147 45.1699C214.992 45.1358 214.813 45.1187 214.612 45.1187C214.369 45.1187 214.19 45.1927 214.076 45.3408C213.966 45.4852 213.911 45.6712 213.911 45.8991V46.2979H215.415V47.6024ZM219.972 46.1782C220.06 46.1782 220.16 46.1839 220.274 46.1953C220.392 46.2029 220.487 46.2143 220.559 46.2295L220.428 47.8587C220.371 47.8398 220.289 47.8265 220.183 47.8189C220.081 47.8075 219.991 47.8018 219.915 47.8018C219.691 47.8018 219.473 47.8303 219.26 47.8872C219.051 47.9442 218.863 48.0372 218.696 48.1664C218.529 48.2917 218.396 48.4588 218.297 48.6677C218.203 48.8727 218.155 49.1253 218.155 49.4253V52.6667H216.418V46.2979H217.734L217.99 47.3688H218.075C218.201 47.1524 218.356 46.9549 218.542 46.7764C218.732 46.5941 218.947 46.4498 219.186 46.3434C219.429 46.2333 219.691 46.1782 219.972 46.1782ZM223.453 46.2979V52.6667H221.715V46.2979H223.453ZM222.587 43.8028C222.845 43.8028 223.067 43.8635 223.254 43.985C223.44 44.1028 223.533 44.3249 223.533 44.6516C223.533 44.9744 223.44 45.1984 223.254 45.3238C223.067 45.4453 222.845 45.506 222.587 45.506C222.325 45.506 222.101 45.4453 221.915 45.3238C221.733 45.1984 221.641 44.9744 221.641 44.6516C221.641 44.3249 221.733 44.1028 221.915 43.985C222.101 43.8635 222.325 43.8028 222.587 43.8028ZM227.908 46.1782C228.496 46.1782 229.003 46.2922 229.429 46.52C229.854 46.7441 230.183 47.0707 230.414 47.4999C230.646 47.929 230.762 48.4531 230.762 49.0721V49.9152H226.654C226.673 50.4051 226.82 50.7906 227.093 51.0716C227.37 51.3489 227.754 51.4875 228.244 51.4875C228.65 51.4875 229.022 51.4457 229.36 51.3622C229.698 51.2786 230.046 51.1533 230.403 50.9862V52.3306C230.088 52.4863 229.757 52.6002 229.412 52.6724C229.07 52.7445 228.654 52.7806 228.164 52.7806C227.526 52.7806 226.96 52.6629 226.466 52.4274C225.977 52.192 225.591 51.8331 225.31 51.3508C225.033 50.8685 224.894 50.2608 224.894 49.5279C224.894 48.7835 225.02 48.1645 225.27 47.6708C225.525 47.1733 225.878 46.8011 226.33 46.5542C226.782 46.3036 227.308 46.1782 227.908 46.1782ZM227.919 47.4144C227.581 47.4144 227.3 47.5226 227.076 47.7391C226.856 47.9556 226.728 48.2955 226.694 48.7588H229.132C229.129 48.5006 229.081 48.2708 228.99 48.0695C228.903 47.8682 228.77 47.7087 228.591 47.591C228.417 47.4733 228.193 47.4144 227.919 47.4144ZM235.792 46.1782C236.472 46.1782 237.018 46.3643 237.432 46.7365C237.846 47.1049 238.053 47.6973 238.053 48.5139V52.6667H236.316V48.9468C236.316 48.4911 236.232 48.1474 236.065 47.9157C235.902 47.684 235.644 47.5682 235.29 47.5682C234.759 47.5682 234.396 47.7486 234.202 48.1094C234.009 48.4702 233.912 48.9905 233.912 49.6703V52.6667H232.174V46.2979H233.502L233.735 47.1125H233.832C233.969 46.8922 234.138 46.7137 234.339 46.577C234.544 46.4403 234.77 46.3396 235.017 46.2751C235.268 46.2105 235.526 46.1782 235.792 46.1782ZM241.859 52.7806C241.149 52.7806 240.569 52.5034 240.121 51.9489C239.677 51.3906 239.455 50.5722 239.455 49.4937C239.455 48.4037 239.681 47.5796 240.133 47.0213C240.585 46.4593 241.175 46.1782 241.904 46.1782C242.208 46.1782 242.476 46.22 242.707 46.3036C242.939 46.3871 243.139 46.4992 243.306 46.6397C243.477 46.7802 243.621 46.9378 243.739 47.1125H243.796C243.773 46.991 243.744 46.8125 243.71 46.577C243.68 46.3377 243.665 46.0928 243.665 45.8421V43.8028H245.408V52.6667H244.075L243.739 51.8407H243.665C243.554 52.0154 243.416 52.1749 243.249 52.3192C243.085 52.4597 242.89 52.5717 242.662 52.6553C242.434 52.7388 242.166 52.7806 241.859 52.7806ZM242.468 51.3963C242.943 51.3963 243.277 51.2558 243.471 50.9748C243.668 50.69 243.773 50.2627 243.784 49.6931V49.5051C243.784 48.886 243.689 48.4132 243.499 48.0866C243.309 47.7562 242.956 47.591 242.44 47.591C242.056 47.591 241.756 47.7562 241.54 48.0866C241.323 48.417 241.215 48.8936 241.215 49.5165C241.215 50.1393 241.323 50.6083 241.54 50.9235C241.76 51.2387 242.069 51.3963 242.468 51.3963ZM251.668 50.7754C251.668 51.2084 251.566 51.5748 251.361 51.8749C251.159 52.1711 250.857 52.397 250.455 52.5528C250.052 52.7047 249.551 52.7806 248.951 52.7806C248.507 52.7806 248.125 52.7521 247.806 52.6952C247.491 52.6382 247.172 52.5433 246.849 52.4103V50.9748C247.195 51.1305 247.565 51.2596 247.96 51.3622C248.359 51.4609 248.708 51.5103 249.008 51.5103C249.346 51.5103 249.587 51.4609 249.731 51.3622C249.88 51.2596 249.954 51.1267 249.954 50.9634C249.954 50.8571 249.923 50.7621 249.862 50.6786C249.805 50.5912 249.68 50.4944 249.486 50.388C249.293 50.2779 248.989 50.1355 248.575 49.9608C248.176 49.7937 247.848 49.6247 247.589 49.4538C247.335 49.2829 247.145 49.0816 247.02 48.85C246.898 48.6145 246.838 48.3164 246.838 47.9556C246.838 47.3669 247.065 46.9245 247.521 46.6283C247.981 46.3283 248.594 46.1782 249.361 46.1782C249.756 46.1782 250.132 46.2181 250.489 46.2979C250.85 46.3776 251.22 46.5048 251.6 46.6795L251.076 47.9328C250.761 47.7961 250.462 47.684 250.181 47.5967C249.904 47.5094 249.621 47.4657 249.333 47.4657C249.078 47.4657 248.886 47.4999 248.757 47.5682C248.628 47.6366 248.564 47.741 248.564 47.8815C248.564 47.9841 248.596 48.0752 248.66 48.155C248.729 48.2347 248.858 48.324 249.048 48.4227C249.242 48.5177 249.524 48.6411 249.897 48.793C250.257 48.9411 250.571 49.0968 250.837 49.2601C251.102 49.4196 251.307 49.619 251.452 49.8583C251.596 50.0937 251.668 50.3994 251.668 50.7754Z" fill="#333333"/>
<path d="M128.333 69V73.1667" stroke="#707070" stroke-width="1.25" stroke-linecap="round" stroke-linejoin="round"/>
<path d="M128.333 80.6667C124.308 80.6667 121.042 77.4 121.042 73.375C121.042 69.35 124.308 66.0834 128.333 66.0834C132.358 66.0834 135.625 69.35 135.625 73.375" stroke="#707070" stroke-width="1.25" stroke-linecap="round" stroke-linejoin="round"/>
<path d="M125.833 64H130.833" stroke="#707070" stroke-width="1.25" stroke-miterlimit="10" stroke-linecap="round" stroke-linejoin="round"/>
<path d="M130.75 77.75V76.7834C130.75 75.5917 131.6 75.1 132.633 75.7L133.467 76.1834L134.3 76.6667C135.333 77.2667 135.333 78.2417 134.3 78.8417L133.467 79.325L132.633 79.8084C131.6 80.4084 130.75 79.9167 130.75 78.725V77.75Z" stroke="#707070" stroke-width="1.25" stroke-miterlimit="10" stroke-linecap="round" stroke-linejoin="round"/>
<path d="M147.353 76.3334H142.661V75.6351L144.541 73.7455C145.114 73.1661 145.491 72.7526 145.673 72.5052C145.856 72.2579 145.993 72.017 146.084 71.7826C146.175 71.5482 146.22 71.2959 146.22 71.0258C146.22 70.6449 146.105 70.3438 145.874 70.1224C145.643 69.8978 145.322 69.7855 144.912 69.7855C144.616 69.7855 144.334 69.8344 144.067 69.932C143.803 70.0297 143.509 70.2071 143.183 70.4642L142.754 69.9125C143.411 69.3656 144.127 69.0922 144.902 69.0922C145.573 69.0922 146.098 69.2647 146.479 69.6097C146.86 69.9515 147.05 70.4122 147.05 70.9916C147.05 71.4441 146.923 71.8916 146.67 72.3344C146.416 72.7771 145.94 73.337 145.244 74.014L143.681 75.5424V75.5814H147.353V76.3334ZM152.417 76.3334V72.8715C152.417 72.4353 152.317 72.1097 152.119 71.8949C151.92 71.6801 151.609 71.5726 151.186 71.5726C150.623 71.5726 150.211 71.7256 149.951 72.0316C149.694 72.3376 149.565 72.8389 149.565 73.5355V76.3334H148.755V68.7357H149.565V71.0355C149.565 71.3122 149.552 71.5417 149.526 71.724H149.575C149.734 71.4668 149.961 71.265 150.254 71.1185C150.55 70.9688 150.887 70.8939 151.264 70.8939C151.919 70.8939 152.409 71.0502 152.734 71.3627C153.063 71.6719 153.227 72.1651 153.227 72.8422V76.3334H152.417ZM157.339 70.8842C157.576 70.8842 157.789 70.9037 157.978 70.9427L157.866 71.6947C157.645 71.6459 157.449 71.6215 157.28 71.6215C156.847 71.6215 156.476 71.7972 156.167 72.1488C155.861 72.5004 155.708 72.9382 155.708 73.4623V76.3334H154.897V70.9818H155.566L155.659 71.973H155.698C155.896 71.6247 156.136 71.3562 156.416 71.1674C156.696 70.9786 157.003 70.8842 157.339 70.8842ZM162.431 74.8734C162.431 75.3715 162.246 75.7556 161.875 76.0258C161.504 76.2959 160.983 76.431 160.312 76.431C159.603 76.431 159.049 76.3187 158.652 76.0941V75.3422C158.909 75.4724 159.184 75.5749 159.477 75.6498C159.773 75.7247 160.058 75.7621 160.332 75.7621C160.755 75.7621 161.08 75.6954 161.308 75.5619C161.536 75.4252 161.65 75.2185 161.65 74.9418C161.65 74.7334 161.559 74.556 161.377 74.4095C161.198 74.2598 160.846 74.084 160.322 73.8822C159.824 73.6967 159.469 73.5355 159.257 73.3988C159.049 73.2588 158.893 73.101 158.789 72.9252C158.688 72.7494 158.637 72.5394 158.637 72.2953C158.637 71.8591 158.815 71.5157 159.17 71.265C159.524 71.0111 160.011 70.8842 160.63 70.8842C161.206 70.8842 161.769 71.0013 162.319 71.2357L162.031 71.8949C161.494 71.6735 161.007 71.5629 160.571 71.5629C160.187 71.5629 159.897 71.6231 159.702 71.7435C159.507 71.864 159.409 72.03 159.409 72.2416C159.409 72.3848 159.445 72.5069 159.516 72.6078C159.591 72.7087 159.71 72.8047 159.873 72.8959C160.035 72.987 160.348 73.1189 160.81 73.2914C161.445 73.5225 161.873 73.7552 162.094 73.9896C162.319 74.224 162.431 74.5186 162.431 74.8734ZM164.604 75.1713L164.677 75.2836C164.593 75.6091 164.471 75.9867 164.311 76.4164C164.152 76.8493 163.986 77.2513 163.813 77.6224H163.203C163.291 77.2839 163.387 76.8656 163.491 76.3676C163.598 75.8695 163.673 75.4707 163.715 75.1713H164.604ZM172.856 70.8744C172.856 71.3301 172.728 71.7028 172.47 71.9926C172.216 72.2823 171.855 72.476 171.386 72.5736V72.6127C171.959 72.6843 172.384 72.8666 172.661 73.1595C172.937 73.4525 173.076 73.8366 173.076 74.3119C173.076 74.9922 172.84 75.5163 172.368 75.8842C171.896 76.2487 171.225 76.431 170.356 76.431C169.979 76.431 169.632 76.4017 169.316 76.3431C169.004 76.2878 168.699 76.1885 168.403 76.0453V75.2738C168.712 75.4268 169.041 75.544 169.389 75.6254C169.741 75.7035 170.073 75.7426 170.385 75.7426C171.619 75.7426 172.236 75.2592 172.236 74.2924C172.236 73.4265 171.556 72.9935 170.195 72.9935H169.492V72.2953H170.205C170.761 72.2953 171.202 72.1732 171.528 71.9291C171.854 71.6817 172.016 71.3399 172.016 70.9037C172.016 70.5554 171.896 70.2819 171.655 70.0834C171.417 69.8848 171.093 69.7855 170.683 69.7855C170.371 69.7855 170.076 69.8278 169.799 69.9125C169.523 69.9971 169.207 70.1534 168.852 70.3812L168.442 69.8344C168.735 69.6032 169.072 69.4226 169.453 69.2924C169.837 69.1589 170.241 69.0922 170.664 69.0922C171.357 69.0922 171.896 69.2517 172.28 69.5707C172.664 69.8864 172.856 70.321 172.856 70.8744ZM178.188 76.3334V72.8715C178.188 72.4353 178.089 72.1097 177.89 71.8949C177.692 71.6801 177.381 71.5726 176.958 71.5726C176.395 71.5726 175.983 71.7256 175.722 72.0316C175.465 72.3376 175.337 72.8389 175.337 73.5355V76.3334H174.526V68.7357H175.337V71.0355C175.337 71.3122 175.324 71.5417 175.298 71.724H175.346C175.506 71.4668 175.732 71.265 176.025 71.1185C176.321 70.9688 176.658 70.8939 177.036 70.8939C177.69 70.8939 178.18 71.0502 178.506 71.3627C178.834 71.6719 178.999 72.1651 178.999 72.8422V76.3334H178.188ZM183.11 70.8842C183.348 70.8842 183.561 70.9037 183.75 70.9427L183.637 71.6947C183.416 71.6459 183.221 71.6215 183.051 71.6215C182.618 71.6215 182.247 71.7972 181.938 72.1488C181.632 72.5004 181.479 72.9382 181.479 73.4623V76.3334H180.669V70.9818H181.338L181.43 71.973H181.469C181.668 71.6247 181.907 71.3562 182.187 71.1674C182.467 70.9786 182.775 70.8842 183.11 70.8842ZM188.203 74.8734C188.203 75.3715 188.017 75.7556 187.646 76.0258C187.275 76.2959 186.754 76.431 186.084 76.431C185.374 76.431 184.821 76.3187 184.423 76.0941V75.3422C184.681 75.4724 184.956 75.5749 185.249 75.6498C185.545 75.7247 185.83 75.7621 186.103 75.7621C186.526 75.7621 186.852 75.6954 187.08 75.5619C187.308 75.4252 187.422 75.2185 187.422 74.9418C187.422 74.7334 187.33 74.556 187.148 74.4095C186.969 74.2598 186.618 74.084 186.093 73.8822C185.595 73.6967 185.241 73.5355 185.029 73.3988C184.821 73.2588 184.664 73.101 184.56 72.9252C184.459 72.7494 184.409 72.5394 184.409 72.2953C184.409 71.8591 184.586 71.5157 184.941 71.265C185.296 71.0111 185.783 70.8842 186.401 70.8842C186.977 70.8842 187.54 71.0013 188.09 71.2357L187.802 71.8949C187.265 71.6735 186.779 71.5629 186.342 71.5629C185.958 71.5629 185.669 71.6231 185.473 71.7435C185.278 71.864 185.18 72.03 185.18 72.2416C185.18 72.3848 185.216 72.5069 185.288 72.6078C185.363 72.7087 185.481 72.8047 185.644 72.8959C185.807 72.987 186.119 73.1189 186.582 73.2914C187.216 73.5225 187.645 73.7552 187.866 73.9896C188.09 74.224 188.203 74.5186 188.203 74.8734Z" fill="#707070"/>
<g clip-path="url(#clip0_110_2396)">
<rect x="630" y="54.8333" width="13.3333" height="13.3333" rx="1.66667" fill="#707070"/>
<rect x="630.417" y="55.25" width="12.5" height="12.5" rx="1.25" fill="white" stroke="#E9F3F5" stroke-width="0.833333"/>
</g>
<rect x="85.5" y="24.5" width="590.667" height="74" rx="15.5" stroke="#714DD9"/>
<rect x="85.5" y="24.5" width="590.667" height="74" rx="15.5" stroke="white" stroke-opacity="0.8"/>
<rect x="85.5" y="24.5" width="590.667" height="74" rx="15.5" stroke="black"/>
</g>
<g filter="url(#filter1_d_110_2396)">
<rect x="108.5" y="117.5" width="590.667" height="74" rx="15.5" fill="white"/>
<path d="M144.808 137.338C145.564 137.338 146.187 137.429 146.677 137.612C147.17 137.794 147.537 138.069 147.776 138.438C148.015 138.806 148.135 139.271 148.135 139.833C148.135 140.213 148.063 140.545 147.919 140.83C147.774 141.115 147.584 141.356 147.349 141.554C147.113 141.751 146.859 141.913 146.586 142.038L149.035 145.667H147.076L145.087 142.471H144.147V145.667H142.381V137.338H144.808ZM144.683 138.785H144.147V141.035H144.717C145.302 141.035 145.72 140.938 145.97 140.745C146.225 140.547 146.352 140.259 146.352 139.879C146.352 139.484 146.215 139.203 145.942 139.036C145.672 138.869 145.253 138.785 144.683 138.785ZM152.573 139.178C153.161 139.178 153.668 139.292 154.094 139.52C154.519 139.744 154.848 140.071 155.079 140.5C155.311 140.929 155.427 141.453 155.427 142.072V142.915H151.319C151.338 143.405 151.485 143.791 151.758 144.072C152.035 144.349 152.419 144.487 152.909 144.487C153.315 144.487 153.687 144.446 154.025 144.362C154.363 144.279 154.711 144.153 155.068 143.986V145.331C154.753 145.486 154.422 145.6 154.077 145.672C153.735 145.745 153.319 145.781 152.829 145.781C152.191 145.781 151.625 145.663 151.131 145.427C150.642 145.192 150.256 144.833 149.975 144.351C149.698 143.868 149.559 143.261 149.559 142.528C149.559 141.783 149.685 141.164 149.935 140.671C150.19 140.173 150.543 139.801 150.995 139.554C151.447 139.304 151.973 139.178 152.573 139.178ZM152.584 140.414C152.246 140.414 151.965 140.523 151.741 140.739C151.521 140.956 151.394 141.295 151.359 141.759H153.798C153.794 141.501 153.746 141.271 153.655 141.07C153.568 140.868 153.435 140.709 153.256 140.591C153.082 140.473 152.858 140.414 152.584 140.414ZM161.283 143.775C161.283 144.208 161.18 144.575 160.975 144.875C160.774 145.171 160.472 145.397 160.069 145.553C159.667 145.705 159.166 145.781 158.566 145.781C158.121 145.781 157.74 145.752 157.421 145.695C157.105 145.638 156.786 145.543 156.464 145.41V143.975C156.809 144.131 157.179 144.26 157.574 144.362C157.973 144.461 158.323 144.51 158.623 144.51C158.961 144.51 159.202 144.461 159.346 144.362C159.494 144.26 159.568 144.127 159.568 143.963C159.568 143.857 159.538 143.762 159.477 143.679C159.42 143.591 159.295 143.494 159.101 143.388C158.907 143.278 158.604 143.135 158.19 142.961C157.791 142.794 157.462 142.625 157.204 142.454C156.95 142.283 156.76 142.082 156.634 141.85C156.513 141.614 156.452 141.316 156.452 140.956C156.452 140.367 156.68 139.924 157.136 139.628C157.595 139.328 158.209 139.178 158.976 139.178C159.371 139.178 159.747 139.218 160.104 139.298C160.464 139.378 160.835 139.505 161.214 139.68L160.69 140.933C160.375 140.796 160.077 140.684 159.796 140.597C159.519 140.509 159.236 140.466 158.947 140.466C158.693 140.466 158.501 140.5 158.372 140.568C158.243 140.637 158.178 140.741 158.178 140.882C158.178 140.984 158.21 141.075 158.275 141.155C158.343 141.235 158.473 141.324 158.662 141.423C158.856 141.518 159.139 141.641 159.511 141.793C159.872 141.941 160.185 142.097 160.451 142.26C160.717 142.42 160.922 142.619 161.066 142.858C161.211 143.094 161.283 143.399 161.283 143.775ZM168.426 142.471C168.426 143.003 168.354 143.473 168.21 143.884C168.069 144.294 167.862 144.641 167.589 144.926C167.319 145.207 166.993 145.42 166.609 145.564C166.229 145.708 165.8 145.781 165.322 145.781C164.874 145.781 164.462 145.708 164.086 145.564C163.713 145.42 163.389 145.207 163.111 144.926C162.838 144.641 162.625 144.294 162.473 143.884C162.325 143.473 162.251 143.003 162.251 142.471C162.251 141.765 162.377 141.166 162.627 140.676C162.878 140.187 163.235 139.814 163.698 139.56C164.162 139.305 164.714 139.178 165.356 139.178C165.952 139.178 166.48 139.305 166.94 139.56C167.403 139.814 167.766 140.187 168.028 140.676C168.293 141.166 168.426 141.765 168.426 142.471ZM164.023 142.471C164.023 142.889 164.069 143.24 164.16 143.525C164.251 143.81 164.393 144.024 164.587 144.168C164.781 144.313 165.033 144.385 165.345 144.385C165.652 144.385 165.901 144.313 166.091 144.168C166.284 144.024 166.425 143.81 166.512 143.525C166.603 143.24 166.649 142.889 166.649 142.471C166.649 142.049 166.603 141.7 166.512 141.423C166.425 141.142 166.284 140.931 166.091 140.79C165.897 140.65 165.645 140.58 165.333 140.58C164.874 140.58 164.539 140.737 164.331 141.052C164.125 141.368 164.023 141.84 164.023 142.471ZM171.599 145.667H169.862V136.803H171.599V145.667ZM174.943 145.667L172.517 139.298H174.334L175.564 142.927C175.633 143.139 175.686 143.363 175.724 143.599C175.766 143.834 175.794 144.045 175.809 144.231H175.855C175.866 144.03 175.893 143.815 175.935 143.587C175.98 143.36 176.039 143.139 176.111 142.927L177.336 139.298H179.153L176.726 145.667H174.943ZM182.696 139.178C183.285 139.178 183.792 139.292 184.217 139.52C184.643 139.744 184.971 140.071 185.203 140.5C185.435 140.929 185.55 141.453 185.55 142.072V142.915H181.443C181.462 143.405 181.608 143.791 181.882 144.072C182.159 144.349 182.543 144.487 183.033 144.487C183.439 144.487 183.811 144.446 184.149 144.362C184.487 144.279 184.835 144.153 185.192 143.986V145.331C184.876 145.486 184.546 145.6 184.2 145.672C183.859 145.745 183.443 145.781 182.953 145.781C182.315 145.781 181.749 145.663 181.255 145.427C180.765 145.192 180.38 144.833 180.099 144.351C179.822 143.868 179.683 143.261 179.683 142.528C179.683 141.783 179.808 141.164 180.059 140.671C180.313 140.173 180.667 139.801 181.118 139.554C181.57 139.304 182.096 139.178 182.696 139.178ZM182.708 140.414C182.37 140.414 182.089 140.523 181.865 140.739C181.644 140.956 181.517 141.295 181.483 141.759H183.921C183.917 141.501 183.87 141.271 183.779 141.07C183.691 140.868 183.559 140.709 183.38 140.591C183.205 140.473 182.981 140.414 182.708 140.414ZM193.514 140.602H192.01V145.667H190.273V140.602H189.316V139.765L190.273 139.298V138.831C190.273 138.288 190.364 137.866 190.546 137.566C190.732 137.262 190.993 137.05 191.327 136.928C191.665 136.803 192.064 136.74 192.523 136.74C192.861 136.74 193.169 136.769 193.446 136.826C193.723 136.879 193.949 136.939 194.124 137.008L193.68 138.284C193.547 138.242 193.402 138.204 193.247 138.17C193.091 138.136 192.912 138.119 192.711 138.119C192.468 138.119 192.29 138.193 192.176 138.341C192.065 138.485 192.01 138.671 192.01 138.899V139.298H193.514V140.602ZM198.072 139.178C198.159 139.178 198.26 139.184 198.374 139.195C198.491 139.203 198.586 139.214 198.658 139.23L198.527 140.859C198.47 140.84 198.389 140.826 198.282 140.819C198.18 140.807 198.091 140.802 198.015 140.802C197.791 140.802 197.572 140.83 197.36 140.887C197.151 140.944 196.963 141.037 196.796 141.166C196.628 141.292 196.496 141.459 196.397 141.668C196.302 141.873 196.254 142.125 196.254 142.425V145.667H194.517V139.298H195.833L196.089 140.369H196.175C196.3 140.152 196.456 139.955 196.642 139.776C196.832 139.594 197.046 139.45 197.285 139.343C197.529 139.233 197.791 139.178 198.072 139.178ZM205.603 142.471C205.603 143.003 205.53 143.473 205.386 143.884C205.246 144.294 205.039 144.641 204.765 144.926C204.495 145.207 204.169 145.42 203.785 145.564C203.406 145.708 202.976 145.781 202.498 145.781C202.05 145.781 201.638 145.708 201.262 145.564C200.89 145.42 200.565 145.207 200.288 144.926C200.014 144.641 199.801 144.294 199.65 143.884C199.501 143.473 199.427 143.003 199.427 142.471C199.427 141.765 199.553 141.166 199.803 140.676C200.054 140.187 200.411 139.814 200.874 139.56C201.338 139.305 201.89 139.178 202.532 139.178C203.128 139.178 203.656 139.305 204.116 139.56C204.579 139.814 204.942 140.187 205.204 140.676C205.47 141.166 205.603 141.765 205.603 142.471ZM201.199 142.471C201.199 142.889 201.245 143.24 201.336 143.525C201.427 143.81 201.569 144.024 201.763 144.168C201.957 144.313 202.209 144.385 202.521 144.385C202.828 144.385 203.077 144.313 203.267 144.168C203.461 144.024 203.601 143.81 203.688 143.525C203.78 143.24 203.825 142.889 203.825 142.471C203.825 142.049 203.78 141.7 203.688 141.423C203.601 141.142 203.461 140.931 203.267 140.79C203.073 140.65 202.821 140.58 202.509 140.58C202.05 140.58 201.716 140.737 201.507 141.052C201.302 141.368 201.199 141.84 201.199 142.471ZM210.655 139.178C211.335 139.178 211.882 139.364 212.296 139.737C212.71 140.105 212.917 140.697 212.917 141.514V145.667H211.179V141.947C211.179 141.491 211.096 141.147 210.929 140.916C210.766 140.684 210.507 140.568 210.154 140.568C209.622 140.568 209.26 140.749 209.066 141.109C208.872 141.47 208.776 141.99 208.776 142.67V145.667H207.038V139.298H208.365L208.599 140.112H208.696C208.832 139.892 209.001 139.714 209.203 139.577C209.408 139.44 209.634 139.34 209.881 139.275C210.131 139.211 210.39 139.178 210.655 139.178ZM217.389 144.396C217.579 144.396 217.763 144.377 217.941 144.339C218.124 144.301 218.304 144.254 218.483 144.197V145.49C218.296 145.574 218.065 145.642 217.788 145.695C217.514 145.752 217.214 145.781 216.888 145.781C216.508 145.781 216.166 145.72 215.862 145.598C215.562 145.473 215.325 145.258 215.15 144.955C214.979 144.647 214.894 144.22 214.894 143.673V140.602H214.062V139.868L215.019 139.286L215.52 137.942H216.631V139.298H218.414V140.602H216.631V143.673C216.631 143.916 216.7 144.098 216.836 144.22C216.977 144.337 217.161 144.396 217.389 144.396ZM222.402 139.178C222.99 139.178 223.497 139.292 223.923 139.52C224.348 139.744 224.677 140.071 224.908 140.5C225.14 140.929 225.256 141.453 225.256 142.072V142.915H221.149C221.168 143.405 221.314 143.791 221.587 144.072C221.864 144.349 222.248 144.487 222.738 144.487C223.144 144.487 223.516 144.446 223.854 144.362C224.192 144.279 224.54 144.153 224.897 143.986V145.331C224.582 145.486 224.251 145.6 223.906 145.672C223.564 145.745 223.148 145.781 222.658 145.781C222.02 145.781 221.454 145.663 220.961 145.427C220.471 145.192 220.085 144.833 219.804 144.351C219.527 143.868 219.388 143.261 219.388 142.528C219.388 141.783 219.514 141.164 219.764 140.671C220.019 140.173 220.372 139.801 220.824 139.554C221.276 139.304 221.802 139.178 222.402 139.178ZM222.413 140.414C222.075 140.414 221.794 140.523 221.57 140.739C221.35 140.956 221.223 141.295 221.188 141.759H223.627C223.623 141.501 223.575 141.271 223.484 141.07C223.397 140.868 223.264 140.709 223.085 140.591C222.911 140.473 222.687 140.414 222.413 140.414ZM230.286 139.178C230.966 139.178 231.513 139.364 231.927 139.737C232.341 140.105 232.547 140.697 232.547 141.514V145.667H230.81V141.947C230.81 141.491 230.726 141.147 230.559 140.916C230.396 140.684 230.138 140.568 229.785 140.568C229.253 140.568 228.89 140.749 228.697 141.109C228.503 141.47 228.406 141.99 228.406 142.67V145.667H226.669V139.298H227.996L228.229 140.112H228.326C228.463 139.892 228.632 139.714 228.833 139.577C229.038 139.44 229.264 139.34 229.511 139.275C229.762 139.211 230.02 139.178 230.286 139.178ZM236.353 145.781C235.643 145.781 235.064 145.503 234.615 144.949C234.171 144.391 233.949 143.572 233.949 142.494C233.949 141.404 234.175 140.58 234.627 140.021C235.079 139.459 235.669 139.178 236.398 139.178C236.702 139.178 236.97 139.22 237.202 139.304C237.433 139.387 237.633 139.499 237.8 139.64C237.971 139.78 238.115 139.938 238.233 140.112H238.29C238.267 139.991 238.238 139.812 238.204 139.577C238.174 139.338 238.159 139.093 238.159 138.842V136.803H239.902V145.667H238.569L238.233 144.841H238.159C238.049 145.015 237.91 145.175 237.743 145.319C237.58 145.46 237.384 145.572 237.156 145.655C236.928 145.739 236.66 145.781 236.353 145.781ZM236.962 144.396C237.437 144.396 237.771 144.256 237.965 143.975C238.162 143.69 238.267 143.263 238.278 142.693V142.505C238.278 141.886 238.183 141.413 237.993 141.087C237.804 140.756 237.45 140.591 236.934 140.591C236.55 140.591 236.25 140.756 236.034 141.087C235.817 141.417 235.709 141.894 235.709 142.516C235.709 143.139 235.817 143.608 236.034 143.924C236.254 144.239 236.564 144.396 236.962 144.396ZM246.487 136.803V138.865C246.487 139.104 246.48 139.342 246.464 139.577C246.453 139.812 246.438 139.995 246.419 140.124H246.487C246.654 139.862 246.882 139.64 247.171 139.457C247.459 139.271 247.833 139.178 248.293 139.178C249.007 139.178 249.586 139.457 250.03 140.016C250.475 140.574 250.697 141.392 250.697 142.471C250.697 143.196 250.594 143.806 250.389 144.299C250.184 144.789 249.897 145.16 249.529 145.41C249.161 145.657 248.733 145.781 248.247 145.781C247.78 145.781 247.412 145.697 247.142 145.53C246.873 145.363 246.654 145.175 246.487 144.966H246.367L246.077 145.667H244.75V136.803H246.487ZM247.735 140.568C247.431 140.568 247.19 140.631 247.011 140.756C246.833 140.882 246.702 141.07 246.618 141.32C246.538 141.571 246.495 141.888 246.487 142.272V142.459C246.487 143.079 246.578 143.553 246.761 143.884C246.943 144.21 247.275 144.374 247.757 144.374C248.114 144.374 248.397 144.208 248.606 143.878C248.819 143.548 248.925 143.071 248.925 142.448C248.925 141.825 248.819 141.356 248.606 141.041C248.394 140.726 248.103 140.568 247.735 140.568ZM257.977 139.298V145.667H256.644L256.411 144.852H256.319C256.183 145.069 256.012 145.245 255.807 145.382C255.602 145.519 255.376 145.619 255.129 145.684C254.882 145.748 254.626 145.781 254.36 145.781C253.904 145.781 253.507 145.701 253.169 145.541C252.831 145.378 252.567 145.126 252.377 144.784C252.191 144.442 252.098 143.998 252.098 143.451V139.298H253.836V143.018C253.836 143.473 253.917 143.817 254.081 144.049C254.244 144.281 254.504 144.396 254.861 144.396C255.214 144.396 255.492 144.317 255.693 144.157C255.894 143.994 256.035 143.756 256.114 143.445C256.198 143.13 256.24 142.746 256.24 142.294V139.298H257.977ZM261.663 148.469C260.774 148.469 260.094 148.314 259.624 148.002C259.156 147.695 258.923 147.262 258.923 146.703C258.923 146.32 259.042 145.999 259.282 145.741C259.521 145.482 259.872 145.298 260.336 145.188C260.157 145.112 260.001 144.989 259.868 144.818C259.736 144.643 259.669 144.459 259.669 144.265C259.669 144.022 259.739 143.821 259.88 143.661C260.02 143.498 260.224 143.339 260.489 143.183C260.155 143.039 259.889 142.807 259.692 142.488C259.498 142.169 259.401 141.793 259.401 141.36C259.401 140.897 259.502 140.504 259.703 140.181C259.908 139.854 260.205 139.605 260.592 139.435C260.983 139.264 261.458 139.178 262.016 139.178C262.134 139.178 262.271 139.186 262.426 139.201C262.582 139.216 262.724 139.233 262.853 139.252C262.986 139.271 263.076 139.286 263.121 139.298H265.343V140.181L264.346 140.437C264.437 140.578 264.506 140.728 264.551 140.887C264.597 141.047 264.619 141.216 264.619 141.394C264.619 142.078 264.38 142.611 263.902 142.995C263.427 143.375 262.766 143.565 261.919 143.565C261.718 143.553 261.528 143.538 261.35 143.519C261.262 143.587 261.196 143.66 261.15 143.736C261.105 143.811 261.082 143.891 261.082 143.975C261.082 144.058 261.116 144.129 261.184 144.186C261.257 144.239 261.363 144.281 261.503 144.311C261.648 144.337 261.826 144.351 262.039 144.351H263.121C263.82 144.351 264.352 144.501 264.716 144.801C265.085 145.101 265.269 145.541 265.269 146.122C265.269 146.867 264.957 147.444 264.335 147.854C263.716 148.264 262.825 148.469 261.663 148.469ZM261.737 147.336C262.151 147.336 262.506 147.296 262.802 147.216C263.102 147.14 263.332 147.03 263.492 146.886C263.651 146.745 263.731 146.576 263.731 146.379C263.731 146.219 263.683 146.092 263.588 145.997C263.497 145.906 263.357 145.841 263.167 145.803C262.981 145.765 262.741 145.746 262.449 145.746H261.549C261.336 145.746 261.145 145.781 260.974 145.849C260.807 145.917 260.674 146.012 260.575 146.134C260.476 146.259 260.427 146.403 260.427 146.567C260.427 146.806 260.541 146.994 260.769 147.131C261 147.267 261.323 147.336 261.737 147.336ZM262.016 142.505C262.343 142.505 262.582 142.404 262.734 142.203C262.886 142.002 262.962 141.728 262.962 141.383C262.962 140.999 262.882 140.713 262.722 140.523C262.567 140.329 262.331 140.232 262.016 140.232C261.697 140.232 261.458 140.329 261.298 140.523C261.139 140.713 261.059 140.999 261.059 141.383C261.059 141.728 261.137 142.002 261.293 142.203C261.452 142.404 261.693 142.505 262.016 142.505ZM270.84 143.775C270.84 144.208 270.738 144.575 270.533 144.875C270.331 145.171 270.029 145.397 269.627 145.553C269.224 145.705 268.723 145.781 268.123 145.781C267.679 145.781 267.297 145.752 266.978 145.695C266.663 145.638 266.344 145.543 266.021 145.41V143.975C266.366 144.131 266.737 144.26 267.132 144.362C267.53 144.461 267.88 144.51 268.18 144.51C268.518 144.51 268.759 144.461 268.903 144.362C269.051 144.26 269.125 144.127 269.125 143.963C269.125 143.857 269.095 143.762 269.034 143.679C268.977 143.591 268.852 143.494 268.658 143.388C268.465 143.278 268.161 143.135 267.747 142.961C267.348 142.794 267.02 142.625 266.761 142.454C266.507 142.283 266.317 142.082 266.192 141.85C266.07 141.614 266.009 141.316 266.009 140.956C266.009 140.367 266.237 139.924 266.693 139.628C267.153 139.328 267.766 139.178 268.533 139.178C268.928 139.178 269.304 139.218 269.661 139.298C270.022 139.378 270.392 139.505 270.772 139.68L270.248 140.933C269.932 140.796 269.634 140.684 269.353 140.597C269.076 140.509 268.793 140.466 268.505 140.466C268.25 140.466 268.058 140.5 267.929 140.568C267.8 140.637 267.735 140.741 267.735 140.882C267.735 140.984 267.768 141.075 267.832 141.155C267.901 141.235 268.03 141.324 268.22 141.423C268.413 141.518 268.696 141.641 269.068 141.793C269.429 141.941 269.743 142.097 270.008 142.26C270.274 142.42 270.479 142.619 270.624 142.858C270.768 143.094 270.84 143.399 270.84 143.775Z" fill="#333333"/>
<path d="M151.333 162V166.167" stroke="#707070" stroke-width="1.25" stroke-linecap="round" stroke-linejoin="round"/>
<path d="M151.333 173.667C147.308 173.667 144.042 170.4 144.042 166.375C144.042 162.35 147.308 159.083 151.333 159.083C155.358 159.083 158.625 162.35 158.625 166.375" stroke="#707070" stroke-width="1.25" stroke-linecap="round" stroke-linejoin="round"/>
<path d="M148.833 157H153.833" stroke="#707070" stroke-width="1.25" stroke-miterlimit="10" stroke-linecap="round" stroke-linejoin="round"/>
<path d="M153.75 170.75V169.783C153.75 168.592 154.6 168.1 155.633 168.7L156.467 169.183L157.3 169.667C158.333 170.267 158.333 171.242 157.3 171.842L156.467 172.325L155.633 172.808C154.6 173.408 153.75 172.917 153.75 171.725V170.75Z" stroke="#707070" stroke-width="1.25" stroke-miterlimit="10" stroke-linecap="round" stroke-linejoin="round"/>
<path d="M170.583 167.678H169.513V169.333H168.722V167.678H165.27V166.995L168.669 162.156H169.513V166.946H170.583V167.678ZM168.722 166.946V164.612C168.722 164.433 168.724 164.272 168.727 164.128C168.73 163.982 168.735 163.847 168.742 163.723C168.748 163.596 168.753 163.476 168.757 163.362C168.763 163.248 168.768 163.135 168.771 163.025H168.732C168.67 163.155 168.599 163.293 168.517 163.44C168.439 163.583 168.359 163.712 168.278 163.826L166.076 166.946H168.722ZM172.443 161.736V164.006C172.443 164.136 172.44 164.268 172.433 164.402C172.427 164.532 172.415 164.652 172.399 164.763H172.453C172.563 164.574 172.703 164.416 172.873 164.289C173.045 164.159 173.241 164.062 173.459 163.996C173.677 163.928 173.908 163.894 174.152 163.894C174.582 163.894 174.94 163.962 175.226 164.099C175.516 164.236 175.732 164.447 175.876 164.734C176.022 165.02 176.095 165.391 176.095 165.847V169.333H175.295V165.901C175.295 165.455 175.192 165.121 174.987 164.9C174.785 164.678 174.474 164.568 174.054 164.568C173.657 164.568 173.34 164.644 173.102 164.797C172.868 164.947 172.699 165.168 172.594 165.461C172.493 165.754 172.443 166.112 172.443 166.536V169.333H171.632V161.736H172.443ZM180.197 163.884C180.304 163.884 180.417 163.891 180.534 163.904C180.651 163.913 180.755 163.928 180.846 163.948L180.744 164.7C180.656 164.677 180.558 164.659 180.451 164.646C180.343 164.633 180.243 164.626 180.148 164.626C179.933 164.626 179.73 164.67 179.538 164.758C179.349 164.843 179.183 164.967 179.04 165.129C178.896 165.289 178.784 165.482 178.703 165.71C178.621 165.935 178.581 166.186 178.581 166.462V169.333H177.765V163.982H178.439L178.527 164.968H178.561C178.672 164.77 178.805 164.589 178.962 164.426C179.118 164.26 179.298 164.128 179.504 164.031C179.712 163.933 179.943 163.884 180.197 163.884ZM185.319 167.869C185.319 168.21 185.233 168.498 185.06 168.733C184.891 168.964 184.647 169.138 184.328 169.255C184.012 169.372 183.634 169.431 183.195 169.431C182.821 169.431 182.497 169.402 182.223 169.343C181.95 169.285 181.711 169.202 181.506 169.094V168.347C181.724 168.454 181.984 168.552 182.287 168.64C182.59 168.728 182.899 168.772 183.215 168.772C183.677 168.772 184.012 168.697 184.22 168.547C184.429 168.398 184.533 168.194 184.533 167.937C184.533 167.79 184.491 167.662 184.406 167.551C184.325 167.437 184.186 167.328 183.991 167.224C183.796 167.117 183.525 166.999 183.18 166.872C182.839 166.742 182.542 166.614 182.292 166.487C182.044 166.356 181.852 166.199 181.715 166.013C181.582 165.828 181.515 165.587 181.515 165.29C181.515 164.838 181.698 164.491 182.062 164.25C182.43 164.006 182.912 163.884 183.507 163.884C183.83 163.884 184.131 163.917 184.411 163.982C184.694 164.044 184.958 164.128 185.202 164.236L184.928 164.885C184.707 164.791 184.471 164.711 184.22 164.646C183.97 164.581 183.714 164.548 183.454 164.548C183.079 164.548 182.791 164.61 182.59 164.734C182.391 164.857 182.292 165.027 182.292 165.242C182.292 165.408 182.337 165.544 182.428 165.652C182.523 165.759 182.673 165.86 182.878 165.954C183.083 166.049 183.353 166.16 183.688 166.286C184.023 166.41 184.313 166.539 184.557 166.672C184.801 166.802 184.989 166.962 185.119 167.151C185.252 167.336 185.319 167.576 185.319 167.869ZM187.55 168.171L187.614 168.284C187.555 168.521 187.48 168.775 187.389 169.045C187.301 169.315 187.204 169.586 187.096 169.856C186.992 170.129 186.886 170.385 186.779 170.622H186.173C186.242 170.362 186.309 170.087 186.374 169.797C186.439 169.511 186.497 169.228 186.549 168.948C186.605 168.664 186.649 168.406 186.681 168.171H187.55ZM193.805 162.092C194.219 162.092 194.585 162.157 194.904 162.287C195.223 162.418 195.472 162.61 195.651 162.864C195.833 163.114 195.924 163.424 195.924 163.791C195.924 164.081 195.861 164.335 195.734 164.553C195.61 164.768 195.443 164.957 195.231 165.12C195.02 165.279 194.785 165.422 194.528 165.549C194.834 165.689 195.109 165.847 195.353 166.023C195.601 166.199 195.796 166.405 195.939 166.643C196.082 166.881 196.154 167.162 196.154 167.488C196.154 167.888 196.056 168.235 195.861 168.528C195.669 168.817 195.399 169.04 195.05 169.197C194.702 169.353 194.294 169.431 193.825 169.431C193.32 169.431 192.891 169.356 192.536 169.206C192.184 169.053 191.916 168.835 191.73 168.552C191.548 168.266 191.457 167.922 191.457 167.522C191.457 167.193 191.527 166.908 191.667 166.667C191.807 166.423 191.992 166.213 192.223 166.037C192.454 165.862 192.707 165.714 192.98 165.593C192.743 165.463 192.524 165.315 192.326 165.149C192.131 164.983 191.974 164.789 191.857 164.568C191.743 164.343 191.686 164.083 191.686 163.786C191.686 163.425 191.777 163.119 191.96 162.869C192.145 162.615 192.397 162.423 192.716 162.292C193.039 162.159 193.402 162.092 193.805 162.092ZM192.253 167.527C192.253 167.891 192.381 168.192 192.638 168.43C192.895 168.664 193.284 168.782 193.805 168.782C194.3 168.782 194.683 168.664 194.953 168.43C195.223 168.192 195.358 167.882 195.358 167.497C195.358 167.26 195.296 167.051 195.173 166.872C195.049 166.69 194.873 166.527 194.645 166.384C194.417 166.241 194.149 166.111 193.84 165.994L193.664 165.93C193.364 166.054 193.109 166.192 192.897 166.345C192.689 166.495 192.529 166.666 192.419 166.858C192.308 167.05 192.253 167.273 192.253 167.527ZM193.796 162.756C193.411 162.756 193.097 162.849 192.853 163.035C192.609 163.217 192.487 163.481 192.487 163.826C192.487 164.073 192.546 164.283 192.663 164.455C192.783 164.625 192.946 164.771 193.151 164.895C193.356 165.015 193.586 165.128 193.84 165.232C194.087 165.128 194.307 165.014 194.499 164.89C194.691 164.763 194.842 164.613 194.953 164.441C195.063 164.268 195.119 164.062 195.119 163.821C195.119 163.476 194.997 163.212 194.753 163.03C194.512 162.847 194.193 162.756 193.796 162.756ZM198.341 161.736V164.006C198.341 164.136 198.338 164.268 198.332 164.402C198.325 164.532 198.314 164.652 198.298 164.763H198.351C198.462 164.574 198.602 164.416 198.771 164.289C198.944 164.159 199.139 164.062 199.357 163.996C199.575 163.928 199.806 163.894 200.05 163.894C200.48 163.894 200.838 163.962 201.125 164.099C201.414 164.236 201.631 164.447 201.774 164.734C201.921 165.02 201.994 165.391 201.994 165.847V169.333H201.193V165.901C201.193 165.455 201.09 165.121 200.885 164.9C200.684 164.678 200.373 164.568 199.953 164.568C199.556 164.568 199.238 164.644 199.001 164.797C198.766 164.947 198.597 165.168 198.493 165.461C198.392 165.754 198.341 166.112 198.341 166.536V169.333H197.531V161.736H198.341ZM206.095 163.884C206.203 163.884 206.315 163.891 206.432 163.904C206.549 163.913 206.654 163.928 206.745 163.948L206.642 164.7C206.554 164.677 206.457 164.659 206.349 164.646C206.242 164.633 206.141 164.626 206.047 164.626C205.832 164.626 205.628 164.67 205.436 164.758C205.247 164.843 205.081 164.967 204.938 165.129C204.795 165.289 204.683 165.482 204.601 165.71C204.52 165.935 204.479 166.186 204.479 166.462V169.333H203.664V163.982H204.338L204.425 164.968H204.46C204.57 164.77 204.704 164.589 204.86 164.426C205.016 164.26 205.197 164.128 205.402 164.031C205.61 163.933 205.841 163.884 206.095 163.884ZM211.217 167.869C211.217 168.21 211.131 168.498 210.959 168.733C210.789 168.964 210.545 169.138 210.226 169.255C209.91 169.372 209.533 169.431 209.093 169.431C208.719 169.431 208.395 169.402 208.122 169.343C207.848 169.285 207.609 169.202 207.404 169.094V168.347C207.622 168.454 207.882 168.552 208.185 168.64C208.488 168.728 208.797 168.772 209.113 168.772C209.575 168.772 209.91 168.697 210.119 168.547C210.327 168.398 210.431 168.194 210.431 167.937C210.431 167.79 210.389 167.662 210.304 167.551C210.223 167.437 210.085 167.328 209.889 167.224C209.694 167.117 209.424 166.999 209.079 166.872C208.737 166.742 208.441 166.614 208.19 166.487C207.943 166.356 207.751 166.199 207.614 166.013C207.48 165.828 207.414 165.587 207.414 165.29C207.414 164.838 207.596 164.491 207.961 164.25C208.328 164.006 208.81 163.884 209.406 163.884C209.728 163.884 210.029 163.917 210.309 163.982C210.592 164.044 210.856 164.128 211.1 164.236L210.827 164.885C210.605 164.791 210.369 164.711 210.119 164.646C209.868 164.581 209.613 164.548 209.352 164.548C208.978 164.548 208.69 164.61 208.488 164.734C208.289 164.857 208.19 165.027 208.19 165.242C208.19 165.408 208.236 165.544 208.327 165.652C208.421 165.759 208.571 165.86 208.776 165.954C208.981 166.049 209.251 166.16 209.587 166.286C209.922 166.41 210.212 166.539 210.456 166.672C210.7 166.802 210.887 166.962 211.017 167.151C211.151 167.336 211.217 167.576 211.217 167.869Z" fill="#707070"/>
<g clip-path="url(#clip1_110_2396)">
<rect x="653" y="147.833" width="13.3333" height="13.3333" rx="1.66667" fill="#707070"/>
<rect x="653.417" y="148.25" width="12.5" height="12.5" rx="1.25" fill="white" stroke="#E9F3F5" stroke-width="0.833333"/>
</g>
<rect x="108.5" y="117.5" width="590.667" height="74" rx="15.5" stroke="#714DD9"/>
<rect x="108.5" y="117.5" width="590.667" height="74" rx="15.5" stroke="white" stroke-opacity="0.8"/>
<rect x="108.5" y="117.5" width="590.667" height="74" rx="15.5" stroke="black"/>
</g>
<g filter="url(#filter2_d_110_2396)">
<rect x="26.4167" y="210.417" width="590.833" height="74.1667" rx="15.5833" fill="white"/>
<path d="M63.9191 231.688C63.5811 231.688 63.2811 231.755 63.019 231.888C62.7608 232.017 62.5424 232.205 62.3639 232.452C62.1892 232.699 62.0563 232.997 61.9652 233.346C61.874 233.695 61.8284 234.089 61.8284 234.525C61.8284 235.114 61.9006 235.617 62.0449 236.035C62.193 236.449 62.4209 236.766 62.7285 236.986C63.0361 237.203 63.433 237.311 63.9191 237.311C64.2571 237.311 64.5951 237.273 64.9331 237.197C65.2749 237.121 65.6452 237.013 66.0439 236.872V238.353C65.6756 238.505 65.3129 238.614 64.9559 238.678C64.5989 238.746 64.1982 238.781 63.7539 238.781C62.8956 238.781 62.1892 238.604 61.6348 238.251C61.0841 237.894 60.6758 237.396 60.41 236.758C60.1441 236.117 60.0112 235.368 60.0112 234.514C60.0112 233.883 60.0967 233.306 60.2676 232.782C60.4385 232.258 60.6891 231.804 61.0195 231.421C61.3499 231.037 61.7582 230.741 62.2443 230.532C62.7304 230.323 63.2887 230.219 63.9191 230.219C64.3331 230.219 64.747 230.272 65.161 230.378C65.5787 230.481 65.9775 230.623 66.3573 230.805L65.7876 232.241C65.4762 232.093 65.1629 231.964 64.8477 231.854C64.5324 231.743 64.2229 231.688 63.9191 231.688ZM70.2936 232.167C71.1481 232.167 71.8032 232.353 72.2589 232.725C72.7147 233.097 72.9425 233.663 72.9425 234.423V238.667H71.7292L71.3931 237.801H71.3475C71.1652 238.029 70.9791 238.215 70.7892 238.359C70.5993 238.503 70.381 238.61 70.1341 238.678C69.8873 238.746 69.5872 238.781 69.234 238.781C68.8581 238.781 68.5201 238.708 68.22 238.564C67.9238 238.42 67.6903 238.2 67.5194 237.903C67.3485 237.603 67.263 237.224 67.263 236.764C67.263 236.088 67.5004 235.591 67.9751 235.272C68.4498 234.949 69.1619 234.77 70.1113 234.736L71.2165 234.702V234.423C71.2165 234.089 71.1291 233.844 70.9544 233.688C70.7797 233.532 70.5367 233.454 70.2253 233.454C69.9176 233.454 69.6157 233.498 69.3195 233.585C69.0233 233.673 68.727 233.783 68.4308 233.916L67.8555 232.742C68.1935 232.564 68.5713 232.423 68.9891 232.321C69.4106 232.218 69.8455 232.167 70.2936 232.167ZM71.2165 235.716L70.5443 235.739C69.9822 235.754 69.591 235.854 69.3708 236.041C69.1543 236.227 69.0461 236.472 69.0461 236.775C69.0461 237.041 69.1239 237.231 69.2796 237.345C69.4353 237.455 69.6385 237.51 69.8892 237.51C70.2613 237.51 70.5746 237.4 70.8291 237.18C71.0873 236.96 71.2165 236.646 71.2165 236.24V235.716ZM76.4744 238.667H74.737V229.803H76.4744V238.667ZM80.0405 238.667H78.3031V229.803H80.0405V238.667ZM86.9163 238.781C86.2062 238.781 85.627 238.503 85.1789 237.949C84.7345 237.391 84.5124 236.572 84.5124 235.494C84.5124 234.404 84.7383 233.58 85.1903 233.021C85.6422 232.459 86.2327 232.178 86.9619 232.178C87.2657 232.178 87.5335 232.22 87.7651 232.304C87.9968 232.387 88.1962 232.499 88.3633 232.64C88.5342 232.78 88.6785 232.938 88.7962 233.112H88.8532C88.8304 232.991 88.8019 232.812 88.7677 232.577C88.7374 232.338 88.7222 232.093 88.7222 231.842V229.803H90.4653V238.667H89.1323L88.7962 237.841H88.7222C88.612 238.015 88.4734 238.175 88.3063 238.319C88.143 238.46 87.9474 238.572 87.7196 238.655C87.4917 238.739 87.224 238.781 86.9163 238.781ZM87.5259 237.396C88.0006 237.396 88.3348 237.256 88.5285 236.975C88.726 236.69 88.8304 236.263 88.8418 235.693V235.505C88.8418 234.886 88.7468 234.413 88.557 234.087C88.3671 233.756 88.0139 233.591 87.4974 233.591C87.1138 233.591 86.8138 233.756 86.5973 234.087C86.3809 234.417 86.2726 234.894 86.2726 235.516C86.2726 236.139 86.3809 236.608 86.5973 236.924C86.8176 237.239 87.1271 237.396 87.5259 237.396ZM98.0703 235.471C98.0703 236.003 97.9981 236.473 97.8538 236.884C97.7133 237.294 97.5063 237.641 97.2329 237.926C96.9633 238.207 96.6367 238.42 96.2531 238.564C95.8733 238.708 95.4442 238.781 94.9656 238.781C94.5175 238.781 94.1055 238.708 93.7295 238.564C93.3573 238.42 93.0326 238.207 92.7554 237.926C92.4819 237.641 92.2693 237.294 92.1173 236.884C91.9692 236.473 91.8952 236.003 91.8952 235.471C91.8952 234.765 92.0205 234.166 92.2712 233.676C92.5218 233.187 92.8788 232.814 93.3421 232.56C93.8054 232.305 94.358 232.178 94.9998 232.178C95.5961 232.178 96.124 232.305 96.5835 232.56C97.0468 232.814 97.4095 233.187 97.6715 233.676C97.9374 234.166 98.0703 234.765 98.0703 235.471ZM93.6668 235.471C93.6668 235.889 93.7124 236.24 93.8035 236.525C93.8947 236.81 94.0371 237.024 94.2308 237.168C94.4245 237.313 94.677 237.385 94.9884 237.385C95.2961 237.385 95.5448 237.313 95.7347 237.168C95.9284 237.024 96.0689 236.81 96.1562 236.525C96.2474 236.24 96.293 235.889 96.293 235.471C96.293 235.049 96.2474 234.7 96.1562 234.423C96.0689 234.142 95.9284 233.931 95.7347 233.79C95.541 233.65 95.2885 233.58 94.977 233.58C94.5175 233.58 94.1833 233.737 93.9744 234.052C93.7694 234.368 93.6668 234.84 93.6668 235.471ZM102.092 238.781C101.462 238.781 100.924 238.667 100.48 238.439C100.036 238.207 99.6976 237.85 99.466 237.368C99.2343 236.886 99.1185 236.268 99.1185 235.516C99.1185 234.738 99.2495 234.104 99.5115 233.614C99.7774 233.12 100.144 232.757 100.611 232.526C101.082 232.294 101.627 232.178 102.246 232.178C102.686 232.178 103.066 232.222 103.385 232.309C103.708 232.393 103.989 232.493 104.228 232.611L103.716 233.956C103.442 233.845 103.188 233.756 102.952 233.688C102.717 233.616 102.481 233.58 102.246 233.58C101.942 233.58 101.69 233.652 101.488 233.796C101.287 233.937 101.137 234.149 101.038 234.434C100.94 234.719 100.89 235.076 100.89 235.505C100.89 235.927 100.943 236.276 101.05 236.553C101.156 236.83 101.31 237.037 101.511 237.174C101.712 237.307 101.957 237.374 102.246 237.374C102.607 237.374 102.928 237.326 103.209 237.231C103.49 237.132 103.763 236.996 104.029 236.821V238.308C103.763 238.475 103.484 238.595 103.192 238.667C102.903 238.743 102.536 238.781 102.092 238.781ZM108.193 237.396C108.383 237.396 108.567 237.377 108.746 237.339C108.928 237.301 109.108 237.254 109.287 237.197V238.49C109.101 238.574 108.869 238.642 108.592 238.695C108.319 238.752 108.018 238.781 107.692 238.781C107.312 238.781 106.97 238.72 106.666 238.598C106.366 238.473 106.129 238.258 105.954 237.955C105.784 237.647 105.698 237.22 105.698 236.673V233.602H104.866V232.868L105.823 232.286L106.325 230.942H107.436V232.298H109.219V233.602H107.436V236.673C107.436 236.916 107.504 237.098 107.641 237.22C107.781 237.337 107.965 237.396 108.193 237.396ZM116.368 235.471C116.368 236.003 116.296 236.473 116.151 236.884C116.011 237.294 115.804 237.641 115.53 237.926C115.261 238.207 114.934 238.42 114.551 238.564C114.171 238.708 113.742 238.781 113.263 238.781C112.815 238.781 112.403 238.708 112.027 238.564C111.655 238.42 111.33 238.207 111.053 237.926C110.779 237.641 110.567 237.294 110.415 236.884C110.267 236.473 110.193 236.003 110.193 235.471C110.193 234.765 110.318 234.166 110.569 233.676C110.819 233.187 111.176 232.814 111.64 232.56C112.103 232.305 112.656 232.178 113.297 232.178C113.894 232.178 114.421 232.305 114.881 232.56C115.344 232.814 115.707 233.187 115.969 233.676C116.235 234.166 116.368 234.765 116.368 235.471ZM111.964 235.471C111.964 235.889 112.01 236.24 112.101 236.525C112.192 236.81 112.335 237.024 112.528 237.168C112.722 237.313 112.975 237.385 113.286 237.385C113.594 237.385 113.842 237.313 114.032 237.168C114.226 237.024 114.366 236.81 114.454 236.525C114.545 236.24 114.59 235.889 114.59 235.471C114.59 235.049 114.545 234.7 114.454 234.423C114.366 234.142 114.226 233.931 114.032 233.79C113.839 233.65 113.586 233.58 113.275 233.58C112.815 233.58 112.481 233.737 112.272 234.052C112.067 234.368 111.964 234.84 111.964 235.471ZM121.358 232.178C121.445 232.178 121.546 232.184 121.66 232.195C121.778 232.203 121.873 232.214 121.945 232.23L121.814 233.859C121.757 233.84 121.675 233.826 121.569 233.819C121.466 233.807 121.377 233.802 121.301 233.802C121.077 233.802 120.859 233.83 120.646 233.887C120.437 233.944 120.249 234.037 120.082 234.166C119.915 234.292 119.782 234.459 119.683 234.668C119.588 234.873 119.541 235.125 119.541 235.425V238.667H117.803V232.298H119.119L119.376 233.369H119.461C119.586 233.152 119.742 232.955 119.928 232.776C120.118 232.594 120.333 232.45 120.572 232.343C120.815 232.233 121.077 232.178 121.358 232.178ZM136.5 230.338L134.381 238.667H132.37L131.242 234.292C131.219 234.208 131.189 234.081 131.151 233.91C131.113 233.739 131.073 233.553 131.031 233.352C130.989 233.147 130.951 232.955 130.917 232.776C130.887 232.594 130.866 232.45 130.854 232.343C130.843 232.45 130.82 232.592 130.786 232.771C130.756 232.949 130.719 233.139 130.678 233.34C130.64 233.542 130.602 233.73 130.564 233.904C130.526 234.079 130.495 234.212 130.473 234.303L129.35 238.667H127.345L125.22 230.338H126.958L128.023 234.884C128.053 235.021 128.088 235.184 128.126 235.374C128.167 235.564 128.207 235.763 128.245 235.972C128.287 236.177 128.323 236.377 128.354 236.57C128.388 236.76 128.412 236.925 128.428 237.066C128.447 236.922 128.471 236.755 128.502 236.565C128.532 236.371 128.564 236.175 128.598 235.978C128.636 235.777 128.674 235.591 128.712 235.42C128.75 235.249 128.785 235.11 128.815 235.004L130.028 230.338H131.697L132.911 235.004C132.937 235.106 132.968 235.245 133.002 235.42C133.04 235.591 133.078 235.777 133.116 235.978C133.154 236.179 133.188 236.377 133.218 236.57C133.253 236.76 133.277 236.925 133.292 237.066C133.319 236.876 133.355 236.646 133.401 236.377C133.45 236.103 133.501 235.832 133.555 235.562C133.611 235.292 133.661 235.066 133.703 234.884L134.762 230.338H136.5ZM139.149 232.298V238.667H137.411V232.298H139.149ZM138.283 229.803C138.541 229.803 138.763 229.864 138.949 229.985C139.135 230.103 139.228 230.325 139.228 230.652C139.228 230.974 139.135 231.198 138.949 231.324C138.763 231.445 138.541 231.506 138.283 231.506C138.021 231.506 137.797 231.445 137.611 231.324C137.428 231.198 137.337 230.974 137.337 230.652C137.337 230.325 137.428 230.103 137.611 229.985C137.797 229.864 138.021 229.803 138.283 229.803ZM142.715 238.667H140.977V229.803H142.715V238.667ZM146.281 238.667H144.543V229.803H146.281V238.667ZM152.877 229.803V231.865C152.877 232.104 152.87 232.342 152.855 232.577C152.843 232.812 152.828 232.995 152.809 233.124H152.877C153.045 232.862 153.272 232.64 153.561 232.457C153.85 232.271 154.224 232.178 154.683 232.178C155.397 232.178 155.976 232.457 156.421 233.016C156.865 233.574 157.087 234.392 157.087 235.471C157.087 236.196 156.985 236.806 156.78 237.299C156.575 237.789 156.288 238.16 155.919 238.41C155.551 238.657 155.124 238.781 154.638 238.781C154.171 238.781 153.802 238.697 153.533 238.53C153.263 238.363 153.045 238.175 152.877 237.966H152.758L152.467 238.667H151.14V229.803H152.877ZM154.125 233.568C153.821 233.568 153.58 233.631 153.402 233.756C153.223 233.882 153.092 234.07 153.008 234.32C152.929 234.571 152.885 234.888 152.877 235.272V235.459C152.877 236.079 152.969 236.553 153.151 236.884C153.333 237.21 153.665 237.374 154.148 237.374C154.505 237.374 154.788 237.208 154.997 236.878C155.209 236.548 155.316 236.071 155.316 235.448C155.316 234.825 155.209 234.356 154.997 234.041C154.784 233.726 154.493 233.568 154.125 233.568ZM157.611 232.298H159.514L160.716 235.881C160.754 235.995 160.786 236.111 160.813 236.229C160.839 236.346 160.862 236.468 160.881 236.593C160.9 236.718 160.915 236.849 160.927 236.986H160.961C160.984 236.781 161.014 236.589 161.052 236.411C161.094 236.232 161.145 236.056 161.206 235.881L162.385 232.298H164.248L161.553 239.481C161.39 239.922 161.177 240.288 160.915 240.581C160.653 240.877 160.351 241.099 160.01 241.247C159.672 241.395 159.299 241.469 158.893 241.469C158.696 241.469 158.525 241.458 158.38 241.435C158.236 241.416 158.113 241.395 158.01 241.373V239.994C158.09 240.013 158.19 240.03 158.312 240.045C158.434 240.06 158.561 240.068 158.694 240.068C158.937 240.068 159.146 240.017 159.32 239.914C159.495 239.812 159.641 239.673 159.759 239.498C159.877 239.327 159.97 239.14 160.038 238.934L160.141 238.621L157.611 232.298ZM173.761 236.941H172.759V238.667H171.038V236.941H167.484V235.716L171.135 230.338H172.759V235.573H173.761V236.941ZM171.038 235.573V234.161C171.038 234.028 171.04 233.87 171.044 233.688C171.052 233.506 171.059 233.323 171.067 233.141C171.074 232.959 171.082 232.797 171.09 232.657C171.101 232.512 171.108 232.412 171.112 232.355H171.067C170.995 232.511 170.919 232.662 170.839 232.811C170.759 232.955 170.666 233.107 170.56 233.266L169.033 235.573H171.038Z" fill="#333333"/>
<path d="M69.3333 255V259.167" stroke="#707070" stroke-width="1.25" stroke-linecap="round" stroke-linejoin="round"/>
<path d="M69.3333 266.667C65.3083 266.667 62.0417 263.4 62.0417 259.375C62.0417 255.35 65.3083 252.083 69.3333 252.083C73.3583 252.083 76.625 255.35 76.625 259.375" stroke="#707070" stroke-width="1.25" stroke-linecap="round" stroke-linejoin="round"/>
<path d="M66.8333 250H71.8333" stroke="#707070" stroke-width="1.25" stroke-miterlimit="10" stroke-linecap="round" stroke-linejoin="round"/>
<path d="M71.75 263.75V262.783C71.75 261.592 72.6 261.1 73.6333 261.7L74.4667 262.183L75.3 262.667C76.3333 263.267 76.3333 264.242 75.3 264.842L74.4667 265.325L73.6333 265.808C72.6 266.408 71.75 265.917 71.75 264.725V263.75Z" stroke="#707070" stroke-width="1.25" stroke-miterlimit="10" stroke-linecap="round" stroke-linejoin="round"/>
<path d="M88.3532 262.333H83.6608V261.635L85.5407 259.745C86.1136 259.166 86.4912 258.753 86.6735 258.505C86.8558 258.258 86.9925 258.017 87.0837 257.783C87.1748 257.548 87.2204 257.296 87.2204 257.026C87.2204 256.645 87.1048 256.344 86.8737 256.122C86.6426 255.898 86.322 255.786 85.9118 255.786C85.6156 255.786 85.334 255.834 85.0671 255.932C84.8034 256.03 84.5088 256.207 84.1833 256.464L83.7536 255.912C84.4112 255.366 85.1273 255.092 85.902 255.092C86.5726 255.092 87.0983 255.265 87.4792 255.61C87.86 255.952 88.0505 256.412 88.0505 256.992C88.0505 257.444 87.9235 257.892 87.6696 258.334C87.4157 258.777 86.9405 259.337 86.2438 260.014L84.6813 261.542V261.581H88.3532V262.333ZM93.4167 262.333V258.871C93.4167 258.435 93.3174 258.11 93.1188 257.895C92.9203 257.68 92.6094 257.573 92.1862 257.573C91.6231 257.573 91.2113 257.726 90.9509 258.032C90.6937 258.338 90.5651 258.839 90.5651 259.536V262.333H89.7546V254.736H90.5651V257.036C90.5651 257.312 90.5521 257.542 90.5261 257.724H90.5749C90.7344 257.467 90.9606 257.265 91.2536 257.119C91.5498 256.969 91.8867 256.894 92.2643 256.894C92.9186 256.894 93.4085 257.05 93.7341 257.363C94.0628 257.672 94.2272 258.165 94.2272 258.842V262.333H93.4167ZM98.3386 256.884C98.5762 256.884 98.7894 256.904 98.9782 256.943L98.8659 257.695C98.6446 257.646 98.4492 257.621 98.28 257.621C97.847 257.621 97.4759 257.797 97.1667 258.149C96.8607 258.5 96.7077 258.938 96.7077 259.462V262.333H95.8972V256.982H96.5661L96.6589 257.973H96.6979C96.8965 257.625 97.1358 257.356 97.4157 257.167C97.6957 256.979 98.0033 256.884 98.3386 256.884ZM103.431 260.873C103.431 261.371 103.246 261.756 102.875 262.026C102.504 262.296 101.983 262.431 101.312 262.431C100.603 262.431 100.049 262.319 99.652 262.094V261.342C99.9092 261.472 100.184 261.575 100.477 261.65C100.773 261.725 101.058 261.762 101.332 261.762C101.755 261.762 102.08 261.695 102.308 261.562C102.536 261.425 102.65 261.218 102.65 260.942C102.65 260.733 102.559 260.556 102.377 260.41C102.198 260.26 101.846 260.084 101.322 259.882C100.824 259.697 100.469 259.536 100.258 259.399C100.049 259.259 99.8929 259.101 99.7888 258.925C99.6878 258.749 99.6374 258.539 99.6374 258.295C99.6374 257.859 99.8148 257.516 100.17 257.265C100.524 257.011 101.011 256.884 101.63 256.884C102.206 256.884 102.769 257.001 103.319 257.236L103.031 257.895C102.494 257.674 102.007 257.563 101.571 257.563C101.187 257.563 100.897 257.623 100.702 257.744C100.507 257.864 100.409 258.03 100.409 258.242C100.409 258.385 100.445 258.507 100.516 258.608C100.591 258.709 100.71 258.805 100.873 258.896C101.036 258.987 101.348 259.119 101.81 259.291C102.445 259.523 102.873 259.755 103.094 259.99C103.319 260.224 103.431 260.519 103.431 260.873ZM105.604 261.171L105.677 261.284C105.593 261.609 105.471 261.987 105.311 262.416C105.152 262.849 104.986 263.251 104.813 263.622H104.203C104.291 263.284 104.387 262.866 104.491 262.368C104.598 261.87 104.673 261.471 104.716 261.171H105.604ZM113.856 256.874C113.856 257.33 113.728 257.703 113.47 257.993C113.216 258.282 112.855 258.476 112.386 258.574V258.613C112.959 258.684 113.384 258.867 113.661 259.16C113.938 259.453 114.076 259.837 114.076 260.312C114.076 260.992 113.84 261.516 113.368 261.884C112.896 262.249 112.225 262.431 111.356 262.431C110.979 262.431 110.632 262.402 110.316 262.343C110.004 262.288 109.699 262.189 109.403 262.045V261.274C109.712 261.427 110.041 261.544 110.389 261.625C110.741 261.703 111.073 261.743 111.385 261.743C112.619 261.743 113.236 261.259 113.236 260.292C113.236 259.426 112.556 258.994 111.195 258.994H110.492V258.295H111.205C111.761 258.295 112.202 258.173 112.528 257.929C112.854 257.682 113.016 257.34 113.016 256.904C113.016 256.555 112.896 256.282 112.655 256.083C112.417 255.885 112.093 255.786 111.683 255.786C111.371 255.786 111.076 255.828 110.799 255.912C110.523 255.997 110.207 256.153 109.852 256.381L109.442 255.834C109.735 255.603 110.072 255.423 110.453 255.292C110.837 255.159 111.241 255.092 111.664 255.092C112.357 255.092 112.896 255.252 113.28 255.571C113.664 255.886 113.856 256.321 113.856 256.874ZM119.188 262.333V258.871C119.188 258.435 119.089 258.11 118.89 257.895C118.692 257.68 118.381 257.573 117.958 257.573C117.395 257.573 116.983 257.726 116.722 258.032C116.465 258.338 116.337 258.839 116.337 259.536V262.333H115.526V254.736H116.337V257.036C116.337 257.312 116.324 257.542 116.298 257.724H116.346C116.506 257.467 116.732 257.265 117.025 257.119C117.321 256.969 117.658 256.894 118.036 256.894C118.69 256.894 119.18 257.05 119.506 257.363C119.834 257.672 119.999 258.165 119.999 258.842V262.333H119.188ZM124.11 256.884C124.348 256.884 124.561 256.904 124.75 256.943L124.637 257.695C124.416 257.646 124.221 257.621 124.051 257.621C123.619 257.621 123.247 257.797 122.938 258.149C122.632 258.5 122.479 258.938 122.479 259.462V262.333H121.669V256.982H122.338L122.43 257.973H122.469C122.668 257.625 122.907 257.356 123.187 257.167C123.467 256.979 123.775 256.884 124.11 256.884ZM129.203 260.873C129.203 261.371 129.017 261.756 128.646 262.026C128.275 262.296 127.754 262.431 127.084 262.431C126.374 262.431 125.821 262.319 125.424 262.094V261.342C125.681 261.472 125.956 261.575 126.249 261.65C126.545 261.725 126.83 261.762 127.103 261.762C127.526 261.762 127.852 261.695 128.08 261.562C128.308 261.425 128.422 261.218 128.422 260.942C128.422 260.733 128.33 260.556 128.148 260.41C127.969 260.26 127.618 260.084 127.093 259.882C126.595 259.697 126.241 259.536 126.029 259.399C125.821 259.259 125.664 259.101 125.56 258.925C125.459 258.749 125.409 258.539 125.409 258.295C125.409 257.859 125.586 257.516 125.941 257.265C126.296 257.011 126.783 256.884 127.401 256.884C127.977 256.884 128.54 257.001 129.091 257.236L128.802 257.895C128.265 257.674 127.779 257.563 127.342 257.563C126.958 257.563 126.669 257.623 126.473 257.744C126.278 257.864 126.18 258.03 126.18 258.242C126.18 258.385 126.216 258.507 126.288 258.608C126.363 258.709 126.481 258.805 126.644 258.896C126.807 258.987 127.119 259.119 127.582 259.291C128.216 259.523 128.645 259.755 128.866 259.99C129.091 260.224 129.203 260.519 129.203 260.873Z" fill="#707070"/>
<g clip-path="url(#clip2_110_2396)">
<rect x="571" y="240.833" width="13.3333" height="13.3333" rx="1.66667" fill="#707070"/>
<rect x="571.417" y="241.25" width="12.5" height="12.5" rx="1.25" fill="white" stroke="#E9F3F5" stroke-width="0.833333"/>
</g>
<rect x="26.4167" y="210.417" width="590.833" height="74.1667" rx="15.5833" stroke="#714DD9" stroke-width="0.833333"/>
<rect x="26.4167" y="210.417" width="590.833" height="74.1667" rx="15.5833" stroke="white" stroke-opacity="0.8" stroke-width="0.833333"/>
<rect x="26.5" y="210.5" width="590.667" height="74" rx="15.5" stroke="black"/>
</g>
<defs>
<filter id="filter0_d_110_2396" x="59" y="0" width="643.667" height="127" filterUnits="userSpaceOnUse" color-interpolation-filters="sRGB">
<feFlood flood-opacity="0" result="BackgroundImageFix"/>
<feColorMatrix in="SourceAlpha" type="matrix" values="0 0 0 0 0 0 0 0 0 0 0 0 0 0 0 0 0 0 127 0" result="hardAlpha"/>
<feOffset dy="2"/>
<feGaussianBlur stdDeviation="13"/>
<feComposite in2="hardAlpha" operator="out"/>
<feColorMatrix type="matrix" values="0 0 0 0 0.443137 0 0 0 0 0.301961 0 0 0 0 0.85098 0 0 0 0.06 0"/>
<feBlend mode="normal" in2="BackgroundImageFix" result="effect1_dropShadow_110_2396"/>
<feBlend mode="normal" in="SourceGraphic" in2="effect1_dropShadow_110_2396" result="shape"/>
</filter>
<filter id="filter1_d_110_2396" x="82" y="93" width="643.667" height="127" filterUnits="userSpaceOnUse" color-interpolation-filters="sRGB">
<feFlood flood-opacity="0" result="BackgroundImageFix"/>
<feColorMatrix in="SourceAlpha" type="matrix" values="0 0 0 0 0 0 0 0 0 0 0 0 0 0 0 0 0 0 127 0" result="hardAlpha"/>
<feOffset dy="2"/>
<feGaussianBlur stdDeviation="13"/>
<feComposite in2="hardAlpha" operator="out"/>
<feColorMatrix type="matrix" values="0 0 0 0 0.443137 0 0 0 0 0.301961 0 0 0 0 0.85098 0 0 0 0.06 0"/>
<feBlend mode="normal" in2="BackgroundImageFix" result="effect1_dropShadow_110_2396"/>
<feBlend mode="normal" in="SourceGraphic" in2="effect1_dropShadow_110_2396" result="shape"/>
</filter>
<filter id="filter2_d_110_2396" x="0" y="186" width="643.667" height="127" filterUnits="userSpaceOnUse" color-interpolation-filters="sRGB">
<feFlood flood-opacity="0" result="BackgroundImageFix"/>
<feColorMatrix in="SourceAlpha" type="matrix" values="0 0 0 0 0 0 0 0 0 0 0 0 0 0 0 0 0 0 127 0" result="hardAlpha"/>
<feOffset dy="2"/>
<feGaussianBlur stdDeviation="13"/>
<feComposite in2="hardAlpha" operator="out"/>
<feColorMatrix type="matrix" values="0 0 0 0 0.443137 0 0 0 0 0.301961 0 0 0 0 0.85098 0 0 0 0.06 0"/>
<feBlend mode="normal" in2="BackgroundImageFix" result="effect1_dropShadow_110_2396"/>
<feBlend mode="normal" in="SourceGraphic" in2="effect1_dropShadow_110_2396" result="shape"/>
</filter>
<clipPath id="clip0_110_2396">
<rect x="630" y="54.8333" width="13.3333" height="13.3333" rx="1.66667" fill="white"/>
</clipPath>
<clipPath id="clip1_110_2396">
<rect x="653" y="147.833" width="13.3333" height="13.3333" rx="1.66667" fill="white"/>
</clipPath>
<clipPath id="clip2_110_2396">
<rect x="571" y="240.833" width="13.3333" height="13.3333" rx="1.66667" fill="white"/>
</clipPath>
</defs>
</svg>
