<svg width="129" height="33" viewBox="0 0 129 33" fill="none" xmlns="http://www.w3.org/2000/svg">
<g clip-path="url(#clip0_112_2444)">
<path d="M12.4298 19.6335L22.1934 3.98075C22.5831 3.35607 23.508 3.40476 23.8299 4.06689L27.5712 11.7621C27.9258 12.4915 27.7706 13.3662 27.1868 13.9291L16.7771 23.9643L12.4298 19.6335Z" fill="#F7941F"/>
<path fill-rule="evenodd" clip-rule="evenodd" d="M8.0613 30.5338L2.41045 16.2429C2.21932 15.7596 2.45846 15.2131 2.94317 15.0254L5.80758 13.9166C6.16229 13.7793 6.56481 13.8702 6.82607 14.1467L16.1377 23.9989C16.2113 24.0768 16.2495 24.1817 16.2432 24.2887L9.58978 30.8559C9.1121 31.3273 8.3081 31.1579 8.0613 30.5338Z" fill="#714DD9"/>
<path d="M2.41045 16.2429L2.41975 16.2392L2.41045 16.2429ZM8.0613 30.5338L8.0706 30.5301L8.0613 30.5338ZM2.94317 15.0254L2.94678 15.0348L2.94317 15.0254ZM5.80758 13.9166L5.80397 13.9073L5.80758 13.9166ZM6.82607 14.1467L6.83334 14.1398L6.82607 14.1467ZM16.1377 23.9989L16.1449 23.992L16.1377 23.9989ZM16.2432 24.2887L16.2526 24.2983L16.2531 24.2893L16.2432 24.2887ZM9.58978 30.8559L9.5968 30.863L9.58978 30.8559ZM2.40115 16.2466L8.052 30.5375L8.0706 30.5301L2.41975 16.2392L2.40115 16.2466ZM2.93956 15.0161C2.44967 15.2057 2.20798 15.7581 2.40115 16.2466L2.41975 16.2392C2.23066 15.7611 2.46724 15.2204 2.94678 15.0348L2.93956 15.0161ZM5.80397 13.9073L2.93956 15.0161L2.94678 15.0348L5.81119 13.926L5.80397 13.9073ZM6.83334 14.1398C6.56929 13.8604 6.16247 13.7685 5.80397 13.9073L5.81119 13.926C6.16211 13.7901 6.56033 13.8801 6.8188 14.1535L6.83334 14.1398ZM16.1449 23.992L6.83334 14.1398L6.8188 14.1535L16.1304 24.0058L16.1449 23.992ZM16.2531 24.2893C16.2596 24.1795 16.2205 24.072 16.1449 23.992L16.1304 24.0058C16.2021 24.0817 16.2393 24.1838 16.2332 24.2881L16.2531 24.2893ZM9.5968 30.863L16.2502 24.2958L16.2361 24.2816L9.58275 30.8487L9.5968 30.863ZM8.052 30.5375C8.30144 31.1683 9.11403 31.3395 9.5968 30.863L9.58275 30.8487C9.11018 31.3152 8.31476 31.1476 8.0706 30.5301L8.052 30.5375Z" fill="#714DD9"/>
</g>
<path d="M42.4861 26V11.768H37.0381V8.72H51.1981V11.768H45.7501V26H42.4861ZM54.3265 26V8.72H57.5905V26H54.3265ZM69.5641 26.36C67.8361 26.36 66.3441 25.984 65.0881 25.232C63.8401 24.48 62.8761 23.428 62.1961 22.076C61.5241 20.724 61.1881 19.152 61.1881 17.36C61.1881 15.568 61.5241 13.996 62.1961 12.644C62.8761 11.292 63.8401 10.24 65.0881 9.488C66.3441 8.736 67.8361 8.36 69.5641 8.36C71.5481 8.36 73.2121 8.852 74.5561 9.836C75.9081 10.82 76.8601 12.152 77.4121 13.832L74.1241 14.744C73.8041 13.696 73.2641 12.884 72.5041 12.308C71.7441 11.724 70.7641 11.432 69.5641 11.432C68.4681 11.432 67.5521 11.676 66.8161 12.164C66.0881 12.652 65.5401 13.34 65.1721 14.228C64.8041 15.116 64.6201 16.16 64.6201 17.36C64.6201 18.56 64.8041 19.604 65.1721 20.492C65.5401 21.38 66.0881 22.068 66.8161 22.556C67.5521 23.044 68.4681 23.288 69.5641 23.288C70.7641 23.288 71.7441 22.996 72.5041 22.412C73.2641 21.828 73.8041 21.016 74.1241 19.976L77.4121 20.888C76.8601 22.568 75.9081 23.9 74.5561 24.884C73.2121 25.868 71.5481 26.36 69.5641 26.36ZM81.0143 26V8.72H84.2783V16.688L90.8543 8.72H94.8383L87.6143 17.24L95.2943 26H91.1663L84.2783 18.128V26H81.0143ZM97.9353 26V8.72H109.215V11.768H101.199V15.464H107.775V18.512H101.199V22.952H109.215V26H97.9353ZM113.052 26V8.72H118.644C118.78 8.72 119.06 8.724 119.484 8.732C119.908 8.74 120.316 8.768 120.708 8.816C122.1 8.984 123.28 9.468 124.248 10.268C125.216 11.068 125.952 12.084 126.456 13.316C126.96 14.548 127.212 15.896 127.212 17.36C127.212 18.824 126.96 20.172 126.456 21.404C125.952 22.636 125.216 23.652 124.248 24.452C123.28 25.252 122.1 25.736 120.708 25.904C120.316 25.952 119.908 25.98 119.484 25.988C119.06 25.996 118.78 26 118.644 26H113.052ZM116.364 22.928H118.644C118.86 22.928 119.152 22.924 119.52 22.916C119.888 22.9 120.22 22.864 120.516 22.808C121.268 22.656 121.88 22.304 122.352 21.752C122.832 21.2 123.184 20.536 123.408 19.76C123.64 18.984 123.756 18.184 123.756 17.36C123.756 16.496 123.636 15.676 123.396 14.9C123.164 14.124 122.808 13.468 122.328 12.932C121.848 12.396 121.244 12.056 120.516 11.912C120.22 11.848 119.888 11.812 119.52 11.804C119.152 11.796 118.86 11.792 118.644 11.792H116.364V22.928Z" fill="white"/>
<defs>
<clipPath id="clip0_112_2444">
<rect width="32.8184" height="28.2986" fill="white" transform="translate(0.499512 32.9092) rotate(-90)"/>
</clipPath>
</defs>
</svg>
