<svg width="183" height="47" viewBox="0 0 183 47" fill="none" xmlns="http://www.w3.org/2000/svg">
<g clip-path="url(#clip0_102_13)">
<path d="M16.9916 27.9632L30.8974 5.66985C31.4523 4.78015 32.7697 4.84949 33.2282 5.79253L38.5567 16.7523C39.0617 17.7912 38.8407 19.037 38.0091 19.8387L23.1833 34.1312L16.9916 27.9632Z" fill="white"/>
<path fill-rule="evenodd" clip-rule="evenodd" d="M10.7698 43.4855L2.7216 23.1318C2.44939 22.4434 2.78998 21.665 3.48033 21.3978L7.55994 19.8186C8.06513 19.6231 8.63842 19.7526 9.01052 20.1463L22.2725 34.1782C22.3774 34.2892 22.4317 34.4385 22.4227 34.5909L12.9467 43.9442C12.2664 44.6157 11.1213 44.3744 10.7698 43.4855Z" fill="white"/>
<path d="M2.7216 23.1318L2.73484 23.1266L2.7216 23.1318ZM10.7698 43.4855L10.7565 43.4907L10.7698 43.4855ZM3.48033 21.3978L3.48547 21.4111L3.48033 21.3978ZM7.55994 19.8186L7.56508 19.8319L7.55994 19.8186ZM9.01052 20.1463L9.02087 20.1365L9.01052 20.1463ZM22.2725 34.1782L22.2829 34.1684L22.2725 34.1782ZM22.4227 34.5909L22.4362 34.6046L22.437 34.5918L22.4227 34.5909ZM12.9467 43.9442L12.9367 43.9341L12.9467 43.9442ZM2.70836 23.137L10.7565 43.4907L10.783 43.4802L2.73484 23.1266L2.70836 23.137ZM3.47519 21.3845C2.77746 21.6546 2.43324 22.4413 2.70836 23.137L2.73484 23.1266C2.46555 22.4455 2.80249 21.6755 3.48547 21.4111L3.47519 21.3845ZM7.5548 19.8053L3.47519 21.3845L3.48547 21.4111L7.56508 19.8319L7.5548 19.8053ZM9.02087 20.1365C8.6448 19.7386 8.06538 19.6077 7.5548 19.8053L7.56508 19.8319C8.06488 19.6384 8.63204 19.7665 9.00017 20.156L9.02087 20.1365ZM22.2829 34.1684L9.02087 20.1365L9.00017 20.156L22.2622 34.188L22.2829 34.1684ZM22.437 34.5918C22.4462 34.4355 22.3904 34.2823 22.2829 34.1684L22.2622 34.188C22.3643 34.2961 22.4173 34.4416 22.4085 34.5901L22.437 34.5918ZM12.9567 43.9543L22.4328 34.6011L22.4127 34.5808L12.9367 43.9341L12.9567 43.9543ZM10.7565 43.4907C11.1118 44.3891 12.2691 44.633 12.9567 43.9543L12.9367 43.9341C12.2636 44.5984 11.1308 44.3597 10.783 43.4802L10.7565 43.4907Z" fill="#E7E7E7"/>
</g>
<path d="M59.7991 37V16.7302H52.0398V12.3891H72.2071V16.7302H64.4478V37H59.7991ZM76.6627 37V12.3891H81.3114V37H76.6627ZM98.3647 37.5127C95.9036 37.5127 93.7786 36.9772 91.9898 35.9062C90.2123 34.8352 88.8394 33.3368 87.8709 31.4113C86.9138 29.4857 86.4352 27.2468 86.4352 24.6945C86.4352 22.1423 86.9138 19.9034 87.8709 17.9778C88.8394 16.0522 90.2123 14.5539 91.9898 13.4829C93.7786 12.4119 95.9036 11.8764 98.3647 11.8764C101.19 11.8764 103.56 12.5771 105.475 13.9785C107.4 15.38 108.756 17.2771 109.542 19.6698L104.859 20.9687C104.403 19.4761 103.634 18.3196 102.552 17.4993C101.47 16.6675 100.074 16.2516 98.3647 16.2516C96.8037 16.2516 95.4991 16.5992 94.4509 17.2942C93.414 17.9892 92.6335 18.9691 92.1094 20.2338C91.5853 21.4985 91.3232 22.9855 91.3232 24.6945C91.3232 26.4036 91.5853 27.8905 92.1094 29.1553C92.6335 30.42 93.414 31.3999 94.4509 32.0949C95.4991 32.7899 96.8037 33.1375 98.3647 33.1375C100.074 33.1375 101.47 32.7216 102.552 31.8898C103.634 31.0581 104.403 29.9016 104.859 28.4204L109.542 29.7193C108.756 32.112 107.4 34.0091 105.475 35.4105C103.56 36.812 101.19 37.5127 98.3647 37.5127ZM114.673 37V12.3891H119.321V23.7375L128.687 12.3891H134.361L124.073 24.5236L135.011 37H129.132L119.321 25.7884V37H114.673ZM138.772 37V12.3891H154.838V16.7302H143.421V21.9942H152.787V26.3353H143.421V32.6589H154.838V37H138.772ZM160.301 37V12.3891H168.266C168.459 12.3891 168.858 12.3948 169.462 12.4062C170.066 12.4176 170.647 12.4575 171.205 12.5258C173.188 12.7651 174.868 13.4544 176.247 14.5938C177.626 15.7332 178.674 17.1802 179.392 18.9349C180.11 20.6896 180.469 22.6095 180.469 24.6945C180.469 26.7796 180.11 28.6995 179.392 30.4542C178.674 32.2088 177.626 33.6559 176.247 34.7953C174.868 35.9347 173.188 36.624 171.205 36.8633C170.647 36.9316 170.066 36.9715 169.462 36.9829C168.858 36.9943 168.459 37 168.266 37H160.301ZM165.018 32.6247H168.266C168.573 32.6247 168.989 32.619 169.513 32.6076C170.037 32.5848 170.51 32.5336 170.932 32.4538C172.003 32.2373 172.875 31.736 173.547 30.9498C174.23 30.1636 174.732 29.2179 175.051 28.1127C175.381 27.0075 175.546 25.8681 175.546 24.6945C175.546 23.464 175.376 22.2961 175.034 21.1909C174.703 20.0857 174.196 19.1514 173.513 18.388C172.829 17.6246 171.969 17.1404 170.932 16.9353C170.51 16.8441 170.037 16.7928 169.513 16.7815C168.989 16.7701 168.573 16.7644 168.266 16.7644H165.018V32.6247Z" fill="white"/>
<defs>
<clipPath id="clip0_102_13">
<rect width="46.7413" height="40.304" fill="white" transform="translate(-1.52588e-05 46.8706) rotate(-90)"/>
</clipPath>
</defs>
</svg>
