<svg width="65" height="64" viewBox="0 0 65 64" fill="none" xmlns="http://www.w3.org/2000/svg">
<rect x="0.5" width="64" height="64" rx="32" fill="#F6FAFB"/>
<path fill-rule="evenodd" clip-rule="evenodd" d="M17.7583 44.1859H15.5L16.5488 42.1859L27.6075 21.0983L28.7077 19.0005L29.8894 21.0535L31.8472 24.455L33.6075 21.0983L34.7077 19.0005L35.8894 21.0535L48.0527 42.1859L49.2039 44.1859H46.8963H43.2039H40.8963H23.7583H21.5H17.7583ZM24.8072 42.1859H39.7451L31.9287 28.6059L24.8072 42.1859ZM30.7471 26.5529L22.5488 42.1859H18.8072L28.7892 23.1514L30.7471 26.5529ZM33.0289 26.5081L42.0527 42.1859H45.7451L34.7892 23.1514L33.0289 26.5081Z" fill="#8C49F4"/>
</svg>
