<svg width="23" height="18" viewBox="0 0 23 18" fill="none" xmlns="http://www.w3.org/2000/svg">
<path d="M22.4962 2.11613C21.6786 2.475 20.8075 2.71288 19.8992 2.82838C20.8336 2.27013 21.5467 1.39287 21.882 0.3355C21.0108 0.85525 20.049 1.22238 19.0239 1.42725C18.1968 0.545875 17.0178 0 15.7317 0C13.2365 0 11.2276 2.02675 11.2276 4.51137C11.2276 4.86888 11.2578 5.21263 11.332 5.53988C7.585 5.357 4.26943 3.55988 2.0421 0.82225C1.65325 1.49738 1.42515 2.27012 1.42515 3.102C1.42515 4.664 2.22897 6.04862 3.42714 6.85025C2.70302 6.8365 1.99264 6.62613 1.3908 6.29475C1.3908 6.3085 1.3908 6.32638 1.3908 6.34425C1.3908 8.536 2.95309 10.3565 5.0018 10.7759C4.63493 10.8763 4.23508 10.9244 3.82012 10.9244C3.53157 10.9244 3.24027 10.9079 2.96683 10.8474C3.5508 12.6335 5.2079 13.9466 7.17829 13.9893C5.64485 15.1896 3.69783 15.9129 1.59004 15.9129C1.22042 15.9129 0.865918 15.8964 0.511414 15.851C2.5079 17.1394 4.87401 17.875 7.42561 17.875C15.7194 17.875 20.2537 11 20.2537 5.04075C20.2537 4.84137 20.2468 4.64887 20.2372 4.45775C21.1317 3.8225 21.8833 3.02913 22.4962 2.11613Z" fill="white"/>
</svg>
