<svg width="20" height="20" viewBox="0 0 20 20" fill="none" xmlns="http://www.w3.org/2000/svg">
<path d="M8.95834 2.04258C9.54167 1.55091 10.4833 1.55091 11.05 2.04258L12.3667 3.16758C12.6167 3.37591 13.0917 3.55091 13.425 3.55091H14.8417C15.725 3.55091 16.45 4.27591 16.45 5.15924V6.57591C16.45 6.90924 16.625 7.37591 16.8333 7.62591L17.9583 8.94258C18.45 9.52591 18.45 10.4676 17.9583 11.0342L16.8333 12.3509C16.625 12.6009 16.45 13.0676 16.45 13.4009V14.8176C16.45 15.7009 15.725 16.4259 14.8417 16.4259H13.425C13.0917 16.4259 12.625 16.6009 12.375 16.8092L11.0583 17.9342C10.475 18.4259 9.53334 18.4259 8.96667 17.9342L7.65 16.8092C7.4 16.6009 6.925 16.4259 6.6 16.4259H5.14167C4.25834 16.4259 3.53334 15.7009 3.53334 14.8176V13.3926C3.53334 13.0676 3.36667 12.5926 3.15834 12.3509L2.03334 11.0259C1.55 10.4509 1.55 9.51758 2.03334 8.94258L3.15834 7.61758C3.36667 7.36758 3.53334 6.90091 3.53334 6.57591V5.16758C3.53334 4.28424 4.25834 3.55924 5.14167 3.55924H6.58334C6.91667 3.55924 7.38334 3.38424 7.63334 3.17591L8.95834 2.04258Z" stroke="#E9F3F5" stroke-width="1.5" stroke-linecap="round" stroke-linejoin="round"/>
<path d="M7.08334 13.2835L10 6.7168L12.9167 13.2835" stroke="#E9F3F5" stroke-width="1.5" stroke-linejoin="bevel"/>
<path d="M11.4583 11.0918H8.54166" stroke="#E9F3F5" stroke-width="1.5" stroke-linecap="round" stroke-linejoin="round"/>
</svg>
