<svg width="72" height="72" viewBox="0 0 72 72" fill="none" xmlns="http://www.w3.org/2000/svg">
<rect width="72" height="72" rx="36" fill="#707070"/>
<path d="M36.2998 45V49.2" stroke="#E9F3F5" stroke-width="1.5" stroke-linecap="round" stroke-linejoin="round"/>
<path d="M26.2998 56H46.2998V54C46.2998 51.8 44.4998 50 42.2998 50H30.2998C28.0998 50 26.2998 51.8 26.2998 54V56V56Z" stroke="#E9F3F5" stroke-width="1.5" stroke-miterlimit="10"/>
<path d="M24.2998 56H48.2998" stroke="#E9F3F5" stroke-width="1.5" stroke-linecap="round" stroke-linejoin="round"/>
<path d="M36 44C28.26 44 22 37.74 22 30V24C22 19.58 25.58 16 30 16H42C46.42 16 50 19.58 50 24V30C50 37.74 43.74 44 36 44Z" stroke="#E9F3F5" stroke-width="1.5" stroke-linecap="round" stroke-linejoin="round"/>
<path d="M22.9401 35.3002C21.4401 34.8202 20.1201 33.9402 19.0801 32.9002C17.2801 30.9002 16.0801 28.5002 16.0801 25.7002C16.0801 22.9002 18.2801 20.7002 21.0801 20.7002H22.3801C21.9801 21.6202 21.7801 22.6402 21.7801 23.7002V29.7002C21.7801 31.7002 22.2001 33.5802 22.9401 35.3002Z" stroke="#E9F3F5" stroke-width="1.5" stroke-linecap="round" stroke-linejoin="round"/>
<path d="M49.0596 35.3002C50.5596 34.8202 51.8796 33.9402 52.9196 32.9002C54.7196 30.9002 55.9196 28.5002 55.9196 25.7002C55.9196 22.9002 53.7196 20.7002 50.9196 20.7002H49.6196C50.0196 21.6202 50.2196 22.6402 50.2196 23.7002V29.7002C50.2196 31.7002 49.7996 33.5802 49.0596 35.3002Z" stroke="#E9F3F5" stroke-width="1.5" stroke-linecap="round" stroke-linejoin="round"/>
</svg>
