<svg width="72" height="72" viewBox="0 0 72 72" fill="none" xmlns="http://www.w3.org/2000/svg">
<rect width="72" height="72" rx="36" fill="#714DD9"/>
<path d="M30.3201 33.74C30.1201 33.72 29.8801 33.72 29.6601 33.74C24.9001 33.58 21.1201 29.68 21.1201 24.88C21.1201 19.98 25.0801 16 30.0001 16C34.9001 16 38.8801 19.98 38.8801 24.88C38.8601 29.68 35.0801 33.58 30.3201 33.74Z" stroke="#E9F3F5" stroke-width="1.5" stroke-linecap="round" stroke-linejoin="round"/>
<path d="M44.8196 20C48.6996 20 51.8196 23.14 51.8196 27C51.8196 30.78 48.8196 33.86 45.0796 34C44.9196 33.98 44.7396 33.98 44.5596 34" stroke="#E9F3F5" stroke-width="1.5" stroke-linecap="round" stroke-linejoin="round"/>
<path d="M20.3204 41.12C15.4804 44.36 15.4804 49.64 20.3204 52.86C25.8204 56.54 34.8404 56.54 40.3404 52.86C45.1804 49.62 45.1804 44.34 40.3404 41.12C34.8604 37.46 25.8404 37.46 20.3204 41.12Z" stroke="#E9F3F5" stroke-width="1.5" stroke-linecap="round" stroke-linejoin="round"/>
<path d="M48.6797 52C50.1197 51.7 51.4797 51.12 52.5997 50.26C55.7197 47.92 55.7197 44.06 52.5997 41.72C51.4997 40.88 50.1597 40.32 48.7397 40" stroke="#E9F3F5" stroke-width="1.5" stroke-linecap="round" stroke-linejoin="round"/>
</svg>
