<svg width="48" height="48" viewBox="0 0 48 48" fill="none" xmlns="http://www.w3.org/2000/svg">
<path d="M18.3191 21.74C18.1191 21.72 17.8791 21.72 17.6591 21.74C12.8991 21.58 9.11914 17.68 9.11914 12.88C9.11914 7.98 13.0791 4 17.9991 4C22.8991 4 26.8791 7.98 26.8791 12.88C26.8591 17.68 23.0791 21.58 18.3191 21.74Z" stroke="#714DD9" stroke-width="1.5" stroke-linecap="round" stroke-linejoin="round"/>
<path d="M18.3191 21.74C18.1191 21.72 17.8791 21.72 17.6591 21.74C12.8991 21.58 9.11914 17.68 9.11914 12.88C9.11914 7.98 13.0791 4 17.9991 4C22.8991 4 26.8791 7.98 26.8791 12.88C26.8591 17.68 23.0791 21.58 18.3191 21.74Z" stroke="black" stroke-opacity="0.2" stroke-width="1.5" stroke-linecap="round" stroke-linejoin="round"/>
<path d="M32.8205 8C36.7005 8 39.8205 11.14 39.8205 15C39.8205 18.78 36.8205 21.86 33.0805 22C32.9205 21.98 32.7405 21.98 32.5605 22" stroke="#714DD9" stroke-width="1.5" stroke-linecap="round" stroke-linejoin="round"/>
<path d="M32.8205 8C36.7005 8 39.8205 11.14 39.8205 15C39.8205 18.78 36.8205 21.86 33.0805 22C32.9205 21.98 32.7405 21.98 32.5605 22" stroke="black" stroke-opacity="0.2" stroke-width="1.5" stroke-linecap="round" stroke-linejoin="round"/>
<path d="M8.31945 29.12C3.47945 32.36 3.47945 37.64 8.31945 40.86C13.8195 44.54 22.8395 44.54 28.3395 40.86C33.1795 37.62 33.1795 32.34 28.3395 29.12C22.8595 25.46 13.8395 25.46 8.31945 29.12Z" stroke="#714DD9" stroke-width="1.5" stroke-linecap="round" stroke-linejoin="round"/>
<path d="M8.31945 29.12C3.47945 32.36 3.47945 37.64 8.31945 40.86C13.8195 44.54 22.8395 44.54 28.3395 40.86C33.1795 37.62 33.1795 32.34 28.3395 29.12C22.8595 25.46 13.8395 25.46 8.31945 29.12Z" stroke="black" stroke-opacity="0.2" stroke-width="1.5" stroke-linecap="round" stroke-linejoin="round"/>
<path d="M36.6797 40C38.1197 39.7 39.4797 39.12 40.5997 38.26C43.7197 35.92 43.7197 32.06 40.5997 29.72C39.4997 28.88 38.1597 28.32 36.7397 28" stroke="#714DD9" stroke-width="1.5" stroke-linecap="round" stroke-linejoin="round"/>
<path d="M36.6797 40C38.1197 39.7 39.4797 39.12 40.5997 38.26C43.7197 35.92 43.7197 32.06 40.5997 29.72C39.4997 28.88 38.1597 28.32 36.7397 28" stroke="black" stroke-opacity="0.2" stroke-width="1.5" stroke-linecap="round" stroke-linejoin="round"/>
</svg>
