<svg width="14" height="40" viewBox="0 0 14 40" fill="none" xmlns="http://www.w3.org/2000/svg">
<g clip-path="url(#clip0_1225_16680)">
<path d="M7.00198 13.0029C3.13636 13.0029 0.00198364 16.1373 0.00198364 20.0029C0.00198364 23.8686 3.13636 27.0029 7.00198 27.0029C10.8676 27.0029 14.002 23.8686 14.002 20.0029C14.002 16.1373 10.8676 13.0029 7.00198 13.0029ZM7.00198 25.8154C3.79261 25.8154 1.18948 23.2123 1.18948 20.0029C1.18948 16.7936 3.79261 14.1904 7.00198 14.1904C10.2114 14.1904 12.8145 16.7936 12.8145 20.0029C12.8145 23.2123 10.2114 25.8154 7.00198 25.8154Z" fill="black" fill-opacity="0.25"/>
<path d="M9.73179 21.9796L7.50367 20.3687V16.5015C7.50367 16.4327 7.44742 16.3765 7.37867 16.3765H6.62711C6.55836 16.3765 6.50211 16.4327 6.50211 16.5015V20.8046C6.50211 20.8452 6.52086 20.8827 6.55367 20.9062L9.13804 22.7905C9.19429 22.8312 9.27242 22.8187 9.31304 22.764L9.75992 22.1546C9.80054 22.0968 9.78804 22.0187 9.73179 21.9796Z" fill="black" fill-opacity="0.25"/>
</g>
<defs>
<clipPath id="clip0_1225_16680">
<rect width="14" height="40" fill="white"/>
</clipPath>
</defs>
</svg>
