<svg width="150" height="150" viewBox="0 0 150 150" fill="none" xmlns="http://www.w3.org/2000/svg">
<path d="M50 76.25H93.75" stroke="#292D32" stroke-width="1.5" stroke-miterlimit="10" stroke-linecap="round" stroke-linejoin="round"/>
<path d="M50 101.25H77.375" stroke="#292D32" stroke-width="1.5" stroke-miterlimit="10" stroke-linecap="round" stroke-linejoin="round"/>
<path d="M62.5 37.5H87.5C100 37.5 100 31.25 100 25C100 12.5 93.75 12.5 87.5 12.5H62.5C56.25 12.5 50 12.5 50 25C50 37.5 56.25 37.5 62.5 37.5Z" stroke="#292D32" stroke-width="1.5" stroke-miterlimit="10" stroke-linecap="round" stroke-linejoin="round"/>
<path d="M100 25.125C120.812 26.25 131.25 33.9375 131.25 62.5V100C131.25 125 125 137.5 93.75 137.5H56.25C25 137.5 18.75 125 18.75 100V62.5C18.75 34 29.1875 26.25 50 25.125" stroke="#292D32" stroke-width="1.5" stroke-miterlimit="10" stroke-linecap="round" stroke-linejoin="round"/>
</svg>
