<svg width="32" height="33" viewBox="0 0 32 33" fill="none" xmlns="http://www.w3.org/2000/svg">
<rect y="0.5" width="32" height="32" rx="16" fill="#714DD9"/>
<path d="M13.4546 21.5922H13.0909C10.1818 21.5922 8.72729 20.8649 8.72729 17.2285V13.5922C8.72729 10.6831 10.1818 9.22852 13.0909 9.22852H18.9091C21.8182 9.22852 23.2727 10.6831 23.2727 13.5922V17.2285C23.2727 20.1376 21.8182 21.5922 18.9091 21.5922H18.5455C18.32 21.5922 18.1018 21.7012 17.9637 21.8831L16.8727 23.3376C16.3927 23.9776 15.6073 23.9776 15.1273 23.3376L14.0364 21.8831C13.92 21.7231 13.6509 21.5922 13.4546 21.5922Z" stroke="white" stroke-width="1.09091" stroke-miterlimit="10" stroke-linecap="round" stroke-linejoin="round"/>
<path d="M18.9065 15.7738H18.913" stroke="white" stroke-width="1.45455" stroke-linecap="round" stroke-linejoin="round"/>
<path d="M15.9967 15.7738H16.0033" stroke="white" stroke-width="1.45455" stroke-linecap="round" stroke-linejoin="round"/>
<path d="M13.0869 15.7738H13.0935" stroke="white" stroke-width="1.45455" stroke-linecap="round" stroke-linejoin="round"/>
</svg>
