<svg width="80" height="80" viewBox="0 0 80 80" fill="none" xmlns="http://www.w3.org/2000/svg">
<path d="M26.0233 37.371C25.7392 37.3385 25.3983 37.3385 25.0858 37.371C18.3244 37.1112 12.9551 30.7801 12.9551 22.9879C12.9551 15.0333 18.5801 8.57227 25.5687 8.57227C32.5289 8.57227 38.1823 15.0333 38.1823 22.9879C38.1539 30.7801 32.7846 37.1112 26.0233 37.371Z" stroke="#714DD9" stroke-width="1.5" stroke-linecap="round" stroke-linejoin="round"/>
<path d="M26.0233 37.371C25.7392 37.3385 25.3983 37.3385 25.0858 37.371C18.3244 37.1112 12.9551 30.7801 12.9551 22.9879C12.9551 15.0333 18.5801 8.57227 25.5687 8.57227C32.5289 8.57227 38.1823 15.0333 38.1823 22.9879C38.1539 30.7801 32.7846 37.1112 26.0233 37.371Z" stroke="black" stroke-opacity="0.2" stroke-width="1.5" stroke-linecap="round" stroke-linejoin="round"/>
<path d="M46.6193 15.0645C52.1307 15.0645 56.5625 20.1619 56.5625 26.4281C56.5625 32.5645 52.3011 37.5645 46.9886 37.7917C46.7614 37.7593 46.5057 37.7593 46.25 37.7917" stroke="#714DD9" stroke-width="1.5" stroke-linecap="round" stroke-linejoin="round"/>
<path d="M46.6193 15.0645C52.1307 15.0645 56.5625 20.1619 56.5625 26.4281C56.5625 32.5645 52.3011 37.5645 46.9886 37.7917C46.7614 37.7593 46.5057 37.7593 46.25 37.7917" stroke="black" stroke-opacity="0.2" stroke-width="1.5" stroke-linecap="round" stroke-linejoin="round"/>
<path d="M11.8184 49.3507C4.94336 54.6104 4.94336 63.1819 11.8184 68.4091C19.6309 74.3832 32.4434 74.3832 40.2559 68.4091C47.1309 63.1494 47.1309 54.578 40.2559 49.3507C32.4718 43.4091 19.6593 43.4091 11.8184 49.3507Z" stroke="#714DD9" stroke-width="1.5" stroke-linecap="round" stroke-linejoin="round"/>
<path d="M11.8184 49.3507C4.94336 54.6104 4.94336 63.1819 11.8184 68.4091C19.6309 74.3832 32.4434 74.3832 40.2559 68.4091C47.1309 63.1494 47.1309 54.578 40.2559 49.3507C32.4718 43.4091 19.6593 43.4091 11.8184 49.3507Z" stroke="black" stroke-opacity="0.2" stroke-width="1.5" stroke-linecap="round" stroke-linejoin="round"/>
<path d="M52.1016 67.0137C54.147 66.5267 56.0788 65.5851 57.6697 64.189C62.1016 60.3903 62.1016 54.1241 57.6697 50.3254C56.1072 48.9618 54.2038 48.0527 52.1868 47.5332" stroke="#714DD9" stroke-width="1.5" stroke-linecap="round" stroke-linejoin="round"/>
<path d="M52.1016 67.0137C54.147 66.5267 56.0788 65.5851 57.6697 64.189C62.1016 60.3903 62.1016 54.1241 57.6697 50.3254C56.1072 48.9618 54.2038 48.0527 52.1868 47.5332" stroke="black" stroke-opacity="0.2" stroke-width="1.5" stroke-linecap="round" stroke-linejoin="round"/>
<path d="M72.1199 2.25195H64.2411C60.3017 2.25195 58.332 4.50304 58.332 9.0052V23.6372C58.332 24.2563 58.7752 24.7628 59.3169 24.7628H72.1199C76.0593 24.7628 78.029 22.5117 78.029 18.0095V9.0052C78.029 4.50304 76.0593 2.25195 72.1199 2.25195Z" stroke="#714DD9" stroke-width="1.5" stroke-linecap="round" stroke-linejoin="round"/>
<path d="M72.1199 2.25195H64.2411C60.3017 2.25195 58.332 4.50304 58.332 9.0052V23.6372C58.332 24.2563 58.7752 24.7628 59.3169 24.7628H72.1199C76.0593 24.7628 78.029 22.5117 78.029 18.0095V9.0052C78.029 4.50304 76.0593 2.25195 72.1199 2.25195Z" stroke="black" stroke-opacity="0.2" stroke-width="1.5" stroke-linecap="round" stroke-linejoin="round"/>
<path d="M63.2578 10.6934H73.1063" stroke="#714DD9" stroke-width="1.5" stroke-miterlimit="10" stroke-linecap="round" stroke-linejoin="round"/>
<path d="M63.2578 10.6934H73.1063" stroke="black" stroke-opacity="0.2" stroke-width="1.5" stroke-miterlimit="10" stroke-linecap="round" stroke-linejoin="round"/>
<path d="M63.2578 16.3203H70.1518" stroke="#714DD9" stroke-width="1.5" stroke-miterlimit="10" stroke-linecap="round" stroke-linejoin="round"/>
<path d="M63.2578 16.3203H70.1518" stroke="black" stroke-opacity="0.2" stroke-width="1.5" stroke-miterlimit="10" stroke-linecap="round" stroke-linejoin="round"/>
</svg>
