<svg width="176" height="154" viewBox="0 0 176 154" fill="none" xmlns="http://www.w3.org/2000/svg">
<path d="M57.25 71.9375C56.625 71.875 55.875 71.875 55.1875 71.9375C40.3125 71.4375 28.5 59.25 28.5 44.25C28.5 28.9375 40.875 16.5 56.25 16.5C71.5625 16.5 84 28.9375 84 44.25C83.9375 59.25 72.125 71.4375 57.25 71.9375Z" stroke="#292D32" stroke-width="1.5" stroke-linecap="round" stroke-linejoin="round"/>
<path d="M102.562 29C114.687 29 124.437 38.8125 124.437 50.875C124.437 62.6875 115.063 72.3125 103.375 72.75C102.875 72.6875 102.312 72.6875 101.75 72.75" stroke="#292D32" stroke-width="1.5" stroke-linecap="round" stroke-linejoin="round"/>
<path d="M26 95C10.875 105.125 10.875 121.625 26 131.688C43.1875 143.188 71.375 143.188 88.5625 131.688C103.688 121.563 103.688 105.063 88.5625 95C71.4375 83.5625 43.25 83.5625 26 95Z" stroke="#292D32" stroke-width="1.5" stroke-linecap="round" stroke-linejoin="round"/>
<path d="M114.625 129C119.125 128.062 123.375 126.25 126.875 123.562C136.625 116.25 136.625 104.187 126.875 96.875C123.437 94.25 119.25 92.5 114.813 91.5" stroke="#292D32" stroke-width="1.5" stroke-linecap="round" stroke-linejoin="round"/>
<path d="M158.667 4.3335H141.334C132.667 4.3335 128.334 8.66683 128.334 17.3335V45.5002C128.334 46.6918 129.309 47.6668 130.501 47.6668H158.667C167.334 47.6668 171.667 43.3335 171.667 34.6668V17.3335C171.667 8.66683 167.334 4.3335 158.667 4.3335Z" stroke="#292D32" stroke-width="1.5" stroke-linecap="round" stroke-linejoin="round"/>
<path d="M139.166 20.5835H160.833" stroke="#292D32" stroke-width="1.5" stroke-miterlimit="10" stroke-linecap="round" stroke-linejoin="round"/>
<path d="M139.166 31.417H154.333" stroke="#292D32" stroke-width="1.5" stroke-miterlimit="10" stroke-linecap="round" stroke-linejoin="round"/>
</svg>
