<svg width="129" height="33" viewBox="0 0 129 33" fill="none" xmlns="http://www.w3.org/2000/svg">
<g clip-path="url(#clip0_950_56774)">
<path d="M11.9303 19.6345L21.6939 3.98173C22.0836 3.35705 23.0085 3.40573 23.3304 4.06787L27.0717 11.7631C27.4263 12.4924 27.2711 13.3672 26.6873 13.9301L16.2776 23.9653L11.9303 19.6345Z" fill="#F7941F"/>
<path fill-rule="evenodd" clip-rule="evenodd" d="M7.56087 30.5348L1.91002 16.2439C1.7189 15.7605 1.95803 15.214 2.44274 15.0264L5.30715 13.9176C5.66186 13.7803 6.06438 13.8712 6.32564 14.1477L15.6372 23.9999C15.7109 24.0778 15.7491 24.1827 15.7427 24.2897L9.08935 30.8568C8.61167 31.3283 7.80767 31.1589 7.56087 30.5348Z" fill="#5D21E6"/>
<path d="M1.91002 16.2439L1.91932 16.2402L1.91002 16.2439ZM7.56087 30.5348L7.57017 30.5311L7.56087 30.5348ZM2.44274 15.0264L2.43913 15.0171L2.44274 15.0264ZM5.30715 13.9176L5.30354 13.9083L5.30715 13.9176ZM6.32564 14.1477L6.33291 14.1408L6.32564 14.1477ZM15.6372 23.9999L15.6445 23.993L15.6372 23.9999ZM15.7427 24.2897L15.7522 24.2992L15.7527 24.2903L15.7427 24.2897ZM9.08935 30.8568L9.09637 30.864L9.08935 30.8568ZM1.90072 16.2476L7.55158 30.5384L7.57017 30.5311L1.91932 16.2402L1.90072 16.2476ZM2.43913 15.0171C1.94924 15.2067 1.70756 15.7591 1.90072 16.2476L1.91932 16.2402C1.73024 15.762 1.96682 15.2214 2.44635 15.0357L2.43913 15.0171ZM5.30354 13.9083L2.43913 15.0171L2.44635 15.0357L5.31076 13.9269L5.30354 13.9083ZM6.33291 14.1408C6.06886 13.8614 5.66204 13.7695 5.30354 13.9083L5.31076 13.9269C5.66168 13.7911 6.05991 13.881 6.31838 14.1545L6.33291 14.1408ZM15.6445 23.993L6.33291 14.1408L6.31838 14.1545L15.63 24.0068L15.6445 23.993ZM15.7527 24.2903C15.7592 24.1805 15.72 24.0729 15.6445 23.993L15.63 24.0068C15.7017 24.0827 15.7389 24.1848 15.7328 24.2891L15.7527 24.2903ZM9.09637 30.864L15.7498 24.2968L15.7357 24.2826L9.08232 30.8497L9.09637 30.864ZM7.55158 30.5384C7.80101 31.1692 8.6136 31.3405 9.09637 30.864L9.08232 30.8497C8.60975 31.3162 7.81434 31.1486 7.57017 30.5311L7.55158 30.5384Z" fill="#5D21E6"/>
</g>
<path d="M41.9849 26V11.768H36.5369V8.72H50.6969V11.768H45.2489V26H41.9849ZM53.8253 26V8.72H57.0893V26H53.8253ZM69.0629 26.36C67.3349 26.36 65.8429 25.984 64.5869 25.232C63.3389 24.48 62.3749 23.428 61.6949 22.076C61.0229 20.724 60.6869 19.152 60.6869 17.36C60.6869 15.568 61.0229 13.996 61.6949 12.644C62.3749 11.292 63.3389 10.24 64.5869 9.488C65.8429 8.736 67.3349 8.36 69.0629 8.36C71.0469 8.36 72.7109 8.852 74.0549 9.836C75.4069 10.82 76.3589 12.152 76.9109 13.832L73.6229 14.744C73.3029 13.696 72.7629 12.884 72.0029 12.308C71.2429 11.724 70.2629 11.432 69.0629 11.432C67.9669 11.432 67.0509 11.676 66.3149 12.164C65.5869 12.652 65.0389 13.34 64.6709 14.228C64.3029 15.116 64.1189 16.16 64.1189 17.36C64.1189 18.56 64.3029 19.604 64.6709 20.492C65.0389 21.38 65.5869 22.068 66.3149 22.556C67.0509 23.044 67.9669 23.288 69.0629 23.288C70.2629 23.288 71.2429 22.996 72.0029 22.412C72.7629 21.828 73.3029 21.016 73.6229 19.976L76.9109 20.888C76.3589 22.568 75.4069 23.9 74.0549 24.884C72.7109 25.868 71.0469 26.36 69.0629 26.36ZM80.5131 26V8.72H83.7771V16.688L90.3531 8.72H94.3371L87.1131 17.24L94.7931 26H90.6651L83.7771 18.128V26H80.5131ZM97.4341 26V8.72H108.714V11.768H100.698V15.464H107.274V18.512H100.698V22.952H108.714V26H97.4341ZM112.55 26V8.72H118.142C118.278 8.72 118.558 8.724 118.982 8.732C119.406 8.74 119.814 8.768 120.206 8.816C121.598 8.984 122.778 9.468 123.746 10.268C124.714 11.068 125.45 12.084 125.954 13.316C126.458 14.548 126.71 15.896 126.71 17.36C126.71 18.824 126.458 20.172 125.954 21.404C125.45 22.636 124.714 23.652 123.746 24.452C122.778 25.252 121.598 25.736 120.206 25.904C119.814 25.952 119.406 25.98 118.982 25.988C118.558 25.996 118.278 26 118.142 26H112.55ZM115.862 22.928H118.142C118.358 22.928 118.65 22.924 119.018 22.916C119.386 22.9 119.718 22.864 120.014 22.808C120.766 22.656 121.378 22.304 121.85 21.752C122.33 21.2 122.682 20.536 122.906 19.76C123.138 18.984 123.254 18.184 123.254 17.36C123.254 16.496 123.134 15.676 122.894 14.9C122.662 14.124 122.306 13.468 121.826 12.932C121.346 12.396 120.742 12.056 120.014 11.912C119.718 11.848 119.386 11.812 119.018 11.804C118.65 11.796 118.358 11.792 118.142 11.792H115.862V22.928Z" fill="#333333"/>
<defs>
<clipPath id="clip0_950_56774">
<rect width="32.8184" height="28.2986" fill="white" transform="translate(0 32.9102) rotate(-90)"/>
</clipPath>
</defs>
</svg>
