<svg width="150" height="150" viewBox="0 0 150 150" fill="none" xmlns="http://www.w3.org/2000/svg">
<path d="M137.312 114.562C137.312 116.812 136.812 119.125 135.75 121.375C134.687 123.625 133.313 125.75 131.5 127.75C128.438 131.125 125.062 133.563 121.25 135.125C117.5 136.688 113.438 137.5 109.063 137.5C102.688 137.5 95.875 136 88.6875 132.938C81.5 129.875 74.3125 125.75 67.1875 120.563C60 115.313 53.1875 109.5 46.6875 103.062C40.25 96.5625 34.4375 89.75 29.25 82.625C24.125 75.5 20 68.375 17 61.3125C14 54.1875 12.5 47.375 12.5 40.875C12.5 36.625 13.25 32.5625 14.75 28.8125C16.25 25 18.625 21.5 21.9375 18.375C25.9375 14.4375 30.3125 12.5 34.9375 12.5C36.6875 12.5 38.4375 12.875 40 13.625C41.625 14.375 43.0625 15.5 44.1875 17.125L58.6875 37.5625C59.8125 39.125 60.625 40.5625 61.1875 41.9375C61.75 43.25 62.0625 44.5625 62.0625 45.75C62.0625 47.25 61.625 48.75 60.75 50.1875C59.9375 51.625 58.75 53.125 57.25 54.625L52.5 59.5625C51.8125 60.25 51.5 61.0625 51.5 62.0625C51.5 62.5625 51.5625 63 51.6875 63.5C51.875 64 52.0625 64.375 52.1875 64.75C53.3125 66.8125 55.25 69.5 58 72.75C60.8125 76 63.8125 79.3125 67.0625 82.625C70.4375 85.9375 73.6875 89 77 91.8125C80.25 94.5625 82.9375 96.4375 85.0625 97.5625C85.375 97.6875 85.75 97.875 86.1875 98.0625C86.6875 98.25 87.1875 98.3125 87.75 98.3125C88.8125 98.3125 89.625 97.9375 90.3125 97.25L95.0625 92.5625C96.625 91 98.125 89.8125 99.5625 89.0625C101 88.1875 102.437 87.75 104 87.75C105.187 87.75 106.438 88 107.812 88.5625C109.187 89.125 110.625 89.9375 112.188 91L132.875 105.687C134.5 106.812 135.625 108.125 136.312 109.687C136.937 111.25 137.312 112.812 137.312 114.562Z" stroke="#292D32" stroke-width="1.5" stroke-miterlimit="10"/>
</svg>
