<svg width="80" height="80" viewBox="0 0 80 80" fill="none" xmlns="http://www.w3.org/2000/svg">
<path d="M73.2327 61.0994C73.2327 62.2994 72.966 63.5327 72.3993 64.7327C71.8327 65.9327 71.0994 67.066 70.1327 68.1327C68.4994 69.9327 66.6994 71.2327 64.666 72.066C62.666 72.8994 60.4994 73.3327 58.166 73.3327C54.766 73.3327 51.1327 72.5327 47.2993 70.8994C43.466 69.266 39.6327 67.066 35.8327 64.2994C31.9994 61.4994 28.366 58.3994 24.8993 54.966C21.466 51.4994 18.366 47.866 15.5993 44.066C12.866 40.266 10.666 36.466 9.06602 32.6994C7.46602 28.8994 6.66602 25.266 6.66602 21.7993C6.66602 19.5327 7.06602 17.366 7.86602 15.366C8.66602 13.3327 9.93268 11.466 11.6993 9.79935C13.8327 7.69935 16.166 6.66602 18.6327 6.66602C19.566 6.66602 20.4993 6.86602 21.3327 7.26602C22.1993 7.66602 22.966 8.26602 23.566 9.13268L31.2994 20.0327C31.8994 20.866 32.3327 21.6327 32.6327 22.366C32.9327 23.066 33.0994 23.766 33.0994 24.3994C33.0994 25.1994 32.866 25.9993 32.3994 26.766C31.966 27.5327 31.3327 28.3327 30.5327 29.1327L27.9993 31.766C27.6327 32.1327 27.466 32.566 27.466 33.0994C27.466 33.366 27.4994 33.5993 27.566 33.866C27.666 34.1327 27.766 34.3327 27.8327 34.5327C28.4327 35.6327 29.466 37.066 30.9327 38.7994C32.4327 40.5327 34.0327 42.2994 35.766 44.066C37.566 45.8327 39.2993 47.466 41.066 48.966C42.7993 50.4327 44.2327 51.4327 45.366 52.0327C45.5327 52.0993 45.7327 52.1993 45.966 52.2993C46.2327 52.3993 46.4994 52.4327 46.7994 52.4327C47.366 52.4327 47.7994 52.2327 48.166 51.866L50.6994 49.366C51.5327 48.5327 52.3327 47.8994 53.0994 47.4994C53.866 47.0327 54.6327 46.7994 55.466 46.7994C56.0993 46.7994 56.766 46.9327 57.4994 47.2327C58.2327 47.5327 58.9994 47.966 59.8327 48.5327L70.866 56.366C71.7327 56.966 72.3327 57.666 72.6994 58.4993C73.0327 59.3327 73.2327 60.166 73.2327 61.0994Z" stroke="#37E288" stroke-width="1.5" stroke-miterlimit="10"/>
</svg>
