<svg width="24" height="24" viewBox="0 0 24 24" fill="none" xmlns="http://www.w3.org/2000/svg">
<path d="M8.09 11.63H3.4C3.48 6.95997 4.4 6.18997 7.27 4.48997C7.6 4.28997 7.71 3.86997 7.51 3.52997C7.32 3.19997 6.89 3.08997 6.56 3.28997C3.18 5.28997 2 6.50997 2 12.32V17.71C2 19.42 3.39 20.8 5.09 20.8H8.09C9.85 20.8 11.18 19.47 11.18 17.71V14.71C11.18 12.96 9.85 11.63 8.09 11.63Z" fill="#714DD9"/>
<path d="M18.9105 11.63H14.2205C14.3005 6.95997 15.2205 6.18997 18.0905 4.48997C18.4205 4.28997 18.5305 3.86997 18.3305 3.52997C18.1305 3.19997 17.7105 3.08997 17.3705 3.28997C13.9905 5.28997 12.8105 6.50997 12.8105 12.33V17.72C12.8105 19.43 14.2005 20.81 15.9005 20.81H18.9005C20.6605 20.81 21.9905 19.48 21.9905 17.72V14.72C22.0005 12.96 20.6705 11.63 18.9105 11.63Z" fill="#714DD9"/>
</svg>
