<svg width="24" height="24" viewBox="0 0 24 24" fill="none" xmlns="http://www.w3.org/2000/svg">
<path d="M15.9101 12.3699H20.6001C20.5201 17.0399 19.6001 17.8099 16.7301 19.5099C16.4001 19.7099 16.2901 20.1299 16.4901 20.4699C16.6901 20.7999 17.1101 20.9099 17.4501 20.7099C20.8301 18.7099 22.0101 17.4899 22.0101 11.6699V6.27994C22.0101 4.56994 20.6201 3.18994 18.9201 3.18994H15.9201C14.1601 3.18994 12.8301 4.51994 12.8301 6.27994V9.27994C12.8201 11.0399 14.1501 12.3699 15.9101 12.3699Z" fill="#714DD9"/>
<path d="M5.09 12.3699H9.78C9.7 17.0399 8.78 17.8099 5.91 19.5099C5.58 19.7099 5.47 20.1299 5.67 20.4699C5.87 20.7999 6.29 20.9099 6.63 20.7099C10.01 18.7099 11.19 17.4899 11.19 11.6699V6.27994C11.19 4.56994 9.8 3.18994 8.1 3.18994H5.1C3.33 3.18994 2 4.51994 2 6.27994V9.27994C2 11.0399 3.33 12.3699 5.09 12.3699Z" fill="#714DD9"/>
</svg>
