<svg width="28" height="28" viewBox="0 0 28 28" fill="none" xmlns="http://www.w3.org/2000/svg">
<path fill-rule="evenodd" clip-rule="evenodd" d="M27.3327 14.0013C27.3327 21.3651 21.3631 27.3346 13.9993 27.3346C6.63555 27.3346 0.666016 21.3651 0.666016 14.0013C0.666016 6.63751 6.63555 0.667969 13.9993 0.667969C21.3631 0.667969 27.3327 6.63751 27.3327 14.0013ZM7.86601 15.6013C8.45326 15.1609 9.28559 15.2781 9.72849 15.8624L9.73468 15.8703C9.74262 15.8803 9.7577 15.8991 9.77976 15.9254C9.82397 15.9781 9.8956 16.0602 9.99325 16.1621C10.1896 16.367 10.4848 16.6451 10.8669 16.923C11.6363 17.4826 12.7001 18.0013 13.9993 18.0013C15.2986 18.0013 16.3624 17.4826 17.1318 16.923C17.5139 16.6451 17.809 16.367 18.0054 16.1621C18.1031 16.0602 18.1747 15.9781 18.2189 15.9254C18.241 15.8991 18.2561 15.8803 18.264 15.8703L18.2702 15.8624C18.7131 15.2781 19.5454 15.1609 20.1327 15.6013C20.7218 16.0431 20.8412 16.8789 20.3993 17.468L19.3327 16.668C20.3993 17.468 20.3997 17.4675 20.3993 17.468L20.398 17.4698L20.3965 17.4718L20.3928 17.4766L20.3832 17.4892L20.3548 17.5255C20.3318 17.5546 20.3007 17.5931 20.2615 17.6397C20.1833 17.7329 20.0727 17.8591 19.9307 18.0072C19.648 18.3022 19.2348 18.6909 18.7002 19.0796C17.6363 19.8534 16.0334 20.668 13.9993 20.668C11.9653 20.668 10.3624 19.8534 9.29845 19.0796C8.76393 18.6909 8.35071 18.3022 8.06795 18.0072C7.92601 17.8591 7.81536 17.7329 7.73716 17.6397C7.69802 17.5931 7.66688 17.5546 7.6439 17.5255L7.6155 17.4892L7.60589 17.4766L7.60223 17.4718L7.60069 17.4698C7.60037 17.4693 7.59935 17.468 8.66602 16.668L7.59935 17.468C7.15752 16.8789 7.27691 16.0431 7.86601 15.6013ZM8.66601 10.0013C8.66601 9.26492 9.26297 8.66797 9.99935 8.66797H10.0127C10.7491 8.66797 11.346 9.26492 11.346 10.0013C11.346 10.7377 10.7491 11.3346 10.0127 11.3346H9.99935C9.26297 11.3346 8.66601 10.7377 8.66601 10.0013ZM17.9993 8.66797C17.263 8.66797 16.666 9.26492 16.666 10.0013C16.666 10.7377 17.263 11.3346 17.9993 11.3346H18.0127C18.7491 11.3346 19.346 10.7377 19.346 10.0013C19.346 9.26492 18.7491 8.66797 18.0127 8.66797H17.9993Z" fill="#D3D0D9"/>
</svg>
