<svg width="710" height="1024" viewBox="0 0 710 1024" fill="none" xmlns="http://www.w3.org/2000/svg">
<g clip-path="url(#clip0_4631_68350)">
<rect width="710" height="1024" fill="#714DD9"/>
<g clip-path="url(#clip1_4631_68350)">
<path fill-rule="evenodd" clip-rule="evenodd" d="M75.7018 9.98401L71.1257 -7.01066L49.1534 -1.09419L60.5066 -20.8145L45.2537 -29.5957L33.9005 -9.87537L27.984 -31.8477L10.9894 -27.2715L16.9058 -5.29926L-2.81425 -16.6525L-11.5958 -1.39952L8.12475 9.95359L-13.8477 15.8701L-9.27151 32.8648L12.7009 26.9483L1.34758 46.6688L16.6003 55.45L27.9536 35.7294L33.8701 57.7018L50.8648 53.1257L44.9483 31.1532L64.6687 42.5066L73.45 27.2538L53.7296 15.9005L75.7018 9.98401Z" fill="#714DD9"/>
<path fill-rule="evenodd" clip-rule="evenodd" d="M75.7018 9.98401L71.1257 -7.01066L49.1534 -1.09419L60.5066 -20.8145L45.2537 -29.5957L33.9005 -9.87537L27.984 -31.8477L10.9894 -27.2715L16.9058 -5.29926L-2.81425 -16.6525L-11.5958 -1.39952L8.12475 9.95359L-13.8477 15.8701L-9.27151 32.8648L12.7009 26.9483L1.34758 46.6688L16.6003 55.45L27.9536 35.7294L33.8701 57.7018L50.8648 53.1257L44.9483 31.1532L64.6687 42.5066L73.45 27.2538L53.7296 15.9005L75.7018 9.98401Z" fill="white" fill-opacity="0.8"/>
</g>
<g clip-path="url(#clip2_4631_68350)">
<path d="M293.001 83L298.121 98.68L309.001 111L293.001 107.64L277.001 111L287.881 98.68L293.001 83Z" fill="#714DD9"/>
<path d="M293.001 83L298.121 98.68L309.001 111L293.001 107.64L277.001 111L287.881 98.68L293.001 83Z" fill="black" fill-opacity="0.2"/>
</g>
<g clip-path="url(#clip3_4631_68350)">
<path fill-rule="evenodd" clip-rule="evenodd" d="M723.702 989.984L719.126 972.989L697.153 978.906L708.507 959.185L693.254 950.404L681.901 970.125L675.984 948.152L658.989 952.728L664.906 974.701L645.186 963.348L636.404 978.6L656.125 989.954L634.152 995.87L638.728 1012.86L660.701 1006.95L649.348 1026.67L664.6 1035.45L675.954 1015.73L681.87 1037.7L698.865 1033.13L692.948 1011.15L712.669 1022.51L721.45 1007.25L701.73 995.9L723.702 989.984Z" fill="#714DD9"/>
<path fill-rule="evenodd" clip-rule="evenodd" d="M723.702 989.984L719.126 972.989L697.153 978.906L708.507 959.185L693.254 950.404L681.901 970.125L675.984 948.152L658.989 952.728L664.906 974.701L645.186 963.348L636.404 978.6L656.125 989.954L634.152 995.87L638.728 1012.86L660.701 1006.95L649.348 1026.67L664.6 1035.45L675.954 1015.73L681.87 1037.7L698.865 1033.13L692.948 1011.15L712.669 1022.51L721.45 1007.25L701.73 995.9L723.702 989.984Z" fill="white" fill-opacity="0.8"/>
</g>
<rect x="-14" y="957" width="300" height="300" rx="150" fill="#714DD9"/>
<rect x="-14" y="957" width="300" height="300" rx="150" fill="black" fill-opacity="0.2"/>
<rect x="436" y="-203" width="300" height="300" rx="150" fill="#714DD9"/>
<rect x="436" y="-203" width="300" height="300" rx="150" fill="black" fill-opacity="0.2"/>
<path d="M526.095 363.291L520.373 365.336L517.917 357.858C513.406 344.068 499.027 336.745 485.815 341.401C472.602 346.057 465.569 361.18 470.08 374.97L472.536 382.448L466.791 384.504C464.6 385.354 462.821 387.015 461.824 389.142C460.826 391.27 460.687 393.7 461.435 395.927L477.358 444.586C477.689 445.689 478.238 446.714 478.972 447.6C479.707 448.487 480.612 449.216 481.634 449.746C482.656 450.276 483.774 450.595 484.922 450.684C486.069 450.773 487.223 450.63 488.315 450.265L547.619 429.052C549.839 428.204 551.643 426.528 552.652 424.377C553.662 422.225 553.797 419.767 553.031 417.518L537.096 368.858C536.757 367.759 536.2 366.739 535.458 365.859C534.716 364.98 533.805 364.259 532.778 363.739C531.751 363.219 530.63 362.912 529.482 362.835C528.334 362.758 527.182 362.913 526.095 363.291ZM480.892 371.07C479.676 367.484 479.894 363.567 481.501 360.139C483.109 356.71 485.98 354.037 489.515 352.679C491.26 352.082 493.108 351.843 494.948 351.975C496.787 352.108 498.582 352.61 500.223 353.451C501.865 354.292 503.32 355.455 504.503 356.871C505.685 358.286 506.57 359.926 507.105 361.691L509.55 369.169L483.337 378.548L480.892 371.07ZM514.228 414.251L518.295 426.674C518.37 426.923 518.345 427.191 518.228 427.423C518.11 427.655 517.907 427.832 517.662 427.918L511.961 429.952C511.734 430.015 511.492 429.987 511.285 429.876C511.078 429.764 510.922 429.576 510.85 429.352L506.75 416.984C504.489 416.861 502.319 416.05 500.532 414.66C498.745 413.27 497.425 411.367 496.749 409.206C495.782 406.349 495.959 403.229 497.241 400.499C498.523 397.769 500.811 395.641 503.627 394.56C505.017 394.085 506.489 393.895 507.954 394.001C509.42 394.107 510.849 394.507 512.156 395.176C513.464 395.846 514.623 396.772 515.565 397.9C516.507 399.027 517.213 400.333 517.639 401.739C518.354 403.934 518.413 406.29 517.809 408.518C517.205 410.747 515.965 412.75 514.239 414.284L514.228 414.251Z" fill="#F7941F"/>
<path d="M520.117 365.203C520.117 365.359 509.505 369.348 496.304 374.093C483.103 378.838 472.335 382.649 472.28 382.538C472.224 382.427 482.892 378.404 496.104 373.648C509.316 368.892 520.061 365.059 520.117 365.203Z" fill="#263238"/>
<path d="M532.718 367.248C532.767 367.344 532.808 367.445 532.84 367.548C532.929 367.77 533.029 368.059 533.162 368.415C533.451 369.226 533.851 370.348 534.351 371.748L538.618 384.172C540.396 389.439 542.519 395.684 544.874 402.617C545.986 406.095 547.297 409.718 548.519 413.529C549.173 415.493 549.456 417.562 549.353 419.63C549.258 420.705 548.952 421.751 548.452 422.708C547.918 423.661 547.205 424.503 546.352 425.186C544.636 426.439 542.73 427.411 540.707 428.064L534.985 430.12L524.151 433.998L505.805 440.531L493.415 444.887L490.081 445.999L489.192 446.287C489.097 446.33 488.996 446.356 488.892 446.365C488.892 446.365 488.981 446.365 489.17 446.232L490.037 445.887L493.37 444.632L505.694 440.098L524.006 433.431L534.818 429.519L540.541 427.453C542.506 426.826 544.356 425.884 546.019 424.664C546.813 424.03 547.477 423.249 547.975 422.363C548.445 421.479 548.729 420.507 548.808 419.508C548.91 417.515 548.639 415.522 548.008 413.629C546.808 409.851 545.541 406.195 544.397 402.717C542.085 395.772 539.952 389.505 538.263 384.238C536.574 378.971 535.151 374.738 534.174 371.76C533.707 370.304 533.351 369.17 533.062 368.348L532.796 367.459C532.762 367.392 532.736 367.321 532.718 367.248Z" fill="#263238"/>
<path d="M501.427 351.923C501.427 351.923 500.838 351.634 499.749 351.19C498.197 350.593 496.555 350.263 494.893 350.212C492.429 350.127 489.978 350.59 487.715 351.568C484.963 352.784 482.609 354.752 480.925 357.246C479.23 359.732 478.32 362.67 478.314 365.68C478.337 368.146 478.711 370.597 479.425 372.958C480.003 374.98 480.603 376.592 481.003 377.714C481.239 378.284 481.432 378.871 481.581 379.47C481.265 378.937 481.001 378.375 480.792 377.792C480.336 376.681 479.681 375.103 479.036 373.069C478.245 370.683 477.814 368.193 477.758 365.68C477.729 362.557 478.66 359.5 480.425 356.924C482.168 354.339 484.617 352.31 487.481 351.079C489.815 350.096 492.343 349.663 494.871 349.812C496.569 349.898 498.237 350.294 499.793 350.979C500.209 351.171 500.611 351.393 500.993 351.645C501.151 351.715 501.298 351.809 501.427 351.923Z" fill="#263238"/>
<path d="M501.705 413.349C501.882 413.242 502.068 413.149 502.26 413.071C502.817 412.82 503.393 412.616 503.983 412.46C504.919 412.184 505.885 412.019 506.861 411.971C508.187 411.9 509.515 412.1 510.761 412.56C513.606 413.56 516.217 416.46 517.506 420.338C518.124 422.42 518.124 424.636 517.506 426.717C516.821 428.975 515.592 431.032 513.928 432.706L513.995 432.406C515.472 436.462 517.084 440.862 518.75 445.451L518.851 445.729L518.573 445.829L516.028 446.674L510.472 448.529L510.194 448.618L510.105 448.341C508.583 443.74 506.916 439.451 505.661 435.24L505.905 435.428C503.733 435.248 501.661 434.433 499.949 433.084C498.4 431.891 497.129 430.374 496.227 428.639C495.412 427.101 495.006 425.379 495.049 423.639C495.1 421.86 495.544 420.115 496.349 418.528C497.154 416.941 498.3 415.552 499.705 414.46C500.283 413.991 500.932 413.616 501.627 413.349C500.999 413.721 500.391 414.126 499.805 414.56C498.262 415.866 497.079 417.545 496.371 419.438C495.763 420.866 495.479 422.41 495.538 423.961C495.598 425.511 496 427.029 496.715 428.406C497.603 430.074 498.843 431.53 500.349 432.673C501.983 433.955 503.957 434.728 506.027 434.895H506.216L506.272 435.062C507.494 439.195 509.172 443.518 510.717 448.141L510.35 447.963L515.906 446.107L518.439 445.251L518.262 445.629C516.606 441.04 515.006 436.629 513.539 432.573V432.406L513.672 432.273C515.288 430.668 516.492 428.697 517.184 426.528C517.773 424.537 517.773 422.418 517.184 420.427C515.973 416.694 513.472 413.86 510.761 412.86C509.561 412.397 508.28 412.182 506.994 412.227C506.034 412.249 505.08 412.379 504.149 412.616C502.494 413.027 501.716 413.405 501.705 413.349Z" fill="#263238"/>
<path d="M448.311 723.934L337.313 723.423C330.903 723.388 324.769 720.81 320.259 716.255C315.748 711.701 313.229 705.542 313.256 699.132L314.434 420.877C314.447 417.702 315.086 414.56 316.314 411.631C317.542 408.702 319.335 406.044 321.591 403.809C323.847 401.574 326.521 399.805 329.461 398.604C332.401 397.403 335.549 396.793 338.725 396.809L449.711 397.32C456.121 397.352 462.256 399.928 466.769 404.48C471.282 409.032 473.803 415.19 473.779 421.6L472.602 699.843C472.589 703.02 471.95 706.163 470.722 709.093C469.494 712.023 467.701 714.682 465.446 716.919C463.19 719.156 460.516 720.927 457.576 722.131C454.636 723.334 451.488 723.947 448.311 723.934Z" fill="#455A64"/>
<path d="M449.544 406.888H428.031C427.329 406.901 426.637 407.052 425.993 407.333C425.35 407.613 424.768 408.018 424.281 408.524C423.794 409.029 423.411 409.626 423.154 410.28C422.898 410.933 422.773 411.631 422.786 412.333V416.233C422.799 416.934 422.674 417.632 422.418 418.284C422.161 418.937 421.778 419.533 421.291 420.038C420.804 420.543 420.222 420.946 419.578 421.226C418.935 421.505 418.243 421.655 417.541 421.667L375.605 421.478C374.186 421.44 372.84 420.841 371.863 419.811C370.886 418.782 370.357 417.407 370.393 415.989V412.088C370.429 410.671 369.902 409.298 368.927 408.269C367.952 407.24 366.61 406.64 365.193 406.599H357.626L338.791 406.51C334.311 406.483 330.003 408.233 326.81 411.376C323.617 414.518 321.8 418.798 321.756 423.278L320.645 694.877C320.635 697.099 321.062 699.302 321.903 701.359C322.744 703.416 323.982 705.287 325.547 706.866C327.111 708.445 328.971 709.7 331.02 710.56C333.07 711.42 335.268 711.868 337.491 711.878L448.255 712.389C450.479 712.399 452.683 711.971 454.741 711.13C456.8 710.288 458.672 709.049 460.252 707.484C461.832 705.919 463.088 704.058 463.948 702.007C464.809 699.956 465.257 697.756 465.267 695.532L466.378 423.934C466.405 419.441 464.647 415.122 461.49 411.926C458.333 408.729 454.036 406.917 449.544 406.888Z" fill="white"/>
<path d="M434.644 676.153L352.282 675.797C351.426 675.797 350.737 674.864 350.748 673.73L350.837 652.184C350.837 651.073 351.537 650.117 352.393 650.117L434.755 650.495C435.229 650.577 435.653 650.839 435.939 651.226C436.224 651.613 436.35 652.096 436.288 652.573L436.21 674.097C436.21 675.241 435.499 676.164 434.644 676.153Z" fill="#F7941F"/>
<path d="M376.436 657.501C376.42 657.368 376.356 657.265 376.244 657.191C376.132 657.118 375.994 657.081 375.832 657.081C375.712 657.081 375.608 657.1 375.519 657.139C375.43 657.177 375.361 657.23 375.311 657.298C375.262 657.365 375.238 657.442 375.238 657.528C375.238 657.599 375.255 657.661 375.289 657.713C375.324 657.764 375.369 657.806 375.423 657.84C375.477 657.874 375.534 657.901 375.594 657.923C375.653 657.944 375.708 657.961 375.758 657.974L376.031 658.048C376.101 658.066 376.179 658.092 376.265 658.124C376.352 658.157 376.435 658.201 376.513 658.257C376.593 658.312 376.659 658.383 376.711 658.47C376.762 658.556 376.788 658.663 376.788 658.789C376.788 658.934 376.75 659.066 376.674 659.183C376.598 659.301 376.488 659.394 376.343 659.463C376.198 659.532 376.022 659.567 375.816 659.567C375.623 659.567 375.456 659.536 375.315 659.474C375.175 659.411 375.065 659.325 374.984 659.213C374.904 659.102 374.859 658.973 374.849 658.826H375.185C375.194 658.927 375.228 659.011 375.288 659.078C375.348 659.144 375.424 659.193 375.516 659.225C375.609 659.257 375.709 659.273 375.816 659.273C375.94 659.273 376.052 659.252 376.151 659.212C376.25 659.171 376.328 659.114 376.386 659.041C376.444 658.968 376.473 658.882 376.473 658.784C376.473 658.694 376.448 658.622 376.398 658.566C376.348 658.51 376.282 658.464 376.201 658.429C376.119 658.394 376.031 658.363 375.937 658.337L375.606 658.242C375.395 658.182 375.229 658.096 375.106 657.984C374.984 657.871 374.922 657.725 374.922 657.543C374.922 657.393 374.963 657.261 375.044 657.149C375.127 657.036 375.237 656.949 375.376 656.886C375.515 656.823 375.67 656.792 375.842 656.792C376.015 656.792 376.17 656.823 376.305 656.885C376.439 656.946 376.546 657.03 376.625 657.137C376.705 657.244 376.747 657.366 376.751 657.501H376.436ZM377.65 656.829V659.52H377.324V656.829H377.65ZM380.437 656.829V659.52H380.122L378.655 657.407H378.629V659.52H378.303V656.829H378.618L380.09 658.947H380.116V656.829H380.437ZM382.929 657.669C382.9 657.581 382.862 657.502 382.814 657.432C382.768 657.361 382.712 657.3 382.647 657.25C382.583 657.2 382.511 657.162 382.429 657.136C382.348 657.11 382.258 657.097 382.161 657.097C382.002 657.097 381.857 657.138 381.726 657.22C381.596 657.302 381.492 657.424 381.415 657.584C381.338 657.744 381.299 657.941 381.299 658.174C381.299 658.407 381.338 658.604 381.416 658.764C381.494 658.924 381.6 659.046 381.733 659.128C381.866 659.21 382.016 659.251 382.182 659.251C382.336 659.251 382.472 659.219 382.59 659.153C382.708 659.086 382.8 658.993 382.865 658.872C382.932 658.75 382.965 658.607 382.965 658.442L383.065 658.463H382.256V658.174H383.281V658.463C383.281 658.685 383.233 658.877 383.139 659.041C383.045 659.205 382.915 659.332 382.75 659.422C382.585 659.512 382.396 659.556 382.182 659.556C381.944 659.556 381.735 659.5 381.554 659.388C381.375 659.276 381.234 659.117 381.134 658.91C381.034 658.703 380.984 658.458 380.984 658.174C380.984 657.961 381.012 657.77 381.069 657.6C381.127 657.429 381.209 657.284 381.314 657.164C381.419 657.044 381.543 656.952 381.687 656.888C381.831 656.824 381.989 656.792 382.161 656.792C382.303 656.792 382.435 656.813 382.558 656.856C382.682 656.898 382.791 656.958 382.888 657.036C382.985 657.113 383.066 657.206 383.131 657.313C383.196 657.42 383.24 657.539 383.265 657.669H382.929ZM386.645 656.829H386.971V658.61C386.971 658.794 386.928 658.958 386.841 659.103C386.755 659.247 386.634 659.36 386.477 659.443C386.32 659.526 386.136 659.567 385.925 659.567C385.714 659.567 385.53 659.526 385.374 659.443C385.217 659.36 385.095 659.247 385.008 659.103C384.922 658.958 384.879 658.794 384.879 658.61V656.829H385.205V658.584C385.205 658.715 385.234 658.832 385.292 658.935C385.35 659.036 385.432 659.117 385.539 659.175C385.647 659.233 385.776 659.262 385.925 659.262C386.075 659.262 386.204 659.233 386.312 659.175C386.419 659.117 386.502 659.036 386.559 658.935C386.617 658.832 386.645 658.715 386.645 658.584V656.829ZM387.622 659.52V656.829H388.531C388.742 656.829 388.915 656.867 389.049 656.943C389.184 657.018 389.284 657.12 389.349 657.249C389.413 657.378 389.446 657.521 389.446 657.68C389.446 657.839 389.413 657.983 389.349 658.112C389.285 658.242 389.186 658.345 389.052 658.422C388.918 658.499 388.746 658.537 388.537 658.537H387.885V658.248H388.526C388.671 658.248 388.787 658.223 388.874 658.173C388.962 658.123 389.025 658.055 389.065 657.97C389.105 657.885 389.125 657.788 389.125 657.68C389.125 657.572 389.105 657.476 389.065 657.391C389.025 657.306 388.961 657.239 388.873 657.191C388.784 657.142 388.667 657.118 388.521 657.118H387.948V659.52H387.622Z" fill="#E8E8E3"/>
<path d="M368.709 486.727L340.13 486.598L340.106 491.842L368.686 491.972L368.709 486.727Z" fill="#F7941F"/>
<path opacity="0.1" d="M368.709 486.727L340.13 486.598L340.106 491.842L368.686 491.972L368.709 486.727Z" fill="black"/>
<path d="M452.489 518.929C452.713 518.906 452.934 518.854 453.145 518.773C453.452 518.653 453.72 518.449 453.916 518.183C454.113 517.918 454.23 517.603 454.256 517.273C454.256 515.507 454.256 512.929 454.256 509.617C454.256 507.962 454.256 506.106 454.256 504.061C454.256 503.561 454.256 503.039 454.256 502.517C454.328 502.01 454.218 501.494 453.945 501.061C453.792 500.853 453.593 500.684 453.363 500.567C453.134 500.449 452.88 500.386 452.622 500.383H450.889H434.832L341.892 500.039C341.654 500.035 341.418 500.088 341.206 500.195C340.993 500.301 340.809 500.457 340.669 500.65C340.401 501.085 340.298 501.601 340.38 502.106C340.38 503.217 340.38 504.328 340.38 505.439C340.38 507.662 340.38 509.884 340.38 512.106C340.38 513.217 340.38 514.329 340.38 515.44C340.334 515.957 340.334 516.478 340.38 516.996C340.439 517.217 340.547 517.423 340.697 517.596C340.848 517.77 341.036 517.906 341.247 517.996C341.466 518.083 341.7 518.124 341.936 518.118H347.592L372.272 518.251L414.053 518.507L442.222 518.729L449.878 518.818H451.867C452.322 518.818 452.545 518.818 452.545 518.818H451.867H449.878H442.222H414.053L372.272 518.685L347.592 518.585H341.936C341.625 518.597 341.314 518.544 341.025 518.429C340.732 518.304 340.472 518.114 340.264 517.873C340.056 517.633 339.906 517.348 339.825 517.04C339.76 516.748 339.738 516.449 339.758 516.151V515.329C339.758 514.218 339.758 513.106 339.758 511.995C339.758 509.773 339.758 507.55 339.758 505.328C339.758 504.217 339.758 503.106 339.758 501.994C339.737 501.698 339.737 501.401 339.758 501.105C339.8 500.779 339.926 500.468 340.125 500.205C340.316 499.937 340.57 499.719 340.864 499.57C341.158 499.421 341.484 499.346 341.814 499.35L434.754 499.861L450.811 499.972H452.545C452.85 499.972 453.151 500.046 453.422 500.187C453.692 500.329 453.925 500.533 454.1 500.783C454.413 501.266 454.54 501.847 454.456 502.417C454.456 502.939 454.456 503.461 454.456 503.961C454.456 505.984 454.456 507.839 454.456 509.517C454.456 512.851 454.378 515.407 454.356 517.184C454.329 517.526 454.204 517.853 453.998 518.127C453.791 518.401 453.51 518.609 453.189 518.729C452.979 518.859 452.736 518.929 452.489 518.929Z" fill="#E0E0E0"/>
<path d="M400.985 505.617H348.715V510.518H400.985V505.617Z" fill="#F7941F"/>
<path opacity="0.2" d="M400.985 505.617H348.715V510.518H400.985V505.617Z" fill="white"/>
<path d="M368.515 534.573L339.935 534.443L339.912 539.688L368.491 539.818L368.515 534.573Z" fill="#F7941F"/>
<path opacity="0.1" d="M368.515 534.573L339.935 534.443L339.912 539.688L368.491 539.818L368.515 534.573Z" fill="black"/>
<path d="M451.767 566.777C451.991 566.75 452.214 566.709 452.433 566.655C452.744 566.556 453.029 566.392 453.271 566.174C453.512 565.955 453.704 565.687 453.833 565.388C454.008 564.94 454.077 564.457 454.033 563.977C454.033 563.444 454.033 562.866 454.033 562.221C454.033 560.932 454.033 559.466 454.033 557.777V550.721C454.086 550.21 453.973 549.695 453.711 549.254C453.437 548.801 453.006 548.465 452.5 548.309C451.946 548.211 451.383 548.181 450.822 548.22H434.832L342.214 547.876C341.716 547.877 341.235 548.059 340.861 548.388C340.487 548.717 340.245 549.171 340.18 549.665C340.18 550.721 340.18 551.887 340.18 552.999C340.18 555.221 340.18 557.443 340.18 559.666C340.18 560.777 340.18 561.888 340.18 562.999C340.139 563.519 340.161 564.041 340.247 564.555C340.386 565.006 340.671 565.397 341.058 565.666C341.469 565.927 341.951 566.051 342.436 566.022H343.981H347.192L371.783 566.144L413.419 566.4L441.488 566.622L449.122 566.711H451.111H451.778H451.111H449.122H441.488H413.419L371.76 566.666L347.17 566.577H342.336C341.735 566.613 341.139 566.453 340.636 566.122C340.13 565.771 339.761 565.257 339.591 564.666C339.492 564.101 339.462 563.527 339.502 562.955C339.502 561.844 339.502 560.732 339.502 559.621C339.502 557.399 339.502 555.176 339.502 552.954C339.502 551.843 339.502 550.732 339.502 549.62C339.583 548.985 339.893 548.401 340.374 547.978C340.855 547.554 341.473 547.321 342.114 547.32L434.732 547.831L450.722 547.954C451.317 547.917 451.915 547.958 452.5 548.076C453.077 548.265 453.564 548.66 453.867 549.187C454.154 549.677 454.279 550.245 454.222 550.809C454.222 551.332 454.222 551.843 454.222 552.354C454.222 554.365 454.222 556.21 454.222 557.91C454.222 559.61 454.222 561.044 454.222 562.355C454.222 562.988 454.222 563.577 454.222 564.122C454.263 564.619 454.183 565.118 453.989 565.577C453.845 565.884 453.636 566.156 453.377 566.374C453.118 566.593 452.815 566.753 452.489 566.844C452.246 566.864 452.002 566.842 451.767 566.777Z" fill="#E0E0E0"/>
<path d="M368.3 584.499L339.72 584.369L339.696 589.614L368.276 589.744L368.3 584.499Z" fill="#F7941F"/>
<path opacity="0.1" d="M368.3 584.499L339.72 584.369L339.696 589.614L368.276 589.744L368.3 584.499Z" fill="black"/>
<path d="M451.545 616.682C451.769 616.655 451.992 616.614 452.211 616.559C452.52 616.461 452.805 616.298 453.046 616.082C453.288 615.865 453.48 615.6 453.612 615.304C453.786 614.855 453.854 614.372 453.812 613.892C453.812 613.348 453.812 612.781 453.812 612.126C453.812 610.848 453.812 609.37 453.812 607.681V600.625C453.865 600.114 453.752 599.6 453.489 599.158C453.209 598.713 452.78 598.383 452.278 598.225C451.725 598.122 451.162 598.088 450.6 598.125H434.61L341.992 597.78C341.494 597.781 341.013 597.963 340.639 598.292C340.265 598.621 340.023 599.075 339.958 599.569C339.958 600.68 339.958 601.792 339.958 602.903C339.958 605.125 339.958 607.348 339.958 609.57C339.958 610.681 339.958 611.792 339.958 612.904C339.917 613.419 339.939 613.938 340.025 614.448C340.158 614.901 340.445 615.294 340.836 615.559C341.244 615.826 341.728 615.951 342.214 615.915H347.048L371.639 616.048L413.275 616.304L441.344 616.526L448.978 616.615H450.967C451.411 616.615 451.634 616.615 451.634 616.615C451.634 616.615 451.411 616.615 450.967 616.615H448.978H441.344H413.275L371.639 616.493L347.048 616.393H342.214C341.613 616.433 341.015 616.273 340.514 615.937C340.008 615.587 339.639 615.073 339.469 614.481C339.37 613.917 339.34 613.342 339.381 612.77C339.381 611.659 339.381 610.548 339.381 609.437C339.381 607.214 339.381 604.992 339.381 602.769C339.381 601.658 339.381 600.547 339.381 599.38C339.459 598.746 339.767 598.162 340.246 597.738C340.724 597.315 341.341 597.081 341.981 597.08L434.599 597.591L450.589 597.713C451.185 597.677 451.782 597.718 452.367 597.836C452.944 598.024 453.431 598.42 453.734 598.947C454.021 599.436 454.146 600.004 454.089 600.569C454.089 601.091 454.089 601.614 454.089 602.114C454.089 604.125 454.089 605.97 454.089 607.67C454.089 609.37 454.089 610.803 454.089 612.115C454.089 612.748 454.089 613.337 454.089 613.881C454.132 614.378 454.052 614.878 453.856 615.337C453.712 615.644 453.503 615.916 453.244 616.134C452.985 616.353 452.682 616.513 452.356 616.604C452.095 616.693 451.817 616.72 451.545 616.682Z" fill="#E0E0E0"/>
<path d="M399.87 554.85L347.6 554.613L347.578 559.514L399.848 559.751L399.87 554.85Z" fill="#F7941F"/>
<path opacity="0.2" d="M399.87 554.85L347.6 554.613L347.578 559.514L399.848 559.751L399.87 554.85Z" fill="white"/>
<path d="M352.326 607.613C352.293 608.06 352.13 608.487 351.857 608.842C351.583 609.197 351.211 609.464 350.787 609.61C350.364 609.756 349.906 609.774 349.472 609.662C349.038 609.55 348.647 609.314 348.346 608.981C348.045 608.649 347.849 608.236 347.781 607.793C347.713 607.35 347.776 606.897 347.963 606.489C348.151 606.082 348.453 605.739 348.834 605.502C349.214 605.265 349.656 605.145 350.104 605.157C350.723 605.192 351.303 605.469 351.719 605.928C352.135 606.388 352.353 606.993 352.326 607.613Z" fill="#F7941F"/>
<path d="M359.405 607.648C359.426 607.961 359.384 608.275 359.279 608.571C359.174 608.867 359.009 609.139 358.795 609.368C358.581 609.598 358.322 609.781 358.034 609.906C357.746 610.032 357.435 610.096 357.121 610.096C356.807 610.096 356.496 610.032 356.208 609.906C355.92 609.781 355.661 609.598 355.447 609.368C355.233 609.139 355.068 608.867 354.963 608.571C354.859 608.275 354.816 607.961 354.838 607.648C354.816 607.334 354.859 607.02 354.963 606.724C355.068 606.428 355.233 606.157 355.447 605.927C355.661 605.697 355.92 605.514 356.208 605.389C356.496 605.264 356.807 605.199 357.121 605.199C357.435 605.199 357.746 605.264 358.034 605.389C358.322 605.514 358.581 605.697 358.795 605.927C359.009 606.157 359.174 606.428 359.279 606.724C359.384 607.02 359.426 607.334 359.405 607.648Z" fill="#F7941F"/>
<path d="M366.494 607.681C366.462 608.128 366.298 608.556 366.025 608.911C365.751 609.266 365.38 609.533 364.956 609.678C364.532 609.824 364.075 609.842 363.641 609.73C363.207 609.619 362.815 609.382 362.514 609.05C362.213 608.717 362.017 608.304 361.949 607.861C361.881 607.418 361.944 606.965 362.132 606.558C362.319 606.15 362.621 605.807 363.002 605.57C363.382 605.333 363.824 605.214 364.272 605.225C364.89 605.263 365.469 605.541 365.884 606C366.3 606.459 366.519 607.063 366.494 607.681Z" fill="#F7941F"/>
<path d="M373.572 607.712C373.54 608.159 373.376 608.587 373.103 608.942C372.829 609.297 372.458 609.564 372.034 609.71C371.61 609.855 371.153 609.873 370.719 609.762C370.285 609.65 369.893 609.413 369.592 609.081C369.292 608.749 369.095 608.335 369.027 607.892C368.959 607.449 369.023 606.996 369.21 606.589C369.397 606.182 369.699 605.838 370.08 605.602C370.46 605.365 370.902 605.245 371.35 605.257C371.968 605.294 372.547 605.572 372.962 606.031C373.378 606.49 373.597 607.094 373.572 607.712Z" fill="#F7941F"/>
<path d="M380.65 607.736C380.619 608.184 380.458 608.613 380.185 608.969C379.913 609.326 379.542 609.595 379.118 609.742C378.694 609.89 378.237 609.909 377.802 609.798C377.367 609.688 376.974 609.452 376.672 609.12C376.371 608.788 376.173 608.375 376.104 607.931C376.035 607.488 376.098 607.034 376.285 606.626C376.472 606.218 376.775 605.874 377.156 605.637C377.537 605.4 377.979 605.28 378.428 605.292C379.044 605.329 379.621 605.606 380.036 606.062C380.451 606.519 380.671 607.12 380.65 607.736Z" fill="#F7941F"/>
<path d="M387.74 607.769C387.71 608.214 387.55 608.641 387.28 608.997C387.011 609.352 386.643 609.621 386.222 609.771C385.802 609.92 385.346 609.943 384.913 609.837C384.479 609.731 384.086 609.5 383.782 609.174C383.478 608.847 383.275 608.439 383.2 607.999C383.125 607.559 383.18 607.107 383.359 606.697C383.537 606.288 383.832 605.94 384.205 605.696C384.579 605.452 385.016 605.323 385.462 605.324C386.088 605.347 386.679 605.618 387.106 606.076C387.533 606.534 387.761 607.143 387.74 607.769Z" fill="#F7941F"/>
<path d="M394.818 607.802C394.84 608.115 394.797 608.43 394.692 608.726C394.587 609.022 394.423 609.293 394.209 609.523C393.994 609.752 393.735 609.935 393.447 610.061C393.159 610.186 392.849 610.25 392.535 610.25C392.221 610.25 391.91 610.186 391.622 610.061C391.334 609.935 391.075 609.752 390.861 609.523C390.646 609.293 390.482 609.022 390.377 608.726C390.272 608.43 390.229 608.115 390.251 607.802C390.229 607.489 390.272 607.174 390.377 606.878C390.482 606.582 390.646 606.311 390.861 606.081C391.075 605.852 391.334 605.669 391.622 605.543C391.91 605.418 392.221 605.354 392.535 605.354C392.849 605.354 393.159 605.418 393.447 605.543C393.735 605.669 393.994 605.852 394.209 606.081C394.423 606.311 394.587 606.582 394.692 606.878C394.797 607.174 394.84 607.489 394.818 607.802Z" fill="#F7941F"/>
<path d="M401.896 607.835C401.866 608.281 401.706 608.707 401.436 609.063C401.167 609.419 400.799 609.688 400.378 609.837C399.958 609.986 399.502 610.009 399.069 609.903C398.635 609.797 398.242 609.567 397.938 609.24C397.634 608.914 397.431 608.505 397.356 608.065C397.281 607.625 397.336 607.173 397.515 606.764C397.693 606.355 397.988 606.007 398.361 605.763C398.735 605.519 399.172 605.389 399.618 605.391C400.244 605.414 400.835 605.684 401.262 606.142C401.689 606.601 401.917 607.209 401.896 607.835Z" fill="#F7941F"/>
<path d="M408.975 607.869C408.945 608.317 408.783 608.746 408.511 609.102C408.239 609.459 407.867 609.728 407.444 609.875C407.02 610.022 406.562 610.042 406.127 609.931C405.692 609.821 405.3 609.585 404.998 609.253C404.696 608.921 404.498 608.507 404.43 608.064C404.361 607.621 404.424 607.167 404.611 606.759C404.798 606.351 405.101 606.007 405.481 605.77C405.862 605.533 406.304 605.413 406.753 605.425C407.369 605.462 407.946 605.738 408.361 606.195C408.776 606.652 408.997 607.252 408.975 607.869Z" fill="#F7941F"/>
<g opacity="0.2">
<path d="M352.326 607.613C352.293 608.06 352.13 608.487 351.857 608.842C351.583 609.197 351.211 609.464 350.787 609.61C350.364 609.756 349.906 609.774 349.472 609.662C349.038 609.55 348.647 609.314 348.346 608.981C348.045 608.649 347.849 608.236 347.781 607.793C347.713 607.35 347.776 606.897 347.963 606.489C348.151 606.082 348.453 605.739 348.834 605.502C349.214 605.265 349.656 605.145 350.104 605.157C350.723 605.192 351.303 605.469 351.719 605.928C352.135 606.388 352.353 606.993 352.326 607.613Z" fill="white"/>
<path d="M359.404 607.646C359.426 607.959 359.383 608.273 359.279 608.569C359.174 608.865 359.009 609.137 358.795 609.366C358.581 609.596 358.322 609.779 358.034 609.904C357.746 610.03 357.435 610.094 357.121 610.094C356.807 610.094 356.496 610.03 356.208 609.904C355.92 609.779 355.661 609.596 355.447 609.366C355.233 609.137 355.068 608.865 354.963 608.569C354.858 608.273 354.815 607.959 354.837 607.646C354.815 607.332 354.858 607.018 354.963 606.722C355.068 606.426 355.233 606.155 355.447 605.925C355.661 605.695 355.92 605.512 356.208 605.387C356.496 605.262 356.807 605.197 357.121 605.197C357.435 605.197 357.746 605.262 358.034 605.387C358.322 605.512 358.581 605.695 358.795 605.925C359.009 606.155 359.174 606.426 359.279 606.722C359.383 607.018 359.426 607.332 359.404 607.646Z" fill="white"/>
<path d="M366.494 607.679C366.461 608.126 366.298 608.554 366.025 608.909C365.751 609.264 365.379 609.531 364.955 609.676C364.532 609.822 364.074 609.84 363.64 609.728C363.206 609.617 362.815 609.38 362.514 609.048C362.213 608.715 362.017 608.302 361.949 607.859C361.881 607.416 361.944 606.963 362.131 606.556C362.318 606.149 362.621 605.805 363.002 605.568C363.382 605.332 363.824 605.212 364.272 605.223C364.89 605.261 365.469 605.539 365.884 605.998C366.299 606.457 366.518 607.061 366.494 607.679Z" fill="white"/>
<path d="M373.572 607.712C373.539 608.159 373.376 608.587 373.103 608.942C372.829 609.297 372.457 609.564 372.034 609.71C371.61 609.855 371.152 609.873 370.718 609.762C370.284 609.65 369.893 609.413 369.592 609.081C369.291 608.749 369.095 608.335 369.027 607.892C368.959 607.449 369.022 606.996 369.209 606.589C369.397 606.182 369.699 605.838 370.08 605.602C370.46 605.365 370.902 605.245 371.35 605.257C371.968 605.294 372.547 605.572 372.962 606.031C373.378 606.49 373.597 607.094 373.572 607.712Z" fill="white"/>
<path d="M380.65 607.735C380.619 608.182 380.458 608.611 380.185 608.967C379.913 609.324 379.542 609.593 379.118 609.74C378.694 609.888 378.236 609.907 377.802 609.797C377.367 609.686 376.974 609.45 376.672 609.118C376.37 608.786 376.173 608.373 376.104 607.929C376.035 607.486 376.098 607.032 376.285 606.624C376.472 606.216 376.775 605.872 377.156 605.635C377.537 605.398 377.979 605.278 378.427 605.29C379.043 605.327 379.62 605.604 380.036 606.06C380.451 606.517 380.671 607.118 380.65 607.735Z" fill="white"/>
<path d="M387.74 607.769C387.71 608.214 387.55 608.641 387.28 608.997C387.01 609.352 386.643 609.621 386.222 609.771C385.801 609.92 385.346 609.943 384.913 609.837C384.479 609.731 384.086 609.5 383.782 609.174C383.477 608.847 383.275 608.439 383.2 607.999C383.125 607.559 383.18 607.107 383.358 606.697C383.537 606.288 383.831 605.94 384.205 605.696C384.579 605.452 385.016 605.323 385.462 605.324C386.088 605.347 386.679 605.618 387.106 606.076C387.533 606.534 387.761 607.143 387.74 607.769Z" fill="white"/>
<path d="M394.818 607.802C394.84 608.115 394.797 608.43 394.692 608.726C394.587 609.022 394.423 609.293 394.208 609.523C393.994 609.752 393.735 609.935 393.447 610.061C393.159 610.186 392.848 610.25 392.534 610.25C392.22 610.25 391.91 610.186 391.622 610.061C391.334 609.935 391.075 609.752 390.86 609.523C390.646 609.293 390.482 609.022 390.377 608.726C390.272 608.43 390.229 608.115 390.251 607.802C390.229 607.489 390.272 607.174 390.377 606.878C390.482 606.582 390.646 606.311 390.86 606.081C391.075 605.852 391.334 605.669 391.622 605.543C391.91 605.418 392.22 605.354 392.534 605.354C392.848 605.354 393.159 605.418 393.447 605.543C393.735 605.669 393.994 605.852 394.208 606.081C394.423 606.311 394.587 606.582 394.692 606.878C394.797 607.174 394.84 607.489 394.818 607.802Z" fill="white"/>
<path d="M401.896 607.835C401.866 608.281 401.706 608.707 401.436 609.063C401.166 609.419 400.799 609.688 400.378 609.837C399.957 609.986 399.502 610.009 399.069 609.903C398.635 609.797 398.242 609.567 397.938 609.24C397.633 608.914 397.431 608.505 397.356 608.065C397.281 607.625 397.336 607.173 397.514 606.764C397.693 606.355 397.987 606.007 398.361 605.763C398.735 605.519 399.172 605.389 399.618 605.391C400.244 605.414 400.835 605.684 401.262 606.142C401.689 606.601 401.917 607.209 401.896 607.835Z" fill="white"/>
<path d="M408.975 607.869C408.944 608.317 408.783 608.746 408.511 609.102C408.238 609.459 407.867 609.728 407.443 609.875C407.02 610.022 406.562 610.042 406.127 609.931C405.692 609.821 405.299 609.585 404.998 609.253C404.696 608.921 404.498 608.507 404.429 608.064C404.361 607.621 404.424 607.167 404.611 606.759C404.798 606.351 405.1 606.007 405.481 605.77C405.862 605.533 406.304 605.413 406.753 605.425C407.369 605.462 407.946 605.738 408.361 606.195C408.776 606.652 408.997 607.252 408.975 607.869Z" fill="white"/>
</g>
<path d="M398.919 447.457C399.691 447.117 400.345 446.557 400.802 445.848C401.258 445.139 401.496 444.311 401.486 443.468C401.514 442.919 401.431 442.371 401.241 441.856C401.051 441.341 400.758 440.87 400.38 440.472C400.002 440.073 399.547 439.756 399.043 439.539C398.539 439.323 397.995 439.211 397.446 439.211C396.897 439.211 396.354 439.323 395.85 439.539C395.345 439.756 394.89 440.073 394.512 440.472C394.134 440.87 393.841 441.341 393.651 441.856C393.461 442.371 393.378 442.919 393.407 443.468C393.39 444.319 393.626 445.157 394.085 445.875C394.544 446.593 395.205 447.159 395.985 447.501C389.762 448.435 390.04 455.191 390.04 455.191L404.752 455.257C404.752 455.257 405.097 448.379 398.919 447.457Z" fill="#F7941F"/>
<path opacity="0.1" d="M398.919 447.457C399.691 447.117 400.345 446.557 400.802 445.848C401.258 445.139 401.496 444.311 401.486 443.468C401.514 442.919 401.431 442.371 401.241 441.856C401.051 441.341 400.758 440.87 400.38 440.472C400.002 440.073 399.547 439.756 399.043 439.539C398.539 439.323 397.995 439.211 397.446 439.211C396.897 439.211 396.354 439.323 395.85 439.539C395.345 439.756 394.89 440.073 394.512 440.472C394.134 440.87 393.841 441.341 393.651 441.856C393.461 442.371 393.378 442.919 393.407 443.468C393.39 444.319 393.626 445.157 394.085 445.875C394.544 446.593 395.205 447.159 395.985 447.501C389.762 448.435 390.04 455.191 390.04 455.191L404.752 455.257C404.752 455.257 405.097 448.379 398.919 447.457Z" fill="black"/>
<path d="M422.826 459.615L370.389 459.377L370.361 465.644L422.798 465.882L422.826 459.615Z" fill="#F7941F"/>
<path opacity="0.2" d="M422.826 459.615L370.389 459.377L370.361 465.644L422.798 465.882L422.826 459.615Z" fill="white"/>
<path d="M519.241 489.598H518.719L517.207 489.709C516.39 489.758 515.576 489.866 514.774 490.031C514.254 490.104 513.739 490.204 513.229 490.331L511.507 490.809C508.575 491.708 505.81 493.078 503.317 494.865C500.025 497.255 497.275 500.315 495.25 503.843C494.06 505.877 493.112 508.044 492.428 510.299C491.708 512.75 491.294 515.281 491.194 517.833C491.128 519.174 491.15 520.518 491.261 521.856C491.261 522.534 491.45 523.211 491.539 523.9C491.614 524.595 491.744 525.282 491.928 525.956C492.927 530.415 494.954 534.579 497.848 538.115C500.742 541.652 504.423 544.463 508.596 546.324C511.616 547.628 514.853 548.355 518.141 548.469C521.536 548.656 524.935 548.168 528.142 547.035L529.119 546.669H529.253L529.364 546.735L543.376 553.847L542.965 554.203C541.465 549.558 540.02 545.058 538.62 540.735V540.568L538.742 540.446C542.142 537.022 544.665 532.829 546.099 528.223C547.397 524.011 547.776 519.57 547.21 515.2C546.706 511.316 545.457 507.565 543.532 504.154C541.872 501.225 539.731 498.595 537.198 496.376C535.108 494.62 532.795 493.148 530.32 491.998C528.446 491.19 526.495 490.576 524.497 490.164L522.274 489.798L520.663 489.676L519.685 489.609H519.352C519.463 489.597 519.575 489.597 519.685 489.609H520.674L522.286 489.676L524.508 489.998C526.531 490.379 528.509 490.971 530.408 491.765C532.927 492.901 535.281 494.369 537.409 496.132C539.988 498.341 542.175 500.971 543.876 503.91C545.856 507.357 547.144 511.158 547.665 515.1C548.279 519.538 547.926 524.056 546.632 528.345C545.189 533.048 542.627 537.33 539.165 540.824L539.231 540.535C540.631 544.858 542.087 549.358 543.598 553.992L543.809 554.669L543.176 554.347L529.164 547.247H529.408L528.408 547.613C525.14 548.763 521.678 549.262 518.219 549.08C514.86 548.952 511.555 548.198 508.473 546.858C502.595 544.34 497.704 539.964 494.55 534.401C493.099 531.832 492.039 529.06 491.405 526.178C491.232 525.487 491.102 524.786 491.017 524.078C490.928 523.378 490.783 522.689 490.75 522C490.449 518.046 490.867 514.071 491.983 510.266C492.685 507.98 493.659 505.786 494.884 503.732C496.957 500.171 499.764 497.092 503.117 494.698C505.651 492.907 508.463 491.548 511.44 490.676L513.185 490.231C513.698 490.112 514.218 490.019 514.741 489.953C515.551 489.803 516.372 489.714 517.196 489.687L518.719 489.631C518.892 489.608 519.066 489.597 519.241 489.598Z" fill="#F7941F"/>
<path d="M525.576 515.51H523.52L519.075 509.265V505.165C519.075 505.165 515.897 504.965 516.275 510.332C516.653 515.699 516.275 514.332 516.275 514.332C516.275 514.332 509.53 514.332 508.974 514.944C508.419 515.555 508.385 522.066 508.308 525.7C508.265 526.576 508.516 527.441 509.022 528.158C509.527 528.874 510.257 529.402 511.097 529.656C511.332 529.721 511.575 529.755 511.819 529.756C513.508 529.756 522.098 528.389 522.098 528.389H525.642L525.576 515.51Z" fill="#F7941F"/>
<path d="M531.453 514.41L530.187 528.456H526.675V514.699L531.453 514.41Z" fill="#F7941F"/>
<path d="M265.104 744.516V735.015L248.069 734.893L247.925 749.26L248.98 749.338C253.681 749.638 272.893 750.083 276.049 749.105C279.561 748.016 265.104 744.516 265.104 744.516Z" fill="#F7941F"/>
<path d="M276.449 748.215C276.449 748.37 270.071 748.504 262.215 748.504C254.358 748.504 247.98 748.37 247.98 748.215C247.98 748.059 254.358 747.926 262.215 747.926C270.071 747.926 276.449 748.059 276.449 748.215Z" fill="#263238"/>
<path d="M265.404 746.459C265.26 746.382 265.404 745.882 265.749 745.348C266.093 744.815 266.56 744.593 266.671 744.704C266.782 744.815 266.549 745.237 266.215 745.693C265.882 746.148 265.549 746.537 265.404 746.459Z" fill="#263238"/>
<path d="M266.493 747.082C266.337 747.082 266.415 746.46 266.748 745.871C267.082 745.282 267.526 744.927 267.648 745.016C267.771 745.104 267.571 745.604 267.259 746.127C266.948 746.649 266.637 747.138 266.493 747.082Z" fill="#263238"/>
<path d="M253.114 748.172C253.048 748.172 252.792 747.972 252.425 747.55C251.978 747.007 251.479 746.509 250.936 746.061C250.403 745.635 249.767 745.355 249.092 745.25C248.569 745.183 248.236 745.25 248.203 745.183C248.169 745.116 248.492 744.883 249.103 744.839C249.909 744.822 250.696 745.089 251.325 745.594C251.915 746.075 252.412 746.658 252.792 747.317C253.048 747.806 253.181 748.128 253.114 748.172Z" fill="#263238"/>
<path d="M265.46 744.67C265.537 744.804 265.248 745.137 264.759 745.315C264.271 745.493 263.837 745.426 263.815 745.315C263.793 745.204 264.137 744.97 264.559 744.815C264.982 744.659 265.371 744.537 265.46 744.67Z" fill="#263238"/>
<path d="M265.193 743.749C265.193 743.916 264.748 744.049 264.17 744.06C263.593 744.071 263.137 743.938 263.148 743.782C263.159 743.627 263.615 743.482 264.17 743.471C264.726 743.46 265.171 743.594 265.193 743.749Z" fill="#263238"/>
<path d="M307.052 744.516V735.015L290.017 734.893L289.873 749.116L290.928 749.194C295.629 749.494 314.852 750.083 317.997 749.105C321.508 748.016 307.052 744.516 307.052 744.516Z" fill="#F7941F"/>
<path d="M318.397 748.238C318.397 748.394 312.03 748.527 304.163 748.527C296.295 748.527 289.939 748.394 289.939 748.238C289.939 748.083 296.306 747.949 304.163 747.949C312.019 747.949 318.397 748.083 318.397 748.238Z" fill="#263238"/>
<path d="M307.351 746.459C307.218 746.382 307.351 745.882 307.696 745.348C308.04 744.815 308.507 744.593 308.618 744.704C308.729 744.815 308.496 745.237 308.163 745.693C307.829 746.148 307.496 746.537 307.351 746.459Z" fill="#263238"/>
<path d="M308.44 747.082C308.296 747.082 308.363 746.46 308.707 745.871C309.051 745.282 309.485 744.927 309.607 745.016C309.729 745.104 309.518 745.604 309.207 746.127C308.896 746.649 308.596 747.138 308.44 747.082Z" fill="#263238"/>
<path d="M295.062 748.172C294.995 748.172 294.751 747.972 294.373 747.55C293.925 747.007 293.427 746.509 292.884 746.061C292.35 745.635 291.715 745.355 291.04 745.25C290.528 745.183 290.184 745.25 290.151 745.183C290.117 745.116 290.439 744.883 291.051 744.839C291.857 744.822 292.644 745.089 293.273 745.594C293.865 746.072 294.363 746.656 294.74 747.317C294.995 747.806 295.129 748.128 295.062 748.172Z" fill="#263238"/>
<path d="M307.407 744.67C307.484 744.804 307.195 745.137 306.707 745.315C306.218 745.493 305.784 745.426 305.762 745.315C305.74 745.204 306.084 744.97 306.507 744.815C306.929 744.659 307.318 744.537 307.407 744.67Z" fill="#263238"/>
<path d="M307.162 743.749C307.162 743.916 306.718 744.049 306.14 744.06C305.562 744.071 305.118 743.938 305.129 743.782C305.14 743.627 305.584 743.482 306.14 743.471C306.696 743.46 307.162 743.594 307.162 743.749Z" fill="#263238"/>
<path d="M369.812 462.381C369.367 461.926 368.267 462.148 368.267 462.148C368.378 461.508 368.378 460.854 368.267 460.214C368.067 459.592 366.667 459.714 366.667 459.714C366.603 459.19 366.603 458.66 366.667 458.136C366.678 458.02 366.653 457.904 366.596 457.802C366.538 457.701 366.451 457.62 366.345 457.57C365.683 457.3 364.971 457.171 364.256 457.192C363.4 456.581 366.867 451.725 368.156 450.169C369.445 448.614 369.212 447.402 368.067 447.402C367.278 447.402 363.234 452.069 361.989 453.636C360.745 455.203 357.444 459.559 357.333 456.081C357.222 452.603 355.822 449.98 354.944 449.536C354.066 449.091 353.133 450.136 353.611 451.103C354.03 452.201 354.292 453.353 354.389 454.525C354.509 455.459 354.468 456.406 354.266 457.325C353.898 459.036 353.396 460.715 352.766 462.348H352.677C352.677 462.348 328.431 485.605 326.675 487.261C325.109 488.75 293.595 485.494 287.272 484.827C285.124 484.513 282.954 484.364 280.783 484.383C278.038 484.505 277.549 484.894 274.816 484.927C267.912 485.004 261.025 485.61 254.214 486.739C251.13 487.263 248.249 488.624 245.886 490.674C243.523 492.724 241.768 495.383 240.813 498.362C234.446 518.252 220.023 565.334 217.478 591.78C215.555 595.267 213.819 598.854 212.278 602.525C210.489 607.392 210.922 607.559 211.522 607.67C213.144 607.97 214.989 599.236 215.678 601.347C216.367 603.459 212.178 611.759 213.878 612.004C216.1 612.315 217.867 603.114 218.078 602.381C218.289 601.648 219.389 601.881 219.189 602.57C218.867 603.548 215.745 613.915 217.923 614.248C219.123 614.426 219.256 612.237 219.256 612.237C219.256 612.237 221.478 602.314 222.49 602.514C223.501 602.714 222.423 608.57 221.912 610.526C221.401 612.482 222.112 613.471 223.156 612.993C223.867 612.659 225.568 606.715 226.034 604.781C226.501 602.848 227.668 597.492 229.234 600.592C230.801 603.692 233.179 605.492 234.157 605.537C234.377 605.511 234.585 605.421 234.753 605.276C234.922 605.132 235.043 604.94 235.102 604.726C235.16 604.512 235.153 604.286 235.082 604.076C235.011 603.866 234.878 603.682 234.702 603.548C233.86 602.726 233.139 601.791 232.557 600.77C232.039 599.974 231.663 599.094 231.446 598.169C230.998 596.326 230.737 594.442 230.668 592.547L230.49 591.436C232.979 579.112 240.146 542.943 250.492 519.841L254.736 528.575L256.581 535.042L245.269 562.967L293.517 562.333L286.317 534.62L295.062 505.729C304.518 505.94 328.798 506.296 332.842 504.462C337.932 502.24 364.256 468.993 364.256 468.993C365.972 467.66 367.615 466.235 369.179 464.726C369.179 464.726 370.779 463.381 369.812 462.381Z" fill="#FFBE9D"/>
<path d="M243.147 542.332C244.547 537.554 251.736 513.93 251.736 513.93C251.736 513.93 255.27 533.187 254.336 535.509C253.478 537.497 252.463 539.414 251.303 541.243C243.147 553.655 244.213 559.866 244.213 559.866L293.495 558.366C293.606 551.477 289.528 535.453 288.683 532.898C287.839 530.342 290.65 521.975 290.65 521.975C290.65 521.975 296.206 516.319 296.006 513.407C295.901 510.792 295.577 508.19 295.04 505.629L325.042 506.74L324.097 486.405L281.005 482.094C279.505 486.327 265.937 484.249 265.937 484.249C251.292 484.738 250.381 487.428 244.291 492.161C238.202 496.895 228.123 537.52 228.123 537.52L243.147 542.332Z" fill="#F7941F"/>
<path d="M272.282 537.521C271.428 537.673 270.558 537.718 269.693 537.654C268.082 537.654 265.871 537.543 263.437 537.298C261.004 537.054 258.804 536.71 257.237 536.398C256.373 536.287 255.526 536.071 254.714 535.754C255.583 535.754 256.45 535.836 257.303 535.998C258.881 536.198 261.07 536.476 263.493 536.721C265.915 536.965 268.115 537.132 269.704 537.243C270.571 537.254 271.434 537.347 272.282 537.521Z" fill="#263238"/>
<path d="M275.661 533.332C274.806 533.751 273.903 534.06 272.972 534.254C268.538 535.419 263.965 535.962 259.382 535.866C258.433 535.896 257.485 535.807 256.559 535.599C257.495 535.481 258.439 535.432 259.382 535.454C261.126 535.399 263.527 535.277 266.171 534.965C268.816 534.654 271.172 534.21 272.838 533.854C273.764 533.607 274.708 533.432 275.661 533.332Z" fill="#263238"/>
<path d="M292.239 514.641C292.217 515.488 292.101 516.33 291.895 517.152C291.606 518.696 291.161 520.808 290.595 523.119C290.028 525.43 289.483 527.564 288.994 529.008C288.798 529.835 288.507 530.637 288.128 531.397C288.19 530.553 288.346 529.718 288.594 528.908C289.017 527.175 289.494 525.175 290.028 522.986C290.561 520.797 291.072 518.796 291.495 517.063C291.645 516.229 291.895 515.415 292.239 514.641Z" fill="#263238"/>
<path d="M243.669 539.499C241.098 539.102 238.561 538.511 236.079 537.732C233.543 537.139 231.055 536.359 228.634 535.398C231.204 535.802 233.74 536.392 236.224 537.165C238.76 537.756 241.249 538.536 243.669 539.499Z" fill="#263238"/>
<path d="M295.573 505.386C295.154 505.458 294.726 505.458 294.307 505.386C293.146 505.267 292.006 504.994 290.917 504.575C289.1 503.892 287.445 502.836 286.059 501.475C284.674 500.115 283.588 498.479 282.872 496.674C282.081 494.688 281.743 492.551 281.883 490.418C281.933 488.659 282.459 486.946 283.406 485.462C284.072 484.463 285.066 483.727 286.217 483.384C286.525 483.299 286.843 483.258 287.162 483.262C287.384 483.262 287.495 483.262 287.495 483.262C287.495 483.262 287.028 483.262 286.284 483.562C285.228 483.952 284.332 484.683 283.739 485.64C282.228 488.018 281.806 492.363 283.417 496.419C284.167 498.331 285.341 500.048 286.85 501.441C288.088 502.581 289.512 503.498 291.062 504.152C292.516 504.727 294.029 505.141 295.573 505.386Z" fill="#263238"/>
<path d="M321.475 506.341C321.197 502.933 321.108 499.513 321.208 496.095C321.121 492.681 321.225 489.264 321.519 485.861C321.798 489.265 321.887 492.682 321.786 496.095C321.88 499.514 321.776 502.934 321.475 506.341Z" fill="#263238"/>
<path d="M280.716 483.339C280.839 480.861 281.094 478.061 281.094 478.061C281.094 478.061 287.228 477.383 287.595 471.049C287.961 464.716 287.595 450.103 287.595 450.103L276.483 444.414L264.148 454.115L266.049 485.784L277.361 486.506C278.225 486.53 279.064 486.21 279.693 485.616C280.322 485.023 280.69 484.204 280.716 483.339Z" fill="#FFBE9D"/>
<path d="M281.816 466.037C281.816 466.037 281.816 466.159 281.716 466.304C281.633 466.409 281.526 466.492 281.404 466.546C281.282 466.6 281.149 466.624 281.016 466.615C280.305 466.615 279.616 465.793 279.371 464.837C279.255 464.374 279.255 463.889 279.371 463.426C279.394 463.224 279.467 463.03 279.583 462.863C279.7 462.697 279.856 462.561 280.038 462.47C280.187 462.408 280.355 462.408 280.505 462.47C280.616 462.525 280.705 462.615 280.76 462.726C280.838 462.915 280.76 463.037 280.76 463.026C280.76 463.015 280.76 462.915 280.649 462.803C280.591 462.724 280.506 462.669 280.409 462.648C280.313 462.628 280.212 462.643 280.127 462.692C279.991 462.775 279.877 462.89 279.798 463.028C279.718 463.166 279.675 463.322 279.671 463.481C279.578 463.895 279.578 464.324 279.671 464.737C279.894 465.604 280.494 466.304 281.027 466.37C281.131 466.385 281.238 466.377 281.339 466.348C281.44 466.32 281.534 466.27 281.616 466.204C281.749 466.115 281.794 466.026 281.816 466.037Z" fill="#EB996E"/>
<path d="M291.406 446.681C290.551 443.769 287.45 442.325 284.628 441.525C280.328 440.302 275.683 439.769 271.482 441.314C267.282 442.858 262.237 445.57 262.237 450.203C259.759 450.003 258.337 452.17 257.359 454.859C256.734 456.497 256.359 458.221 256.248 459.971C255.937 466.038 254.237 474.416 250.303 478.861C248.081 481.339 245.003 483.05 243.736 486.139C242.625 488.817 243.203 491.995 242.169 494.707C241.247 497.096 239.213 498.796 237.724 500.874C236.207 503.231 235.315 505.935 235.13 508.732C234.945 511.53 235.475 514.328 236.669 516.864C237.871 519.335 239.564 521.536 241.645 523.331C243.725 525.127 246.149 526.481 248.77 527.309C253.96 528.888 259.495 528.942 264.715 527.465C268.633 526.528 272.288 524.716 275.405 522.164C278.595 519.56 280.785 515.932 281.605 511.897C282.394 507.363 281.128 502.752 280.183 498.24C277.227 483.984 278.072 483.239 281.805 470.005C281.894 469.771 281.939 469.527 282.005 469.294C282.072 469.06 282.106 468.949 282.15 468.771C282.256 468.248 282.312 467.716 282.317 467.182C281.771 467.385 281.179 467.428 280.611 467.306C280.042 467.184 279.519 466.902 279.105 466.493C278.69 466.058 278.401 465.518 278.268 464.931C278.135 464.344 278.163 463.732 278.35 463.16C278.612 462.534 279.002 461.97 279.496 461.505C279.99 461.04 280.576 460.684 281.217 460.46C282.45 459.948 283.772 459.682 284.983 459.115C287.55 457.893 289.328 455.359 290.539 452.703C291.535 450.863 291.843 448.728 291.406 446.681Z" fill="#263238"/>
<path d="M282.261 466.338C282.495 466.685 282.689 467.058 282.838 467.449C283.172 468.149 283.616 469.138 284.105 470.283L284.194 470.494H283.961L282.849 470.594C282.083 470.594 281.438 470.738 280.683 470.727C280.617 470.712 280.556 470.681 280.505 470.636C280.455 470.592 280.416 470.535 280.394 470.472C280.361 470.37 280.361 470.261 280.394 470.16C280.419 470.011 280.453 469.862 280.494 469.716L280.694 468.927C280.794 468.401 280.951 467.887 281.16 467.394C281.14 467.93 281.062 468.463 280.927 468.983L280.772 469.771C280.716 470.038 280.616 470.449 280.772 470.416C281.327 470.416 282.116 470.294 282.849 470.249L283.961 470.149L283.816 470.394C283.338 469.283 282.938 468.238 282.705 467.516C282.5 467.147 282.351 466.75 282.261 466.338Z" fill="#F7941F"/>
<path d="M244.214 559.867L293.495 558.367L314.941 642.085L310.996 738.114H284.939L288.128 644.129L269.071 585.847L272.005 741.837L245.669 742.226L242.902 595.603C242.78 591.525 241.447 582.336 241.947 578.291L244.214 559.867Z" fill="#263238"/>
<path d="M275.627 587.037C274.82 587.088 274.01 587.039 273.216 586.892C271.727 586.715 269.693 586.403 267.46 585.959C265.226 585.515 263.226 585.003 261.781 584.592C261.009 584.423 260.262 584.154 259.559 583.792C259.559 583.626 263.182 584.492 267.626 585.392C272.071 586.292 275.649 586.87 275.627 587.037Z" fill="#455A64"/>
<path d="M310.731 732.848C310.731 733.003 304.83 733.136 297.552 733.136C290.273 733.136 284.362 733.003 284.362 732.848C284.362 732.692 290.262 732.559 297.552 732.559C304.841 732.559 310.731 732.681 310.731 732.848Z" fill="#455A64"/>
<path d="M271.771 737.781C271.771 737.948 266.037 738.07 258.97 738.07C251.903 738.07 246.18 737.948 246.18 737.781C246.18 737.614 251.914 737.492 258.97 737.492C266.026 737.492 271.771 737.626 271.771 737.781Z" fill="#455A64"/>
<path d="M268.371 737.381C268.215 737.381 267.526 703.301 266.826 661.264C266.126 619.228 265.715 585.125 265.86 585.125C266.004 585.125 266.715 619.194 267.404 661.253C268.093 703.312 268.538 737.381 268.371 737.381Z" fill="#455A64"/>
<path d="M307.23 732.847C307.218 732.695 307.218 732.543 307.23 732.391V731.058C307.23 729.858 307.319 728.136 307.386 725.947C307.541 721.502 307.764 715.046 308.041 707.134C308.641 691.222 309.486 669.287 310.408 645.074C310.408 644.84 310.408 644.618 310.408 644.418V644.496C304.574 621.161 299.296 599.981 295.463 584.658L291.018 566.534C290.507 564.412 290.118 562.756 289.84 561.601C289.707 561.056 289.618 560.634 289.54 560.312C289.497 560.167 289.471 560.018 289.462 559.867C289.52 560.007 289.565 560.152 289.595 560.301C289.684 560.612 289.796 561.034 289.951 561.567C290.251 562.679 290.684 564.368 291.24 566.479C292.351 570.768 293.918 576.946 295.874 584.558C299.741 599.87 305.074 620.994 310.986 644.363V644.44C310.986 644.64 310.986 644.874 310.986 645.096C309.997 669.309 309.097 691.233 308.441 707.145C308.097 715.068 307.808 721.48 307.608 725.947C307.497 728.169 307.408 729.858 307.352 731.058C307.352 731.625 307.286 732.069 307.275 732.391C307.276 732.545 307.261 732.697 307.23 732.847Z" fill="#455A64"/>
<path d="M298.728 642.463C296.857 643.078 294.929 643.506 292.972 643.741C290.572 644.152 288.528 644.441 287.605 644.485V644.263C287.905 644.352 288.061 644.407 288.061 644.452C288.061 644.496 287.872 644.452 287.561 644.452H286.894L287.561 644.252C288.428 643.996 290.472 643.574 292.872 643.141C294.797 642.723 296.759 642.496 298.728 642.463Z" fill="#455A64"/>
<path d="M298.273 645.653C296.54 645.733 294.803 645.654 293.084 645.42C291.348 645.384 289.619 645.195 287.917 644.853C291.39 644.57 294.885 644.84 298.273 645.653Z" fill="#455A64"/>
<path opacity="0.2" d="M244.003 561.634C244.587 562.384 245.322 563.002 246.16 563.448C246.999 563.894 247.922 564.158 248.87 564.223C250.855 564.458 252.862 564.421 254.837 564.112C267.56 562.701 281.039 561.401 293.496 558.367C277.372 559.267 260.338 558.967 244.214 559.867L244.047 561.245" fill="black"/>
<g opacity="0.2">
<path d="M260.615 584.357L269.704 619.627L269.071 585.846L260.615 584.357Z" fill="black"/>
</g>
<g clip-path="url(#clip4_4631_68350)">
<path d="M597 680L601.525 691.475L613 696L601.525 700.525L597 712L592.475 700.525L581 696L592.475 691.475L597 680Z" fill="#FDA758"/>
</g>
<g clip-path="url(#clip5_4631_68350)">
<path d="M112 525C110.667 525 109.556 524.569 108.667 523.708C107.778 522.847 107.333 521.806 107.333 520.583C107.333 519.889 107.472 519.264 107.75 518.708C108.028 518.153 108.514 517.542 109.208 516.875C109.931 516.208 110.5 515.583 110.917 515C111.361 514.389 111.583 513.861 111.583 513.417V511.917C110.972 511.778 110.431 511.5 109.958 511.083C109.514 510.639 109.222 510.111 109.083 509.5H107.583C107.111 509.5 106.556 509.722 105.917 510.167C105.278 510.611 104.667 511.153 104.083 511.792C103.5 512.431 102.917 512.903 102.333 513.208C101.778 513.514 101.139 513.667 100.417 513.667C99.1667 513.667 98.1111 513.222 97.25 512.333C96.4167 511.444 96 510.333 96 509C96 507.667 96.4167 506.556 97.25 505.667C98.1111 504.778 99.1667 504.333 100.417 504.333C101.583 504.333 102.583 504.75 103.417 505.583C104.25 506.417 105 507.125 105.667 507.708C106.333 508.292 106.972 508.583 107.583 508.583H109.083C109.222 507.944 109.514 507.417 109.958 507C110.431 506.556 110.972 506.278 111.583 506.167V504.667C111.583 503.944 111.028 503.028 109.917 501.917L109.042 501.042C107.903 499.903 107.333 498.694 107.333 497.417C107.333 496.167 107.778 495.125 108.667 494.292C109.583 493.431 110.694 493 112 493C113.333 493 114.444 493.431 115.333 494.292C116.222 495.153 116.667 496.194 116.667 497.417C116.667 498.833 115.972 500.167 114.583 501.417C113.194 502.694 112.5 503.778 112.5 504.667V506.167C113.139 506.278 113.667 506.556 114.083 507C114.528 507.417 114.806 507.944 114.917 508.583H116.417C117.361 508.583 118.444 507.875 119.667 506.458C120.917 505.042 122.222 504.333 123.583 504.333C124.833 504.333 125.875 504.792 126.708 505.708C127.569 506.597 128 507.694 128 509C128 510.333 127.569 511.444 126.708 512.333C125.847 513.222 124.806 513.667 123.583 513.667C122.417 513.667 121.431 513.264 120.625 512.458C119.82 511.653 119.069 510.958 118.375 510.375C117.68 509.792 117.028 509.5 116.417 509.5H114.917C114.694 510.833 113.889 511.639 112.5 511.917V513.417C112.5 514.25 113.194 515.32 114.583 516.625C115.972 517.931 116.667 519.25 116.667 520.583C116.667 521.833 116.208 522.875 115.292 523.708C114.403 524.569 113.306 525 112 525Z" fill="#FDA758" fill-opacity="0.49"/>
</g>
<g clip-path="url(#clip6_4631_68350)">
<path d="M206 275L210.525 286.475L222 291L210.525 295.525L206 307L201.475 295.525L190 291L201.475 286.475L206 275Z" fill="#FDA758"/>
</g>
</g>
<defs>
<clipPath id="clip0_4631_68350">
<rect width="710" height="1024" fill="white"/>
</clipPath>
<clipPath id="clip1_4631_68350">
<rect width="88" height="88" fill="white" transform="translate(61.9734 -41) rotate(74.9294)"/>
</clipPath>
<clipPath id="clip2_4631_68350">
<rect width="32" height="32" fill="white" transform="translate(277.001 81)"/>
</clipPath>
<clipPath id="clip3_4631_68350">
<rect width="88" height="88" fill="white" transform="translate(709.973 939) rotate(74.9294)"/>
</clipPath>
<clipPath id="clip4_4631_68350">
<rect width="32" height="32" fill="white" transform="translate(581 680)"/>
</clipPath>
<clipPath id="clip5_4631_68350">
<rect width="32" height="32" fill="white" transform="translate(96 493)"/>
</clipPath>
<clipPath id="clip6_4631_68350">
<rect width="32" height="32" fill="white" transform="translate(190 275)"/>
</clipPath>
</defs>
</svg>
