<svg width="30" height="33" viewBox="0 0 30 33" fill="none" xmlns="http://www.w3.org/2000/svg">
<g clip-path="url(#clip0_4730_72936)">
<path d="M12.781 19.5427L22.5446 3.88993C22.9343 3.26525 23.8592 3.31394 24.1811 3.97607L27.9224 11.6713C28.277 12.4006 28.1218 13.2754 27.538 13.8383L17.1283 23.8735L12.781 19.5427Z" fill="#F7941F"/>
<path fill-rule="evenodd" clip-rule="evenodd" d="M8.41055 30.443L2.75969 16.1521C2.56857 15.6687 2.8077 15.1222 3.29241 14.9346L6.15682 13.8258C6.51153 13.6885 6.91405 13.7794 7.17531 14.0559L16.4869 23.9081C16.5605 23.986 16.5987 24.0909 16.5924 24.1979L9.93902 30.765C9.46134 31.2365 8.65734 31.0671 8.41055 30.443Z" fill="#5D21E6"/>
<path d="M2.75969 16.1521L2.76899 16.1484L2.75969 16.1521ZM8.41055 30.443L8.41984 30.4393L8.41055 30.443ZM3.29241 14.9346L3.29602 14.9439L3.29241 14.9346ZM6.15682 13.8258L6.15321 13.8165L6.15682 13.8258ZM7.17531 14.0559L7.18258 14.049L7.17531 14.0559ZM16.4869 23.9081L16.4942 23.9012L16.4869 23.9081ZM16.5924 24.1979L16.6019 24.2074L16.6024 24.1985L16.5924 24.1979ZM9.93902 30.765L9.94604 30.7722L9.93902 30.765ZM2.75039 16.1558L8.40125 30.4466L8.41984 30.4393L2.76899 16.1484L2.75039 16.1558ZM3.2888 14.9253C2.79891 15.1149 2.55723 15.6673 2.75039 16.1558L2.76899 16.1484C2.57991 15.6702 2.81649 15.1296 3.29602 14.9439L3.2888 14.9253ZM6.15321 13.8165L3.2888 14.9253L3.29602 14.9439L6.16043 13.8351L6.15321 13.8165ZM7.18258 14.049C6.91853 13.7696 6.51171 13.6777 6.15321 13.8165L6.16043 13.8351C6.51135 13.6993 6.90958 13.7893 7.16805 14.0627L7.18258 14.049ZM16.4942 23.9012L7.18258 14.049L7.16805 14.0627L16.4797 23.915L16.4942 23.9012ZM16.6024 24.1985C16.6089 24.0887 16.5697 23.9811 16.4942 23.9012L16.4797 23.915C16.5514 23.9909 16.5886 24.093 16.5824 24.1973L16.6024 24.1985ZM9.94604 30.7722L16.5994 24.205L16.5854 24.1908L9.93199 30.7579L9.94604 30.7722ZM8.40125 30.4466C8.65068 31.0774 9.46327 31.2487 9.94604 30.7722L9.93199 30.7579C9.45942 31.2244 8.66401 31.0568 8.41984 30.4393L8.40125 30.4466Z" fill="#5D21E6"/>
</g>
<defs>
<clipPath id="clip0_4730_72936">
<rect width="32.8184" height="28.2986" fill="white" transform="translate(0.850708 32.8184) rotate(-90)"/>
</clipPath>
</defs>
</svg>
