<svg width="24" height="24" viewBox="0 0 24 24" fill="none" xmlns="http://www.w3.org/2000/svg">
<g clip-path="url(#clip0_4730_72728)">
<path d="M3.24066 6.09822C3.86733 5.66022 4.812 5.74422 5.37466 6.20888L4.72933 5.27088C4.21 4.53022 4.396 3.72888 5.13733 3.20888C5.87866 2.69088 7.97933 4.08355 7.97933 4.08355C7.45533 3.33555 7.55333 2.38755 8.30133 1.86288C8.66095 1.6116 9.10561 1.51336 9.53763 1.58974C9.96964 1.66612 10.3537 1.91087 10.6053 2.27021L17.552 12.0835L16.6667 20.6669L9.278 17.9722L2.83333 8.41688C2.70766 8.23795 2.6185 8.036 2.57096 7.82257C2.52341 7.60915 2.51841 7.38845 2.55625 7.17309C2.59408 6.95774 2.674 6.75195 2.79144 6.56751C2.90888 6.38307 3.06153 6.2236 3.24066 6.09822Z" fill="#EF9645"/>
<path d="M1.79665 11.5574C1.79665 11.5574 1.04199 10.4574 2.14265 9.70339C3.24199 8.94939 3.99599 10.0487 3.99599 10.0487L7.49665 15.1541C7.61732 14.9527 7.74932 14.7541 7.89666 14.5581L3.03799 7.47339C3.03799 7.47339 2.28399 6.37405 3.38399 5.62005C4.48332 4.86605 5.23732 5.96539 5.23732 5.96539L9.80732 12.6301C9.97732 12.4914 10.1513 12.3521 10.3307 12.2154L5.03265 4.48805C5.03265 4.48805 4.27865 3.38872 5.37865 2.63472C6.47799 1.88072 7.23199 2.98005 7.23199 2.98005L12.53 10.7061C12.7247 10.5867 12.9173 10.4834 13.1107 10.3741L8.15865 3.15272C8.15865 3.15272 7.40465 2.05339 8.50399 1.29939C9.60332 0.545387 10.3573 1.64472 10.3573 1.64472L15.5933 9.28072L16.3893 10.4421C13.0907 12.7047 12.7767 16.9614 14.6613 19.7101C15.038 20.2601 15.588 19.8834 15.588 19.8834C13.326 16.5841 14.0167 12.8767 17.316 10.6147L16.3433 5.74672C16.3433 5.74672 15.98 4.46405 17.262 4.10005C18.5447 3.73672 18.9087 5.01939 18.9087 5.01939L20.032 8.35539C20.4773 9.67805 20.9513 10.9961 21.5787 12.2427C23.35 15.7627 22.292 20.1374 18.952 22.4287C15.3087 24.9267 10.328 23.9981 7.82932 20.3554L1.79665 11.5574Z" fill="#FFDC5D"/>
<path d="M8 21.36C5.33333 21.36 2.63866 18.6654 2.63866 15.9987C2.63866 15.63 2.36866 15.332 2 15.332C1.63133 15.332 1.30533 15.63 1.30533 15.9987C1.30533 19.9987 3.99999 22.6934 8 22.6934C8.36866 22.6934 8.66666 22.3674 8.66666 21.9987C8.66666 21.63 8.36866 21.36 8 21.36Z" fill="#5DADEC"/>
<path d="M4.66667 22.6654C2.66667 22.6654 1.33333 21.332 1.33333 19.332C1.33333 19.1552 1.2631 18.9856 1.13807 18.8606C1.01305 18.7356 0.843478 18.6654 0.666667 18.6654C0.489856 18.6654 0.320286 18.7356 0.195262 18.8606C0.0702379 18.9856 0 19.1552 0 19.332C0 21.9987 2 23.9987 4.66667 23.9987C4.84348 23.9987 5.01305 23.9285 5.13807 23.8034C5.26309 23.6784 5.33333 23.5088 5.33333 23.332C5.33333 23.1552 5.26309 22.9856 5.13807 22.8606C5.01305 22.7356 4.84348 22.6654 4.66667 22.6654ZM16 1.33203C15.8232 1.33203 15.6536 1.40227 15.5286 1.52729C15.4036 1.65232 15.3333 1.82189 15.3333 1.9987C15.3333 2.17551 15.4036 2.34508 15.5286 2.4701C15.6536 2.59513 15.8232 2.66536 16 2.66536C18.6667 2.66536 21.3333 5.05803 21.3333 7.9987C21.3333 8.17551 21.4036 8.34508 21.5286 8.4701C21.6536 8.59513 21.8232 8.66536 22 8.66536C22.1768 8.66536 22.3464 8.59513 22.4714 8.4701C22.5964 8.34508 22.6667 8.17551 22.6667 7.9987C22.6667 4.3227 20 1.33203 16 1.33203Z" fill="#5DADEC"/>
<path d="M19.3333 0.0273438C18.9653 0.0273438 18.6667 0.29801 18.6667 0.66601C18.6667 1.03401 18.9653 1.36068 19.3333 1.36068C21.3333 1.36068 22.6387 2.84401 22.6387 4.66601C22.6387 5.03401 22.9647 5.33268 23.3333 5.33268C23.702 5.33268 23.972 5.03401 23.972 4.66601C23.972 2.10801 22 0.0273438 19.3333 0.0273438Z" fill="#5DADEC"/>
</g>
<defs>
<clipPath id="clip0_4730_72728">
<rect width="24" height="24" fill="white"/>
</clipPath>
</defs>
</svg>
